<svg width="1161" height="317" viewBox="0 0 1161 317" fill="none" xmlns="http://www.w3.org/2000/svg">
<circle cx="80.5" cy="279.5" r="35.5" stroke="#062C76" stroke-width="4"/>
<path d="M116 280H376" stroke="#062C76" stroke-width="4"/>
<path d="M578.414 281.414C579.195 280.633 579.195 279.367 578.414 278.586L565.686 265.858C564.905 265.077 563.639 265.077 562.858 265.858C562.077 266.639 562.077 267.905 562.858 268.686L574.172 280L562.858 291.314C562.077 292.095 562.077 293.361 562.858 294.142C563.639 294.923 564.905 294.923 565.686 294.142L578.414 281.414ZM447 282H577V278H447V282Z" fill="#062C76"/>
<circle cx="742.5" cy="279.5" r="35.5" stroke="#525252" stroke-width="4"/>
<path d="M909.414 281.414C910.195 280.633 910.195 279.367 909.414 278.586L896.686 265.858C895.905 265.077 894.639 265.077 893.858 265.858C893.077 266.639 893.077 267.905 893.858 268.686L905.172 280L893.858 291.314C893.077 292.095 893.077 293.361 893.858 294.142C894.639 294.923 895.905 294.923 896.686 294.142L909.414 281.414ZM778 282H908V278H778V282Z" fill="#525252"/>
<circle cx="411.5" cy="279.5" r="35.5" fill="#062C76" stroke="#062C76" stroke-width="4"/>
<path d="M587.414 281.414C588.195 280.633 588.195 279.367 587.414 278.586L574.686 265.858C573.905 265.077 572.639 265.077 571.858 265.858C571.077 266.639 571.077 267.905 571.858 268.686L583.172 280L571.858 291.314C571.077 292.095 571.077 293.361 571.858 294.142C572.639 294.923 573.905 294.923 574.686 294.142L587.414 281.414ZM585 282H586V278H585V282Z" fill="#525252"/>
<path d="M585 280L706 280" stroke="#525252" stroke-width="4"/>
<circle cx="1073.5" cy="279.5" r="35.5" stroke="#525252" stroke-width="4"/>
<path d="M918.414 281.414C919.195 280.633 919.195 279.367 918.414 278.586L905.686 265.858C904.905 265.077 903.639 265.077 902.858 265.858C902.077 266.639 902.077 267.905 902.858 268.686L914.172 280L902.858 291.314C902.077 292.095 902.077 293.361 902.858 294.142C903.639 294.923 904.905 294.923 905.686 294.142L918.414 281.414ZM916 282H917V278H916V282Z" fill="#525252"/>
<path d="M916 280L1037 280" stroke="#525252" stroke-width="4"/>
<path d="M86.6953 296H78.7734V270.781L70.9922 273.055V267.055L85.9688 261.875H86.6953V296Z" fill="#062C76"/>
<path d="M423 296H399.188V290.844L410.156 279.312C412.859 276.234 414.211 273.789 414.211 271.977C414.211 270.508 413.891 269.391 413.25 268.625C412.609 267.859 411.68 267.477 410.461 267.477C409.258 267.477 408.281 267.992 407.531 269.023C406.781 270.039 406.406 271.312 406.406 272.844H398.484C398.484 270.75 399.008 268.82 400.055 267.055C401.102 265.273 402.555 263.883 404.414 262.883C406.273 261.883 408.352 261.383 410.648 261.383C414.336 261.383 417.172 262.234 419.156 263.938C421.156 265.641 422.156 268.086 422.156 271.273C422.156 272.617 421.906 273.93 421.406 275.211C420.906 276.477 420.125 277.812 419.062 279.219C418.016 280.609 416.32 282.477 413.977 284.82L409.57 289.906H423V296Z" fill="#FCFCFC"/>
<path d="M738.406 275.633H742.133C745.086 275.633 746.562 274.188 746.562 271.297C746.562 270.172 746.211 269.258 745.508 268.555C744.805 267.836 743.812 267.477 742.531 267.477C741.484 267.477 740.57 267.781 739.789 268.391C739.023 269 738.641 269.758 738.641 270.664H730.742C730.742 268.867 731.242 267.266 732.242 265.859C733.242 264.453 734.625 263.359 736.391 262.578C738.172 261.781 740.125 261.383 742.25 261.383C746.047 261.383 749.031 262.25 751.203 263.984C753.375 265.719 754.461 268.102 754.461 271.133C754.461 272.602 754.008 273.992 753.102 275.305C752.211 276.602 750.906 277.656 749.188 278.469C751 279.125 752.422 280.125 753.453 281.469C754.484 282.797 755 284.445 755 286.414C755 289.461 753.828 291.898 751.484 293.727C749.141 295.555 746.062 296.469 742.25 296.469C740.016 296.469 737.938 296.047 736.016 295.203C734.109 294.344 732.664 293.164 731.68 291.664C730.695 290.148 730.203 288.43 730.203 286.508H738.148C738.148 287.555 738.57 288.461 739.414 289.227C740.258 289.992 741.297 290.375 742.531 290.375C743.922 290.375 745.031 289.992 745.859 289.227C746.688 288.445 747.102 287.453 747.102 286.25C747.102 284.531 746.672 283.312 745.812 282.594C744.953 281.875 743.766 281.516 742.25 281.516H738.406V275.633Z" fill="#525252"/>
<path d="M1082.05 282.664H1085.52V288.758H1082.05V296H1074.15V288.758H1060.95L1060.48 283.93L1074.15 261.945V261.875H1082.05V282.664ZM1068.01 282.664H1074.15V272.164L1073.66 272.961L1068.01 282.664Z" fill="#525252"/>
<g clip-path="url(#clip0)">
<path d="M133.757 262.692L133.758 262.691C135.318 260.827 135.074 258.052 133.211 256.49L133.21 256.489C131.348 254.929 128.571 255.172 127.009 257.036L128.159 257.999L127.009 257.036L115.939 270.242L110.753 265.895C110.753 265.895 110.753 265.895 110.753 265.895C108.89 264.333 106.113 264.578 104.551 266.441C102.99 268.304 103.234 271.081 105.097 272.643L113.657 279.818L113.657 279.818C115.521 281.379 118.297 281.135 119.859 279.272L133.757 262.692Z" fill="#940103" stroke="#F4F5F4" stroke-width="3"/>
</g>
<path d="M1059.92 182.393H1066.4V190.18C1065.44 190.882 1064.41 191.398 1063.32 191.727C1062.23 192.048 1061.08 192.208 1059.87 192.208C1058.32 192.208 1056.92 191.97 1055.66 191.493C1054.4 191.008 1053.33 190.336 1052.44 189.478C1051.54 188.62 1050.85 187.602 1050.37 186.423C1049.88 185.244 1049.64 183.957 1049.64 182.562C1049.64 181.149 1049.87 179.854 1050.33 178.675C1050.8 177.496 1051.46 176.482 1052.32 175.633C1053.18 174.784 1054.21 174.121 1055.43 173.644C1056.65 173.167 1058.01 172.929 1059.52 172.929C1060.3 172.929 1061.03 172.994 1061.7 173.124C1062.38 173.245 1063 173.419 1063.58 173.644C1064.15 173.861 1064.67 174.121 1065.15 174.424C1065.63 174.727 1066.06 175.061 1066.45 175.425L1065.32 177.167C1065.15 177.444 1064.92 177.613 1064.64 177.674C1064.37 177.735 1064.06 177.665 1063.73 177.466C1063.42 177.275 1063.11 177.106 1062.81 176.959C1062.51 176.803 1062.2 176.669 1061.86 176.556C1061.52 176.443 1061.15 176.357 1060.76 176.296C1060.36 176.235 1059.9 176.205 1059.38 176.205C1058.5 176.205 1057.71 176.357 1057 176.66C1056.29 176.963 1055.68 177.392 1055.18 177.947C1054.68 178.502 1054.3 179.169 1054.03 179.949C1053.77 180.729 1053.63 181.6 1053.63 182.562C1053.63 183.602 1053.78 184.534 1054.07 185.357C1054.37 186.172 1054.78 186.861 1055.32 187.424C1055.86 187.987 1056.5 188.416 1057.25 188.711C1058 189.006 1058.84 189.153 1059.75 189.153C1060.38 189.153 1060.93 189.092 1061.42 188.971C1061.91 188.841 1062.39 188.668 1062.86 188.451V185.279H1060.73C1060.48 185.279 1060.28 185.214 1060.13 185.084C1059.99 184.945 1059.92 184.772 1059.92 184.564V182.393ZM1073.51 176.192V181.041H1079.8V183.992H1073.51V188.945H1081.6V192H1069.59V173.137H1081.6V176.192H1073.51ZM1097.87 176.283H1092.35V192H1088.44V176.283H1082.93V173.137H1097.87V176.283ZM1062.84 201.137L1055.25 220H1051.71L1044.12 201.137H1047.26C1047.6 201.137 1047.87 201.219 1048.08 201.384C1048.3 201.54 1048.46 201.744 1048.56 201.995L1052.65 212.863C1052.8 213.27 1052.95 213.717 1053.1 214.202C1053.26 214.679 1053.4 215.181 1053.53 215.71C1053.64 215.181 1053.76 214.679 1053.89 214.202C1054.03 213.717 1054.18 213.27 1054.34 212.863L1058.39 201.995C1058.48 201.778 1058.63 201.583 1058.85 201.41C1059.07 201.228 1059.35 201.137 1059.68 201.137H1062.84ZM1068.51 220H1064.58V201.137H1068.51V220ZM1082.67 204.751C1082.55 204.95 1082.43 205.098 1082.3 205.193C1082.17 205.28 1082.01 205.323 1081.81 205.323C1081.62 205.323 1081.42 205.258 1081.19 205.128C1080.97 204.989 1080.72 204.842 1080.42 204.686C1080.13 204.53 1079.79 204.387 1079.41 204.257C1079.03 204.118 1078.58 204.049 1078.07 204.049C1077.17 204.049 1076.49 204.253 1076.04 204.66C1075.59 205.059 1075.37 205.583 1075.37 206.233C1075.37 206.649 1075.49 206.996 1075.73 207.273C1075.98 207.542 1076.31 207.776 1076.71 207.975C1077.11 208.174 1077.57 208.352 1078.08 208.508C1078.59 208.664 1079.12 208.837 1079.66 209.028C1080.19 209.21 1080.72 209.427 1081.23 209.678C1081.74 209.929 1082.2 210.246 1082.59 210.627C1083 211.008 1083.33 211.476 1083.57 212.031C1083.82 212.577 1083.95 213.244 1083.95 214.033C1083.95 214.891 1083.79 215.697 1083.49 216.451C1083.2 217.196 1082.77 217.851 1082.2 218.414C1081.64 218.969 1080.94 219.406 1080.11 219.727C1079.29 220.048 1078.35 220.208 1077.3 220.208C1076.71 220.208 1076.11 220.147 1075.51 220.026C1074.92 219.905 1074.35 219.736 1073.79 219.519C1073.25 219.302 1072.73 219.042 1072.25 218.739C1071.76 218.436 1071.34 218.098 1070.97 217.725L1072.12 215.879C1072.21 215.74 1072.34 215.628 1072.49 215.541C1072.65 215.446 1072.81 215.398 1072.99 215.398C1073.22 215.398 1073.47 215.485 1073.73 215.658C1073.99 215.831 1074.29 216.022 1074.63 216.23C1074.96 216.438 1075.35 216.629 1075.8 216.802C1076.25 216.975 1076.78 217.062 1077.41 217.062C1078.32 217.062 1079.02 216.854 1079.51 216.438C1080.02 216.022 1080.27 215.402 1080.27 214.579C1080.27 214.102 1080.14 213.717 1079.89 213.422C1079.65 213.127 1079.33 212.88 1078.93 212.681C1078.53 212.482 1078.07 212.313 1077.56 212.174C1077.05 212.027 1076.53 211.866 1075.99 211.693C1075.45 211.52 1074.93 211.312 1074.42 211.069C1073.91 210.826 1073.45 210.506 1073.05 210.107C1072.65 209.708 1072.33 209.214 1072.08 208.625C1071.83 208.036 1071.71 207.303 1071.71 206.428C1071.71 205.726 1071.85 205.046 1072.13 204.387C1072.41 203.728 1072.81 203.143 1073.35 202.632C1073.89 202.121 1074.55 201.709 1075.33 201.397C1076.12 201.085 1077.02 200.929 1078.03 200.929C1079.17 200.929 1080.22 201.107 1081.18 201.462C1082.15 201.809 1082.97 202.294 1083.63 202.918L1082.67 204.751ZM1096.33 212.837L1094.29 207.065C1094.16 206.762 1094.03 206.406 1093.9 205.999C1093.77 205.592 1093.64 205.15 1093.52 204.673C1093.4 205.158 1093.27 205.609 1093.13 206.025C1093 206.432 1092.87 206.788 1092.75 207.091L1090.72 212.837H1096.33ZM1102.88 220H1099.85C1099.51 220 1099.23 219.922 1099.02 219.766C1098.81 219.601 1098.65 219.393 1098.55 219.142L1097.28 215.541H1089.76L1088.49 219.142C1088.4 219.359 1088.25 219.558 1088.03 219.74C1087.82 219.913 1087.54 220 1087.21 220H1084.16L1091.53 201.137H1095.52L1102.88 220Z" fill="#525252"/>
<g clip-path="url(#clip1)" filter="url(#filter0_d)">
<path d="M1090.39 3L1141.54 21.182L1105.42 124.194L1054.27 106.012L1090.39 3Z" fill="#F5E7BA"/>
<path d="M1083 24.0696L1084.64 19.3865L1086.96 20.2133L1085.32 24.8952L1083 24.0696Z" fill="#D3C7A1"/>
<path d="M1127.59 39.9228L1123.37 38.4208L1125.01 33.7389L1129.24 35.2409L1127.59 39.9228ZM1119.14 36.9187L1114.91 35.4143L1116.55 30.7312L1120.77 32.2356L1119.14 36.9187ZM1110.69 33.9122L1106.46 32.4102L1108.1 27.7271L1112.33 29.217L1110.69 33.9122ZM1102.23 30.9082L1098.01 29.4037L1099.65 24.7231L1103.88 26.2251L1102.23 30.9082ZM1093.78 27.9017L1089.55 26.4118L1091.19 21.7287L1095.42 23.2332L1093.78 27.9017Z" fill="#D3C7A1"/>
<path d="M1131.82 41.4224L1133.47 36.7405L1135.79 37.5673L1134.15 42.2492L1131.82 41.4224Z" fill="#D3C7A1"/>
<path d="M1095.71 99.6779L1088.05 91.6913L1077.11 93.0673L1079.57 86.0432L1085.87 83.0137L1098.18 47.8948L1104.47 44.8665L1107.48 51.202L1095.17 86.3184L1098.17 92.6551L1095.71 99.6779Z" fill="#CDCDCD"/>
<path d="M1110.07 81.0874L1100.09 72.274L1104.2 60.5669L1112.54 74.0633L1110.07 81.0874Z" fill="#E06661"/>
<path d="M1077.53 69.5173L1090.79 68.9669L1094.9 57.2598L1079.99 62.4932L1077.53 69.5173Z" fill="#E06661"/>
<path d="M1063.96 74.9993C1063.96 87.3404 1054.03 97.3443 1041.77 97.3443C1029.52 97.3443 1019.58 87.3404 1019.58 74.9993C1019.58 62.6593 1029.52 52.6543 1041.77 52.6543C1054.03 52.6543 1063.96 62.6593 1063.96 74.9993Z" fill="#C0F5F9"/>
<path d="M1003.46 37.7576H1077.43C1080.15 37.7576 1082.36 39.981 1082.36 42.7232V142.034C1082.36 144.776 1080.15 147 1077.43 147H1008.4C1005.67 147 1003.46 144.776 1003.46 142.034V37.7576Z" fill="#85BC94"/>
<path d="M1041.78 50.1715C1028.16 50.1715 1017.12 61.287 1017.12 74.9993C1017.12 88.7115 1028.16 99.827 1041.78 99.827C1055.39 99.827 1066.43 88.7115 1066.43 74.9993C1066.42 61.2943 1055.39 50.1873 1041.78 50.1715ZM1022.05 74.9993C1022.06 73.9846 1022.14 72.9711 1022.3 71.9685L1028.4 70.6023C1029.33 70.3938 1030.27 70.2204 1031.22 70.0567C1030.98 73.3469 1030.98 76.6516 1031.22 79.943C1030.27 79.7793 1029.33 79.6048 1028.4 79.3962L1022.3 78.0312C1022.14 77.0286 1022.06 76.0152 1022.05 74.9993ZM1036.22 69.4057C1039.91 69.0736 1043.63 69.0736 1047.33 69.4057C1047.66 73.1275 1047.66 76.871 1047.33 80.5928C1043.63 80.9262 1039.91 80.9262 1036.22 80.5928C1035.89 76.871 1035.89 73.1275 1036.22 69.4057ZM1052.33 70.0567C1053.27 70.2204 1054.21 70.3938 1055.15 70.6023L1061.24 71.9685C1061.59 73.9749 1061.59 76.0249 1061.24 78.0312L1055.15 79.3962C1054.21 79.6048 1053.27 79.7793 1052.33 79.9454C1052.56 76.6528 1052.56 73.3481 1052.33 70.0567ZM1059.58 66.5108L1056.22 65.7664C1054.74 65.4379 1053.26 65.1773 1051.76 64.9518C1051.54 63.4473 1051.27 61.9501 1050.95 60.4675L1050.21 57.0816C1054.32 59.0491 1057.62 62.3781 1059.58 66.5108ZM1044.79 55.3929L1046.14 61.5355C1046.35 62.4763 1046.52 63.4243 1046.69 64.3759C1043.42 64.1347 1040.14 64.1347 1036.87 64.3759C1037.03 63.4243 1037.2 62.4763 1037.41 61.5355L1038.77 55.3929C1040.76 55.0522 1042.8 55.0522 1044.79 55.3929ZM1033.35 57.0719L1032.61 60.4578C1032.28 61.9477 1032.02 63.4376 1031.8 64.9421C1030.3 65.1676 1028.82 65.4379 1027.35 65.7567L1023.98 66.5011C1025.94 62.3696 1029.24 59.0406 1033.34 57.0719H1033.35ZM1023.98 83.4877L1027.34 84.2333C1028.82 84.5606 1030.3 84.8213 1031.79 85.0467C1032.02 86.5524 1032.29 88.0496 1032.6 89.531L1033.34 92.9182C1029.24 90.9506 1025.93 87.6204 1023.97 83.4877H1023.98ZM1038.77 94.6057L1037.42 88.4642C1037.2 87.5247 1037.03 86.5742 1036.87 85.6262C1038.5 85.745 1040.14 85.8275 1041.78 85.8275C1043.42 85.8275 1045.05 85.745 1046.69 85.6262C1046.53 86.5742 1046.35 87.5247 1046.15 88.4642L1044.79 94.6057C1042.8 94.9475 1040.76 94.9475 1038.77 94.6057ZM1050.21 92.9279L1050.95 89.5407C1051.28 88.052 1051.53 86.5621 1051.76 85.0577C1053.25 84.831 1054.74 84.5606 1056.21 84.243L1059.58 83.4986C1057.62 87.6314 1054.31 90.9603 1050.21 92.9279H1050.21Z" fill="#FECE2F"/>
<path d="M1022.05 119.689H1061.5V124.655H1022.05V119.689Z" fill="#55785F"/>
<path d="M1026.98 129.62H1056.57V134.586H1026.98V129.62Z" fill="#55785F"/>
<path d="M1039.31 109.758H1044.24V114.724H1039.31V109.758Z" fill="#55785F"/>
<path d="M1029.45 109.758H1034.38V114.724H1029.45V109.758Z" fill="#55785F"/>
<path d="M1049.17 109.758H1054.1V114.724H1049.17V109.758Z" fill="#55785F"/>
<path d="M1068.89 37.7576V26.8337C1068.9 25.2928 1068.19 23.8405 1066.97 22.8998C1065.76 21.9602 1064.19 21.639 1062.71 22.0318L1003.46 37.7576H1068.89Z" fill="#6B9777"/>
</g>
<path d="M629.862 182.393H636.336V190.18C635.374 190.882 634.347 191.398 633.255 191.727C632.172 192.048 631.023 192.208 629.81 192.208C628.259 192.208 626.855 191.97 625.598 191.493C624.341 191.008 623.267 190.336 622.374 189.478C621.481 188.62 620.792 187.602 620.307 186.423C619.822 185.244 619.579 183.957 619.579 182.562C619.579 181.149 619.809 179.854 620.268 178.675C620.736 177.496 621.399 176.482 622.257 175.633C623.115 174.784 624.151 174.121 625.364 173.644C626.586 173.167 627.951 172.929 629.459 172.929C630.239 172.929 630.967 172.994 631.643 173.124C632.319 173.245 632.943 173.419 633.515 173.644C634.087 173.861 634.611 174.121 635.088 174.424C635.565 174.727 635.998 175.061 636.388 175.425L635.257 177.167C635.084 177.444 634.858 177.613 634.581 177.674C634.304 177.735 634 177.665 633.671 177.466C633.359 177.275 633.051 177.106 632.748 176.959C632.453 176.803 632.137 176.669 631.799 176.556C631.461 176.443 631.093 176.357 630.694 176.296C630.295 176.235 629.836 176.205 629.316 176.205C628.441 176.205 627.648 176.357 626.937 176.66C626.226 176.963 625.62 177.392 625.117 177.947C624.623 178.502 624.242 179.169 623.973 179.949C623.704 180.729 623.57 181.6 623.57 182.562C623.57 183.602 623.717 184.534 624.012 185.357C624.307 186.172 624.723 186.861 625.26 187.424C625.797 187.987 626.439 188.416 627.184 188.711C627.938 189.006 628.774 189.153 629.693 189.153C630.317 189.153 630.872 189.092 631.357 188.971C631.851 188.841 632.332 188.668 632.8 188.451V185.279H630.668C630.417 185.279 630.217 185.214 630.07 185.084C629.931 184.945 629.862 184.772 629.862 184.564V182.393ZM643.45 176.192V181.041H649.742V183.992H643.45V188.945H651.536V192H639.524V173.137H651.536V176.192H643.45ZM667.805 176.283H662.293V192H658.38V176.283H652.868V173.137H667.805V176.283ZM684.597 184.837L682.556 179.065C682.435 178.762 682.305 178.406 682.166 177.999C682.036 177.592 681.91 177.15 681.789 176.673C681.668 177.158 681.538 177.609 681.399 178.025C681.269 178.432 681.143 178.788 681.022 179.091L678.994 184.837H684.597ZM691.149 192H688.12C687.782 192 687.505 191.922 687.288 191.766C687.08 191.601 686.924 191.393 686.82 191.142L685.546 187.541H678.032L676.758 191.142C676.671 191.359 676.52 191.558 676.303 191.74C676.086 191.913 675.813 192 675.484 192H672.429L679.8 173.137H683.791L691.149 192ZM709.054 173.137V192H707.039C706.736 192 706.48 191.952 706.272 191.857C706.064 191.753 705.86 191.58 705.661 191.337L696.262 179.377C696.288 179.68 696.305 179.979 696.314 180.274C696.331 180.569 696.34 180.842 696.34 181.093V192H692.895V173.137H694.949C695.114 173.137 695.252 173.146 695.365 173.163C695.486 173.172 695.595 173.202 695.69 173.254C695.785 173.297 695.876 173.358 695.963 173.436C696.05 173.514 696.145 173.618 696.249 173.748L705.713 185.76C705.678 185.431 705.652 185.114 705.635 184.811C705.618 184.499 705.609 184.204 705.609 183.927V173.137H709.054ZM723.1 192H719.174V173.137H723.1V192ZM743.204 173.137V192H741.189C740.886 192 740.63 191.952 740.422 191.857C740.214 191.753 740.011 191.58 739.811 191.337L730.412 179.377C730.438 179.68 730.456 179.979 730.464 180.274C730.482 180.569 730.49 180.842 730.49 181.093V192H727.045V173.137H729.099C729.264 173.137 729.403 173.146 729.515 173.163C729.637 173.172 729.745 173.202 729.84 173.254C729.936 173.297 730.027 173.358 730.113 173.436C730.2 173.514 730.295 173.618 730.399 173.748L739.863 185.76C739.829 185.431 739.803 185.114 739.785 184.811C739.768 184.499 739.759 184.204 739.759 183.927V173.137H743.204ZM763.665 173.137L756.073 192H752.537L744.945 173.137H748.091C748.429 173.137 748.702 173.219 748.91 173.384C749.126 173.54 749.287 173.744 749.391 173.995L753.473 184.863C753.629 185.27 753.78 185.717 753.928 186.202C754.084 186.679 754.227 187.181 754.357 187.71C754.469 187.181 754.591 186.679 754.721 186.202C754.859 185.717 755.007 185.27 755.163 184.863L759.219 173.995C759.305 173.778 759.457 173.583 759.674 173.41C759.899 173.228 760.176 173.137 760.506 173.137H763.665ZM769.337 192H765.411V173.137H769.337V192ZM786.633 176.283H781.121V192H777.208V176.283H771.696V173.137H786.633V176.283ZM797.078 184.837L795.037 179.065C794.915 178.762 794.785 178.406 794.647 177.999C794.517 177.592 794.391 177.15 794.27 176.673C794.148 177.158 794.018 177.609 793.88 178.025C793.75 178.432 793.624 178.788 793.503 179.091L791.475 184.837H797.078ZM803.63 192H800.601C800.263 192 799.985 191.922 799.769 191.766C799.561 191.601 799.405 191.393 799.301 191.142L798.027 187.541H790.513L789.239 191.142C789.152 191.359 789 191.558 788.784 191.74C788.567 191.913 788.294 192 787.965 192H784.91L792.281 173.137H796.272L803.63 192ZM816.873 176.283H811.361V192H807.448V176.283H801.936V173.137H816.873V176.283ZM823.139 192H819.213V173.137H823.139V192ZM845.31 182.562C845.31 183.94 845.076 185.218 844.608 186.397C844.149 187.576 843.495 188.594 842.645 189.452C841.805 190.31 840.791 190.986 839.603 191.48C838.416 191.965 837.099 192.208 835.651 192.208C834.204 192.208 832.887 191.965 831.699 191.48C830.512 190.986 829.494 190.31 828.644 189.452C827.795 188.594 827.136 187.576 826.668 186.397C826.209 185.218 825.979 183.94 825.979 182.562C825.979 181.184 826.209 179.91 826.668 178.74C827.136 177.561 827.795 176.543 828.644 175.685C829.494 174.827 830.512 174.155 831.699 173.67C832.887 173.176 834.204 172.929 835.651 172.929C837.099 172.929 838.416 173.176 839.603 173.67C840.791 174.155 841.805 174.831 842.645 175.698C843.495 176.556 844.149 177.574 844.608 178.753C845.076 179.923 845.31 181.193 845.31 182.562ZM841.319 182.562C841.319 181.574 841.189 180.69 840.929 179.91C840.669 179.121 840.292 178.454 839.798 177.908C839.313 177.353 838.719 176.933 838.017 176.647C837.324 176.352 836.535 176.205 835.651 176.205C834.767 176.205 833.974 176.352 833.272 176.647C832.57 176.933 831.972 177.353 831.478 177.908C830.993 178.454 830.62 179.121 830.36 179.91C830.1 180.69 829.97 181.574 829.97 182.562C829.97 183.559 830.1 184.451 830.36 185.24C830.62 186.02 830.993 186.683 831.478 187.229C831.972 187.775 832.57 188.195 833.272 188.49C833.974 188.776 834.767 188.919 835.651 188.919C836.535 188.919 837.324 188.776 838.017 188.49C838.719 188.195 839.313 187.775 839.798 187.229C840.292 186.683 840.669 186.02 840.929 185.24C841.189 184.451 841.319 183.559 841.319 182.562ZM864.318 173.137V192H862.303C861.999 192 861.744 191.952 861.536 191.857C861.328 191.753 861.124 191.58 860.925 191.337L851.526 179.377C851.552 179.68 851.569 179.979 851.578 180.274C851.595 180.569 851.604 180.842 851.604 181.093V192H848.159V173.137H850.213C850.377 173.137 850.516 173.146 850.629 173.163C850.75 173.172 850.858 173.202 850.954 173.254C851.049 173.297 851.14 173.358 851.227 173.436C851.313 173.514 851.409 173.618 851.513 173.748L860.977 185.76C860.942 185.431 860.916 185.114 860.899 184.811C860.881 184.499 860.873 184.204 860.873 183.927V173.137H864.318ZM709.814 216.828V220H698.621V201.137H702.521V216.828H709.814ZM716.131 204.192V209.041H722.423V211.992H716.131V216.945H724.217V220H712.205V201.137H724.217V204.192H716.131ZM740.485 204.283H734.973V220H731.06V204.283H725.548V201.137H740.485V204.283ZM756.177 204.283H750.665V220H746.752V204.283H741.24V201.137H756.177V204.283ZM762.443 204.192V209.041H768.735V211.992H762.443V216.945H770.529V220H758.517V201.137H770.529V204.192H762.443ZM779.349 210.068C779.981 210.068 780.527 209.99 780.987 209.834C781.446 209.669 781.823 209.448 782.118 209.171C782.412 208.885 782.629 208.551 782.768 208.17C782.906 207.789 782.976 207.373 782.976 206.922C782.976 206.029 782.677 205.336 782.079 204.842C781.489 204.348 780.588 204.101 779.375 204.101H777.347V210.068H779.349ZM788.488 220H784.965C784.306 220 783.829 219.749 783.535 219.246L779.947 213.461C779.799 213.236 779.635 213.071 779.453 212.967C779.279 212.863 779.019 212.811 778.673 212.811H777.347V220H773.447V201.137H779.375C780.692 201.137 781.819 201.276 782.755 201.553C783.691 201.822 784.458 202.199 785.056 202.684C785.654 203.169 786.091 203.75 786.369 204.426C786.646 205.093 786.785 205.83 786.785 206.636C786.785 207.26 786.694 207.854 786.512 208.417C786.338 208.972 786.083 209.479 785.745 209.938C785.407 210.397 784.991 210.805 784.497 211.16C784.003 211.515 783.439 211.801 782.807 212.018C783.058 212.157 783.292 212.326 783.509 212.525C783.725 212.716 783.92 212.945 784.094 213.214L788.488 220Z" fill="#525252"/>
<g clip-path="url(#clip2)" filter="url(#filter1_d)">
<path d="M687.258 63.3869V142.355C687.258 143.637 687.778 144.799 688.619 145.639H797.381C798.222 144.799 798.742 143.637 798.742 142.355V63.3869H687.258Z" fill="#FFE07D"/>
<path d="M751.212 15.8568C746.676 11.3216 739.324 11.3216 734.789 15.8568L687.258 63.3872L734.788 110.918C739.323 115.453 746.676 115.453 751.211 110.918L798.742 63.3872L751.212 15.8568Z" fill="#FFC250"/>
<path d="M784.806 3H703.516C702.233 3 701.193 4.03978 701.193 5.32256V75L734.788 110.918C739.324 115.453 746.676 115.453 751.211 110.918L787.129 68.4308V5.32256C787.129 4.03978 786.089 3 784.806 3V3Z" fill="#ECEAEC"/>
<path d="M754.932 96.6205L754.93 96.6186C752.115 93.8032 748.461 91.8415 744.495 91.4897C739.602 91.0554 734.925 92.7643 731.504 96.1852L731.068 96.6208C729.962 97.7272 728.167 97.7272 727.061 96.6208L705.557 75.1167C704.25 73.81 703.516 72.0379 703.516 70.1898V3H701.194C699.911 3 698.871 4.03978 698.871 5.32256V75L734.789 110.918C739.324 115.453 746.677 115.453 751.212 110.918L787.129 75V68.4308L758.939 96.6205C757.833 97.7272 756.039 97.7272 754.932 96.6205Z" fill="#DAD8DB"/>
<path d="M751.211 99.4696C746.676 94.9344 739.323 94.9344 734.788 99.4696L688.618 145.639C689.459 146.48 690.62 147 691.903 147H794.096C795.379 147 796.54 146.48 797.381 145.639L751.211 99.4696Z" fill="#FFD064"/>
</g>
<path d="M383.434 184.837L381.393 179.065C381.272 178.762 381.142 178.406 381.003 177.999C380.873 177.592 380.747 177.15 380.626 176.673C380.505 177.158 380.375 177.609 380.236 178.025C380.106 178.432 379.98 178.788 379.859 179.091L377.831 184.837H383.434ZM389.986 192H386.957C386.619 192 386.342 191.922 386.125 191.766C385.917 191.601 385.761 191.393 385.657 191.142L384.383 187.541H376.869L375.595 191.142C375.508 191.359 375.357 191.558 375.14 191.74C374.923 191.913 374.65 192 374.321 192H371.266L378.637 173.137H382.628L389.986 192ZM398.102 182.523C399.324 182.523 400.217 182.228 400.78 181.639C401.352 181.05 401.638 180.244 401.638 179.221C401.638 178.753 401.564 178.328 401.417 177.947C401.278 177.557 401.062 177.228 400.767 176.959C400.481 176.682 400.117 176.469 399.675 176.322C399.233 176.175 398.709 176.101 398.102 176.101H395.632V182.523H398.102ZM398.102 173.137C399.393 173.137 400.507 173.289 401.443 173.592C402.388 173.895 403.163 174.32 403.77 174.866C404.377 175.403 404.823 176.045 405.109 176.79C405.404 177.535 405.551 178.346 405.551 179.221C405.551 180.148 405.399 180.998 405.096 181.769C404.793 182.54 404.333 183.203 403.718 183.758C403.103 184.313 402.327 184.746 401.391 185.058C400.455 185.361 399.359 185.513 398.102 185.513H395.632V192H391.732V173.137H398.102ZM414.403 182.523C415.625 182.523 416.517 182.228 417.081 181.639C417.653 181.05 417.939 180.244 417.939 179.221C417.939 178.753 417.865 178.328 417.718 177.947C417.579 177.557 417.362 177.228 417.068 176.959C416.782 176.682 416.418 176.469 415.976 176.322C415.534 176.175 415.009 176.101 414.403 176.101H411.933V182.523H414.403ZM414.403 173.137C415.694 173.137 416.808 173.289 417.744 173.592C418.688 173.895 419.464 174.32 420.071 174.866C420.677 175.403 421.124 176.045 421.41 176.79C421.704 177.535 421.852 178.346 421.852 179.221C421.852 180.148 421.7 180.998 421.397 181.769C421.093 182.54 420.634 183.203 420.019 183.758C419.403 184.313 418.628 184.746 417.692 185.058C416.756 185.361 415.659 185.513 414.403 185.513H411.933V192H408.033V173.137H414.403ZM435.526 188.828V192H424.333V173.137H428.233V188.828H435.526ZM443.957 184.746V192H440.057V184.746L433.206 173.137H436.638C436.976 173.137 437.245 173.219 437.444 173.384C437.652 173.54 437.817 173.744 437.938 173.995L441.032 179.936C441.24 180.335 441.426 180.707 441.591 181.054C441.764 181.401 441.916 181.747 442.046 182.094C442.167 181.747 442.306 181.401 442.462 181.054C442.627 180.699 442.809 180.326 443.008 179.936L446.076 173.995C446.18 173.787 446.336 173.592 446.544 173.41C446.752 173.228 447.021 173.137 447.35 173.137H450.808L443.957 184.746ZM381.863 210.562C381.863 211.94 381.629 213.218 381.161 214.397C380.702 215.576 380.047 216.594 379.198 217.452C378.357 218.31 377.343 218.986 376.156 219.48C374.969 219.965 373.651 220.208 372.204 220.208C370.757 220.208 369.439 219.965 368.252 219.48C367.065 218.986 366.046 218.31 365.197 217.452C364.348 216.594 363.689 215.576 363.221 214.397C362.762 213.218 362.532 211.94 362.532 210.562C362.532 209.184 362.762 207.91 363.221 206.74C363.689 205.561 364.348 204.543 365.197 203.685C366.046 202.827 367.065 202.155 368.252 201.67C369.439 201.176 370.757 200.929 372.204 200.929C373.651 200.929 374.969 201.176 376.156 201.67C377.343 202.155 378.357 202.831 379.198 203.698C380.047 204.556 380.702 205.574 381.161 206.753C381.629 207.923 381.863 209.193 381.863 210.562ZM377.872 210.562C377.872 209.574 377.742 208.69 377.482 207.91C377.222 207.121 376.845 206.454 376.351 205.908C375.866 205.353 375.272 204.933 374.57 204.647C373.877 204.352 373.088 204.205 372.204 204.205C371.32 204.205 370.527 204.352 369.825 204.647C369.123 204.933 368.525 205.353 368.031 205.908C367.546 206.454 367.173 207.121 366.913 207.91C366.653 208.69 366.523 209.574 366.523 210.562C366.523 211.559 366.653 212.451 366.913 213.24C367.173 214.02 367.546 214.683 368.031 215.229C368.525 215.775 369.123 216.195 369.825 216.49C370.527 216.776 371.32 216.919 372.204 216.919C373.088 216.919 373.877 216.776 374.57 216.49C375.272 216.195 375.866 215.775 376.351 215.229C376.845 214.683 377.222 214.02 377.482 213.24C377.742 212.451 377.872 211.559 377.872 210.562ZM400.87 201.137V220H398.855C398.552 220 398.296 219.952 398.088 219.857C397.88 219.753 397.677 219.58 397.477 219.337L388.078 207.377C388.104 207.68 388.122 207.979 388.13 208.274C388.148 208.569 388.156 208.842 388.156 209.093V220H384.711V201.137H386.765C386.93 201.137 387.069 201.146 387.181 201.163C387.303 201.172 387.411 201.202 387.506 201.254C387.602 201.297 387.693 201.358 387.779 201.436C387.866 201.514 387.961 201.618 388.065 201.748L397.529 213.76C397.495 213.431 397.469 213.114 397.451 212.811C397.434 212.499 397.425 212.204 397.425 211.927V201.137H400.87ZM416.014 216.828V220H404.821V201.137H408.721V216.828H416.014ZM422.331 220H418.405V201.137H422.331V220ZM442.435 201.137V220H440.42C440.116 220 439.861 219.952 439.653 219.857C439.445 219.753 439.241 219.58 439.042 219.337L429.643 207.377C429.669 207.68 429.686 207.979 429.695 208.274C429.712 208.569 429.721 208.842 429.721 209.093V220H426.276V201.137H428.33C428.494 201.137 428.633 201.146 428.746 201.163C428.867 201.172 428.975 201.202 429.071 201.254C429.166 201.297 429.257 201.358 429.344 201.436C429.43 201.514 429.526 201.618 429.63 201.748L439.094 213.76C439.059 213.431 439.033 213.114 439.016 212.811C438.998 212.499 438.99 212.204 438.99 211.927V201.137H442.435ZM450.311 204.192V209.041H456.603V211.992H450.311V216.945H458.397V220H446.385V201.137H458.397V204.192H450.311Z" fill="#062C76"/>
<g filter="url(#filter2_d)">
<path d="M355.814 36.2308H468.187C470.778 36.2308 473.264 37.3483 475.096 39.3375C476.929 41.3267 477.958 44.0246 477.958 46.8378V115.783H346.042V46.8378C346.042 44.0246 347.071 41.3267 348.904 39.3375C350.737 37.3483 353.222 36.2308 355.814 36.2308Z" fill="#353744"/>
<path d="M355.87 36.2308H459.067C461.674 36.2308 464.173 37.3483 466.017 39.3375C467.86 41.3267 468.895 44.0246 468.895 46.8378V115.783H346.042V46.8378C346.042 44.0246 347.077 41.3267 348.921 39.3375C350.764 37.3483 353.264 36.2308 355.87 36.2308Z" fill="#55525B"/>
<path d="M468.186 127.867H355.813C353.222 127.867 350.736 126.849 348.904 125.036C347.071 123.223 346.042 120.764 346.042 118.2V115.783H477.958V118.2C477.958 120.764 476.929 123.223 475.096 125.036C473.263 126.849 470.778 127.867 468.186 127.867Z" fill="#A5C3DC"/>
<path d="M346.042 115.783H468.895V118.2C468.895 120.764 467.86 123.223 466.017 125.036C464.173 126.849 461.674 127.867 459.067 127.867H355.87C353.264 127.867 350.764 126.849 348.921 125.036C347.077 123.223 346.042 120.764 346.042 118.2V115.783Z" fill="#D7E6E6"/>
<path d="M397.398 127.867H419.552V139.951H397.398V127.867Z" fill="#AAC3D7"/>
<path d="M397.398 134.916H412.503V139.951H397.398V134.916Z" fill="#D7E6E6"/>
<path d="M388.134 139.951H426.803C428.085 139.951 429.314 140.446 430.221 141.327C431.127 142.209 431.636 143.404 431.636 144.65V147H383.301V144.65C383.301 143.404 383.81 142.209 384.717 141.327C385.623 140.446 386.852 139.951 388.134 139.951Z" fill="#D7E6E6"/>
<path d="M422.237 139.951H426.937C428.183 139.951 429.378 140.446 430.26 141.327C431.141 142.209 431.636 143.404 431.636 144.65V147H417.538V144.65C417.538 143.404 418.033 142.209 418.914 141.327C419.796 140.446 420.991 139.951 422.237 139.951Z" fill="#AAC3D7"/>
<path d="M453.79 115.783H361.146V13.4915C361.146 10.709 362.174 8.04041 364.003 6.07288C365.832 4.10535 368.312 3 370.898 3H429.41L453.79 26.6058V115.783Z" fill="#6EA5D7"/>
<path d="M434.154 78.5245C440.549 78.5245 445.734 72.6635 445.734 65.4336C445.734 58.2037 440.549 52.3427 434.154 52.3427C427.758 52.3427 422.573 58.2037 422.573 65.4336C422.573 72.6635 427.758 78.5245 434.154 78.5245Z" fill="#6478B9"/>
<path d="M434.154 101.685C440.549 101.685 445.734 96.5006 445.734 90.1049C445.734 83.7092 440.549 78.5245 434.154 78.5245C427.758 78.5245 422.573 83.7092 422.573 90.1049C422.573 96.5006 427.758 101.685 434.154 101.685Z" fill="#6478B9"/>
<path d="M434.154 67.4476C433.823 67.448 433.496 67.3874 433.19 67.2693C432.885 67.1512 432.607 66.9779 432.374 66.7594L427.339 62.0601C426.867 61.6195 426.602 61.0218 426.602 60.3987C426.602 59.7755 426.867 59.1778 427.339 58.7372C427.811 58.2965 428.451 58.0489 429.119 58.0489C429.787 58.0489 430.427 58.2965 430.899 58.7372L434.154 61.7752L442.444 54.0379C442.916 53.5972 443.556 53.3497 444.224 53.3497C444.892 53.3497 445.532 53.5972 446.004 54.0379C446.476 54.4785 446.741 55.0762 446.741 55.6994C446.741 56.3225 446.476 56.9202 446.004 57.3609L435.934 66.7594C435.701 66.9779 435.423 67.1512 435.118 67.2693C434.812 67.3874 434.485 67.448 434.154 67.4476Z" fill="#D7E6F0"/>
<path d="M413.575 60.6H375.239C373.212 60.6 371.568 62.3583 371.568 64.5273C371.568 66.6963 373.212 68.4546 375.239 68.4546H413.575C415.602 68.4546 417.245 66.6963 417.245 64.5273C417.245 62.3583 415.602 60.6 413.575 60.6Z" fill="#6478B9"/>
<path d="M420.916 16.0909H408.681C406.654 16.0909 405.011 17.8492 405.011 20.0182C405.011 22.1871 406.654 23.9454 408.681 23.9454H420.916C422.943 23.9454 424.587 22.1871 424.587 20.0182C424.587 17.8492 422.943 16.0909 420.916 16.0909Z" fill="#6478B9"/>
<path d="M430.704 31.8H408.681C406.654 31.8 405.011 33.5583 405.011 35.7273C405.011 37.8962 406.654 39.6545 408.681 39.6545H430.704C432.731 39.6545 434.374 37.8962 434.374 35.7273C434.374 33.5583 432.731 31.8 430.704 31.8Z" fill="#6478B9"/>
<path d="M429.479 3V16.0909C429.479 18.8684 430.511 21.5322 432.346 23.4962C434.182 25.4603 436.671 26.5636 439.267 26.5636H453.949L429.479 3Z" fill="#6478B9"/>
<path d="M463.986 129.881H429.623V98.6643H468.896V124.678C468.896 126.058 468.378 127.382 467.458 128.357C466.537 129.333 465.288 129.881 463.986 129.881Z" fill="#F0915A"/>
<path d="M468.896 98.6643H458.826V94.1328C458.826 92.931 459.356 91.7784 460.3 90.9286C461.245 90.0788 462.525 89.6014 463.861 89.6014C465.196 89.6014 466.477 90.0788 467.421 90.9286C468.365 91.7784 468.896 92.931 468.896 94.1328V98.6643Z" fill="#FAB991"/>
<path d="M458.825 98.6643H448.755V94.1328C448.755 92.931 449.286 91.7784 450.23 90.9286C451.174 90.0788 452.455 89.6014 453.79 89.6014C455.126 89.6014 456.406 90.0788 457.35 90.9286C458.295 91.7784 458.825 92.931 458.825 94.1328V98.6643Z" fill="#FAB991"/>
<path d="M448.755 98.6643H439.692V94.1328C439.692 92.931 440.169 91.7784 441.019 90.9286C441.869 90.0788 443.022 89.6014 444.223 89.6014C445.425 89.6014 446.578 90.0788 447.428 90.9286C448.277 91.7784 448.755 92.931 448.755 94.1328V98.6643Z" fill="#FAB991"/>
<path d="M439.692 98.6643H429.622V70.546C429.622 69.1901 430.153 67.8897 431.097 66.9309C432.041 65.9722 433.322 65.4335 434.657 65.4335C435.993 65.4335 437.273 65.9722 438.218 66.9309C439.162 67.8897 439.692 69.1901 439.692 70.546V98.6643Z" fill="#FAB991"/>
<path d="M463.86 139.951H429.623V129.881H463.86V139.951Z" fill="#F0915A"/>
<path d="M446.741 139.951H429.622V129.881H439.405C441.35 129.881 443.216 130.942 444.592 132.831C445.968 134.719 446.741 137.28 446.741 139.951Z" fill="#FAB991"/>
<path d="M429.622 129.881C426.951 129.881 424.39 128.785 422.502 126.833C420.613 124.882 419.552 122.235 419.552 119.476V101.266C419.552 100.576 419.817 99.9141 420.289 99.4263C420.762 98.9384 421.402 98.6643 422.07 98.6643C424.073 98.6643 425.994 99.4866 427.41 100.95C428.826 102.414 429.622 104.399 429.622 106.469V129.881Z" fill="#FAB991"/>
<path d="M429.511 139.951H463.973C465.278 139.951 466.53 140.446 467.454 141.327C468.377 142.209 468.896 143.404 468.896 144.65V147H424.588V144.65C424.588 143.404 425.107 142.209 426.03 141.327C426.953 140.446 428.205 139.951 429.511 139.951Z" fill="#55525B"/>
<path d="M446.741 139.951H463.972C465.278 139.951 466.53 140.446 467.453 141.327C468.376 142.209 468.895 143.404 468.895 144.65V147H446.741V139.951Z" fill="#353744"/>
<path d="M434.154 72.4825C435.545 72.4825 436.672 71.3554 436.672 69.965C436.672 68.5747 435.545 67.4476 434.154 67.4476C432.764 67.4476 431.637 68.5747 431.637 69.965C431.637 71.3554 432.764 72.4825 434.154 72.4825Z" fill="#F0915A"/>
<path d="M419.553 101.685C421.155 101.685 422.692 102.428 423.825 103.75C424.958 105.072 425.595 106.865 425.595 108.734C425.595 108.999 425.55 109.261 425.463 109.505C425.377 109.749 425.249 109.972 425.089 110.159C424.929 110.346 424.738 110.494 424.529 110.595C424.319 110.696 424.095 110.748 423.868 110.748H419.553V101.685Z" fill="#F0915A"/>
<path d="M385.818 44.2867C393.882 44.2867 400.42 37.2986 400.42 28.6783C400.42 20.0581 393.882 13.0699 385.818 13.0699C377.754 13.0699 371.217 20.0581 371.217 28.6783C371.217 37.2986 377.754 44.2867 385.818 44.2867Z" fill="#6478B9"/>
<path d="M385.314 32.2028C388.651 32.2028 391.356 29.4977 391.356 26.1609C391.356 22.824 388.651 20.1189 385.314 20.1189C381.978 20.1189 379.272 22.824 379.272 26.1609C379.272 29.4977 381.978 32.2028 385.314 32.2028Z" fill="#6EA5D7"/>
<path d="M413.816 86.5804H374.939C372.883 86.5804 371.217 88.1584 371.217 90.1049C371.217 92.0514 372.883 93.6294 374.939 93.6294H413.816C415.872 93.6294 417.538 92.0514 417.538 90.1049C417.538 88.1584 415.872 86.5804 413.816 86.5804Z" fill="#6478B9"/>
<path d="M390.35 32.2028H380.28C378.946 32.2028 377.667 32.6792 376.723 33.5274C375.779 34.3756 375.247 35.5262 375.245 36.7267C376.416 38.1357 377.936 39.2796 379.684 40.0676C381.432 40.8555 383.36 41.2658 385.315 41.2658C387.27 41.2658 389.198 40.8555 390.946 40.0676C392.694 39.2796 394.214 38.1357 395.385 36.7267C395.383 35.5262 394.851 34.3756 393.907 33.5274C392.963 32.6792 391.684 32.2028 390.35 32.2028Z" fill="#6EA5D7"/>
</g>
<path d="M40.9968 187.359C41.2134 187.359 41.3954 187.437 41.5428 187.593L43.0898 189.244C42.3271 190.215 41.3781 190.951 40.2428 191.454C39.1161 191.957 37.7728 192.208 36.2128 192.208C34.8001 192.208 33.5304 191.97 32.4038 191.493C31.2771 191.008 30.3194 190.336 29.5308 189.478C28.7421 188.62 28.1354 187.602 27.7108 186.423C27.2861 185.244 27.0738 183.957 27.0738 182.562C27.0738 181.626 27.1734 180.738 27.3728 179.897C27.5808 179.048 27.8798 178.268 28.2698 177.557C28.6598 176.846 29.1278 176.205 29.6738 175.633C30.2284 175.061 30.8524 174.576 31.5458 174.177C32.2391 173.77 32.9931 173.462 33.8078 173.254C34.6311 173.037 35.5064 172.929 36.4338 172.929C37.1271 172.929 37.7814 172.99 38.3968 173.111C39.0208 173.232 39.6014 173.401 40.1388 173.618C40.6761 173.835 41.1701 174.099 41.6208 174.411C42.0801 174.714 42.4918 175.048 42.8558 175.412L41.5428 177.206C41.4648 177.319 41.3651 177.418 41.2438 177.505C41.1224 177.592 40.9578 177.635 40.7498 177.635C40.5418 177.635 40.3294 177.561 40.1128 177.414C39.9048 177.267 39.6448 177.102 39.3328 176.92C39.0294 176.738 38.6438 176.573 38.1758 176.426C37.7164 176.279 37.1314 176.205 36.4208 176.205C35.6321 176.205 34.9084 176.348 34.2498 176.634C33.5911 176.92 33.0234 177.336 32.5468 177.882C32.0788 178.419 31.7148 179.082 31.4548 179.871C31.1948 180.66 31.0648 181.557 31.0648 182.562C31.0648 183.576 31.2034 184.482 31.4808 185.279C31.7668 186.068 32.1524 186.735 32.6378 187.281C33.1318 187.827 33.7038 188.243 34.3538 188.529C35.0124 188.806 35.7144 188.945 36.4598 188.945C36.9018 188.945 37.3004 188.923 37.6558 188.88C38.0198 188.837 38.3534 188.763 38.6568 188.659C38.9688 188.555 39.2591 188.421 39.5278 188.256C39.8051 188.091 40.0824 187.883 40.3598 187.632C40.4551 187.554 40.5548 187.489 40.6588 187.437C40.7628 187.385 40.8754 187.359 40.9968 187.359ZM61.4504 173.137V192H57.5244V183.875H49.2174V192H45.2914V173.137H49.2174V181.145H57.5244V173.137H61.4504ZM83.6268 182.562C83.6268 183.94 83.3928 185.218 82.9248 186.397C82.4655 187.576 81.8111 188.594 80.9618 189.452C80.1211 190.31 79.1071 190.986 77.9198 191.48C76.7325 191.965 75.4151 192.208 73.9678 192.208C72.5205 192.208 71.2031 191.965 70.0158 191.48C68.8285 190.986 67.8101 190.31 66.9608 189.452C66.1115 188.594 65.4528 187.576 64.9848 186.397C64.5255 185.218 64.2958 183.94 64.2958 182.562C64.2958 181.184 64.5255 179.91 64.9848 178.74C65.4528 177.561 66.1115 176.543 66.9608 175.685C67.8101 174.827 68.8285 174.155 70.0158 173.67C71.2031 173.176 72.5205 172.929 73.9678 172.929C75.4151 172.929 76.7325 173.176 77.9198 173.67C79.1071 174.155 80.1211 174.831 80.9618 175.698C81.8111 176.556 82.4655 177.574 82.9248 178.753C83.3928 179.923 83.6268 181.193 83.6268 182.562ZM79.6358 182.562C79.6358 181.574 79.5058 180.69 79.2458 179.91C78.9858 179.121 78.6088 178.454 78.1148 177.908C77.6295 177.353 77.0358 176.933 76.3338 176.647C75.6405 176.352 74.8518 176.205 73.9678 176.205C73.0838 176.205 72.2908 176.352 71.5888 176.647C70.8868 176.933 70.2888 177.353 69.7948 177.908C69.3095 178.454 68.9368 179.121 68.6768 179.91C68.4168 180.69 68.2868 181.574 68.2868 182.562C68.2868 183.559 68.4168 184.451 68.6768 185.24C68.9368 186.02 69.3095 186.683 69.7948 187.229C70.2888 187.775 70.8868 188.195 71.5888 188.49C72.2908 188.776 73.0838 188.919 73.9678 188.919C74.8518 188.919 75.6405 188.776 76.3338 188.49C77.0358 188.195 77.6295 187.775 78.1148 187.229C78.6088 186.683 78.9858 186.02 79.2458 185.24C79.5058 184.451 79.6358 183.559 79.6358 182.562ZM104.701 182.562C104.701 183.94 104.467 185.218 103.999 186.397C103.54 187.576 102.885 188.594 102.036 189.452C101.195 190.31 100.181 190.986 98.994 191.48C97.8067 191.965 96.4894 192.208 95.042 192.208C93.5947 192.208 92.2774 191.965 91.09 191.48C89.9027 190.986 88.8844 190.31 88.035 189.452C87.1857 188.594 86.527 187.576 86.059 186.397C85.5997 185.218 85.37 183.94 85.37 182.562C85.37 181.184 85.5997 179.91 86.059 178.74C86.527 177.561 87.1857 176.543 88.035 175.685C88.8844 174.827 89.9027 174.155 91.09 173.67C92.2774 173.176 93.5947 172.929 95.042 172.929C96.4894 172.929 97.8067 173.176 98.994 173.67C100.181 174.155 101.195 174.831 102.036 175.698C102.885 176.556 103.54 177.574 103.999 178.753C104.467 179.923 104.701 181.193 104.701 182.562ZM100.71 182.562C100.71 181.574 100.58 180.69 100.32 179.91C100.06 179.121 99.683 178.454 99.189 177.908C98.7037 177.353 98.11 176.933 97.408 176.647C96.7147 176.352 95.926 176.205 95.042 176.205C94.158 176.205 93.365 176.352 92.663 176.647C91.961 176.933 91.363 177.353 90.869 177.908C90.3837 178.454 90.011 179.121 89.751 179.91C89.491 180.69 89.361 181.574 89.361 182.562C89.361 183.559 89.491 184.451 89.751 185.24C90.011 186.02 90.3837 186.683 90.869 187.229C91.363 187.775 91.961 188.195 92.663 188.49C93.365 188.776 94.158 188.919 95.042 188.919C95.926 188.919 96.7147 188.776 97.408 188.49C98.11 188.195 98.7037 187.775 99.189 187.229C99.683 186.683 100.06 186.02 100.32 185.24C100.58 184.451 100.71 183.559 100.71 182.562ZM117.767 176.751C117.646 176.95 117.52 177.098 117.39 177.193C117.269 177.28 117.109 177.323 116.909 177.323C116.719 177.323 116.511 177.258 116.285 177.128C116.069 176.989 115.813 176.842 115.518 176.686C115.224 176.53 114.886 176.387 114.504 176.257C114.123 176.118 113.677 176.049 113.165 176.049C112.264 176.049 111.588 176.253 111.137 176.66C110.687 177.059 110.461 177.583 110.461 178.233C110.461 178.649 110.583 178.996 110.825 179.273C111.077 179.542 111.402 179.776 111.8 179.975C112.208 180.174 112.667 180.352 113.178 180.508C113.69 180.664 114.214 180.837 114.751 181.028C115.289 181.21 115.813 181.427 116.324 181.678C116.836 181.929 117.291 182.246 117.689 182.627C118.097 183.008 118.422 183.476 118.664 184.031C118.916 184.577 119.041 185.244 119.041 186.033C119.041 186.891 118.89 187.697 118.586 188.451C118.292 189.196 117.863 189.851 117.299 190.414C116.736 190.969 116.038 191.406 115.206 191.727C114.383 192.048 113.447 192.208 112.398 192.208C111.8 192.208 111.202 192.147 110.604 192.026C110.015 191.905 109.443 191.736 108.888 191.519C108.342 191.302 107.827 191.042 107.341 190.739C106.856 190.436 106.431 190.098 106.067 189.725L107.211 187.879C107.307 187.74 107.432 187.628 107.588 187.541C107.744 187.446 107.909 187.398 108.082 187.398C108.316 187.398 108.563 187.485 108.823 187.658C109.083 187.831 109.382 188.022 109.72 188.23C110.058 188.438 110.448 188.629 110.89 188.802C111.341 188.975 111.878 189.062 112.502 189.062C113.412 189.062 114.114 188.854 114.608 188.438C115.111 188.022 115.362 187.402 115.362 186.579C115.362 186.102 115.237 185.717 114.985 185.422C114.743 185.127 114.422 184.88 114.023 184.681C113.625 184.482 113.17 184.313 112.658 184.174C112.147 184.027 111.623 183.866 111.085 183.693C110.548 183.52 110.024 183.312 109.512 183.069C109.001 182.826 108.546 182.506 108.147 182.107C107.749 181.708 107.424 181.214 107.172 180.625C106.93 180.036 106.808 179.303 106.808 178.428C106.808 177.726 106.947 177.046 107.224 176.387C107.502 175.728 107.909 175.143 108.446 174.632C108.984 174.121 109.642 173.709 110.422 173.397C111.211 173.085 112.112 172.929 113.126 172.929C114.262 172.929 115.31 173.107 116.272 173.462C117.243 173.809 118.062 174.294 118.729 174.918L117.767 176.751ZM125.796 176.192V181.041H132.088V183.992H125.796V188.945H133.882V192H121.87V173.137H133.882V176.192H125.796ZM43.6628 215.359C43.8794 215.359 44.0614 215.437 44.2088 215.593L45.7558 217.244C44.9931 218.215 44.0441 218.951 42.9088 219.454C41.7821 219.957 40.4388 220.208 38.8788 220.208C37.4661 220.208 36.1964 219.97 35.0698 219.493C33.9431 219.008 32.9854 218.336 32.1968 217.478C31.4081 216.62 30.8014 215.602 30.3768 214.423C29.9521 213.244 29.7398 211.957 29.7398 210.562C29.7398 209.626 29.8394 208.738 30.0388 207.897C30.2468 207.048 30.5458 206.268 30.9358 205.557C31.3258 204.846 31.7938 204.205 32.3398 203.633C32.8944 203.061 33.5184 202.576 34.2118 202.177C34.9051 201.77 35.6591 201.462 36.4738 201.254C37.2971 201.037 38.1724 200.929 39.0998 200.929C39.7931 200.929 40.4474 200.99 41.0628 201.111C41.6868 201.232 42.2674 201.401 42.8048 201.618C43.3421 201.835 43.8361 202.099 44.2868 202.411C44.7461 202.714 45.1578 203.048 45.5218 203.412L44.2088 205.206C44.1308 205.319 44.0311 205.418 43.9098 205.505C43.7884 205.592 43.6238 205.635 43.4158 205.635C43.2078 205.635 42.9954 205.561 42.7788 205.414C42.5708 205.267 42.3108 205.102 41.9988 204.92C41.6954 204.738 41.3098 204.573 40.8418 204.426C40.3824 204.279 39.7974 204.205 39.0868 204.205C38.2981 204.205 37.5744 204.348 36.9158 204.634C36.2571 204.92 35.6894 205.336 35.2128 205.882C34.7448 206.419 34.3808 207.082 34.1208 207.871C33.8608 208.66 33.7308 209.557 33.7308 210.562C33.7308 211.576 33.8694 212.482 34.1468 213.279C34.4328 214.068 34.8184 214.735 35.3038 215.281C35.7978 215.827 36.3698 216.243 37.0198 216.529C37.6784 216.806 38.3804 216.945 39.1258 216.945C39.5678 216.945 39.9664 216.923 40.3218 216.88C40.6858 216.837 41.0194 216.763 41.3228 216.659C41.6348 216.555 41.9251 216.421 42.1938 216.256C42.4711 216.091 42.7484 215.883 43.0258 215.632C43.1211 215.554 43.2208 215.489 43.3248 215.437C43.4288 215.385 43.5414 215.359 43.6628 215.359ZM65.7772 210.562C65.7772 211.94 65.5432 213.218 65.0752 214.397C64.6159 215.576 63.9615 216.594 63.1122 217.452C62.2715 218.31 61.2575 218.986 60.0702 219.48C58.8829 219.965 57.5655 220.208 56.1182 220.208C54.6709 220.208 53.3535 219.965 52.1662 219.48C50.9789 218.986 49.9605 218.31 49.1112 217.452C48.2619 216.594 47.6032 215.576 47.1352 214.397C46.6759 213.218 46.4462 211.94 46.4462 210.562C46.4462 209.184 46.6759 207.91 47.1352 206.74C47.6032 205.561 48.2619 204.543 49.1112 203.685C49.9605 202.827 50.9789 202.155 52.1662 201.67C53.3535 201.176 54.6709 200.929 56.1182 200.929C57.5655 200.929 58.8829 201.176 60.0702 201.67C61.2575 202.155 62.2715 202.831 63.1122 203.698C63.9615 204.556 64.6159 205.574 65.0752 206.753C65.5432 207.923 65.7772 209.193 65.7772 210.562ZM61.7862 210.562C61.7862 209.574 61.6562 208.69 61.3962 207.91C61.1362 207.121 60.7592 206.454 60.2652 205.908C59.7799 205.353 59.1862 204.933 58.4842 204.647C57.7909 204.352 57.0022 204.205 56.1182 204.205C55.2342 204.205 54.4412 204.352 53.7392 204.647C53.0372 204.933 52.4392 205.353 51.9452 205.908C51.4599 206.454 51.0872 207.121 50.8272 207.91C50.5672 208.69 50.4372 209.574 50.4372 210.562C50.4372 211.559 50.5672 212.451 50.8272 213.24C51.0872 214.02 51.4599 214.683 51.9452 215.229C52.4392 215.775 53.0372 216.195 53.7392 216.49C54.4412 216.776 55.2342 216.919 56.1182 216.919C57.0022 216.919 57.7909 216.776 58.4842 216.49C59.1862 216.195 59.7799 215.775 60.2652 215.229C60.7592 214.683 61.1362 214.02 61.3962 213.24C61.6562 212.451 61.7862 211.559 61.7862 210.562ZM76.3474 216.88C76.9801 216.88 77.5477 216.776 78.0504 216.568C78.5531 216.351 78.9777 216.048 79.3244 215.658C79.6711 215.268 79.9354 214.796 80.1174 214.241C80.2994 213.686 80.3904 213.062 80.3904 212.369V201.137H84.2904V212.369C84.2904 213.513 84.1041 214.566 83.7314 215.528C83.3674 216.481 82.8431 217.305 82.1584 217.998C81.4737 218.691 80.6417 219.233 79.6624 219.623C78.6831 220.013 77.5781 220.208 76.3474 220.208C75.1167 220.208 74.0074 220.013 73.0194 219.623C72.0401 219.233 71.2081 218.691 70.5234 217.998C69.8387 217.305 69.3101 216.481 68.9374 215.528C68.5734 214.566 68.3914 213.513 68.3914 212.369V201.137H72.2914V212.369C72.2914 213.062 72.3824 213.686 72.5644 214.241C72.7464 214.796 73.0107 215.268 73.3574 215.658C73.7041 216.048 74.1287 216.351 74.6314 216.568C75.1341 216.776 75.7061 216.88 76.3474 216.88ZM93.9005 210.068C94.5331 210.068 95.0791 209.99 95.5385 209.834C95.9978 209.669 96.3748 209.448 96.6695 209.171C96.9641 208.885 97.1808 208.551 97.3195 208.17C97.4581 207.789 97.5275 207.373 97.5275 206.922C97.5275 206.029 97.2285 205.336 96.6305 204.842C96.0411 204.348 95.1398 204.101 93.9265 204.101H91.8985V210.068H93.9005ZM103.039 220H99.5165C98.8578 220 98.3811 219.749 98.0865 219.246L94.4985 213.461C94.3511 213.236 94.1865 213.071 94.0045 212.967C93.8311 212.863 93.5711 212.811 93.2245 212.811H91.8985V220H87.9985V201.137H93.9265C95.2438 201.137 96.3705 201.276 97.3065 201.553C98.2425 201.822 99.0095 202.199 99.6075 202.684C100.205 203.169 100.643 203.75 100.92 204.426C101.198 205.093 101.336 205.83 101.336 206.636C101.336 207.26 101.245 207.854 101.063 208.417C100.89 208.972 100.634 209.479 100.296 209.938C99.9585 210.397 99.5425 210.805 99.0485 211.16C98.5545 211.515 97.9911 211.801 97.3585 212.018C97.6098 212.157 97.8438 212.326 98.0605 212.525C98.2771 212.716 98.4721 212.945 98.6455 213.214L103.039 220ZM115.101 204.751C114.98 204.95 114.854 205.098 114.724 205.193C114.603 205.28 114.443 205.323 114.243 205.323C114.053 205.323 113.845 205.258 113.619 205.128C113.403 204.989 113.147 204.842 112.852 204.686C112.558 204.53 112.22 204.387 111.838 204.257C111.457 204.118 111.011 204.049 110.499 204.049C109.598 204.049 108.922 204.253 108.471 204.66C108.021 205.059 107.795 205.583 107.795 206.233C107.795 206.649 107.917 206.996 108.159 207.273C108.411 207.542 108.736 207.776 109.134 207.975C109.542 208.174 110.001 208.352 110.512 208.508C111.024 208.664 111.548 208.837 112.085 209.028C112.623 209.21 113.147 209.427 113.658 209.678C114.17 209.929 114.625 210.246 115.023 210.627C115.431 211.008 115.756 211.476 115.998 212.031C116.25 212.577 116.375 213.244 116.375 214.033C116.375 214.891 116.224 215.697 115.92 216.451C115.626 217.196 115.197 217.851 114.633 218.414C114.07 218.969 113.372 219.406 112.54 219.727C111.717 220.048 110.781 220.208 109.732 220.208C109.134 220.208 108.536 220.147 107.938 220.026C107.349 219.905 106.777 219.736 106.222 219.519C105.676 219.302 105.161 219.042 104.675 218.739C104.19 218.436 103.765 218.098 103.401 217.725L104.545 215.879C104.641 215.74 104.766 215.628 104.922 215.541C105.078 215.446 105.243 215.398 105.416 215.398C105.65 215.398 105.897 215.485 106.157 215.658C106.417 215.831 106.716 216.022 107.054 216.23C107.392 216.438 107.782 216.629 108.224 216.802C108.675 216.975 109.212 217.062 109.836 217.062C110.746 217.062 111.448 216.854 111.942 216.438C112.445 216.022 112.696 215.402 112.696 214.579C112.696 214.102 112.571 213.717 112.319 213.422C112.077 213.127 111.756 212.88 111.357 212.681C110.959 212.482 110.504 212.313 109.992 212.174C109.481 212.027 108.957 211.866 108.419 211.693C107.882 211.52 107.358 211.312 106.846 211.069C106.335 210.826 105.88 210.506 105.481 210.107C105.083 209.708 104.758 209.214 104.506 208.625C104.264 208.036 104.142 207.303 104.142 206.428C104.142 205.726 104.281 205.046 104.558 204.387C104.836 203.728 105.243 203.143 105.78 202.632C106.318 202.121 106.976 201.709 107.756 201.397C108.545 201.085 109.446 200.929 110.46 200.929C111.596 200.929 112.644 201.107 113.606 201.462C114.577 201.809 115.396 202.294 116.063 202.918L115.101 204.751ZM123.13 204.192V209.041H129.422V211.992H123.13V216.945H131.216V220H119.204V201.137H131.216V204.192H123.13Z" fill="#062C76"/>
<g clip-path="url(#clip3)">
<g clip-path="url(#clip4)">
<path d="M35.6449 48H23.5804C23.3846 48 23.2256 47.841 23.2256 47.6452V29.5484C23.2256 29.3525 23.3846 29.1935 23.5804 29.1935H35.6449C35.8408 29.1935 35.9998 29.3525 35.9998 29.5484V47.6452C35.9998 47.841 35.8408 48 35.6449 48Z" fill="#D3EEFD"/>
<path d="M34.5804 48H23.2256V39.129H34.5804C34.7763 39.129 34.9353 39.288 34.9353 39.4839V47.6452C34.9353 47.841 34.7763 48 34.5804 48Z" fill="#C9E2F0"/>
<path d="M22.1611 39.4839H34.1685C34.396 39.4839 34.5805 39.6429 34.5805 39.8387V47.6452C34.5805 47.841 34.396 48 34.1685 48H22.1611V39.4839Z" fill="#A2CE6D"/>
<path d="M27.838 45.871C29.0138 45.871 29.9671 44.9178 29.9671 43.7419C29.9671 42.5661 29.0138 41.6129 27.838 41.6129C26.6622 41.6129 25.709 42.5661 25.709 43.7419C25.709 44.9178 26.6622 45.871 27.838 45.871Z" fill="#E8F3DB"/>
<path d="M32.451 46.9355H29.6123V46.2258H32.0962V45.871C32.0962 45.777 32.1334 45.6865 32.2001 45.6201L32.8059 45.0144V42.4695L32.2001 41.8638C32.1334 41.7974 32.0962 41.7069 32.0962 41.6129V41.2581H29.6123V40.5484H32.451C32.6469 40.5484 32.8059 40.7074 32.8059 40.9032V41.466L33.4116 42.0717C33.4783 42.1381 33.5155 42.2286 33.5155 42.3226V45.1613C33.5155 45.2553 33.4783 45.3458 33.4116 45.4122L32.8059 46.0179V46.5807C32.8059 46.7765 32.6469 46.9355 32.451 46.9355Z" fill="#E8F3DB"/>
<path d="M26.0642 40.5484H24.29V41.2581H26.0642V40.5484Z" fill="#E8F3DB"/>
<path d="M26.0642 46.2258H25.3545V46.9355H26.0642V46.2258Z" fill="#E8F3DB"/>
<path d="M33.7932 30.2581H25.4332C25.2093 30.2581 25.0414 30.0533 25.0851 29.8337L25.3111 28.7032C25.3381 28.569 25.4392 28.4626 25.5715 28.4289L26.5963 28.1688C26.6953 28.1436 26.7787 28.0772 26.8252 27.986L27.74 26.1937C27.8006 26.0749 27.9227 26 28.0561 26H31.1883C31.3238 26 31.4473 26.077 31.5069 26.1987L32.3795 27.9807C32.4256 28.0747 32.5108 28.1436 32.6123 28.1688L33.6537 28.4292C33.7868 28.4626 33.8886 28.5694 33.9156 28.7039L34.1416 29.8333C34.1853 30.0533 34.0171 30.2581 33.7932 30.2581Z" fill="#4DBAF8"/>
<path d="M29.9682 28.129V27.0645H29.2585V28.129H28.5488V28.8387H30.6779V28.129H29.9682Z" fill="#D3EEFD"/>
<path d="M33.5161 37V33.4516H32.8065V37H31.7419V32.742H31.0323V37H29.9677V32.0323H29.2581V37H28.1935V32.742H27.4839V37H26.4194V33.4516H25.7097V37H25V37.7097H34.2258V37H33.5161Z" fill="#4DBAF8"/>
<path d="M24.595 43.05L22.7895 39.4839H21.8066V48H22.1537C23.7079 48 24.9729 46.7503 24.992 45.1964L25.0002 44.5496C25.0066 44.0216 24.8664 43.5024 24.595 43.05Z" fill="#99C367"/>
<path d="M21.7986 48H16.8387C15.271 48 14 46.729 14 45.1613V44.5215C14 44.0113 14.137 43.5106 14.3967 43.0716L17.4253 37H21.177L24.2399 43.05C24.5114 43.5024 24.6515 44.0215 24.6452 44.5499L24.637 45.1964C24.6178 46.7503 23.3528 48 21.7986 48Z" fill="#FDCD3B"/>
<path d="M21.0969 36.2904H17.5485L16.8389 34.1613L17.1937 33.0968H19.3227H21.4518L21.8066 34.1613L21.0969 36.2904Z" fill="#FDCD3B"/>
<path d="M20.0327 42.3226H18.6133C18.4178 42.3226 18.2585 42.1633 18.2585 41.9678V41.2581C18.2585 41.0626 18.4178 40.9033 18.6133 40.9033H20.7424V40.1936H19.6779V39.8387H18.9682V40.1936H18.6133C18.0264 40.1936 17.5488 40.6712 17.5488 41.2581V41.9678C17.5488 42.5547 18.0264 43.0323 18.6133 43.0323H20.0327C20.2282 43.0323 20.3875 43.1916 20.3875 43.3871V44.0968C20.3875 44.2923 20.2282 44.4516 20.0327 44.4516H17.9037V45.1613H18.9682V45.5162H19.6779V45.1613H20.0327C20.6196 45.1613 21.0972 44.6837 21.0972 44.0968V43.3871C21.0972 42.8002 20.6196 42.3226 20.0327 42.3226Z" fill="#FFF7E2"/>
<path d="M21.0966 37.3548H17.5482C17.3523 37.3548 17.1934 37.1959 17.1934 37V36.2903C17.1934 36.0945 17.3523 35.9355 17.5482 35.9355H21.0966C21.2925 35.9355 21.4514 36.0945 21.4514 36.2903V37C21.4514 37.1959 21.2925 37.3548 21.0966 37.3548Z" fill="#F95055"/>
</g>
<g clip-path="url(#clip5)">
<path d="M20.7106 90.7106L17.9272 93.8916H0.0332031V79.1245H20.7106V90.7106Z" fill="#99D8AA"/>
<path d="M14.852 96.9551C14.8069 96.9551 14.762 96.9474 14.7192 96.9324L12.2046 96.0421C11.9976 95.9689 11.8891 95.7417 11.9623 95.5346C11.983 95.4763 12.0169 95.4237 12.0614 95.3809L13.7792 93.7254C13.9373 93.573 14.1889 93.5773 14.3414 93.7353C14.3844 93.7798 14.4165 93.8337 14.4349 93.8928L15.2302 96.4378C15.2962 96.6473 15.1797 96.8705 14.9701 96.9363C14.9315 96.9484 14.8913 96.9547 14.8508 96.9547L14.852 96.9551Z" fill="#FDC9A6"/>
<path d="M5.20242 96.6207H0.430695C-0.886955 96.6207 -1.95508 95.9503 -1.95508 94.6325V93.4396H7.58836V94.6325C7.58836 95.9503 6.52024 96.6207 5.20242 96.6207Z" fill="#EA9D2D"/>
<path d="M17.9268 93.8916V90.7106H20.7102L17.9268 93.8916Z" fill="#8DC79D"/>
<path d="M7.98633 86.6796H8.78158V87.475H7.98633V86.6796Z" fill="#85BC94"/>
<path d="M2.81641 86.6796H3.61166V87.475H2.81641V86.6796Z" fill="#85BC94"/>
<path d="M2.81641 81.908H3.61166V82.7033H2.81641V81.908Z" fill="#85BC94"/>
<path d="M2.81641 83.4985H3.61166V84.2938H2.81641V83.4985Z" fill="#85BC94"/>
<path d="M2.81641 85.0891H3.61166V85.8843H2.81641V85.0891Z" fill="#85BC94"/>
<path d="M10.7695 88.6678H11.565V89.4631H10.7695V88.6678Z" fill="#85BC94"/>
<path d="M9.17871 81.908H9.97396V82.7033H9.17871V81.908Z" fill="#85BC94"/>
<path d="M7.58789 81.908H8.38315V82.7033H7.58789V81.908Z" fill="#85BC94"/>
<path d="M5.99707 81.908H6.7925V82.7033H5.99707V81.908Z" fill="#85BC94"/>
<path d="M4.40723 81.908H5.20248V82.7033H4.40723V81.908Z" fill="#85BC94"/>
<path d="M15.541 85.4867H16.3364V86.282H15.541V85.4867Z" fill="#85BC94"/>
<path d="M15.541 87.0772H16.3364V87.8726H15.541V87.0772Z" fill="#85BC94"/>
<path d="M15.541 88.6678H16.3364V89.4631H15.541V88.6678Z" fill="#85BC94"/>
<path d="M13.9502 88.6678H14.7455V89.4631H13.9502V88.6678Z" fill="#85BC94"/>
<path d="M12.3604 88.6678H13.1556V89.4631H12.3604V88.6678Z" fill="#85BC94"/>
<path d="M7.58836 94.2349H-1.95508V91.4513C-1.95508 89.9141 -0.708847 88.6679 0.828499 88.6679H4.80479C6.34213 88.6679 7.58836 89.9141 7.58836 91.4513V94.2349Z" fill="#F3AF3E"/>
<path d="M3.2147 92.2466H2.41945C1.76054 92.2466 1.22656 91.5599 1.22656 90.7129V88.6679H4.40759V90.7129C4.40759 91.5599 3.87362 92.2466 3.2147 92.2466Z" fill="#EA9D2D"/>
<path d="M2.41895 88.6679H3.2142V91.0537H2.41895V88.6679Z" fill="#FBB540"/>
<path d="M12.3372 96.064C12.2291 96.0639 12.1258 96.0198 12.0508 95.9419L7.63709 91.3611C7.02012 90.7357 7.02678 89.7286 7.65218 89.1117C8.27758 88.4947 9.28464 88.5015 9.90161 89.1269C9.91021 89.1357 9.91898 89.1447 9.9274 89.1538L14.3413 93.7346C14.4936 93.8927 14.4891 94.1445 14.331 94.2968L12.6131 95.9526C12.539 96.024 12.44 96.064 12.3372 96.064Z" fill="#F27E55"/>
<path d="M8.47455 92.0565H8.46701C8.36172 92.0544 8.2617 92.0107 8.18853 91.9349L7.637 91.3623C7.02003 90.7369 7.02687 89.7299 7.65227 89.1129C8.27767 88.4959 9.28473 88.5028 9.90152 89.1282C9.9103 89.1369 9.9189 89.1459 9.9275 89.155L10.4794 89.7276C10.6319 89.8857 10.6271 90.1375 10.469 90.2898L8.75093 91.9453C8.6767 92.0167 8.57756 92.0567 8.47455 92.0565Z" fill="#D9D9D9"/>
<path d="M9.56728 93.3664L7.91113 91.6501L10.202 89.4424L11.8578 91.1604L9.56728 93.3664Z" fill="#6FBBC6"/>
<path d="M19.7162 79.1244C19.7153 78.8698 19.6886 78.6159 19.6367 78.3665L21.0114 77.5713L19.8185 75.5035L18.4438 76.3012C18.0619 75.9622 17.6157 75.704 17.1316 75.5421V73.9551H14.7456V75.5421C14.2613 75.7035 13.8149 75.9616 13.4334 76.3012L12.0571 75.5059L10.8643 77.5736L12.2361 78.3657C12.1344 78.867 12.1344 79.3834 12.2361 79.8848L10.8655 80.6753L12.0584 82.7429L13.4346 81.9477C13.8158 82.287 14.2617 82.5452 14.7456 82.7068V84.2938H17.1316V82.7068C17.6159 82.5453 18.0623 82.2872 18.4438 81.9477L19.82 82.7429L21.0129 80.6753L19.6411 79.8832C19.6914 79.6333 19.7167 79.3792 19.7162 79.1244ZM15.9385 81.1126C14.8406 81.1126 13.9504 80.2224 13.9504 79.1244C13.9504 78.0263 14.8406 77.1363 15.9385 77.1363C17.0366 77.1363 17.9268 78.0263 17.9268 79.1244C17.9268 80.2224 17.0366 81.1126 15.9385 81.1126Z" fill="#D9D9D9"/>
<path d="M19.8188 75.5059L18.4438 76.3012C18.0619 75.9622 17.6157 75.704 17.1316 75.5421V73.9551H14.7456V75.5421C14.2613 75.7035 13.8149 75.9616 13.4334 76.3012L12.0571 75.5059L10.8643 77.5736L12.2361 78.3657C12.1856 78.6154 12.1605 78.8696 12.161 79.1244H13.9504C13.9504 78.0263 14.8405 77.1363 15.9385 77.1363C17.0366 77.1363 17.9268 78.0263 17.9268 79.1244H19.7161C19.7153 78.8698 19.6886 78.6159 19.6367 78.3665L21.0113 77.5713L19.8188 75.5059Z" fill="#CDCDCD"/>
</g>
<path d="M153.091 89.8859L146.832 83.3553L151.943 78.022C154.394 75.4641 157.524 73.777 160.914 73.1784L161.852 73.0151C161.905 73.0151 161.957 73.0151 162.009 73.0151C162.53 73.0151 162.948 73.4505 162.948 73.9948C162.948 74.0492 162.948 74.1036 162.948 74.158L162.843 75.192C162.27 78.7294 160.653 81.9948 158.254 84.4982L153.091 89.8859Z" fill="#D5E3EF"/>
<path d="M158.724 80.1988L151.266 87.9811L153.091 89.8858L158.202 84.5525C160.653 81.9947 162.218 78.7839 162.792 75.2464L163 74.2124C163 74.158 163 74.1036 163 74.0491C163 73.777 162.896 73.5593 162.74 73.3961C161.957 75.8995 160.601 78.2396 158.724 80.1988Z" fill="#B0C4D9"/>
<path d="M153.351 95.0559C153.038 94.7294 152.517 94.7294 152.204 95.0559C151.787 95.4913 151.526 96.8519 151.474 96.9063C151.474 96.9607 151.474 96.9607 151.474 96.9607C151.474 96.9607 151.526 97.0152 151.526 96.9607C151.578 96.9607 152.83 96.6886 153.299 96.1988C153.716 95.8723 153.716 95.3825 153.351 95.0559Z" fill="#F79548"/>
<path d="M141.877 83.0832C141.564 82.7566 141.043 82.7566 140.73 83.0832C140.313 83.5185 140.052 84.8246 140.052 84.8791C140.052 84.9335 140.052 84.9335 140.052 84.9335C140.052 84.9335 140.104 84.988 140.104 84.9335C140.156 84.9335 141.408 84.6614 141.877 84.1716C142.242 83.8995 142.242 83.4097 141.877 83.0832Z" fill="#F79548"/>
<path d="M145.58 91.192C144.642 90.2124 143.077 90.2124 142.138 91.192C140.834 92.5526 140.052 96.5253 140 96.6886C140 96.7974 140 96.8519 140.052 96.9063C140.156 96.9607 140.261 96.9607 140.365 96.9607C140.522 96.9063 144.329 96.1444 145.633 94.7295C146.571 93.7498 146.571 92.1716 145.58 91.192Z" fill="#F79548"/>
<path d="M145.424 91.2464C144.955 90.7566 144.173 90.7566 143.703 91.2464C143.025 91.9539 142.66 93.913 142.66 93.9675C142.66 94.0219 142.66 94.0763 142.712 94.0763C142.764 94.1308 142.764 94.1308 142.817 94.1308C142.921 94.1308 144.798 93.6954 145.424 93.0423C145.894 92.5525 145.894 91.7362 145.424 91.2464Z" fill="#FCBB76"/>
<path d="M153.612 92.6069L152.048 90.9743L155.177 87.709V90.9743L153.612 92.6069Z" fill="#99B4CD"/>
<path d="M153.456 90.5933L154.447 89.5593C154.916 89.0695 155.177 88.4165 155.177 87.709L152.048 90.9743L153.612 92.6069L154.134 92.0627L153.456 91.3553C153.247 91.1375 153.247 90.811 153.456 90.5933Z" fill="#6C9ABB"/>
<path d="M154.655 95.8723L152.569 93.6954L156.324 89.777C156.585 89.5049 156.95 89.3417 157.368 89.3417C158.202 89.3417 158.828 90.0491 158.828 90.8655C158.828 91.3009 158.671 91.6818 158.411 91.9539L154.655 95.8723Z" fill="#D5E3EF"/>
<path d="M158.411 90.8655L154.655 94.7838L153.091 93.1512L152.569 93.6954L154.655 95.8722L158.411 91.9539C158.671 91.6818 158.828 91.3008 158.828 90.8654C158.828 90.6477 158.776 90.4845 158.724 90.3212C158.671 90.5389 158.567 90.7022 158.411 90.8655Z" fill="#B0C4D9"/>
<path d="M144.225 88.2532C144.59 87.8722 145.007 87.6001 145.424 87.4913L146.311 87.1647L149.44 90.43L149.127 91.3552C148.971 91.845 148.71 92.2804 148.397 92.6069L144.225 88.2532Z" fill="#99B4CD"/>
<path d="M146.311 87.1648L145.528 87.4369L147.249 89.2328C147.667 89.6682 147.771 90.2668 147.614 90.811C147.562 91.0287 147.458 91.2464 147.302 91.4641L148.397 92.6069C148.762 92.226 149.023 91.7906 149.127 91.3552L149.44 90.43L146.311 87.1648Z" fill="#6C9ABB"/>
<path d="M144.225 82.8111L145.789 84.4437L148.918 81.1784H145.789L144.225 82.8111Z" fill="#99B4CD"/>
<path d="M145.633 83.192C145.424 82.9743 145.424 82.6478 145.633 82.4301L146.832 81.1783H145.789L144.225 82.811L145.789 84.4436C146.102 84.1171 146.102 83.6817 145.789 83.3552L145.633 83.192Z" fill="#6C9ABB"/>
<path d="M141.095 81.7226L143.181 83.8995L146.936 79.9811C147.197 79.709 147.353 79.328 147.353 78.8927C147.353 78.0763 146.675 77.3688 145.893 77.3688C145.476 77.3688 145.111 77.5321 144.85 77.8042L141.095 81.7226Z" fill="#D5E3EF"/>
<path d="M154.655 83.8994C155.808 83.8994 156.742 82.9248 156.742 81.7226C156.742 80.5203 155.808 79.5457 154.655 79.5457C153.503 79.5457 152.569 80.5203 152.569 81.7226C152.569 82.9248 153.503 83.8994 154.655 83.8994Z" fill="#70B7E5"/>
<path d="M154.656 84.4437C153.195 84.4437 152.048 83.2464 152.048 81.7226C152.048 80.1988 153.195 79.0015 154.656 79.0015C156.116 79.0015 157.263 80.1988 157.263 81.7226C157.263 83.2464 156.116 84.4437 154.656 84.4437ZM154.656 80.09C153.769 80.09 153.091 80.7974 153.091 81.7226C153.091 82.6478 153.769 83.3553 154.656 83.3553C155.542 83.3553 156.22 82.6478 156.22 81.7226C156.22 80.7974 155.542 80.09 154.656 80.09Z" fill="#F04B4D"/>
<path d="M153.821 83.1376C153.665 82.8655 153.612 82.5934 153.612 82.2668C153.612 81.3416 154.29 80.6342 155.177 80.6342C155.49 80.6342 155.751 80.743 156.011 80.8519C155.699 80.4165 155.229 80.09 154.655 80.09C153.769 80.09 153.091 80.7974 153.091 81.7226C153.091 82.3212 153.404 82.811 153.821 83.1376Z" fill="#4C9CD6"/>
<path d="M153.09 89.8859L151.369 91.6818C151.16 91.8995 150.848 91.8995 150.639 91.6818L145.111 85.913C144.902 85.6953 144.902 85.3688 145.111 85.1511L146.832 83.3552L153.09 89.8859Z" fill="#F04D4E"/>
<path d="M149.232 88.5797L145.946 85.1511C145.737 84.9334 145.372 84.9334 145.112 85.1511C144.903 85.3688 144.903 85.6953 145.112 85.913L150.64 91.6817C150.849 91.8994 151.161 91.8994 151.37 91.6817L153.091 89.8858L151.266 87.9811L150.692 88.5797C150.275 89.0151 149.649 89.0151 149.232 88.5797Z" fill="#DB343F"/>
<path d="M154.689 95.8916L156.238 94.2754L154.136 92.0819L152.587 93.6982L154.689 95.8916Z" fill="#F04D4E"/>
<path d="M155.699 93.6954L154.968 94.4573C154.656 94.7838 154.238 94.7838 153.925 94.4573L152.882 93.3688L152.569 93.6954L154.655 95.8722L156.22 94.2396L155.699 93.6954Z" fill="#DB343F"/>
<path d="M148.919 83.0831C148.867 83.0831 148.762 83.0831 148.71 83.0287C148.606 82.9199 148.606 82.7566 148.71 82.6478L151.318 79.9267C151.422 79.8178 151.579 79.8178 151.683 79.9267C151.787 80.0355 151.787 80.1988 151.683 80.3076L149.075 83.0287C149.075 83.0831 148.971 83.0831 148.919 83.0831Z" fill="#ECF0F9"/>
<path d="M152.569 79.2736C152.517 79.2736 152.413 79.2736 152.36 79.2192C152.256 79.1103 152.256 78.9471 152.36 78.8382L153.404 77.7498C153.508 77.6409 153.664 77.6409 153.769 77.7498C153.873 77.8586 153.873 78.0219 153.769 78.1307L152.726 79.2192C152.726 79.2736 152.621 79.2736 152.569 79.2736Z" fill="#ECF0F9"/>
<path d="M162.061 73.0151C162.009 73.0151 161.957 73.0151 161.905 73.0151L160.914 73.1784C159.297 73.4505 157.785 73.9948 156.324 74.7566C156.324 74.7566 157.263 75.7362 158.828 77.3689C160.392 79.0016 161.331 79.9811 161.331 79.9811C162.061 78.4573 162.531 76.8791 162.844 75.192L163 74.2125C163 74.158 163 74.1036 163 74.0492C163 73.4505 162.583 73.0151 162.061 73.0151Z" fill="#F04D4E"/>
<path d="M158.307 75.2464C158.202 75.2464 158.098 75.192 158.046 75.0831C157.994 74.9199 158.046 74.811 158.202 74.7566C159.245 74.3212 160.289 74.0491 161.384 73.8314C161.54 73.8314 161.645 73.8859 161.697 74.0491C161.697 74.2124 161.645 74.3212 161.488 74.3757C160.445 74.5389 159.402 74.8655 158.411 75.2464C158.359 75.2464 158.359 75.2464 158.307 75.2464Z" fill="#F26A56"/>
<path d="M154.656 79.056V79.0015C153.195 79.0015 152.048 80.1988 152.048 81.7226H152.1C152.361 81.7226 152.569 81.5594 152.622 81.2873C152.674 80.9063 152.882 80.5798 153.091 80.3077C153.404 79.9811 153.769 79.709 154.238 79.6002C154.499 79.5458 154.656 79.3281 154.656 79.056Z" fill="#F26A56"/>
<path d="M154.655 84.3893V84.4437C156.116 84.4437 157.263 83.2464 157.263 81.7226H157.211C156.95 81.7226 156.741 81.8859 156.689 82.158C156.637 82.5389 156.429 82.8654 156.22 83.1375C155.907 83.4641 155.542 83.7362 155.073 83.845C154.812 83.8995 154.655 84.1172 154.655 84.3893Z" fill="#DB343F"/>
<path d="M155.698 91.7906C155.646 91.7906 155.542 91.7906 155.489 91.7362C155.385 91.6274 155.385 91.4641 155.489 91.3553L156.532 90.2668C156.637 90.158 156.793 90.158 156.898 90.2668C157.002 90.3756 157.002 90.5389 156.898 90.6477L155.854 91.7362C155.854 91.7906 155.75 91.7906 155.698 91.7906Z" fill="#ECF0F9"/>
<path d="M146.937 78.8926L143.182 82.811L141.617 81.1784L141.096 81.7226L143.182 83.8994L146.937 79.981C147.198 79.7089 147.354 79.328 147.354 78.8926C147.354 78.6749 147.302 78.5117 147.25 78.3484C147.198 78.5661 147.093 78.7294 146.937 78.8926Z" fill="#B0C4D9"/>
<path d="M144.224 79.8178C144.172 79.8178 144.068 79.8178 144.016 79.7634C143.911 79.6546 143.911 79.4913 144.016 79.3825L145.059 78.294C145.163 78.1852 145.32 78.1852 145.424 78.294C145.528 78.4029 145.528 78.5661 145.424 78.675L144.381 79.7634C144.381 79.8178 144.276 79.8178 144.224 79.8178Z" fill="#ECF0F9"/>
<path d="M143.214 83.9189L144.763 82.3027L142.661 80.1092L141.112 81.7254L143.214 83.9189Z" fill="#F04D4E"/>
<path d="M144.224 81.7226L143.494 82.4845C143.181 82.811 142.764 82.811 142.451 82.4845L141.408 81.3961L141.095 81.7226L143.181 83.8994L144.745 82.2668L144.224 81.7226Z" fill="#DB343F"/>
<path d="M160.026 78.6206L161.33 79.9811C162.06 78.4573 162.53 76.8791 162.843 75.192L162.999 74.2125C162.999 74.158 162.999 74.1036 162.999 74.0492C162.999 73.7771 162.895 73.5594 162.738 73.3961C162.165 75.2464 161.226 77.0423 160.026 78.6206Z" fill="#DB343F"/>
<path d="M80.5 26.4844C86.5784 26.4844 91.5059 21.3426 91.5059 15C91.5059 8.65735 86.5784 3.51562 80.5 3.51562C74.4216 3.51562 69.4941 8.65735 69.4941 15C69.4941 21.3426 74.4216 26.4844 80.5 26.4844Z" fill="#FFAF10"/>
<path d="M82.9258 21.218H78.0742V23.1605H82.9258V21.218Z" fill="#445EA0"/>
<path d="M78.9656 21.218H78.0742V23.1605H78.9656V21.218Z" fill="#293D7C"/>
<path d="M85.1945 24.2851C85.1945 24.414 85.0934 24.5195 84.9699 24.5195H76.0303C75.9067 24.5195 75.8057 24.414 75.8057 24.2851V23.3476C75.8057 23.2187 75.9067 23.1132 76.0303 23.1132H84.9699C85.0934 23.1132 85.1945 23.2187 85.1945 23.3476V24.2851Z" fill="#293D7C"/>
<path d="M77.5884 24.2852V23.3477C77.5884 23.2188 77.6895 23.1133 77.813 23.1133H76.0303C75.9067 23.1133 75.8057 23.2188 75.8057 23.3477V24.2852C75.8057 24.4141 75.9067 24.5195 76.0303 24.5195H77.813C77.6895 24.5195 77.5884 24.4141 77.5884 24.2852Z" fill="#1A2B63"/>
<path d="M69 20.7959C69 21.0537 69.2021 21.2647 69.4492 21.2647H91.5508C91.7979 21.2647 92 21.0537 92 20.7959V18.7677H69V20.7959Z" fill="#293D7C"/>
<path d="M69.8914 20.7959V18.7677H69V20.7959C69 21.0537 69.2021 21.2647 69.4492 21.2647H70.3406C70.0935 21.2647 69.8914 21.0537 69.8914 20.7959Z" fill="#1A2B63"/>
<path d="M91.4471 5.19922H69.5529C69.2489 5.19922 69 5.45881 69 5.77611V18.8146H92V5.77611C92 5.45881 91.7511 5.19922 91.4471 5.19922Z" fill="#445EA0"/>
<path d="M70.1982 17.734C70.0731 17.734 69.9707 17.6272 69.9707 17.4966V6.51716C69.9707 6.38661 70.0731 6.27979 70.1982 6.27979H90.8012C90.9263 6.27979 91.0287 6.38661 91.0287 6.51716V17.4966C91.0287 17.6272 90.9263 17.734 90.8012 17.734H70.1982Z" fill="#5DC1D8"/>
<path d="M70.9417 17.4966V6.51716C70.9417 6.38661 71.0441 6.27979 71.1692 6.27979H70.1982C70.0731 6.27979 69.9707 6.38661 69.9707 6.51716V17.4966C69.9707 17.6272 70.0731 17.734 70.1982 17.734H71.1692C71.0441 17.734 70.9417 17.6272 70.9417 17.4966Z" fill="#28A5A5"/>
<path d="M80.8066 11.3886C80.8066 11.466 80.746 11.5292 80.6718 11.5292H79.9307C79.8565 11.5292 79.7959 11.466 79.7959 11.3886V7.88513C79.7959 7.80779 79.8565 7.74451 79.9307 7.74451H80.6718C80.746 7.74451 80.8066 7.80779 80.8066 7.88513V11.3886Z" fill="white"/>
<path d="M82.1542 11.3886C82.1542 11.466 82.0936 11.5293 82.0194 11.5293H81.2783C81.2042 11.5293 81.1436 11.466 81.1436 11.3886V9.16699C81.1436 9.08965 81.2042 9.02637 81.2783 9.02637H82.0194C82.0936 9.02637 82.1542 9.08965 82.1542 9.16699V11.3886Z" fill="white"/>
<path d="M83.5019 11.3886C83.5019 11.466 83.4413 11.5292 83.3671 11.5292H82.626C82.5519 11.5292 82.4912 11.466 82.4912 11.3886V9.83856C82.4912 9.76122 82.5519 9.69794 82.626 9.69794H83.3671C83.4413 9.69794 83.5019 9.76122 83.5019 9.83856V11.3886Z" fill="white"/>
<path d="M84.8496 11.3886C84.8496 11.466 84.789 11.5293 84.7148 11.5293H83.9736C83.8995 11.5293 83.8389 11.466 83.8389 11.3886V8.55664C83.8389 8.4793 83.8995 8.41602 83.9736 8.41602H84.7148C84.789 8.41602 84.8496 8.4793 84.8496 8.55664V11.3886Z" fill="white"/>
<path d="M86.1972 11.3886C86.1972 11.466 86.1366 11.5292 86.0625 11.5292H85.3213C85.2472 11.5292 85.1865 11.466 85.1865 11.3886V9.47223C85.1865 9.39489 85.2472 9.3316 85.3213 9.3316H86.0625C86.1366 9.3316 86.1972 9.39489 86.1972 9.47223V11.3886Z" fill="white"/>
<path d="M85.1865 15.9003C85.1865 15.9777 85.2472 16.041 85.3213 16.041H86.0625C86.1366 16.041 86.1972 15.9777 86.1972 15.9003V12.3969C86.1972 12.3195 86.1366 12.2562 86.0625 12.2562H85.3213C85.2472 12.2562 85.1865 12.3195 85.1865 12.3969V15.9003Z" fill="#FFAF10"/>
<path d="M83.8389 15.9004C83.8389 15.9777 83.8995 16.041 83.9736 16.041H84.7148C84.7889 16.041 84.8495 15.9777 84.8495 15.9004V13.6788C84.8495 13.6014 84.7889 13.5381 84.7148 13.5381H83.9736C83.8995 13.5381 83.8389 13.6014 83.8389 13.6788V15.9004Z" fill="#FFAF10"/>
<path d="M82.4912 15.9003C82.4912 15.9777 82.5519 16.041 82.626 16.041H83.3671C83.4413 16.041 83.5019 15.9777 83.5019 15.9003V14.3503C83.5019 14.2729 83.4413 14.2097 83.3671 14.2097H82.626C82.5519 14.2097 82.4912 14.2729 82.4912 14.3503V15.9003Z" fill="#FFAF10"/>
<path d="M81.1436 15.9004C81.1436 15.9777 81.2042 16.041 81.2783 16.041H82.0195C82.0937 16.041 82.1543 15.9777 82.1543 15.9004V13.0684C82.1543 12.991 82.0937 12.9277 82.0195 12.9277H81.2783C81.2042 12.9277 81.1436 12.991 81.1436 13.0684V15.9004Z" fill="#FFAF10"/>
<path d="M79.7959 15.9003C79.7959 15.9777 79.8565 16.041 79.9307 16.041H80.6718C80.746 16.041 80.8066 15.9777 80.8066 15.9003V13.984C80.8066 13.9067 80.746 13.8434 80.6718 13.8434H79.9307C79.8565 13.8434 79.7959 13.9067 79.7959 13.984V15.9003Z" fill="#FFAF10"/>
<path d="M89.5095 9.19305H87.2354C87.0492 9.19305 86.8984 9.03569 86.8984 8.84149C86.8984 8.64729 87.0492 8.48993 87.2354 8.48993H89.5095C89.6956 8.48993 89.8464 8.64729 89.8464 8.84149C89.8464 9.03569 89.6956 9.19305 89.5095 9.19305Z" fill="#91E0E8"/>
<path d="M89.5095 10.192H87.2354C87.0492 10.192 86.8984 10.0347 86.8984 9.84045C86.8984 9.64625 87.0492 9.48889 87.2354 9.48889H89.5095C89.6956 9.48889 89.8464 9.64625 89.8464 9.84045C89.8464 10.0346 89.6956 10.192 89.5095 10.192Z" fill="#91E0E8"/>
<path d="M89.5095 11.1909H87.2354C87.0492 11.1909 86.8984 11.0335 86.8984 10.8393C86.8984 10.6451 87.0492 10.4877 87.2354 10.4877H89.5095C89.6956 10.4877 89.8464 10.6451 89.8464 10.8393C89.8464 11.0335 89.6956 11.1909 89.5095 11.1909Z" fill="#91E0E8"/>
<path d="M88.6504 12.1898H87.2354C87.0492 12.1898 86.8984 12.0324 86.8984 11.8382C86.8984 11.644 87.0492 11.4866 87.2354 11.4866H88.6504C88.8365 11.4866 88.9873 11.644 88.9873 11.8382C88.9873 12.0324 88.8365 12.1898 88.6504 12.1898Z" fill="#91E0E8"/>
<path d="M89.5095 14.0358H87.2354C87.0492 14.0358 86.8984 13.8784 86.8984 13.6842C86.8984 13.49 87.0492 13.3326 87.2354 13.3326H89.5095C89.6956 13.3326 89.8464 13.49 89.8464 13.6842C89.8464 13.8784 89.6956 14.0358 89.5095 14.0358Z" fill="#91E0E8"/>
<path d="M89.5095 15.0346H87.2354C87.0492 15.0346 86.8984 14.8772 86.8984 14.683C86.8984 14.4888 87.0492 14.3315 87.2354 14.3315H89.5095C89.6956 14.3315 89.8464 14.4888 89.8464 14.683C89.8464 14.8772 89.6956 15.0346 89.5095 15.0346Z" fill="#91E0E8"/>
<path d="M88.6504 16.0336H87.2354C87.0492 16.0336 86.8984 15.8762 86.8984 15.682C86.8984 15.4879 87.0492 15.3304 87.2354 15.3304H88.6504C88.8365 15.3304 88.9873 15.4879 88.9873 15.682C88.9873 15.8762 88.8365 16.0336 88.6504 16.0336Z" fill="#91E0E8"/>
<path d="M90.8698 20.289C90.8698 20.3664 90.8091 20.4297 90.735 20.4297H89.9414C89.8673 20.4297 89.8066 20.3664 89.8066 20.289V19.4609C89.8066 19.3836 89.8673 19.3203 89.9414 19.3203H90.735C90.8091 19.3203 90.8698 19.3836 90.8698 19.4609V20.289Z" fill="#91E0E8"/>
<path d="M75.5117 11.7564C75.4373 11.7564 75.377 11.6934 75.377 11.6157V7.97125C75.377 7.9331 75.3918 7.89649 75.4182 7.87C75.4433 7.84469 75.4769 7.83063 75.5117 7.83063C75.5133 7.83063 75.515 7.83067 75.5167 7.83072C77.476 7.90567 79.0671 9.56599 79.139 11.6106C79.1403 11.6487 79.1268 11.6858 79.1013 11.7133C79.0759 11.7408 79.0409 11.7564 79.0043 11.7564H75.5117Z" fill="#FFAF10"/>
<path d="M75.0684 16.0082C72.9925 16.0082 71.3037 14.2459 71.3037 12.0798C71.3037 11.0576 71.6795 10.0887 72.3619 9.35182C73.0425 8.61677 73.9541 8.19147 74.9287 8.15421C74.9304 8.15416 74.9321 8.15411 74.9337 8.15411C74.9685 8.15411 75.0021 8.16818 75.0272 8.19349C75.0536 8.21997 75.0684 8.25658 75.0684 8.29474V12.0798H78.6958C78.7324 12.0798 78.7674 12.0954 78.7928 12.1229C78.8182 12.1504 78.8318 12.1875 78.8305 12.2256C78.7947 13.2426 78.3872 14.1938 77.6828 14.9041C76.9766 15.6161 76.0481 16.0082 75.0684 16.0082Z" fill="#91E0E8"/>
<path d="M75.7118 15.3359C73.6359 15.3359 71.947 13.5736 71.947 11.4075C71.947 10.5218 72.2296 9.67638 72.7489 8.98694C72.6128 9.09845 72.4831 9.21991 72.3609 9.35177C71.6786 10.0887 71.3027 11.0575 71.3027 12.0798C71.3027 14.2459 72.9916 16.0082 75.0675 16.0082C76.0472 16.0082 76.9756 15.616 77.6818 14.904C77.8081 14.7766 77.9245 14.6411 78.0314 14.4992C77.3708 15.041 76.5607 15.3359 75.7118 15.3359Z" fill="#91E0E8"/>
<path d="M80.3339 76.7429C71.9264 76.7429 65.1113 83.0579 65.1113 90.8481V96.6859C66.1287 95.812 67.576 95.3372 68.9889 95.512V94.8091C68.9889 94.2505 69.5039 93.809 70.1008 93.851C75.9864 94.2428 81.9761 92.5098 86.5047 89.7684C86.9275 89.5124 87.4874 89.5761 87.831 89.9182C91.7029 93.7745 91.6795 93.6253 91.6795 94.1288V95.509C93.228 95.294 94.6018 95.7374 95.5564 96.5596V90.8483C95.5562 83.0579 88.7413 76.7429 80.3339 76.7429Z" fill="#3E4B5A"/>
<path d="M71.6894 90.8483C71.6894 84.1048 76.7973 78.4703 83.6228 77.0769C82.5633 76.8605 81.4637 76.7431 80.3339 76.7431C71.9266 76.7431 65.1113 83.0581 65.1113 90.8483V96.6859C66.1287 95.812 67.576 95.3372 68.9889 95.512V94.8091C68.9889 94.2505 69.5037 93.809 70.1008 93.851C70.6299 93.8863 71.1598 93.9037 71.6894 93.9053V90.8483Z" fill="#303F49"/>
<path d="M78.5955 115.685C79.2094 115.465 79.6141 114.917 79.6141 114.307V112.311C77.5182 112.18 75.6612 111.586 74.1079 110.667V115.072C74.1079 115.466 73.9374 115.833 73.6523 116.103L78.5955 115.685Z" fill="#FFBEAB"/>
<path d="M72.0457 119.037C76.8977 123.814 83.7568 123.814 88.6088 119.037L90.3315 117.341L87.7977 116.432C87.2144 116.223 86.8297 115.703 86.8297 115.123V110.511C85.0278 111.662 82.8461 112.339 80.4962 112.339C78.0369 112.339 75.8756 111.713 74.108 110.667V115.072C74.108 115.683 73.7033 116.23 73.0893 116.451L70.3994 117.417L72.0457 119.037Z" fill="#FFBEAB"/>
<path d="M79.6142 112.311C77.5183 112.18 75.6612 111.586 74.108 110.667V115.072C74.108 115.682 73.7033 116.23 73.0893 116.451L70.3994 117.417C72.3165 119.304 74.895 122.28 79.6142 122.594V112.311Z" fill="#F7AF9F"/>
<path d="M91.4531 94.8794V102.606C91.4531 102.69 91.4484 102.773 91.4463 102.856C94.3972 103.27 96.935 101.294 96.935 98.868C96.9348 96.4368 94.3953 94.4708 91.4531 94.8794Z" fill="#FFBEAB"/>
<path d="M69.2163 94.8823C66.6471 94.5643 63.7344 96.3914 63.7344 98.868C63.7344 101.291 66.2669 103.271 69.2229 102.856C69.2135 102.493 69.2163 103.656 69.2163 94.8823Z" fill="#FFBEAB"/>
<path d="M94.9862 95.6011C94.0195 94.9959 92.7786 94.6951 91.4531 94.8794V102.606C91.4531 102.69 91.4484 102.773 91.4463 102.856C92.7758 103.043 94.0189 102.741 94.9862 102.135V95.6011Z" fill="#F7AF9F"/>
<path d="M69.2163 102.135C68.0358 101.396 67.2675 100.2 67.2675 98.868C67.2675 97.5635 68.0761 96.4399 69.2163 95.7144V94.8823C66.6471 94.5643 63.7344 96.3914 63.7344 98.868C63.7344 101.291 66.2669 103.271 69.2229 102.856C69.2155 102.574 69.2163 102.85 69.2163 102.135Z" fill="#F7AF9F"/>
<path d="M87.8314 89.2887C87.4878 88.9464 86.9279 88.8829 86.5051 89.139C81.9762 91.8803 75.9865 93.6131 70.1012 93.2213C69.5042 93.1795 68.9893 93.6208 68.9893 94.1794V102.606C68.9893 108.022 73.569 112.968 80.4964 112.968C86.663 112.968 91.6798 108.32 91.6798 102.606V93.4991C91.6798 92.9957 91.703 93.1448 87.8314 89.2887Z" fill="#FFCDBF"/>
<path d="M75.5674 102.606V93.0048C73.7665 93.2594 71.9288 93.3431 70.1012 93.2214C69.5042 93.1795 68.9893 93.6208 68.9893 94.1797V102.606C68.9893 108.022 73.569 112.968 80.4964 112.968C81.6024 112.968 82.6702 112.817 83.6798 112.538C78.6915 111.227 75.5674 107.078 75.5674 102.606Z" fill="#FFBEAB"/>
<path d="M103.656 122.123L89.9964 117.221L88.2362 118.954C83.606 123.513 77.0607 123.513 72.4306 118.954L70.7432 117.293L57.2979 122.123C57.2979 122.123 51.0742 124.494 51.0742 131.068V145.658C51.0742 146.399 51.7225 147 52.5219 147H108.445C109.237 147 109.88 146.404 109.88 145.67V131.068C109.88 124.494 103.656 122.123 103.656 122.123Z" fill="#FECA57"/>
<path d="M57.5542 128.427C57.5542 124.135 60.2057 121.636 62.0474 120.417L57.2979 122.123C57.2979 122.123 51.0742 124.494 51.0742 131.068V145.658C51.0742 146.399 51.7225 147 52.5219 147H57.5542V128.427Z" fill="#F4B537"/>
<path d="M100.731 147V133.328C100.731 132.486 99.9944 131.804 99.086 131.804C98.1776 131.804 97.4414 132.486 97.4414 133.328V147H100.731Z" fill="#F4B537"/>
<path d="M63.1095 147V133.328C63.1095 132.486 62.3731 131.804 61.4649 131.804C60.5567 131.804 59.8203 132.486 59.8203 133.328V147H63.1095Z" fill="#F4B537"/>
<path d="M56.3583 89.3501H40.4901C40.2576 89.3501 40.0692 89.1755 40.0692 88.9601V86.9713C40.0692 86.5467 39.6753 86.2708 39.3405 86.4605L31.309 91.0148C30.897 91.2483 30.897 91.8026 31.309 92.0362L39.3407 96.5902C39.6753 96.78 40.0694 96.504 40.0694 96.0795V94.0907C40.0694 93.8753 40.2578 93.7007 40.4903 93.7007H56.4364C57.7476 93.7007 58.808 92.7045 58.7838 91.4845C58.7599 90.2871 57.651 89.3501 56.3583 89.3501Z" fill="#338DEF"/>
<path d="M128.954 91.0148L120.922 86.4608C120.587 86.271 120.193 86.547 120.193 86.9715V88.9603C120.193 89.1757 120.005 89.3503 119.772 89.3503H103.904C102.612 89.3503 101.503 90.2873 101.479 91.4847C101.455 92.7048 102.515 93.701 103.826 93.701H119.772C120.005 93.701 120.193 93.8755 120.193 94.0909V96.0798C120.193 96.5043 120.587 96.7804 120.922 96.5905L128.954 92.0364C129.365 91.8027 129.365 91.2484 128.954 91.0148Z" fill="#338DEF"/>
<path d="M80.6826 46.2863C80.4305 45.9046 79.8323 45.9046 79.5802 46.2863L74.6654 53.7283C74.4606 54.0384 74.7585 54.4035 75.2166 54.4035H77.363C77.5955 54.4035 77.7839 54.5781 77.7839 54.7935V69.4969C77.7839 70.6947 78.7951 71.7221 80.0873 71.7442C81.4041 71.7666 82.4792 70.7841 82.4792 69.5691V54.7935C82.4792 54.5781 82.6676 54.4035 82.9 54.4035H85.0464C85.5046 54.4035 85.8024 54.0386 85.5976 53.7283L80.6826 46.2863Z" fill="#338DEF"/>
<path d="M110.417 67.0908L111.934 68.4971C112.258 68.7973 112.747 68.7344 112.839 68.3809L115.043 59.8983C115.156 59.4634 114.733 59.0714 114.264 59.1761L105.109 61.2182C104.728 61.3032 104.66 61.7567 104.984 62.0568L106.502 63.4631C106.666 63.6154 106.666 63.8623 106.502 64.0146L95.281 74.4116C94.3671 75.2585 94.2979 76.6476 95.195 77.5098C96.1089 78.3885 97.619 78.3981 98.5461 77.539L109.822 67.091C109.986 66.9385 110.252 66.9385 110.417 67.0908Z" fill="#338DEF"/>
<path d="M53.7615 64.0143C53.5971 63.862 53.5971 63.615 53.7615 63.4627L55.2792 62.0564C55.6032 61.7564 55.5353 61.3031 55.1536 61.2178L45.9991 59.1758C45.5296 59.071 45.1066 59.463 45.2197 59.898L47.4235 68.3805C47.5153 68.734 48.0047 68.7969 48.3285 68.4967L49.8462 67.0904C50.0106 66.9381 50.2771 66.9381 50.4415 67.0904L61.717 77.5385C62.6441 78.3975 64.1542 78.3879 65.0681 77.5093C65.965 76.647 65.896 75.2579 64.9821 74.411L53.7615 64.0143Z" fill="#338DEF"/>
<path d="M34.3354 92.0362C33.9235 91.8027 33.9235 91.2484 34.3354 91.0148L40.0694 87.7635V86.9715C40.0694 86.547 39.6756 86.271 39.3407 86.4608L31.309 91.0148C30.897 91.2484 30.897 91.8027 31.309 92.0362L39.3407 96.5903C39.6753 96.78 40.0694 96.5041 40.0694 96.0796V95.2875L34.3354 92.0362Z" fill="#1C78D3"/>
<path d="M123.22 88.9601V87.7635L120.922 86.4608C120.587 86.271 120.193 86.547 120.193 86.9715V88.9603C120.193 89.1757 120.005 89.3503 119.772 89.3503H122.799C123.031 89.3501 123.22 89.1755 123.22 88.9601Z" fill="#1C78D3"/>
<path d="M104.505 91.4845C104.529 90.2871 105.638 89.3501 106.93 89.3501H103.904C102.612 89.3501 101.503 90.2871 101.479 91.4845C101.455 92.7046 102.515 93.7007 103.826 93.7007H106.852C105.541 93.7009 104.481 92.7046 104.505 91.4845Z" fill="#1C78D3"/>
<path d="M123.22 94.0908C123.22 93.8754 123.031 93.7008 122.799 93.7008H119.772C120.005 93.7008 120.193 93.8754 120.193 94.0908V96.0796C120.193 96.5041 120.587 96.7803 120.922 96.5903L123.22 95.2876V94.0908H123.22Z" fill="#1C78D3"/>
<path d="M80.8101 69.4969V54.7935C80.8101 54.5781 80.6217 54.4035 80.3892 54.4035H78.2429C77.7847 54.4035 77.4869 54.0386 77.6917 53.7283L81.6446 47.7429L80.6826 46.2863C80.4305 45.9046 79.8323 45.9046 79.5802 46.2863L74.6654 53.7283C74.4606 54.0384 74.7585 54.4035 75.2166 54.4035H77.363C77.5955 54.4035 77.7839 54.5781 77.7839 54.7935V69.4969C77.7839 70.6947 78.7951 71.7221 80.0873 71.7442C80.6875 71.7544 81.2359 71.5544 81.6568 71.2202C81.1373 70.8028 80.8101 70.1777 80.8101 69.4969Z" fill="#1C78D3"/>
<path d="M97.8138 75.7065L109.034 65.3095C109.199 65.1573 109.199 64.9103 109.034 64.758L107.517 63.3517C107.193 63.0517 107.261 62.5983 107.642 62.5131L114.777 60.9216L115.043 59.8982C115.156 59.4632 114.733 59.0713 114.264 59.176L105.109 61.2181C104.728 61.3031 104.66 61.7566 104.984 62.0567L106.502 63.463C106.666 63.6152 106.666 63.8622 106.502 64.0145L95.281 74.4115C94.3671 75.2583 94.2979 76.6475 95.195 77.5097C95.7528 78.0461 96.5326 78.2567 97.2664 78.1457C96.9083 77.3371 97.1078 76.3605 97.8138 75.7065Z" fill="#1C78D3"/>
<path d="M49.2984 66.8062L47.3971 59.4879L45.9991 59.176C45.5296 59.0713 45.1066 59.4632 45.2197 59.8982L47.4235 68.3807C47.5153 68.7342 48.0047 68.7972 48.3285 68.4969L49.8324 67.1035C49.5893 67.1415 49.3585 67.0376 49.2984 66.8062Z" fill="#1C78D3"/>
<path d="M63.5917 75.9641L52.3161 65.516C52.1518 65.3637 51.8853 65.3637 51.7209 65.516L50.2032 66.9223C50.1798 66.944 50.154 66.9598 50.1289 66.9777C50.2413 66.9742 50.355 67.0111 50.4408 67.0908L61.7163 77.5388C62.6435 78.3979 64.1535 78.3883 65.0674 77.5096C65.3502 77.2378 65.5364 76.9135 65.6312 76.5705C64.9112 76.679 64.1471 76.4787 63.5917 75.9641Z" fill="#1C78D3"/>
<g clip-path="url(#clip6)">
<path d="M134.039 52.2093C134.739 52.2093 135.327 51.7495 135.49 51.1285C134.509 50.3158 133.889 49.116 133.889 47.7776C133.889 46.4187 134.528 45.203 135.535 44.3901V38.7579C135.535 37.9677 134.865 37.3271 134.039 37.3271H124.127C123.301 37.3271 122.631 37.9677 122.631 38.7579V50.7786C122.631 51.5688 123.301 52.2093 124.127 52.2093" fill="#5B9ED6"/>
<path d="M134.039 37.3271H132.931C133.757 37.3271 134.427 37.9677 134.427 38.7579V43.6684C134.427 43.8916 134.344 44.1071 134.193 44.2777C133.737 44.7928 133.38 45.3903 133.149 46.0438C132.912 46.5763 132.781 47.1621 132.781 47.7775C132.781 48.3958 132.913 48.9844 133.153 49.519C133.154 49.5236 133.156 49.5281 133.157 49.5326C133.377 50.1469 132.907 50.7869 132.228 50.7869H124.127C123.301 50.7869 122.631 50.1463 122.631 49.356V50.7786C122.631 51.5688 123.301 52.2093 124.127 52.2093H134.039C134.525 52.2093 134.956 51.9877 135.23 51.6445C135.231 51.6425 135.233 51.6404 135.235 51.6383C135.245 51.6243 135.256 51.6101 135.267 51.5956C135.27 51.5918 135.272 51.5879 135.275 51.584C135.284 51.5713 135.293 51.5582 135.302 51.5449C135.305 51.5401 135.309 51.535 135.312 51.5302C135.32 51.5179 135.327 51.5055 135.335 51.4929C135.338 51.4872 135.342 51.4813 135.345 51.4756C135.352 51.4637 135.359 51.4516 135.366 51.4395C135.369 51.4332 135.373 51.4266 135.376 51.4201C135.382 51.4083 135.388 51.3966 135.394 51.3846C135.397 51.3776 135.401 51.3707 135.404 51.3638C135.41 51.3519 135.415 51.34 135.42 51.3281C135.423 51.3209 135.427 51.3136 135.43 51.3064C135.435 51.2942 135.439 51.2819 135.444 51.2697C135.447 51.2625 135.45 51.2552 135.452 51.248C135.457 51.2348 135.462 51.2213 135.466 51.2079C135.468 51.2015 135.47 51.1951 135.473 51.1888C135.479 51.1688 135.484 51.1488 135.49 51.1285C135.439 51.0865 135.39 51.0434 135.341 50.9994C135.336 50.9942 135.33 50.9892 135.324 50.9838C135.277 50.9412 135.231 50.8976 135.187 50.8531C135.18 50.8469 135.174 50.8407 135.168 50.8344C135.123 50.7893 135.079 50.7433 135.036 50.6961C135.032 50.6914 135.027 50.6867 135.023 50.682C134.978 50.6327 134.935 50.5827 134.892 50.5315C134.264 49.7752 133.889 48.8183 133.889 47.7776C133.889 46.4187 134.528 45.203 135.535 44.3901V38.7579C135.535 37.9677 134.865 37.3271 134.039 37.3271Z" fill="#4C83B3"/>
<path d="M125.548 35.9953H132.618V37.3272H125.548V35.9953Z" fill="#5A67AD"/>
<path d="M130.8 35.9953H132.618V37.3272H130.8V35.9953Z" fill="#48538A"/>
<path d="M124.078 34.0799V35.4572C124.078 35.754 124.33 35.9945 124.64 35.9945H133.525C133.835 35.9945 134.087 35.754 134.087 35.4572V32.7024C134.087 32.4056 133.835 32.1651 133.525 32.1651H124.64C124.33 32.1651 124.078 32.4058 124.078 32.7024V34.0799Z" fill="#5B9ED6"/>
<path d="M131.565 32.1651V35.9945H133.525C133.835 35.9945 134.087 35.754 134.087 35.4572V32.7024C134.087 32.4056 133.835 32.1651 133.525 32.1651H131.565Z" fill="#4C83B3"/>
<path d="M132.963 44.7683C132.963 46.8179 131.226 48.4796 129.083 48.4796C126.94 48.4796 125.203 46.8179 125.203 44.7683C125.203 42.7186 126.94 41.0569 129.083 41.0569C131.226 41.0569 132.963 42.7186 132.963 44.7683Z" fill="#EF2D57"/>
<path d="M131.282 41.7109C131.713 42.3088 131.966 43.0332 131.966 43.8142C131.966 45.864 130.229 47.5255 128.086 47.5255C127.269 47.5255 126.512 47.2838 125.887 46.8716C126.587 47.8425 127.757 48.4795 129.083 48.4795C131.226 48.4795 132.963 46.8178 132.963 44.7683C132.963 43.4997 132.297 42.3803 131.282 41.7109Z" fill="#D9294F"/>
<path d="M143.156 47.7775C143.156 50.2252 141.082 52.2093 138.523 52.2093C135.964 52.2093 133.89 50.2252 133.89 47.7775C133.89 45.3299 135.964 43.3458 138.523 43.3458C141.082 43.3458 143.156 45.3299 143.156 47.7775Z" fill="#FCDA55"/>
<path d="M141.323 44.2469C141.914 44.991 142.265 45.9192 142.265 46.9258C142.265 49.3735 140.191 51.3576 137.632 51.3576C136.579 51.3576 135.609 51.0217 134.831 50.4563C135.677 51.5214 137.016 52.2093 138.522 52.2093C141.081 52.2093 143.155 50.2251 143.155 47.7774C143.155 46.3365 142.436 45.0565 141.323 44.2469Z" fill="#D9BC4A"/>
<path d="M135.341 50.9565C135.518 51.1038 135.708 51.2386 135.907 51.3593L142.298 45.2458C142.172 45.055 142.031 44.8739 141.877 44.7043C141.849 44.7195 141.821 44.7384 141.797 44.7617L135.401 50.8798C135.376 50.9031 135.357 50.9289 135.341 50.9565Z" fill="#D9BC4A"/>
<path d="M141.424 37.8402C139.768 38.2236 138.471 39.5248 138.471 41.2114V43.3465C138.488 43.3463 138.505 43.3458 138.523 43.3458C141.082 43.3458 143.156 45.3299 143.156 47.7776C143.156 48.9853 142.651 50.08 141.832 50.8792C141.904 50.8836 141.977 50.8863 142.051 50.8863C144.028 50.8863 145.631 49.353 145.631 47.4617V41.2114C145.631 39.5248 144.356 38.1239 142.678 37.8402C142.678 37.8402 141.853 37.7409 141.424 37.8402Z" fill="#F084AD"/>
<path d="M142.677 37.8403C142.228 37.7814 141.81 37.7814 141.424 37.8403C141.411 37.8424 141.398 37.8453 141.386 37.8475C143.045 38.1459 144.301 39.5375 144.301 41.2115V47.4617C144.301 48.8995 143.374 50.1297 142.061 50.6372C141.988 50.7207 141.911 50.8014 141.831 50.8793C141.904 50.8836 141.977 50.8863 142.051 50.8863C144.028 50.8863 145.631 49.353 145.631 47.4617V41.2115C145.631 39.5248 144.356 38.1239 142.677 37.8403Z" fill="#D47499"/>
<path d="M141.441 44.3366C142.487 45.1492 143.155 46.3887 143.155 47.7775C143.155 48.9853 142.65 50.08 141.831 50.8793C141.903 50.8835 141.976 50.8863 142.05 50.8863C144.027 50.8863 145.63 49.353 145.63 47.4617V44.3366H141.441Z" fill="#EF2D57"/>
<path d="M144.301 47.4617C144.301 48.8995 143.374 50.1295 142.061 50.6372C142.027 50.676 141.992 50.7139 141.957 50.7515C141.95 50.7579 141.944 50.7643 141.938 50.7707C141.903 50.8074 141.867 50.8439 141.831 50.8793C141.904 50.8836 141.977 50.8863 142.05 50.8863C144.028 50.8863 145.631 49.353 145.631 47.4617V44.3366H144.301V47.4617Z" fill="#CC264B"/>
<path d="M130.866 44.4276H129.439V43.063C129.439 42.8748 129.28 42.7222 129.083 42.7222C128.887 42.7222 128.727 42.8748 128.727 43.063V44.4276H127.301C127.104 44.4276 126.944 44.58 126.944 44.7681C126.944 44.9563 127.104 45.1088 127.301 45.1088H128.727V46.4734C128.727 46.6616 128.887 46.8142 129.083 46.8142C129.28 46.8142 129.439 46.6616 129.439 46.4734V45.1088H130.866C131.063 45.1088 131.222 44.9563 131.222 44.7681C131.222 44.58 131.063 44.4276 130.866 44.4276Z" fill="white"/>
<path d="M126.532 36.3267C126.335 36.3267 126.176 36.1741 126.176 35.9859V32.1565C126.176 31.9684 126.335 31.8158 126.532 31.8158C126.729 31.8158 126.888 31.9684 126.888 32.1565V35.9859C126.888 36.1741 126.729 36.3267 126.532 36.3267Z" fill="#674297"/>
<path d="M129.089 36.3267C128.892 36.3267 128.732 36.1741 128.732 35.9859V32.1565C128.732 31.9684 128.892 31.8158 129.089 31.8158C129.285 31.8158 129.445 31.9684 129.445 32.1565V35.9859C129.445 36.1741 129.285 36.3267 129.089 36.3267Z" fill="#674297"/>
<path d="M131.645 36.3267C131.449 36.3267 131.289 36.1741 131.289 35.9859V32.1565C131.289 31.9684 131.449 31.8158 131.645 31.8158C131.842 31.8158 132.001 31.9684 132.001 32.1565V35.9859C132.001 36.1741 131.842 36.3267 131.645 36.3267Z" fill="#674297"/>
<path d="M135.278 51.2183C135.187 51.2183 135.096 51.1849 135.026 51.1184C134.887 50.9853 134.887 50.7696 135.026 50.6365L141.422 44.5185C141.561 44.3856 141.787 44.3854 141.926 44.5185C142.065 44.6516 142.065 44.8673 141.926 45.0004L135.53 51.1184C135.46 51.1849 135.369 51.2183 135.278 51.2183Z" fill="#E69326"/>
</g>
</g>
<defs>
<filter id="filter0_d" x="995" y="0" width="155" height="156" filterUnits="userSpaceOnUse" color-interpolation-filters="sRGB">
<feFlood flood-opacity="0" result="BackgroundImageFix"/>
<feColorMatrix in="SourceAlpha" type="matrix" values="0 0 0 0 0 0 0 0 0 0 0 0 0 0 0 0 0 0 127 0"/>
<feOffset dy="3"/>
<feGaussianBlur stdDeviation="3"/>
<feColorMatrix type="matrix" values="0 0 0 0 0 0 0 0 0 0 0 0 0 0 0 0 0 0 0.3 0"/>
<feBlend mode="normal" in2="BackgroundImageFix" result="effect1_dropShadow"/>
<feBlend mode="normal" in="SourceGraphic" in2="effect1_dropShadow" result="shape"/>
</filter>
<filter id="filter1_d" x="665" y="0" width="156" height="156" filterUnits="userSpaceOnUse" color-interpolation-filters="sRGB">
<feFlood flood-opacity="0" result="BackgroundImageFix"/>
<feColorMatrix in="SourceAlpha" type="matrix" values="0 0 0 0 0 0 0 0 0 0 0 0 0 0 0 0 0 0 127 0"/>
<feOffset dy="3"/>
<feGaussianBlur stdDeviation="3"/>
<feColorMatrix type="matrix" values="0 0 0 0 0 0 0 0 0 0 0 0 0 0 0 0 0 0 0.3 0"/>
<feBlend mode="normal" in2="BackgroundImageFix" result="effect1_dropShadow"/>
<feBlend mode="normal" in="SourceGraphic" in2="effect1_dropShadow" result="shape"/>
</filter>
<filter id="filter2_d" x="334" y="0" width="156.702" height="156" filterUnits="userSpaceOnUse" color-interpolation-filters="sRGB">
<feFlood flood-opacity="0" result="BackgroundImageFix"/>
<feColorMatrix in="SourceAlpha" type="matrix" values="0 0 0 0 0 0 0 0 0 0 0 0 0 0 0 0 0 0 127 0"/>
<feOffset dy="3"/>
<feGaussianBlur stdDeviation="3"/>
<feColorMatrix type="matrix" values="0 0 0 0 0 0 0 0 0 0 0 0 0 0 0 0 0 0 0.3 0"/>
<feBlend mode="normal" in2="BackgroundImageFix" result="effect1_dropShadow"/>
<feBlend mode="normal" in="SourceGraphic" in2="effect1_dropShadow" result="shape"/>
</filter>
<clipPath id="clip0">
<rect width="29" height="29" fill="white" transform="translate(105 254)"/>
</clipPath>
<clipPath id="clip1">
<rect width="143" height="144" fill="white" transform="translate(1001 3)"/>
</clipPath>
<clipPath id="clip2">
<rect width="144" height="144" fill="white" transform="translate(671 3)"/>
</clipPath>
<clipPath id="clip3">
<rect width="163" height="144" fill="white" transform="translate(0 3)"/>
</clipPath>
<clipPath id="clip4">
<rect width="22" height="22" fill="white" transform="translate(14 26)"/>
</clipPath>
<clipPath id="clip5">
<rect width="23" height="23" fill="white" transform="translate(-2 74)"/>
</clipPath>
<clipPath id="clip6">
<rect width="23" height="22" fill="white" transform="translate(122.631 31)"/>
</clipPath>
</defs>
</svg>
