<svg width="43" height="33" viewBox="0 0 43 33" fill="none" xmlns="http://www.w3.org/2000/svg">
<path d="M39.2207 0.123047H3.7793C1.698 0.123047 0 1.8192 0 3.90234V29.0977C0 31.1737 1.69044 32.877 3.7793 32.877H39.2207C41.2968 32.877 43 31.1865 43 29.0977V3.90234C43 1.82625 41.3096 0.123047 39.2207 0.123047ZM38.6988 2.64258L21.5801 19.7614L4.31335 2.64258H38.6988ZM2.51953 28.5759V4.41205L14.6535 16.442L2.51953 28.5759ZM4.30109 30.3574L16.4427 18.2158L20.6971 22.4337C21.1896 22.9219 21.9843 22.9204 22.4748 22.4298L26.623 18.2816L38.6989 30.3574H4.30109ZM40.4805 28.5759L28.4046 16.5L40.4805 4.42405V28.5759Z" fill="#FCFCFC"/>
</svg>
