<svg width="32" height="25" viewBox="0 0 32 25" fill="none" xmlns="http://www.w3.org/2000/svg">
<path d="M28.7164 0.428711H3.28334C1.78978 0.428711 0.571289 1.67154 0.571289 3.19794V21.6595C0.571289 23.1807 1.78436 24.4287 3.28334 24.4287H28.7164C30.2062 24.4287 31.4284 23.1901 31.4284 21.6595V3.19794C31.4284 1.67671 30.2154 0.428711 28.7164 0.428711ZM28.3419 2.27486L16.0574 14.8184L3.66659 2.27486H28.3419ZM2.37932 21.2772V3.57142L11.0868 12.3862L2.37932 21.2772ZM3.65779 22.5826L12.3707 13.6859L15.4237 16.7765C15.7771 17.1343 16.3474 17.1331 16.6994 16.7737L19.6762 13.7341L28.3419 22.5826H3.65779ZM29.6204 21.2771L20.9547 12.4287L29.6204 3.58022V21.2771Z" fill="#062C76"/>
</svg>
