<svg width="48" height="24" viewBox="0 0 48 24" fill="none" xmlns="http://www.w3.org/2000/svg">
<rect x="1" y="1" width="46" height="22" rx="11" stroke="#062C76" stroke-width="2"/>
<g clip-path="url(#clip0)">
<path d="M23.9474 13.1223H0.0546875V13.1227H23.9474V13.1223Z" fill="#C42126"/>
<path d="M22.7018 6.57153H1.29883V6.57189H22.7018V6.57153Z" fill="#C42126"/>
<path d="M23.5516 8.75464H0.447266V8.75499H23.5516V8.75464Z" fill="#C42126"/>
<path d="M5.15799 21.856H18.843L18.8437 21.8552H5.15723L5.15799 21.856Z" fill="#C42126"/>
<path d="M11.9995 0C11.7638 0 11.53 0.00851213 11.2979 0.021787H12.7013C12.469 0.00851213 12.2352 0 11.9995 0Z" fill="#C42126"/>
<path d="M23.9501 10.9385H0.0498047V10.9388H23.9501V10.9385Z" fill="#C42126"/>
<path d="M15.5467 4.38828H21.2767C20.5961 3.55971 19.8051 2.82625 18.9288 2.20532H14.626C14.982 2.83172 15.2882 3.57086 15.5467 4.38828Z" fill="#E7E7E7"/>
<path d="M14.6258 2.20524H18.9286C17.1498 0.944686 15.0142 0.155288 12.7015 0.0217285H12.332C13.4206 0.158733 13.9206 0.964345 14.6258 2.20524Z" fill="#DC3027"/>
<path d="M23.5527 8.75498C23.3394 7.99405 23.0532 7.26399 22.7016 6.57202H16.1094C16.2429 7.2729 16.3483 8.005 16.4264 8.75498H23.5527Z" fill="#E7E7E7"/>
<path d="M15.7383 6.57174H22.7011C22.3043 5.79131 21.8277 5.05896 21.2767 4.38843H15.1943C15.4088 5.06732 15.5909 5.79967 15.7383 6.57174Z" fill="#DC3027"/>
<path d="M16.6787 13.1218H23.946C23.9805 12.7526 24 12.3783 24 12.0002C24 11.6422 23.9813 11.2889 23.9506 10.9387H16.6804C16.7041 11.6648 16.7037 12.3962 16.6787 13.1218Z" fill="#E7E7E7"/>
<path d="M23.9507 10.9383C23.885 10.1886 23.7499 9.45909 23.5526 8.75537H16.1201C16.1948 9.47024 16.2441 10.2016 16.2681 10.9383H23.9507Z" fill="#DC3027"/>
<path d="M15.9844 17.4887H22.6706C23.0272 16.7975 23.3178 16.0669 23.5357 15.3054H16.3076C16.228 16.0565 16.12 16.7885 15.9844 17.4887Z" fill="#E7E7E7"/>
<path d="M23.5355 15.3053C23.7369 14.6018 23.8767 13.8723 23.9462 13.1223H16.4523C16.4267 13.8596 16.376 14.5908 16.2998 15.3053H23.5355Z" fill="#DC3027"/>
<path d="M18.8429 21.8551C19.7319 21.2366 20.5341 20.5024 21.2256 19.6721H15.5953C15.3322 20.4929 15.0197 21.2309 14.6572 21.8551H18.8429Z" fill="#E7E7E7"/>
<path d="M15.3838 19.6721H21.2258C21.7833 19.0023 22.2672 18.27 22.6698 17.4888H15.9346C15.7851 18.2614 15.6012 18.9941 15.3838 19.6721Z" fill="#DC3027"/>
<path d="M11.5649 23.9914C11.5407 23.9906 11.5165 23.9895 11.4922 23.9888C11.5165 23.9895 11.5407 23.9906 11.5649 23.9914Z" fill="#DC3027"/>
<path d="M12 24.0001C14.5441 24.0001 16.9013 23.2059 18.8427 21.856H14.4997C13.7289 23.184 13.2204 24.0001 12 24.0001Z" fill="#DC3027"/>
<path d="M12.0003 23.9999C11.8545 23.9999 11.7098 23.9965 11.5654 23.9915C11.7113 23.9963 11.8562 23.9999 12.0003 23.9999Z" fill="#C42126"/>
<path d="M15.0238 2.20532H5.07182C4.19532 2.82625 3.40445 3.55966 2.72363 4.38828H15.9442C15.6858 3.57086 15.3798 2.83172 15.0238 2.20532Z" fill="#F3F4F5"/>
<path d="M5.07129 2.20524H15.0232C14.3178 0.964345 13.4207 0.158733 12.3321 0.0217285H11.2982C8.98545 0.155288 6.84987 0.944686 5.07129 2.20524Z" fill="#E73625"/>
<path d="M0.447266 8.75498H16.8042C16.7262 8.00485 16.6208 7.2729 16.4873 6.57202H1.29838C0.946695 7.26404 0.660626 7.99405 0.447266 8.75498Z" fill="#F3F4F5"/>
<path d="M2.72309 4.38818C2.17249 5.05872 1.6954 5.79102 1.29883 6.5715H16.4875C16.3403 5.79958 16.1582 5.06728 15.9437 4.38818C15.9437 4.38818 2.72309 4.38818 2.72309 4.38818Z" fill="#E73625"/>
<path d="M0 12.0002C0 12.3784 0.0197096 12.7527 0.0540115 13.1219H16.9511C16.9762 12.3962 16.9765 11.665 16.9529 10.939H0.0494514C0.018747 11.289 0 11.6423 0 12.0002Z" fill="#F3F4F5"/>
<path d="M0.0498047 10.9383H16.953C16.929 10.2015 16.8795 9.47029 16.805 8.75537H0.447696C0.250448 9.45924 0.115368 10.1886 0.0498047 10.9383Z" fill="#E73625"/>
<path d="M16.7987 15.3052H0.464844C0.682764 16.0669 0.973595 16.7973 1.32999 17.4885H16.4754C16.6111 16.7884 16.7189 16.0564 16.7987 15.3052Z" fill="#F3F4F5"/>
<path d="M0.465448 15.3053H16.7993C16.8753 14.5908 16.9262 13.8594 16.9518 13.1223H0.0546875C0.124203 13.8724 0.264248 14.6018 0.465448 15.3053Z" fill="#E73625"/>
<path d="M5.15705 21.8551H14.987C15.3495 21.2308 15.6621 20.4929 15.9251 19.6721H2.77441C3.46582 20.5024 4.26784 21.2366 5.15705 21.8551Z" fill="#F3F4F5"/>
<path d="M1.33008 17.4885C1.73273 18.2697 2.21661 19.0021 2.77405 19.6718H15.9247C16.1419 18.9939 16.3259 18.2612 16.4753 17.4885H1.33008Z" fill="#E73625"/>
<path d="M11.4919 23.9887C11.5162 23.9894 11.5404 23.9905 11.5647 23.9913C11.7091 23.9964 11.8538 23.9998 11.9995 23.9998C13.2199 23.9998 14.215 23.1838 14.986 21.8557H5.15723C6.96844 23.1154 9.14247 23.8907 11.4919 23.9887Z" fill="#E73625"/>
<path d="M11.7525 0.00610352C5.60319 0.131201 0.591163 4.8792 0.0517578 10.9187H11.7527V0.00610352H11.7525Z" fill="#283991"/>
<path d="M2.40016 6.79883L2.58297 7.36174H3.17528L2.69611 7.70983L2.87912 8.27315L2.40016 7.92486L1.92135 8.27315L2.10401 7.70983L1.625 7.36174H2.2173L2.40016 6.79883Z" fill="#EFEFEF"/>
<path d="M2.40016 8.7876L2.58297 9.35087H3.17528L2.69611 9.69895L2.87912 10.2623L2.40016 9.91399L1.92135 10.2623L2.10401 9.69895L1.625 9.35087H2.2173L2.40016 8.7876Z" fill="#EFEFEF"/>
<path d="M4.38962 3.81519L4.57248 4.3783H5.16458L4.68557 4.72659L4.86843 5.28951L4.38962 4.94162L3.91061 5.28951L4.09347 4.72659L3.61426 4.3783H4.20656L4.38962 3.81519Z" fill="#EFEFEF"/>
<path d="M4.38962 5.8042L4.57248 6.36732H5.16458L4.68557 6.7152L4.86843 7.27852L4.38962 6.93064L3.91061 7.27852L4.09347 6.7152L3.61426 6.36732H4.20656L4.38962 5.8042Z" fill="#EFEFEF"/>
<path d="M4.38962 7.79321L4.57248 8.35653H5.16458L4.68557 8.70421L4.86843 9.26754L4.38962 8.9193L3.91061 9.26754L4.09347 8.70421L3.61426 8.35653H4.20656L4.38962 7.79321Z" fill="#EFEFEF"/>
<path d="M0.890437 9.26748L0.707426 8.70416L1.18644 8.35628H0.594489L0.581214 8.31519C0.516207 8.51623 0.457484 8.71971 0.40332 8.92547L0.41168 8.91924L0.890437 9.26748Z" fill="#EFEFEF"/>
<path d="M1.92153 6.28403L2.40034 5.9358L2.87935 6.28403L2.69633 5.72072L3.17534 5.37248H2.58304L2.40018 4.80957L2.21733 5.37248H1.99905C1.95852 5.43389 1.9193 5.49565 1.87988 5.55797L2.10424 5.72072L1.92153 6.28403Z" fill="#EFEFEF"/>
<path d="M4.38957 2.95243L4.86838 3.30031L4.68552 2.7374L5.16433 2.38916H4.82232C4.53185 2.60632 4.2516 2.83615 3.98236 3.07864L3.91016 3.30031L4.38957 2.95243Z" fill="#EFEFEF"/>
<path d="M5.89941 2.30585L6.37842 1.95761L6.85722 2.30585L6.67437 1.74253L7.15317 1.39465H6.56107L6.53625 1.31885C6.33561 1.42135 6.13704 1.528 5.94299 1.6415L6.08207 1.74248L5.89941 2.30585Z" fill="#EFEFEF"/>
<path d="M6.37883 2.82056L6.56169 3.38332H7.1538L6.67478 3.73156L6.85764 4.29488L6.37883 3.94659L5.89982 4.29488L6.08268 3.73156L5.60352 3.38332H6.19577L6.37883 2.82056Z" fill="#EFEFEF"/>
<path d="M6.37883 4.80981L6.56169 5.37258H7.1538L6.67478 5.72081L6.85764 6.28414L6.37883 5.93585L5.89982 6.28414L6.08268 5.72081L5.60352 5.37258H6.19577L6.37883 4.80981Z" fill="#EFEFEF"/>
<path d="M6.37883 6.79883L6.56169 7.36174H7.1538L6.67478 7.70983L6.85764 8.27315L6.37883 7.92486L5.89982 8.27315L6.08268 7.70983L5.60352 7.36174H6.19577L6.37883 6.79883Z" fill="#EFEFEF"/>
<path d="M6.37883 8.7876L6.56169 9.35087H7.1538L6.67478 9.69895L6.85764 10.2623L6.37883 9.91399L5.89982 10.2623L6.08268 9.69895L5.60352 9.35087H6.19577L6.37883 8.7876Z" fill="#EFEFEF"/>
<path d="M8.36809 1.82593L8.55095 2.38904H9.14305L8.66424 2.73733L8.84689 3.30024L8.36809 2.95236L7.88892 3.30024L8.07194 2.73733L7.59277 2.38904H8.18503L8.36809 1.82593Z" fill="#EFEFEF"/>
<path d="M8.36809 3.81519L8.55095 4.3783H9.14305L8.66424 4.72659L8.84689 5.28951L8.36809 4.94162L7.88892 5.28951L8.07194 4.72659L7.59277 4.3783H8.18503L8.36809 3.81519Z" fill="#EFEFEF"/>
<path d="M8.36809 5.8042L8.55095 6.36732H9.14305L8.66424 6.7152L8.84689 7.27852L8.36809 6.93064L7.88892 7.27852L8.07194 6.7152L7.59277 6.36732H8.18503L8.36809 5.8042Z" fill="#EFEFEF"/>
<path d="M8.36809 7.79321L8.55095 8.35653H9.14305L8.66424 8.70421L8.84689 9.26754L8.36809 8.9193L7.88892 9.26754L8.07194 8.70421L7.59277 8.35653H8.18503L8.36809 7.79321Z" fill="#EFEFEF"/>
<path d="M10.3573 0.831543L10.5402 1.39466H11.1323L10.6533 1.74254L10.8362 2.30586L10.3573 1.95757L9.87818 2.30586L10.0612 1.74254L9.58203 1.39466H10.1741L10.3573 0.831543Z" fill="#EFEFEF"/>
<path d="M10.3573 2.82056L10.5402 3.38332H11.1323L10.6533 3.73156L10.8362 4.29488L10.3573 3.94659L9.87818 4.29488L10.0612 3.73156L9.58203 3.38332H10.1741L10.3573 2.82056Z" fill="#EFEFEF"/>
<path d="M10.3573 4.80981L10.5402 5.37258H11.1323L10.6533 5.72081L10.8362 6.28414L10.3573 5.93585L9.87818 6.28414L10.0612 5.72081L9.58203 5.37258H10.1741L10.3573 4.80981Z" fill="#EFEFEF"/>
<path d="M10.3573 6.79883L10.5402 7.36174H11.1323L10.6533 7.70983L10.8362 8.27315L10.3573 7.92486L9.87818 8.27315L10.0612 7.70983L9.58203 7.36174H10.1741L10.3573 6.79883Z" fill="#EFEFEF"/>
<path d="M10.3573 8.7876L10.5402 9.35087H11.1323L10.6533 9.69895L10.8362 10.2623L10.3573 9.91399L9.87818 10.2623L10.0612 9.69895L9.58203 9.35087H10.1741L10.3573 8.7876Z" fill="#EFEFEF"/>
</g>
<path d="M28.2924 10.703L33.3168 15.7087C33.7087 16.0971 34.3418 16.0971 34.7337 15.7087L39.7581 10.703C40.0806 10.3285 40.0806 9.7749 39.7581 9.40049C39.3973 8.98099 38.7623 8.93197 38.3412 9.29139L34.0303 13.5862L29.7093 9.29134C29.3174 8.90289 28.6843 8.90289 28.2924 9.29134C27.9025 9.6818 27.9025 10.3125 28.2924 10.703Z" fill="#062C76"/>
<defs>
<clipPath id="clip0">
<rect width="24" height="24" fill="white"/>
</clipPath>
</defs>
</svg>
