<svg width="72" height="72" viewBox="0 0 72 72" fill="none" xmlns="http://www.w3.org/2000/svg">
<circle cx="36.2403" cy="36.2403" r="33.9903" fill="white" stroke="#062C76" stroke-width="3.5"/>
<path d="M44.8091 36.7904C44.8056 35.6799 44.5572 34.6244 43.3862 33.6143C42.1637 32.5295 40.5706 32.4631 39.9885 33.4184C39.4543 34.2955 39.9768 35.6975 41.1571 36.5512C41.5677 36.8475 42.0029 37.0364 42.4192 37.1227C42.2746 37.5904 41.8348 38.0663 41.1642 38.4675C40.2421 39.0179 39.744 39.086 33.844 41.0452C31.6606 41.787 30.3613 43.2612 30.3613 44.9887C30.3613 46.2192 30.9899 47.1687 31.8635 47.8639C32.4129 47.2981 33.0988 46.8072 33.9001 46.414C32.9775 45.9475 32.6928 45.5941 32.6928 44.9887C32.6928 43.9896 34.6899 43.4183 35.6112 43.1143V45.6431L37.944 44.6026V43.1155C38.8667 43.4211 40.8587 43.9916 40.8587 44.9887C40.8587 46.6475 36.1088 47.6257 34.0879 49.0197C33.107 49.6997 32.5796 50.564 32.5796 51.5799C32.5796 52.1631 32.6474 52.8862 33.6714 53.6047C33.9618 53.8367 34.3652 53.4978 34.1766 53.1719C33.5 51.8177 34.2184 51.1413 35.6135 50.5557V52.5129C35.6135 53.1567 36.136 53.6793 36.7799 53.6793C37.4237 53.6793 37.9462 53.1567 37.9462 52.5129V50.5569C39.2863 51.1191 40.1297 51.9134 39.3797 53.1719C39.1938 53.4916 39.5896 53.8395 39.8836 53.6047C40.875 52.8535 40.9531 52.2096 40.9531 51.595C40.9531 50.6492 40.4353 49.7312 39.4532 49.0278C41.4384 48.3105 43.1949 47.1033 43.1949 44.991C43.1949 43.5319 42.2678 42.2536 40.6651 41.4441C41.4138 41.1747 41.7905 40.9939 42.2909 40.6954C44.4826 39.3855 44.8091 37.6861 44.8091 36.7904ZM42.0263 35.0174C41.7042 35.0174 41.4431 34.7526 41.4431 34.4249C41.4431 34.0971 41.7042 33.8324 42.0263 33.8324C42.348 33.8324 42.6094 34.0971 42.6094 34.4249C42.6094 34.7526 42.3481 35.0174 42.0263 35.0174Z" fill="#940103"/>
<path d="M53.0975 22.1909H45.1096C43.5426 22.1909 42.3666 22.8835 41.355 23.8952C40.256 24.9942 39.6846 27.4373 37.9347 27.4373V24.1978C38.6291 23.7938 39.101 23.05 39.101 22.1886C39.101 20.9003 38.0567 19.8559 36.7683 19.8559C35.4799 19.8559 34.4355 20.9003 34.4355 22.1886C34.4355 23.0499 34.9075 23.7937 35.6019 24.1978V38.0984C36.3218 37.8688 37.1119 37.6158 37.9347 37.3515V31.5091C38.4407 31.2552 38.849 30.8447 39.0994 30.3367C39.5051 31.0301 40.2764 31.5218 41.136 31.5218C42.008 31.5218 42.7592 31.0377 43.1594 30.3292C44.5258 31.6957 47.0656 31.722 48.432 30.3556L46.4499 28.3735L47.3591 28.7502C49.1446 29.4897 51.1914 28.6418 51.9311 26.8564L49.1153 25.6901C51.8431 25.69 53.0975 23.9783 53.0975 22.1909Z" fill="#940103"/>
<path d="M32.1819 23.8952C31.1703 22.8835 29.9944 22.1909 28.4273 22.1909H20.4395C20.4395 23.9782 21.6938 25.69 24.4217 25.69L21.6058 26.8563C22.3454 28.6418 24.3924 29.4896 26.1778 28.7501L27.087 28.3734L25.1049 30.3555C26.4713 31.722 29.0111 31.6957 30.3775 30.3291C30.7777 31.0377 31.5289 31.5218 32.4009 31.5218C32.4095 31.5218 32.4181 31.5218 32.4267 31.5217C33.5664 31.5087 34.4375 30.4792 34.4375 29.3395V26.993C33.5182 26.2387 32.9916 24.705 32.1819 23.8952Z" fill="#940103"/>
<circle cx="36.24" cy="36.2403" r="28.3191" stroke="#940103" stroke-width="1.5"/>
</svg>
