<svg width="16" height="31" viewBox="0 0 16 31" fill="none" xmlns="http://www.w3.org/2000/svg">
<path d="M13.7251 0H2.02317C0.904063 0 0 1.01165 0 2.25908V28.7439C0 29.9874 0.904063 31 2.02317 31H13.7251C14.8424 31 15.75 29.9884 15.75 28.7439V2.25908C15.7491 1.01165 14.8424 0 13.7251 0ZM14.2324 25.117H1.5176V3.81079H14.2324V25.117ZM10.5872 2.29235H5.16193V1.63292H10.5881L10.5872 2.29235ZM12.9088 1.99101C12.9088 2.30996 12.6753 2.56825 12.39 2.56825C12.1039 2.56825 11.8713 2.30898 11.8713 1.99101C11.8713 1.67303 12.1039 1.41376 12.39 1.41376C12.6762 1.41278 12.9088 1.67205 12.9088 1.99101ZM10.3441 28.5932H5.40331V26.8986H10.3441V28.5932Z" fill="#062C76"/>
</svg>
