<svg width="25" height="43" viewBox="0 0 25 43" fill="none" xmlns="http://www.w3.org/2000/svg">
<path d="M21.5444 0H3.45138C1.72106 0 0.323242 1.40325 0.323242 3.13356V39.8705C0.323242 41.5954 1.72106 43 3.45138 43H21.5444C23.272 43 24.6752 41.5967 24.6752 39.8705V3.13356C24.6738 1.40325 23.272 0 21.5444 0ZM22.3288 34.8397H2.66968V5.28594H22.3288V34.8397ZM16.6927 3.17971H8.3044V2.26502H16.694L16.6927 3.17971ZM20.2822 2.76172C20.2822 3.20413 19.9213 3.56241 19.4802 3.56241C19.0378 3.56241 18.6781 3.20278 18.6781 2.76172C18.6781 2.32066 19.0378 1.96102 19.4802 1.96102C19.9226 1.95967 20.2822 2.3193 20.2822 2.76172ZM16.3168 39.6615H8.6776V37.311H16.3168V39.6615Z" fill="#FCFCFC"/>
</svg>
