<svg width="24" height="24" viewBox="0 0 24 24" fill="none" xmlns="http://www.w3.org/2000/svg">
<path d="M23.189 18.9127L19.224 14.9626C19.9449 13.5262 20.4255 11.8504 20.4255 10.1746C20.4255 4.54863 15.8598 0 10.2128 0C4.56571 0 0 4.54863 0 10.1746C0 15.8005 4.56571 20.3491 10.2128 20.3491C11.8949 20.3491 13.577 19.8703 15.0188 19.1521L18.9837 23.1022C20.1852 24.2993 21.9875 24.2993 23.189 23.1022C24.2703 21.9052 24.2703 20.1097 23.189 18.9127ZM10.2128 17.9551C5.88736 17.9551 2.403 14.4838 2.403 10.1746C2.403 5.86534 5.88736 2.39402 10.2128 2.39402C14.5382 2.39402 18.0225 5.86534 18.0225 10.1746C18.0225 14.4838 14.5382 17.9551 10.2128 17.9551Z" fill="#062C76"/>
</svg>
