<svg width="135" height="148" viewBox="0 0 135 148" fill="none" xmlns="http://www.w3.org/2000/svg">
<path d="M47.3314 119.766L45.8399 115.547C45.7512 115.326 45.6562 115.066 45.5549 114.768C45.4599 114.471 45.368 114.148 45.2794 113.799C45.1907 114.154 45.0957 114.483 44.9944 114.787C44.8994 115.085 44.8075 115.345 44.7189 115.566L43.2369 119.766H47.3314ZM52.1194 125H49.9059C49.6589 125 49.4562 124.943 49.2979 124.829C49.1459 124.709 49.0319 124.557 48.9559 124.373L48.0249 121.741H42.5339L41.6029 124.373C41.5395 124.531 41.4287 124.677 41.2704 124.81C41.112 124.937 40.9125 125 40.6719 125H38.4394L43.8259 111.215H46.7424L52.1194 125ZM58.0502 118.074C58.9432 118.074 59.5955 117.859 60.0072 117.428C60.4252 116.998 60.6342 116.409 60.6342 115.661C60.6342 115.319 60.5803 115.009 60.4727 114.73C60.3713 114.445 60.213 114.205 59.9977 114.008C59.7887 113.806 59.5227 113.651 59.1997 113.543C58.8767 113.435 58.4935 113.381 58.0502 113.381H56.2452V118.074H58.0502ZM58.0502 111.215C58.9938 111.215 59.8077 111.326 60.4917 111.548C61.182 111.77 61.7488 112.08 62.1922 112.479C62.6355 112.872 62.9617 113.34 63.1707 113.885C63.386 114.43 63.4937 115.022 63.4937 115.661C63.4937 116.339 63.3828 116.96 63.1612 117.523C62.9395 118.087 62.6038 118.572 62.1542 118.977C61.7045 119.382 61.1377 119.699 60.4537 119.927C59.7697 120.149 58.9685 120.259 58.0502 120.259H56.2452V125H53.3952V111.215H58.0502ZM69.9623 118.074C70.8553 118.074 71.5076 117.859 71.9193 117.428C72.3373 116.998 72.5463 116.409 72.5463 115.661C72.5463 115.319 72.4924 115.009 72.3848 114.73C72.2834 114.445 72.1251 114.205 71.9098 114.008C71.7008 113.806 71.4348 113.651 71.1118 113.543C70.7888 113.435 70.4056 113.381 69.9623 113.381H68.1573V118.074H69.9623ZM69.9623 111.215C70.9059 111.215 71.7198 111.326 72.4038 111.548C73.0941 111.77 73.6609 112.08 74.1043 112.479C74.5476 112.872 74.8738 113.34 75.0828 113.885C75.2981 114.43 75.4058 115.022 75.4058 115.661C75.4058 116.339 75.2949 116.96 75.0733 117.523C74.8516 118.087 74.5159 118.572 74.0663 118.977C73.6166 119.382 73.0498 119.699 72.3658 119.927C71.6818 120.149 70.8806 120.259 69.9623 120.259H68.1573V125H65.3073V111.215H69.9623ZM85.3989 122.682V125H77.2194V111.215H80.0694V122.682H85.3989ZM91.5598 119.699V125H88.7098V119.699L83.7033 111.215H86.2113C86.4583 111.215 86.6546 111.276 86.8003 111.396C86.9523 111.51 87.0726 111.659 87.1613 111.842L89.4223 116.184C89.5743 116.475 89.7105 116.748 89.8308 117.001C89.9575 117.254 90.0683 117.508 90.1633 117.761C90.252 117.508 90.3533 117.254 90.4673 117.001C90.5876 116.741 90.7206 116.469 90.8663 116.184L93.1083 111.842C93.1843 111.69 93.2983 111.548 93.4503 111.415C93.6023 111.282 93.7986 111.215 94.0393 111.215H96.5663L91.5598 119.699ZM46.5731 139.103C46.5731 140.11 46.4021 141.044 46.0601 141.905C45.7244 142.767 45.2462 143.511 44.6256 144.138C44.0112 144.765 43.2702 145.259 42.4026 145.62C41.5349 145.975 40.5722 146.152 39.5146 146.152C38.4569 146.152 37.4942 145.975 36.6266 145.62C35.7589 145.259 35.0147 144.765 34.3941 144.138C33.7734 143.511 33.2921 142.767 32.9501 141.905C32.6144 141.044 32.4466 140.11 32.4466 139.103C32.4466 138.096 32.6144 137.165 32.9501 136.31C33.2921 135.449 33.7734 134.704 34.3941 134.077C35.0147 133.45 35.7589 132.96 36.6266 132.605C37.4942 132.244 38.4569 132.063 39.5146 132.063C40.5722 132.063 41.5349 132.244 42.4026 132.605C43.2702 132.96 44.0112 133.454 44.6256 134.087C45.2462 134.714 45.7244 135.458 46.0601 136.319C46.4021 137.174 46.5731 138.102 46.5731 139.103ZM43.6566 139.103C43.6566 138.381 43.5616 137.735 43.3716 137.165C43.1816 136.589 42.9061 136.101 42.5451 135.702C42.1904 135.297 41.7566 134.989 41.2436 134.78C40.7369 134.565 40.1606 134.457 39.5146 134.457C38.8686 134.457 38.2891 134.565 37.7761 134.78C37.2631 134.989 36.8261 135.297 36.4651 135.702C36.1104 136.101 35.8381 136.589 35.6481 137.165C35.4581 137.735 35.3631 138.381 35.3631 139.103C35.3631 139.831 35.4581 140.484 35.6481 141.06C35.8381 141.63 36.1104 142.114 36.4651 142.513C36.8261 142.912 37.2631 143.22 37.7761 143.435C38.2891 143.644 38.8686 143.748 39.5146 143.748C40.1606 143.748 40.7369 143.644 41.2436 143.435C41.7566 143.22 42.1904 142.912 42.5451 142.513C42.9061 142.114 43.1816 141.63 43.3716 141.06C43.5616 140.484 43.6566 139.831 43.6566 139.103ZM60.463 132.215V146H58.9904C58.7688 146 58.5819 145.965 58.43 145.895C58.2779 145.819 58.1291 145.693 57.9834 145.515L51.1149 136.775C51.1339 136.997 51.1466 137.216 51.1529 137.431C51.1656 137.646 51.1719 137.846 51.1719 138.029V146H48.6544V132.215H50.1554C50.2758 132.215 50.3771 132.222 50.4594 132.234C50.5481 132.241 50.6273 132.263 50.6969 132.301C50.7666 132.333 50.8331 132.377 50.8964 132.434C50.9598 132.491 51.0294 132.567 51.1054 132.662L58.0214 141.44C57.9961 141.199 57.9771 140.968 57.9645 140.746C57.9518 140.518 57.9454 140.303 57.9454 140.1V132.215H60.463ZM71.5293 143.682V146H63.3498V132.215H66.1998V143.682H71.5293ZM76.1455 146H73.2765V132.215H76.1455V146ZM90.837 132.215V146H89.3645C89.1428 146 88.956 145.965 88.804 145.895C88.652 145.819 88.5031 145.693 88.3575 145.515L81.489 136.775C81.508 136.997 81.5206 137.216 81.527 137.431C81.5396 137.646 81.546 137.846 81.546 138.029V146H79.0285V132.215H80.5295C80.6498 132.215 80.7511 132.222 80.8335 132.234C80.9221 132.241 81.0013 132.263 81.071 132.301C81.1406 132.333 81.2071 132.377 81.2705 132.434C81.3338 132.491 81.4035 132.567 81.4795 132.662L88.3955 141.44C88.3701 141.199 88.3511 140.968 88.3385 140.746C88.3258 140.518 88.3195 140.303 88.3195 140.1V132.215H90.837ZM96.5928 134.448V137.991H101.191V140.148H96.5928V143.767H102.502V146H93.7238V132.215H102.502V134.448H96.5928Z" fill="#062C76"/>
<g filter="url(#filter0_d)">
<path d="M32.163 24.4615H104.385C106.05 24.4615 107.648 25.1833 108.826 26.468C110.003 27.7527 110.665 29.4951 110.665 31.3119V75.8392H25.8828V31.3119C25.8828 29.4951 26.5445 27.7527 27.7222 26.468C28.9 25.1833 30.4974 24.4615 32.163 24.4615V24.4615Z" fill="#353744"/>
<path d="M32.1994 24.4615H98.5237C100.199 24.4615 101.806 25.1833 102.99 26.468C104.175 27.7527 104.84 29.4951 104.84 31.3119V75.8392H25.8828V31.3119C25.8828 29.4951 26.5483 27.7527 27.7329 26.468C28.9175 25.1833 30.5241 24.4615 32.1994 24.4615V24.4615Z" fill="#55525B"/>
<path d="M104.385 83.6433H32.163C30.4974 83.6433 28.9 82.9855 27.7222 81.8147C26.5445 80.6438 25.8828 79.0558 25.8828 77.4V75.8391H110.665V77.4C110.665 79.0558 110.003 80.6438 108.826 81.8147C107.648 82.9855 106.05 83.6433 104.385 83.6433V83.6433Z" fill="#A5C3DC"/>
<path d="M25.8828 75.8391H104.84V77.4C104.84 79.0558 104.175 80.6438 102.99 81.8147C101.806 82.9855 100.199 83.6433 98.5237 83.6433H32.1994C30.5241 83.6433 28.9175 82.9855 27.7329 81.8147C26.5483 80.6438 25.8828 79.0558 25.8828 77.4V75.8391Z" fill="#D7E6E6"/>
<path d="M58.8896 83.6433H73.1279V91.4475H58.8896V83.6433Z" fill="#AAC3D7"/>
<path d="M58.8896 88.1958H68.5975V91.4475H58.8896V88.1958Z" fill="#D7E6E6"/>
<path d="M52.9356 91.4475H77.7878C78.6117 91.4475 79.4019 91.7673 79.9845 92.3364C80.5671 92.9056 80.8943 93.6776 80.8943 94.4825V96H49.8291V94.4825C49.8291 93.6776 50.1564 92.9056 50.739 92.3364C51.3216 91.7673 52.1117 91.4475 52.9356 91.4475V91.4475Z" fill="#D7E6E6"/>
<path d="M74.8542 91.4475H77.8744C78.6755 91.4475 79.4437 91.7673 80.0101 92.3364C80.5765 92.9056 80.8947 93.6776 80.8947 94.4825V96H71.834V94.4825C71.834 93.6776 72.1522 92.9056 72.7186 92.3364C73.285 91.7673 74.0532 91.4475 74.8542 91.4475Z" fill="#AAC3D7"/>
<path d="M95.1325 75.8392H35.5908V9.77574C35.5908 7.9787 36.2511 6.25526 37.4265 4.98457C38.6019 3.71387 40.1961 3 41.8584 3H79.4637L95.1325 18.2454V75.8392Z" fill="#6EA5D7"/>
<path d="M82.512 51.7763C86.6225 51.7763 89.9548 47.991 89.9548 43.3217C89.9548 38.6524 86.6225 34.8672 82.512 34.8672C78.4015 34.8672 75.0693 38.6524 75.0693 43.3217C75.0693 47.991 78.4015 51.7763 82.512 51.7763Z" fill="#6478B9"/>
<path d="M82.512 66.7343C86.6225 66.7343 89.9548 63.3858 89.9548 59.2553C89.9548 55.1247 86.6225 51.7762 82.512 51.7762C78.4015 51.7762 75.0693 55.1247 75.0693 59.2553C75.0693 63.3858 78.4015 66.7343 82.512 66.7343Z" fill="#6478B9"/>
<path d="M82.5122 44.6223C82.2996 44.6226 82.0892 44.5835 81.8928 44.5072C81.6965 44.4309 81.5181 44.319 81.368 44.1779L78.1321 41.143C77.8287 40.8584 77.6582 40.4724 77.6582 40.0699C77.6582 39.6675 77.8287 39.2815 78.1321 38.9969C78.4355 38.7123 78.8471 38.5524 79.2762 38.5524C79.7053 38.5524 80.1169 38.7123 80.4203 38.9969L82.5122 40.959L87.8399 35.9619C88.1434 35.6773 88.5549 35.5175 88.984 35.5175C89.4132 35.5175 89.8247 35.6773 90.1282 35.9619C90.4316 36.2465 90.6021 36.6325 90.6021 37.035C90.6021 37.4374 90.4316 37.8234 90.1282 38.108L83.6563 44.1779C83.5062 44.319 83.3278 44.4309 83.1315 44.5072C82.9352 44.5835 82.7247 44.6226 82.5122 44.6223V44.6223Z" fill="#D7E6F0"/>
<path d="M69.2864 40.2H44.6481C43.3452 40.2 42.2891 41.3355 42.2891 42.7363C42.2891 44.1371 43.3452 45.2727 44.6481 45.2727H69.2864C70.5892 45.2727 71.6454 44.1371 71.6454 42.7363C71.6454 41.3355 70.5892 40.2 69.2864 40.2Z" fill="#6478B9"/>
<path d="M74.0045 11.4545H66.1412C64.8384 11.4545 63.7822 12.59 63.7822 13.9908C63.7822 15.3916 64.8384 16.5272 66.1412 16.5272H74.0045C75.3074 16.5272 76.3635 15.3916 76.3635 13.9908C76.3635 12.59 75.3074 11.4545 74.0045 11.4545Z" fill="#6478B9"/>
<path d="M80.2952 21.6H66.1412C64.8384 21.6 63.7822 22.7355 63.7822 24.1363C63.7822 25.5371 64.8384 26.6727 66.1412 26.6727H80.2952C81.598 26.6727 82.6542 25.5371 82.6542 24.1363C82.6542 22.7355 81.598 21.6 80.2952 21.6Z" fill="#6478B9"/>
<path d="M79.5088 3V11.4545C79.5088 13.2484 80.1716 14.9687 81.3513 16.2372C82.531 17.5056 84.1311 18.2182 85.7994 18.2182H95.2354L79.5088 3Z" fill="#6478B9"/>
<path d="M101.686 84.9441H79.6003V64.7832H104.841V81.584C104.841 82.4751 104.508 83.3298 103.917 83.9599C103.325 84.5901 102.523 84.9441 101.686 84.9441Z" fill="#F0915A"/>
<path d="M104.841 64.7832H98.3689V61.8566C98.3689 61.0805 98.7098 60.3361 99.3167 59.7872C99.9235 59.2384 100.747 58.9301 101.605 58.9301C102.463 58.9301 103.286 59.2384 103.893 59.7872C104.5 60.3361 104.841 61.0805 104.841 61.8566V64.7832Z" fill="#FAB991"/>
<path d="M98.3691 64.7832H91.8972V61.8566C91.8972 61.0805 92.2381 60.3361 92.845 59.7872C93.4519 59.2384 94.2749 58.9301 95.1332 58.9301C95.9914 58.9301 96.8145 59.2384 97.4214 59.7872C98.0282 60.3361 98.3691 61.0805 98.3691 61.8566V64.7832Z" fill="#FAB991"/>
<path d="M91.8965 64.7832H86.0718V61.8566C86.0718 61.0805 86.3786 60.3361 86.9248 59.7872C87.4709 59.2384 88.2117 58.9301 88.9841 58.9301C89.7565 58.9301 90.4973 59.2384 91.0435 59.7872C91.5896 60.3361 91.8965 61.0805 91.8965 61.8566V64.7832Z" fill="#FAB991"/>
<path d="M86.0723 64.7832H79.6003V46.6234C79.6003 45.7478 79.9413 44.9079 80.5481 44.2887C81.155 43.6695 81.9781 43.3217 82.8363 43.3217C83.6945 43.3217 84.5176 43.6695 85.1245 44.2887C85.7313 44.9079 86.0723 45.7478 86.0723 46.6234V64.7832Z" fill="#FAB991"/>
<path d="M101.604 91.4475H79.5999V84.944H101.604V91.4475Z" fill="#F0915A"/>
<path d="M90.6025 91.4475H79.6003V84.944H85.8873C87.1378 84.944 88.3372 85.6292 89.2215 86.8488C90.1058 88.0685 90.6025 89.7227 90.6025 91.4475Z" fill="#FAB991"/>
<path d="M79.6006 84.9441C77.8841 84.9441 76.238 84.2361 75.0242 82.9758C73.8105 81.7155 73.1287 80.0061 73.1287 78.2238V66.4633C73.1287 66.0177 73.2991 65.5904 73.6025 65.2753C73.906 64.9603 74.3175 64.7832 74.7466 64.7832C76.034 64.7832 77.2686 65.3143 78.1789 66.2595C79.0892 67.2047 79.6006 68.4867 79.6006 69.8235V84.9441Z" fill="#FAB991"/>
<path d="M79.5283 91.4475H101.677C102.516 91.4475 103.321 91.7673 103.914 92.3364C104.507 92.9056 104.841 93.6776 104.841 94.4825V96H76.3643V94.4825C76.3643 93.6776 76.6976 92.9056 77.291 92.3364C77.8844 91.7673 78.6892 91.4475 79.5283 91.4475Z" fill="#55525B"/>
<path d="M90.6025 91.4475H101.677C102.516 91.4475 103.321 91.7673 103.914 92.3364C104.507 92.9056 104.841 93.6776 104.841 94.4825V96H90.6025V91.4475Z" fill="#353744"/>
<path d="M82.5125 47.8741C83.4061 47.8741 84.1305 47.1461 84.1305 46.2482C84.1305 45.3502 83.4061 44.6223 82.5125 44.6223C81.6189 44.6223 80.8945 45.3502 80.8945 46.2482C80.8945 47.1461 81.6189 47.8741 82.5125 47.8741Z" fill="#F0915A"/>
<path d="M73.1279 66.7343C74.1578 66.7343 75.1455 67.2139 75.8737 68.0677C76.602 68.9214 77.0111 70.0794 77.0111 71.2868C77.0111 71.4576 76.9824 71.6267 76.9266 71.7846C76.8709 71.9424 76.7891 72.0858 76.6861 72.2065C76.583 72.3273 76.4607 72.4231 76.3261 72.4885C76.1915 72.5538 76.0472 72.5874 75.9015 72.5874H73.1279V66.7343V66.7343Z" fill="#F0915A"/>
<path d="M51.4468 29.6644C56.6296 29.6644 60.8311 25.1512 60.8311 19.584C60.8311 14.0167 56.6296 9.50354 51.4468 9.50354C46.264 9.50354 42.0625 14.0167 42.0625 19.584C42.0625 25.1512 46.264 29.6644 51.4468 29.6644Z" fill="#6478B9"/>
<path d="M51.1234 21.8601C53.268 21.8601 55.0065 20.1131 55.0065 17.958C55.0065 15.8029 53.268 14.0559 51.1234 14.0559C48.9788 14.0559 47.2402 15.8029 47.2402 17.958C47.2402 20.1131 48.9788 21.8601 51.1234 21.8601Z" fill="#6EA5D7"/>
<path d="M69.4411 56.979H44.4548C43.1336 56.979 42.0625 57.9981 42.0625 59.2552C42.0625 60.5123 43.1336 61.5314 44.4548 61.5314H69.4411C70.7623 61.5314 71.8334 60.5123 71.8334 59.2552C71.8334 57.9981 70.7623 56.979 69.4411 56.979Z" fill="#6478B9"/>
<path d="M54.3593 21.8601H47.8873C47.03 21.8601 46.2077 22.1678 45.601 22.7156C44.9943 23.2633 44.6528 24.0065 44.6514 24.7818C45.4039 25.6918 46.3807 26.4306 47.5041 26.9394C48.6276 27.4483 49.8668 27.7133 51.1233 27.7133C52.3798 27.7133 53.619 27.4483 54.7424 26.9394C55.8659 26.4306 56.8427 25.6918 57.5952 24.7818C57.5938 24.0065 57.2523 23.2633 56.6456 22.7156C56.0389 22.1678 55.2166 21.8601 54.3593 21.8601Z" fill="#6EA5D7"/>
</g>
<defs>
<filter id="filter0_d" x="16" y="0" width="105" height="105" filterUnits="userSpaceOnUse" color-interpolation-filters="sRGB">
<feFlood flood-opacity="0" result="BackgroundImageFix"/>
<feColorMatrix in="SourceAlpha" type="matrix" values="0 0 0 0 0 0 0 0 0 0 0 0 0 0 0 0 0 0 127 0"/>
<feOffset dy="3"/>
<feGaussianBlur stdDeviation="3"/>
<feColorMatrix type="matrix" values="0 0 0 0 0 0 0 0 0 0 0 0 0 0 0 0 0 0 0.3 0"/>
<feBlend mode="normal" in2="BackgroundImageFix" result="effect1_dropShadow"/>
<feBlend mode="normal" in="SourceGraphic" in2="effect1_dropShadow" result="shape"/>
</filter>
</defs>
</svg>
