<svg width="135" height="145" viewBox="0 0 135 145" fill="none" xmlns="http://www.w3.org/2000/svg">
<path d="M38.6322 118.608C38.7906 118.608 38.9236 118.665 39.0312 118.779L40.1617 119.986C39.6044 120.695 38.9109 121.234 38.0812 121.601C37.2579 121.968 36.2762 122.152 35.1362 122.152C34.1039 122.152 33.1761 121.978 32.3527 121.629C31.5294 121.275 30.8296 120.784 30.2532 120.157C29.6769 119.53 29.2336 118.786 28.9232 117.924C28.6129 117.063 28.4577 116.123 28.4577 115.103C28.4577 114.419 28.5306 113.77 28.6762 113.155C28.8282 112.535 29.0467 111.965 29.3317 111.445C29.6167 110.926 29.9587 110.457 30.3577 110.039C30.7631 109.621 31.2191 109.267 31.7257 108.975C32.2324 108.678 32.7834 108.453 33.3787 108.301C33.9804 108.143 34.6201 108.063 35.2977 108.063C35.8044 108.063 36.2826 108.108 36.7322 108.196C37.1882 108.285 37.6126 108.409 38.0052 108.567C38.3979 108.725 38.7589 108.918 39.0882 109.146C39.4239 109.368 39.7247 109.612 39.9907 109.878L39.0312 111.189C38.9742 111.271 38.9014 111.344 38.8127 111.407C38.7241 111.471 38.6037 111.502 38.4517 111.502C38.2997 111.502 38.1446 111.449 37.9862 111.341C37.8342 111.233 37.6442 111.113 37.4162 110.98C37.1946 110.847 36.9127 110.727 36.5707 110.619C36.2351 110.511 35.8076 110.457 35.2882 110.457C34.7119 110.457 34.1831 110.562 33.7017 110.771C33.2204 110.98 32.8056 111.284 32.4572 111.683C32.1152 112.076 31.8492 112.56 31.6592 113.136C31.4692 113.713 31.3742 114.368 31.3742 115.103C31.3742 115.844 31.4756 116.506 31.6782 117.088C31.8872 117.665 32.1691 118.152 32.5237 118.551C32.8847 118.95 33.3027 119.254 33.7777 119.463C34.2591 119.666 34.7721 119.767 35.3167 119.767C35.6397 119.767 35.9311 119.752 36.1907 119.72C36.4567 119.688 36.7006 119.634 36.9222 119.559C37.1502 119.482 37.3624 119.384 37.5587 119.264C37.7614 119.144 37.9641 118.992 38.1667 118.808C38.2364 118.751 38.3092 118.703 38.3852 118.665C38.4612 118.627 38.5436 118.608 38.6322 118.608ZM53.5792 108.215V122H50.7102V116.062H44.6397V122H41.7707V108.215H44.6397V114.067H50.7102V108.215H53.5792ZM69.785 115.103C69.785 116.11 69.614 117.044 69.272 117.905C68.9363 118.767 68.4581 119.511 67.8375 120.138C67.2231 120.765 66.4821 121.259 65.6145 121.62C64.7468 121.975 63.7841 122.152 62.7265 122.152C61.6688 122.152 60.7061 121.975 59.8385 121.62C58.9708 121.259 58.2266 120.765 57.606 120.138C56.9853 119.511 56.504 118.767 56.162 117.905C55.8263 117.044 55.6585 116.11 55.6585 115.103C55.6585 114.096 55.8263 113.165 56.162 112.31C56.504 111.449 56.9853 110.704 57.606 110.077C58.2266 109.45 58.9708 108.96 59.8385 108.605C60.7061 108.244 61.6688 108.063 62.7265 108.063C63.7841 108.063 64.7468 108.244 65.6145 108.605C66.4821 108.96 67.2231 109.454 67.8375 110.087C68.4581 110.714 68.9363 111.458 69.272 112.319C69.614 113.174 69.785 114.102 69.785 115.103ZM66.8685 115.103C66.8685 114.381 66.7735 113.735 66.5835 113.165C66.3935 112.589 66.118 112.101 65.757 111.702C65.4023 111.297 64.9685 110.989 64.4555 110.78C63.9488 110.565 63.3725 110.457 62.7265 110.457C62.0805 110.457 61.501 110.565 60.988 110.78C60.475 110.989 60.038 111.297 59.677 111.702C59.3223 112.101 59.05 112.589 58.86 113.165C58.67 113.735 58.575 114.381 58.575 115.103C58.575 115.831 58.67 116.484 58.86 117.06C59.05 117.63 59.3223 118.114 59.677 118.513C60.038 118.912 60.475 119.22 60.988 119.435C61.501 119.644 62.0805 119.748 62.7265 119.748C63.3725 119.748 63.9488 119.644 64.4555 119.435C64.9685 119.22 65.4023 118.912 65.757 118.513C66.118 118.114 66.3935 117.63 66.5835 117.06C66.7735 116.484 66.8685 115.831 66.8685 115.103ZM85.1854 115.103C85.1854 116.11 85.0144 117.044 84.6724 117.905C84.3367 118.767 83.8585 119.511 83.2379 120.138C82.6235 120.765 81.8825 121.259 81.0149 121.62C80.1472 121.975 79.1845 122.152 78.1269 122.152C77.0692 122.152 76.1065 121.975 75.2389 121.62C74.3712 121.259 73.627 120.765 73.0064 120.138C72.3857 119.511 71.9044 118.767 71.5624 117.905C71.2267 117.044 71.0589 116.11 71.0589 115.103C71.0589 114.096 71.2267 113.165 71.5624 112.31C71.9044 111.449 72.3857 110.704 73.0064 110.077C73.627 109.45 74.3712 108.96 75.2389 108.605C76.1065 108.244 77.0692 108.063 78.1269 108.063C79.1845 108.063 80.1472 108.244 81.0149 108.605C81.8825 108.96 82.6235 109.454 83.2379 110.087C83.8585 110.714 84.3367 111.458 84.6724 112.319C85.0144 113.174 85.1854 114.102 85.1854 115.103ZM82.2689 115.103C82.2689 114.381 82.1739 113.735 81.9839 113.165C81.7939 112.589 81.5184 112.101 81.1574 111.702C80.8027 111.297 80.3689 110.989 79.8559 110.78C79.3492 110.565 78.7729 110.457 78.1269 110.457C77.4809 110.457 76.9014 110.565 76.3884 110.78C75.8754 110.989 75.4384 111.297 75.0774 111.702C74.7227 112.101 74.4504 112.589 74.2604 113.165C74.0704 113.735 73.9754 114.381 73.9754 115.103C73.9754 115.831 74.0704 116.484 74.2604 117.06C74.4504 117.63 74.7227 118.114 75.0774 118.513C75.4384 118.912 75.8754 119.22 76.3884 119.435C76.9014 119.644 77.4809 119.748 78.1269 119.748C78.7729 119.748 79.3492 119.644 79.8559 119.435C80.3689 119.22 80.8027 118.912 81.1574 118.513C81.5184 118.114 81.7939 117.63 81.9839 117.06C82.1739 116.484 82.2689 115.831 82.2689 115.103ZM94.7338 110.856C94.6451 111.002 94.5533 111.11 94.4583 111.179C94.3696 111.243 94.2524 111.274 94.1068 111.274C93.9674 111.274 93.8154 111.227 93.6508 111.132C93.4924 111.031 93.3056 110.923 93.0903 110.809C92.8749 110.695 92.6279 110.59 92.3493 110.495C92.0706 110.394 91.7444 110.343 91.3708 110.343C90.7121 110.343 90.2181 110.492 89.8888 110.79C89.5594 111.081 89.3948 111.464 89.3948 111.939C89.3948 112.243 89.4834 112.497 89.6608 112.699C89.8444 112.896 90.0819 113.067 90.3733 113.212C90.6709 113.358 91.0066 113.488 91.3803 113.602C91.7539 113.716 92.1371 113.843 92.5298 113.982C92.9224 114.115 93.3056 114.273 93.6793 114.457C94.0529 114.641 94.3854 114.872 94.6768 115.15C94.9744 115.429 95.2119 115.771 95.3893 116.176C95.5729 116.575 95.6648 117.063 95.6648 117.639C95.6648 118.266 95.5539 118.855 95.3323 119.406C95.1169 119.951 94.8034 120.429 94.3918 120.841C93.9801 121.246 93.4703 121.566 92.8623 121.8C92.2606 122.035 91.5766 122.152 90.8103 122.152C90.3733 122.152 89.9363 122.108 89.4993 122.019C89.0686 121.93 88.6506 121.807 88.2453 121.648C87.8463 121.49 87.4694 121.3 87.1148 121.078C86.7601 120.857 86.4498 120.61 86.1838 120.337L87.0198 118.988C87.0894 118.887 87.1813 118.805 87.2953 118.741C87.4093 118.672 87.5296 118.637 87.6563 118.637C87.8273 118.637 88.0078 118.7 88.1978 118.827C88.3878 118.954 88.6063 119.093 88.8533 119.245C89.1003 119.397 89.3853 119.536 89.7083 119.663C90.0376 119.79 90.4303 119.853 90.8863 119.853C91.5513 119.853 92.0643 119.701 92.4253 119.397C92.7926 119.093 92.9763 118.64 92.9763 118.038C92.9763 117.69 92.8844 117.408 92.7008 117.193C92.5234 116.978 92.2891 116.797 91.9978 116.651C91.7064 116.506 91.3739 116.382 91.0003 116.281C90.6266 116.173 90.2434 116.056 89.8508 115.929C89.4581 115.803 89.0749 115.651 88.7013 115.473C88.3276 115.296 87.9951 115.062 87.7038 114.77C87.4124 114.479 87.1749 114.118 86.9913 113.687C86.8139 113.257 86.7253 112.722 86.7253 112.082C86.7253 111.569 86.8266 111.072 87.0293 110.59C87.2319 110.109 87.5296 109.682 87.9223 109.308C88.3149 108.934 88.7963 108.633 89.3663 108.405C89.9426 108.177 90.6013 108.063 91.3423 108.063C92.1719 108.063 92.9383 108.193 93.6413 108.453C94.3506 108.706 94.9491 109.061 95.4368 109.517L94.7338 110.856ZM100.601 110.448V113.991H105.199V116.148H100.601V119.767H106.51V122H97.7316V108.215H106.51V110.448H100.601ZM40.5805 139.608C40.7388 139.608 40.8718 139.665 40.9795 139.779L42.11 140.986C41.5527 141.695 40.8592 142.234 40.0295 142.601C39.2062 142.968 38.2245 143.152 37.0845 143.152C36.0522 143.152 35.1243 142.978 34.301 142.629C33.4777 142.275 32.7778 141.784 32.2015 141.157C31.6252 140.53 31.1818 139.786 30.8715 138.924C30.5612 138.063 30.406 137.123 30.406 136.103C30.406 135.419 30.4788 134.77 30.6245 134.155C30.7765 133.535 30.995 132.965 31.28 132.445C31.565 131.926 31.907 131.457 32.306 131.039C32.7113 130.621 33.1673 130.267 33.674 129.975C34.1807 129.678 34.7317 129.453 35.327 129.301C35.9287 129.143 36.5683 129.063 37.246 129.063C37.7527 129.063 38.2308 129.108 38.6805 129.196C39.1365 129.285 39.5608 129.409 39.9535 129.567C40.3462 129.725 40.7072 129.918 41.0365 130.146C41.3722 130.368 41.673 130.612 41.939 130.878L40.9795 132.189C40.9225 132.271 40.8497 132.344 40.761 132.407C40.6723 132.471 40.552 132.502 40.4 132.502C40.248 132.502 40.0928 132.449 39.9345 132.341C39.7825 132.233 39.5925 132.113 39.3645 131.98C39.1428 131.847 38.861 131.727 38.519 131.619C38.1833 131.511 37.7558 131.457 37.2365 131.457C36.6602 131.457 36.1313 131.562 35.65 131.771C35.1687 131.98 34.7538 132.284 34.4055 132.683C34.0635 133.076 33.7975 133.56 33.6075 134.136C33.4175 134.713 33.3225 135.368 33.3225 136.103C33.3225 136.844 33.4238 137.506 33.6265 138.088C33.8355 138.665 34.1173 139.152 34.472 139.551C34.833 139.95 35.251 140.254 35.726 140.463C36.2073 140.666 36.7203 140.767 37.265 140.767C37.588 140.767 37.8793 140.752 38.139 140.72C38.405 140.688 38.6488 140.634 38.8705 140.559C39.0985 140.482 39.3107 140.384 39.507 140.264C39.7097 140.144 39.9123 139.992 40.115 139.808C40.1847 139.751 40.2575 139.703 40.3335 139.665C40.4095 139.627 40.4918 139.608 40.5805 139.608ZM56.741 136.103C56.741 137.11 56.57 138.044 56.228 138.905C55.8924 139.767 55.4142 140.511 54.7935 141.138C54.1792 141.765 53.4382 142.259 52.5705 142.62C51.7029 142.975 50.7402 143.152 49.6825 143.152C48.6249 143.152 47.6622 142.975 46.7945 142.62C45.9269 142.259 45.1827 141.765 44.562 141.138C43.9414 140.511 43.46 139.767 43.118 138.905C42.7824 138.044 42.6145 137.11 42.6145 136.103C42.6145 135.096 42.7824 134.165 43.118 133.31C43.46 132.449 43.9414 131.704 44.562 131.077C45.1827 130.45 45.9269 129.96 46.7945 129.605C47.6622 129.244 48.6249 129.063 49.6825 129.063C50.7402 129.063 51.7029 129.244 52.5705 129.605C53.4382 129.96 54.1792 130.454 54.7935 131.087C55.4142 131.714 55.8924 132.458 56.228 133.319C56.57 134.174 56.741 135.102 56.741 136.103ZM53.8245 136.103C53.8245 135.381 53.7295 134.735 53.5395 134.165C53.3495 133.589 53.074 133.101 52.713 132.702C52.3584 132.297 51.9245 131.989 51.4115 131.78C50.9049 131.565 50.3285 131.457 49.6825 131.457C49.0365 131.457 48.457 131.565 47.944 131.78C47.431 131.989 46.994 132.297 46.633 132.702C46.2784 133.101 46.006 133.589 45.816 134.165C45.626 134.735 45.531 135.381 45.531 136.103C45.531 136.831 45.626 137.484 45.816 138.06C46.006 138.63 46.2784 139.114 46.633 139.513C46.994 139.912 47.431 140.22 47.944 140.435C48.457 140.644 49.0365 140.748 49.6825 140.748C50.3285 140.748 50.9049 140.644 51.4115 140.435C51.9245 140.22 52.3584 139.912 52.713 139.513C53.074 139.114 53.3495 138.63 53.5395 138.06C53.7295 137.484 53.8245 136.831 53.8245 136.103ZM64.4654 140.72C64.9278 140.72 65.3426 140.644 65.7099 140.492C66.0773 140.334 66.3876 140.112 66.6409 139.827C66.8943 139.542 67.0874 139.197 67.2204 138.791C67.3534 138.386 67.4199 137.93 67.4199 137.423V129.215H70.2699V137.423C70.2699 138.259 70.1338 139.029 69.8614 139.732C69.5954 140.429 69.2123 141.03 68.7119 141.537C68.2116 142.044 67.6036 142.439 66.8879 142.724C66.1723 143.01 65.3648 143.152 64.4654 143.152C63.5661 143.152 62.7554 143.01 62.0334 142.724C61.3178 142.439 60.7098 142.044 60.2094 141.537C59.7091 141.03 59.3228 140.429 59.0504 139.732C58.7844 139.029 58.6514 138.259 58.6514 137.423V129.215H61.5014V137.423C61.5014 137.93 61.5679 138.386 61.7009 138.791C61.8339 139.197 62.0271 139.542 62.2804 139.827C62.5338 140.112 62.8441 140.334 63.2114 140.492C63.5788 140.644 63.9968 140.72 64.4654 140.72ZM77.2926 135.742C77.755 135.742 78.154 135.685 78.4896 135.571C78.8253 135.451 79.1008 135.289 79.3161 135.086C79.5315 134.877 79.6898 134.634 79.7911 134.355C79.8925 134.076 79.9431 133.772 79.9431 133.443C79.9431 132.791 79.7246 132.284 79.2876 131.923C78.857 131.562 78.1983 131.381 77.3116 131.381H75.8296V135.742H77.2926ZM83.9711 143H81.3966C80.9153 143 80.567 142.816 80.3516 142.449L77.7296 138.221C77.622 138.057 77.5016 137.936 77.3686 137.86C77.242 137.784 77.052 137.746 76.7986 137.746H75.8296V143H72.9796V129.215H77.3116C78.2743 129.215 79.0976 129.317 79.7816 129.519C80.4656 129.716 81.0261 129.991 81.4631 130.346C81.9001 130.701 82.22 131.125 82.4226 131.619C82.6253 132.107 82.7266 132.645 82.7266 133.234C82.7266 133.69 82.6601 134.124 82.5271 134.535C82.4005 134.941 82.2136 135.311 81.9666 135.647C81.7196 135.983 81.4156 136.28 81.0546 136.54C80.6936 136.8 80.282 137.009 79.8196 137.167C80.0033 137.268 80.1743 137.392 80.3326 137.537C80.491 137.677 80.6335 137.845 80.7601 138.041L83.9711 143ZM92.7855 131.856C92.6968 132.002 92.605 132.11 92.51 132.179C92.4213 132.243 92.3042 132.274 92.1585 132.274C92.0192 132.274 91.8672 132.227 91.7025 132.132C91.5442 132.031 91.3573 131.923 91.142 131.809C90.9267 131.695 90.6797 131.59 90.401 131.495C90.1223 131.394 89.7962 131.343 89.4225 131.343C88.7638 131.343 88.2698 131.492 87.9405 131.79C87.6112 132.081 87.4465 132.464 87.4465 132.939C87.4465 133.243 87.5352 133.497 87.7125 133.699C87.8962 133.896 88.1337 134.067 88.425 134.212C88.7227 134.358 89.0583 134.488 89.432 134.602C89.8057 134.716 90.1888 134.843 90.5815 134.982C90.9742 135.115 91.3573 135.273 91.731 135.457C92.1047 135.641 92.4372 135.872 92.7285 136.15C93.0262 136.429 93.2637 136.771 93.441 137.176C93.6247 137.575 93.7165 138.063 93.7165 138.639C93.7165 139.266 93.6057 139.855 93.384 140.406C93.1687 140.951 92.8552 141.429 92.4435 141.841C92.0318 142.246 91.522 142.566 90.914 142.8C90.3123 143.035 89.6283 143.152 88.862 143.152C88.425 143.152 87.988 143.108 87.551 143.019C87.1203 142.93 86.7023 142.807 86.297 142.648C85.898 142.49 85.5212 142.3 85.1665 142.078C84.8118 141.857 84.5015 141.61 84.2355 141.337L85.0715 139.988C85.1412 139.887 85.233 139.805 85.347 139.741C85.461 139.672 85.5813 139.637 85.708 139.637C85.879 139.637 86.0595 139.7 86.2495 139.827C86.4395 139.954 86.658 140.093 86.905 140.245C87.152 140.397 87.437 140.536 87.76 140.663C88.0893 140.79 88.482 140.853 88.938 140.853C89.603 140.853 90.116 140.701 90.477 140.397C90.8443 140.093 91.028 139.64 91.028 139.038C91.028 138.69 90.9362 138.408 90.7525 138.193C90.5752 137.978 90.3408 137.797 90.0495 137.651C89.7582 137.506 89.4257 137.382 89.052 137.281C88.6783 137.173 88.2952 137.056 87.9025 136.929C87.5098 136.803 87.1267 136.651 86.753 136.473C86.3793 136.296 86.0468 136.062 85.7555 135.77C85.4642 135.479 85.2267 135.118 85.043 134.687C84.8657 134.257 84.777 133.722 84.777 133.082C84.777 132.569 84.8783 132.072 85.081 131.59C85.2837 131.109 85.5813 130.682 85.974 130.308C86.3667 129.934 86.848 129.633 87.418 129.405C87.9943 129.177 88.653 129.063 89.394 129.063C90.2237 129.063 90.99 129.193 91.693 129.453C92.4023 129.706 93.0008 130.061 93.4885 130.517L92.7855 131.856ZM98.6524 131.448V134.991H103.25V137.148H98.6524V140.767H104.561V143H95.7834V129.215H104.561V131.448H98.6524Z" fill="#062C76"/>
<g clip-path="url(#clip0)">
<g clip-path="url(#clip1)">
<path d="M38.6407 28.4546H30.744C30.6158 28.4546 30.5117 28.3505 30.5117 28.2223V16.3772C30.5117 16.2489 30.6158 16.1449 30.744 16.1449H38.6407C38.769 16.1449 38.873 16.2489 38.873 16.3772V28.2223C38.873 28.3505 38.769 28.4546 38.6407 28.4546Z" fill="#D3EEFD"/>
<path d="M37.944 28.4545H30.5117V22.6481H37.944C38.0722 22.6481 38.1762 22.7521 38.1762 22.8803V28.2223C38.1762 28.3505 38.0722 28.4545 37.944 28.4545Z" fill="#C9E2F0"/>
<path d="M29.8145 22.8804H37.6738C37.8227 22.8804 37.9435 22.9844 37.9435 23.1126V28.2223C37.9435 28.3505 37.8227 28.4546 37.6738 28.4546H29.8145V22.8804Z" fill="#A2CE6D"/>
<path d="M33.5303 27.061C34.2999 27.061 34.9238 26.4371 34.9238 25.6675C34.9238 24.8978 34.2999 24.2739 33.5303 24.2739C32.7606 24.2739 32.1367 24.8978 32.1367 25.6675C32.1367 26.4371 32.7606 27.061 33.5303 27.061Z" fill="#E8F3DB"/>
<path d="M36.5504 27.7578H34.6924V27.2933H36.3182V27.061C36.3182 26.9995 36.3426 26.9402 36.3862 26.8968L36.7827 26.5003V24.8346L36.3862 24.4381C36.3426 24.3947 36.3182 24.3355 36.3182 24.2739V24.0417H34.6924V23.5771H36.5504C36.6787 23.5771 36.7827 23.6812 36.7827 23.8094V24.1778L37.1792 24.5742C37.2228 24.6177 37.2472 24.6769 37.2472 24.7384V26.5965C37.2472 26.6581 37.2228 26.7173 37.1792 26.7607L36.7827 27.1572V27.5255C36.7827 27.6537 36.6787 27.7578 36.5504 27.7578Z" fill="#E8F3DB"/>
<path d="M32.3693 23.5771H31.208V24.0417H32.3693V23.5771Z" fill="#E8F3DB"/>
<path d="M32.3688 27.2933H31.9043V27.7579H32.3688V27.2933Z" fill="#E8F3DB"/>
<path d="M37.428 16.8417H31.956C31.8095 16.8417 31.6996 16.7076 31.7282 16.5639L31.8761 15.8239C31.8938 15.7361 31.96 15.6664 32.0466 15.6444L32.7174 15.4741C32.7822 15.4576 32.8367 15.4142 32.8672 15.3545L33.4659 14.1814C33.5056 14.1036 33.5855 14.0546 33.6729 14.0546H35.723C35.8117 14.0546 35.8926 14.105 35.9316 14.1846L36.5027 15.351C36.5329 15.4126 36.5886 15.4576 36.6551 15.4741L37.3367 15.6446C37.4238 15.6664 37.4905 15.7363 37.5081 15.8244L37.6561 16.5636C37.6847 16.7076 37.5746 16.8417 37.428 16.8417Z" fill="#4DBAF8"/>
<path d="M34.9241 15.4481V14.7513H34.4596V15.4481H33.9951V15.9126H35.3887V15.4481H34.9241Z" fill="#D3EEFD"/>
<path d="M37.247 21.2545V18.932H36.7825V21.2545H36.0858V18.4674H35.6212V21.2545H34.9245V18.0029H34.4599V21.2545H33.7632V18.4674H33.2987V21.2545H32.6019V18.932H32.1374V21.2545H31.6729V21.7191H37.7116V21.2545H37.247Z" fill="#4DBAF8"/>
<path d="M31.4071 25.2146L30.2254 22.8804H29.582V28.4546H29.8092C30.8265 28.4546 31.6545 27.6366 31.667 26.6195L31.6724 26.1961C31.6765 25.8505 31.5848 25.5107 31.4071 25.2146Z" fill="#99C367"/>
<path d="M29.5772 28.4545H26.3307C25.3046 28.4545 24.4727 27.6226 24.4727 26.5964V26.1777C24.4727 25.8437 24.5623 25.516 24.7323 25.2287L26.7146 21.2545H29.1703L31.1752 25.2145C31.3528 25.5106 31.4446 25.8504 31.4404 26.1963L31.4351 26.6194C31.4225 27.6365 30.5945 28.4545 29.5772 28.4545Z" fill="#FDCD3B"/>
<path d="M29.1181 20.79H26.7956L26.3311 19.3965L26.5633 18.6997H27.9569H29.3504L29.5827 19.3965L29.1181 20.79Z" fill="#FDCD3B"/>
<path d="M28.4207 24.7385H27.4917C27.3637 24.7385 27.2594 24.6342 27.2594 24.5062V24.0417C27.2594 23.9137 27.3637 23.8094 27.4917 23.8094H28.8852V23.3449H28.1885V23.1127H27.724V23.3449H27.4917C27.1075 23.3449 26.7949 23.6575 26.7949 24.0417V24.5062C26.7949 24.8904 27.1075 25.203 27.4917 25.203H28.4207C28.5487 25.203 28.653 25.3073 28.653 25.4353V25.8998C28.653 26.0277 28.5487 26.132 28.4207 26.132H27.0272V26.5965H27.724V26.8288H28.1885V26.5965H28.4207C28.8049 26.5965 29.1175 26.2839 29.1175 25.8998V25.4353C29.1175 25.0511 28.8049 24.7385 28.4207 24.7385Z" fill="#FFF7E2"/>
<path d="M29.1173 21.4868H26.7948C26.6666 21.4868 26.5625 21.3827 26.5625 21.2545V20.79C26.5625 20.6618 26.6666 20.5577 26.7948 20.5577H29.1173C29.2455 20.5577 29.3496 20.6618 29.3496 20.79V21.2545C29.3496 21.3827 29.2455 21.4868 29.1173 21.4868Z" fill="#F95055"/>
</g>
<g clip-path="url(#clip2)">
<path d="M28.8654 56.4104L27.0435 58.4926H15.3311V48.8268H28.8654V56.4104Z" fill="#99D8AA"/>
<path d="M25.0304 60.4977C25.0009 60.4977 24.9715 60.4927 24.9435 60.4829L23.2976 59.9001C23.1621 59.8523 23.0911 59.7035 23.139 59.568C23.1525 59.5299 23.1747 59.4954 23.2039 59.4674L24.3282 58.3838C24.4317 58.284 24.5964 58.2869 24.6962 58.3902C24.7243 58.4194 24.7454 58.4547 24.7574 58.4934L25.278 60.1592C25.3211 60.2963 25.2449 60.4424 25.1077 60.4855C25.0825 60.4934 25.0562 60.4975 25.0296 60.4975L25.0304 60.4977Z" fill="#FDC9A6"/>
<path d="M18.7142 60.2789H15.5909C14.7284 60.2789 14.0293 59.8402 14.0293 58.9776V58.1968H20.2759V58.9776C20.2759 59.8402 19.5768 60.2789 18.7142 60.2789Z" fill="#EA9D2D"/>
<path d="M27.043 58.4927V56.4105H28.8648L27.043 58.4927Z" fill="#8DC79D"/>
<path d="M20.5361 53.772H21.0567V54.2926H20.5361V53.772Z" fill="#85BC94"/>
<path d="M17.1523 53.772H17.6729V54.2926H17.1523V53.772Z" fill="#85BC94"/>
<path d="M17.1523 50.6488H17.6729V51.1693H17.1523V50.6488Z" fill="#85BC94"/>
<path d="M17.1523 51.6898H17.6729V52.2104H17.1523V51.6898Z" fill="#85BC94"/>
<path d="M17.1523 52.731H17.6729V53.2515H17.1523V52.731Z" fill="#85BC94"/>
<path d="M22.3574 55.0735H22.8781V55.594H22.3574V55.0735Z" fill="#85BC94"/>
<path d="M21.3164 50.6488H21.8369V51.1693H21.3164V50.6488Z" fill="#85BC94"/>
<path d="M20.2754 50.6488H20.7959V51.1693H20.2754V50.6488Z" fill="#85BC94"/>
<path d="M19.2344 50.6488H19.755V51.1693H19.2344V50.6488Z" fill="#85BC94"/>
<path d="M18.1934 50.6488H18.7139V51.1693H18.1934V50.6488Z" fill="#85BC94"/>
<path d="M25.4814 52.9912H26.0021V53.5117H25.4814V52.9912Z" fill="#85BC94"/>
<path d="M25.4814 54.0322H26.0021V54.5529H25.4814V54.0322Z" fill="#85BC94"/>
<path d="M25.4814 55.0735H26.0021V55.594H25.4814V55.0735Z" fill="#85BC94"/>
<path d="M24.4404 55.0735H24.961V55.594H24.4404V55.0735Z" fill="#85BC94"/>
<path d="M23.3994 55.0735H23.9199V55.594H23.3994V55.0735Z" fill="#85BC94"/>
<path d="M20.2759 58.7173H14.0293V56.8953C14.0293 55.8892 14.845 55.0735 15.8513 55.0735H18.4539C19.4602 55.0735 20.2759 55.8892 20.2759 56.8953V58.7173Z" fill="#F3AF3E"/>
<path d="M17.4127 57.4159H16.8921C16.4608 57.4159 16.1113 56.9664 16.1113 56.412V55.0735H18.1935V56.412C18.1935 56.9664 17.8439 57.4159 17.4127 57.4159Z" fill="#EA9D2D"/>
<path d="M16.8926 55.0735H17.4131V56.6351H16.8926V55.0735Z" fill="#FBB540"/>
<path d="M23.3843 59.9146C23.3135 59.9145 23.2459 59.8856 23.1968 59.8346L20.3078 56.8363C19.904 56.4269 19.9084 55.7678 20.3177 55.3639C20.7271 54.9601 21.3862 54.9646 21.7901 55.3739C21.7957 55.3797 21.8014 55.3855 21.807 55.3915L24.6961 58.3898C24.7958 58.4933 24.7928 58.6582 24.6893 58.7578L23.5648 59.8416C23.5164 59.8884 23.4516 59.9146 23.3843 59.9146Z" fill="#F27E55"/>
<path d="M20.856 57.2914H20.8511C20.7821 57.29 20.7167 57.2614 20.6688 57.2118L20.3078 56.837C19.9039 56.4277 19.9084 55.7685 20.3178 55.3647C20.7271 54.9608 21.3863 54.9653 21.79 55.3747C21.7958 55.3804 21.8014 55.3863 21.807 55.3922L22.1682 55.767C22.2681 55.8705 22.265 56.0353 22.1615 56.135L21.0369 57.2186C20.9883 57.2653 20.9234 57.2915 20.856 57.2914Z" fill="#D9D9D9"/>
<path d="M21.5713 58.1489L20.4873 57.0255L21.9868 55.5804L23.0706 56.7049L21.5713 58.1489Z" fill="#6FBBC6"/>
<path d="M28.2149 48.8268C28.2143 48.6602 28.1968 48.494 28.1628 48.3307L29.0626 47.8102L28.2818 46.4567L27.382 46.9789C27.1321 46.757 26.84 46.588 26.5231 46.482V45.4432H24.9614V46.482C24.6444 46.5877 24.3522 46.7566 24.1025 46.9789L23.2017 46.4583L22.4209 47.8117L23.3189 48.3302C23.2522 48.6583 23.2522 48.9963 23.3189 49.3245L22.4217 49.8419L23.2025 51.1953L24.1033 50.6747C24.3528 50.8969 24.6446 51.0658 24.9614 51.1716V52.2104H26.5231V51.1716C26.8401 51.0659 27.1323 50.897 27.382 50.6747L28.2829 51.1953L29.0637 49.8419L28.1657 49.3235C28.1987 49.1599 28.2152 48.9936 28.2149 48.8268ZM25.7422 50.1281C25.0236 50.1281 24.4409 49.5455 24.4409 48.8268C24.4409 48.108 25.0236 47.5255 25.7422 47.5255C26.461 47.5255 27.0437 48.108 27.0437 48.8268C27.0437 49.5455 26.461 50.1281 25.7422 50.1281Z" fill="#D9D9D9"/>
<path d="M28.2821 46.4583L27.382 46.9789C27.1321 46.757 26.84 46.588 26.5231 46.482V45.4432H24.9614V46.482C24.6444 46.5877 24.3522 46.7566 24.1025 46.9789L23.2017 46.4583L22.4209 47.8117L23.3189 48.3302C23.2858 48.4936 23.2693 48.66 23.2697 48.8268H24.4409C24.4409 48.108 25.0236 47.5255 25.7422 47.5255C26.461 47.5255 27.0437 48.108 27.0437 48.8268H28.2149C28.2143 48.6602 28.1968 48.494 28.1628 48.3307L29.0626 47.8102L28.2821 46.4583Z" fill="#CDCDCD"/>
</g>
<g clip-path="url(#clip3)">
<path d="M115.513 55.8707L111.417 51.5961L114.762 48.1052C116.367 46.431 118.415 45.3267 120.634 44.9349L121.249 44.828C121.283 44.828 121.317 44.828 121.351 44.828C121.692 44.828 121.965 45.113 121.965 45.4692C121.965 45.5048 121.965 45.5404 121.965 45.5761L121.897 46.2529C121.522 48.5683 120.463 50.7056 118.893 52.3442L115.513 55.8707Z" fill="#D5E3EF"/>
<path d="M119.201 49.5301L114.319 54.624L115.514 55.8707L118.86 52.3798C120.464 50.7056 121.488 48.6039 121.864 46.2885L122 45.6117C122 45.5761 122 45.5405 122 45.5049C122 45.3268 121.932 45.1843 121.83 45.0774C121.317 46.716 120.43 48.2477 119.201 49.5301Z" fill="#B0C4D9"/>
<path d="M115.684 59.2547C115.479 59.0409 115.138 59.0409 114.933 59.2547C114.66 59.5396 114.489 60.4302 114.455 60.4658C114.455 60.5014 114.455 60.5014 114.455 60.5014C114.455 60.5014 114.489 60.5371 114.489 60.5014C114.523 60.5014 115.343 60.3233 115.65 60.0027C115.923 59.789 115.923 59.4684 115.684 59.2547Z" fill="#F79548"/>
<path d="M108.175 51.418C107.97 51.2043 107.629 51.2043 107.424 51.418C107.151 51.703 106.98 52.5579 106.98 52.5935C106.98 52.6291 106.98 52.6291 106.98 52.6291C106.98 52.6291 107.015 52.6648 107.015 52.6291C107.049 52.6291 107.868 52.451 108.175 52.1304C108.414 51.9523 108.414 51.6317 108.175 51.418Z" fill="#F79548"/>
<path d="M110.598 56.7256C109.984 56.0845 108.959 56.0845 108.345 56.7256C107.492 57.6162 106.979 60.2165 106.945 60.3234C106.945 60.3946 106.945 60.4303 106.979 60.4659C107.048 60.5015 107.116 60.5015 107.184 60.5015C107.287 60.4659 109.779 59.9672 110.632 59.041C111.247 58.3998 111.247 57.3668 110.598 56.7256Z" fill="#F79548"/>
<path d="M110.496 56.7612C110.189 56.4406 109.677 56.4406 109.369 56.7612C108.926 57.2243 108.687 58.5067 108.687 58.5423C108.687 58.5779 108.687 58.6135 108.721 58.6135C108.755 58.6492 108.755 58.6492 108.789 58.6492C108.857 58.6492 110.086 58.3642 110.496 57.9367C110.803 57.6161 110.803 57.0818 110.496 56.7612Z" fill="#FCBB76"/>
<path d="M115.855 57.6517L114.831 56.5831L116.879 54.4458V56.5831L115.855 57.6517Z" fill="#99B4CD"/>
<path d="M115.753 56.3337L116.401 55.6569C116.709 55.3363 116.879 54.9089 116.879 54.4458L114.831 56.5831L115.855 57.6517L116.197 57.2955L115.753 56.8325C115.616 56.69 115.616 56.4762 115.753 56.3337Z" fill="#6C9ABB"/>
<path d="M116.538 59.7891L115.173 58.3642L117.631 55.7995C117.801 55.6214 118.04 55.5145 118.313 55.5145C118.86 55.5145 119.269 55.9776 119.269 56.5119C119.269 56.7969 119.167 57.0463 118.996 57.2244L116.538 59.7891Z" fill="#D5E3EF"/>
<path d="M118.996 56.5119L116.538 59.0766L115.514 58.008L115.173 58.3642L116.538 59.789L118.996 57.2243C119.167 57.0462 119.269 56.7968 119.269 56.5118C119.269 56.3693 119.235 56.2625 119.201 56.1556C119.167 56.2981 119.099 56.405 118.996 56.5119Z" fill="#B0C4D9"/>
<path d="M109.711 54.802C109.95 54.5527 110.223 54.3746 110.496 54.3033L111.076 54.0896L113.125 56.2269L112.92 56.8325C112.817 57.1531 112.647 57.438 112.442 57.6518L109.711 54.802Z" fill="#99B4CD"/>
<path d="M111.076 54.0896L110.563 54.2677L111.69 55.4432C111.963 55.7282 112.031 56.12 111.929 56.4762C111.895 56.6187 111.827 56.7612 111.724 56.9037L112.441 57.6517C112.68 57.4024 112.851 57.1174 112.919 56.8324L113.124 56.2269L111.076 54.0896Z" fill="#6C9ABB"/>
<path d="M109.711 51.2399L110.735 52.3085L112.783 50.1713H110.735L109.711 51.2399Z" fill="#99B4CD"/>
<path d="M110.633 51.4893C110.496 51.3468 110.496 51.1331 110.633 50.9906L111.418 50.1713H110.735L109.711 51.2399L110.735 52.3085C110.94 52.0948 110.94 51.8098 110.735 51.5961L110.633 51.4893Z" fill="#6C9ABB"/>
<path d="M107.662 50.5275L109.028 51.9523L111.485 49.3876C111.656 49.2095 111.759 48.9601 111.759 48.6751C111.759 48.1408 111.315 47.6777 110.803 47.6777C110.53 47.6777 110.291 47.7846 110.12 47.9627L107.662 50.5275Z" fill="#D5E3EF"/>
<path d="M116.538 51.9522C117.292 51.9522 117.904 51.3143 117.904 50.5274C117.904 49.7405 117.292 49.1025 116.538 49.1025C115.784 49.1025 115.173 49.7405 115.173 50.5274C115.173 51.3143 115.784 51.9522 116.538 51.9522Z" fill="#70B7E5"/>
<path d="M116.538 52.3085C115.582 52.3085 114.831 51.5248 114.831 50.5274C114.831 49.53 115.582 48.7463 116.538 48.7463C117.494 48.7463 118.245 49.53 118.245 50.5274C118.245 51.5248 117.494 52.3085 116.538 52.3085ZM116.538 49.4588C115.958 49.4588 115.514 49.9218 115.514 50.5274C115.514 51.133 115.958 51.5961 116.538 51.5961C117.118 51.5961 117.562 51.133 117.562 50.5274C117.562 49.9218 117.118 49.4588 116.538 49.4588Z" fill="#F04B4D"/>
<path d="M115.992 51.4536C115.889 51.2755 115.855 51.0974 115.855 50.8837C115.855 50.2781 116.299 49.8151 116.879 49.8151C117.084 49.8151 117.255 49.8863 117.425 49.9576C117.221 49.6726 116.913 49.4589 116.538 49.4589C115.957 49.4589 115.514 49.9219 115.514 50.5275C115.514 50.9193 115.719 51.2399 115.992 51.4536Z" fill="#4C9CD6"/>
<path d="M115.514 55.8707L114.387 57.0462C114.251 57.1887 114.046 57.1887 113.909 57.0462L110.291 53.2703C110.154 53.1278 110.154 52.9141 110.291 52.7716L111.417 51.5961L115.514 55.8707Z" fill="#F04D4E"/>
<path d="M112.988 55.0157L110.837 52.7715C110.701 52.629 110.462 52.629 110.291 52.7715C110.154 52.914 110.154 53.1278 110.291 53.2703L113.909 57.0461C114.046 57.1886 114.251 57.1886 114.387 57.0461L115.514 55.8706L114.319 54.6239L113.944 55.0157C113.67 55.3007 113.261 55.3007 112.988 55.0157Z" fill="#DB343F"/>
<path d="M116.56 59.8017L117.574 58.7438L116.198 57.3081L115.185 58.3659L116.56 59.8017Z" fill="#F04D4E"/>
<path d="M117.221 58.3641L116.743 58.8628C116.538 59.0766 116.265 59.0766 116.06 58.8628L115.378 58.1504L115.173 58.3641L116.538 59.789L117.562 58.7203L117.221 58.3641Z" fill="#DB343F"/>
<path d="M112.782 51.4181C112.748 51.4181 112.68 51.4181 112.646 51.3824C112.578 51.3112 112.578 51.2043 112.646 51.1331L114.353 49.352C114.421 49.2808 114.523 49.2808 114.592 49.352C114.66 49.4232 114.66 49.5301 114.592 49.6013L112.885 51.3824C112.885 51.4181 112.817 51.4181 112.782 51.4181Z" fill="#ECF0F9"/>
<path d="M115.172 48.9245C115.138 48.9245 115.07 48.9245 115.036 48.8889C114.967 48.8176 114.967 48.7108 115.036 48.6395L115.718 47.9271C115.787 47.8558 115.889 47.8558 115.957 47.9271C116.026 47.9983 116.026 48.1052 115.957 48.1764L115.275 48.8889C115.275 48.9245 115.206 48.9245 115.172 48.9245Z" fill="#ECF0F9"/>
<path d="M121.385 44.828C121.351 44.828 121.317 44.828 121.283 44.828L120.634 44.9349C119.576 45.113 118.586 45.4692 117.63 45.9679C117.63 45.9679 118.244 46.6091 119.268 47.6777C120.293 48.7464 120.907 49.3876 120.907 49.3876C121.385 48.3902 121.692 47.3572 121.897 46.2529L121.999 45.6117C121.999 45.5761 121.999 45.5405 121.999 45.5048C121.999 45.113 121.726 44.828 121.385 44.828Z" fill="#F04D4E"/>
<path d="M118.928 46.2885C118.859 46.2885 118.791 46.2528 118.757 46.1816C118.723 46.0747 118.757 46.0035 118.859 45.9679C119.542 45.6829 120.225 45.5048 120.942 45.3623C121.044 45.3623 121.112 45.3979 121.147 45.5048C121.147 45.6117 121.112 45.6829 121.01 45.7185C120.327 45.8254 119.645 46.0391 118.996 46.2885C118.962 46.2885 118.962 46.2885 118.928 46.2885Z" fill="#F26A56"/>
<path d="M116.538 48.782V48.7463C115.582 48.7463 114.831 49.53 114.831 50.5274H114.865C115.036 50.5274 115.172 50.4205 115.207 50.2424C115.241 49.9931 115.377 49.7794 115.514 49.6013C115.719 49.3875 115.958 49.2094 116.265 49.1382C116.436 49.1026 116.538 48.9601 116.538 48.782Z" fill="#F26A56"/>
<path d="M116.538 52.2729V52.3085C117.494 52.3085 118.245 51.5249 118.245 50.5275H118.211C118.04 50.5275 117.904 50.6343 117.869 50.8124C117.835 51.0618 117.699 51.2755 117.562 51.4536C117.357 51.6673 117.118 51.8454 116.811 51.9167C116.64 51.9523 116.538 52.0948 116.538 52.2729Z" fill="#DB343F"/>
<path d="M117.221 57.1174C117.187 57.1174 117.119 57.1174 117.084 57.0817C117.016 57.0105 117.016 56.9036 117.084 56.8324L117.767 56.12C117.835 56.0487 117.938 56.0487 118.006 56.12C118.074 56.1912 118.074 56.2981 118.006 56.3693L117.323 57.0817C117.323 57.1174 117.255 57.1174 117.221 57.1174Z" fill="#ECF0F9"/>
<path d="M111.485 48.6751L109.028 51.2398L108.003 50.1712L107.662 50.5274L109.028 51.9522L111.485 49.3875C111.656 49.2094 111.759 48.96 111.759 48.6751C111.759 48.5326 111.724 48.4257 111.69 48.3188C111.656 48.4613 111.588 48.5682 111.485 48.6751Z" fill="#B0C4D9"/>
<path d="M109.71 49.2807C109.676 49.2807 109.608 49.2807 109.574 49.2451C109.505 49.1738 109.505 49.067 109.574 48.9957L110.256 48.2833C110.325 48.212 110.427 48.212 110.495 48.2833C110.564 48.3545 110.564 48.4614 110.495 48.5326L109.813 49.2451C109.813 49.2807 109.744 49.2807 109.71 49.2807Z" fill="#ECF0F9"/>
<path d="M109.049 51.965L110.062 50.9071L108.687 49.4714L107.673 50.5293L109.049 51.965Z" fill="#F04D4E"/>
<path d="M109.71 50.5275L109.232 51.0262C109.028 51.2399 108.755 51.2399 108.55 51.0262L107.867 50.3137L107.662 50.5275L109.028 51.9523L110.052 50.8837L109.71 50.5275Z" fill="#DB343F"/>
<path d="M120.054 48.4971L120.907 49.3876C121.385 48.3902 121.692 47.3572 121.897 46.2529L122 45.6117C122 45.5761 122 45.5405 122 45.5049C122 45.3268 121.931 45.1843 121.829 45.0774C121.453 46.2885 120.839 47.464 120.054 48.4971Z" fill="#DB343F"/>
</g>
<g clip-path="url(#clip4)">
<path d="M67.9997 14.3716C71.9783 14.3716 75.2036 11.0061 75.2036 6.85457C75.2036 2.70302 71.9783 -0.662476 67.9997 -0.662476C64.0212 -0.662476 60.7959 2.70302 60.7959 6.85457C60.7959 11.0061 64.0212 14.3716 67.9997 14.3716Z" fill="#FFAF10"/>
<path d="M69.5877 10.9244H66.4121V12.1959H69.5877V10.9244Z" fill="#445EA0"/>
<path d="M66.9956 10.9244H66.4121V12.1959H66.9956V10.9244Z" fill="#293D7C"/>
<path d="M71.0722 12.9321C71.0722 13.0165 71.006 13.0855 70.9252 13.0855H65.0738C64.9929 13.0855 64.9268 13.0165 64.9268 12.9321V12.3184C64.9268 12.2341 64.9929 12.165 65.0738 12.165H70.9252C71.006 12.165 71.0722 12.2341 71.0722 12.3184V12.9321Z" fill="#293D7C"/>
<path d="M66.0937 12.9321V12.3184C66.0937 12.2341 66.1598 12.165 66.2407 12.165H65.0738C64.9929 12.165 64.9268 12.2341 64.9268 12.3184V12.9321C64.9268 13.0165 64.9929 13.0855 65.0738 13.0855H66.2407C66.1598 13.0855 66.0937 13.0165 66.0937 12.9321Z" fill="#1A2B63"/>
<path d="M60.4727 10.6482C60.4727 10.817 60.605 10.9551 60.7667 10.9551H75.2332C75.3949 10.9551 75.5272 10.817 75.5272 10.6482V9.32068H60.4727V10.6482Z" fill="#293D7C"/>
<path d="M61.0561 10.6482V9.32068H60.4727V10.6482C60.4727 10.817 60.605 10.9551 60.7667 10.9551H61.3501C61.1884 10.9551 61.0561 10.817 61.0561 10.6482Z" fill="#1A2B63"/>
<path d="M75.1653 0.439453H60.8346C60.6356 0.439453 60.4727 0.609369 60.4727 0.817054V9.35132H75.5272V0.817054C75.5272 0.609369 75.3643 0.439453 75.1653 0.439453Z" fill="#445EA0"/>
<path d="M61.2573 8.64401C61.1754 8.64401 61.1084 8.57412 61.1084 8.48864V1.3021C61.1084 1.21665 61.1754 1.14673 61.2573 1.14673H74.7429C74.8248 1.14673 74.8918 1.21665 74.8918 1.3021V8.48864C74.8918 8.57412 74.8248 8.64401 74.7429 8.64401H61.2573Z" fill="#5DC1D8"/>
<path d="M61.744 8.48864V1.3021C61.744 1.21665 61.811 1.14673 61.8929 1.14673H61.2573C61.1754 1.14673 61.1084 1.21665 61.1084 1.3021V8.48864C61.1084 8.57412 61.1754 8.64401 61.2573 8.64401H61.8929C61.811 8.64401 61.744 8.57412 61.744 8.48864Z" fill="#28A5A5"/>
<path d="M68.2006 4.4907C68.2006 4.54133 68.1609 4.58275 68.1124 4.58275H67.6273C67.5788 4.58275 67.5391 4.54133 67.5391 4.4907V2.19751C67.5391 2.14689 67.5788 2.10547 67.6273 2.10547H68.1124C68.1609 2.10547 68.2006 2.14689 68.2006 2.19751V4.4907Z" fill="white"/>
<path d="M69.0824 4.49067C69.0824 4.54129 69.0427 4.58271 68.9942 4.58271H68.5091C68.4606 4.58271 68.4209 4.54129 68.4209 4.49067V3.0365C68.4209 2.98588 68.4606 2.94446 68.5091 2.94446H68.9942C69.0427 2.94446 69.0824 2.98588 69.0824 3.0365V4.49067Z" fill="white"/>
<path d="M69.9643 4.49066C69.9643 4.54129 69.9246 4.58271 69.8761 4.58271H69.3909C69.3424 4.58271 69.3027 4.54129 69.3027 4.49066V3.47608C69.3027 3.42545 69.3424 3.38403 69.3909 3.38403H69.8761C69.9246 3.38403 69.9643 3.42545 69.9643 3.47608V4.49066Z" fill="white"/>
<path d="M70.8471 4.49076C70.8471 4.54139 70.8074 4.58281 70.7589 4.58281H70.2738C70.2252 4.58281 70.1855 4.54139 70.1855 4.49076V2.63709C70.1855 2.58646 70.2252 2.54504 70.2738 2.54504H70.7589C70.8074 2.54504 70.8471 2.58646 70.8471 2.63709V4.49076Z" fill="white"/>
<path d="M71.7289 4.4907C71.7289 4.54132 71.6892 4.58274 71.6407 4.58274H71.1556C71.1071 4.58274 71.0674 4.54132 71.0674 4.4907V3.23633C71.0674 3.18571 71.1071 3.14429 71.1556 3.14429H71.6407C71.6892 3.14429 71.7289 3.18571 71.7289 3.23633V4.4907Z" fill="white"/>
<path d="M71.0674 7.44383C71.0674 7.49445 71.1071 7.53587 71.1556 7.53587H71.6407C71.6892 7.53587 71.7289 7.49445 71.7289 7.44383V5.15064C71.7289 5.10001 71.6892 5.05859 71.6407 5.05859H71.1556C71.1071 5.05859 71.0674 5.10001 71.0674 5.15064V7.44383Z" fill="#FFAF10"/>
<path d="M70.1855 7.44389C70.1855 7.49451 70.2252 7.53593 70.2738 7.53593H70.7589C70.8074 7.53593 70.8471 7.49451 70.8471 7.44389V5.98975C70.8471 5.93913 70.8074 5.89771 70.7589 5.89771H70.2738C70.2252 5.89771 70.1855 5.93913 70.1855 5.98975V7.44389Z" fill="#FFAF10"/>
<path d="M69.3027 7.44379C69.3027 7.49442 69.3424 7.53584 69.3909 7.53584H69.8761C69.9246 7.53584 69.9643 7.49442 69.9643 7.44379V6.4292C69.9643 6.37858 69.9246 6.33716 69.8761 6.33716H69.3909C69.3424 6.33716 69.3027 6.37858 69.3027 6.4292V7.44379Z" fill="#FFAF10"/>
<path d="M68.4209 7.44389C68.4209 7.49451 68.4606 7.53593 68.5091 7.53593H68.9943C69.0428 7.53593 69.0825 7.49451 69.0825 7.44389V5.59021C69.0825 5.53959 69.0428 5.49817 68.9943 5.49817H68.5091C68.4606 5.49817 68.4209 5.53959 68.4209 5.59021V7.44389Z" fill="#FFAF10"/>
<path d="M67.5391 7.44379C67.5391 7.49441 67.5788 7.53583 67.6273 7.53583H68.1124C68.1609 7.53583 68.2006 7.49441 68.2006 7.44379V6.18946C68.2006 6.13883 68.1609 6.09741 68.1124 6.09741H67.6273C67.5788 6.09741 67.5391 6.13883 67.5391 6.18946V7.44379Z" fill="#FFAF10"/>
<path d="M73.8975 3.05361H72.409C72.2872 3.05361 72.1885 2.95061 72.1885 2.8235C72.1885 2.69638 72.2872 2.59338 72.409 2.59338H73.8975C74.0194 2.59338 74.1181 2.69638 74.1181 2.8235C74.1181 2.95061 74.0193 3.05361 73.8975 3.05361Z" fill="#91E0E8"/>
<path d="M73.8975 3.70742H72.409C72.2872 3.70742 72.1885 3.60442 72.1885 3.47731C72.1885 3.35019 72.2872 3.24719 72.409 3.24719H73.8975C74.0194 3.24719 74.1181 3.35019 74.1181 3.47731C74.1181 3.60439 74.0193 3.70742 73.8975 3.70742Z" fill="#91E0E8"/>
<path d="M73.8975 4.36123H72.409C72.2872 4.36123 72.1885 4.25823 72.1885 4.13111C72.1885 4.004 72.2872 3.901 72.409 3.901H73.8975C74.0194 3.901 74.1181 4.004 74.1181 4.13111C74.1181 4.25823 74.0193 4.36123 73.8975 4.36123Z" fill="#91E0E8"/>
<path d="M73.3352 5.01516H72.409C72.2872 5.01516 72.1885 4.91216 72.1885 4.78505C72.1885 4.65793 72.2872 4.55493 72.409 4.55493H73.3352C73.457 4.55493 73.5557 4.65793 73.5557 4.78505C73.5557 4.91213 73.457 5.01516 73.3352 5.01516Z" fill="#91E0E8"/>
<path d="M73.8975 6.22341H72.409C72.2872 6.22341 72.1885 6.12041 72.1885 5.9933C72.1885 5.86618 72.2872 5.76318 72.409 5.76318H73.8975C74.0194 5.76318 74.1181 5.86618 74.1181 5.9933C74.1181 6.12038 74.0193 6.22341 73.8975 6.22341Z" fill="#91E0E8"/>
<path d="M73.8975 6.87722H72.409C72.2872 6.87722 72.1885 6.77422 72.1885 6.64711C72.1885 6.51999 72.2872 6.41699 72.409 6.41699H73.8975C74.0194 6.41699 74.1181 6.51999 74.1181 6.64711C74.1181 6.77422 74.0193 6.87722 73.8975 6.87722Z" fill="#91E0E8"/>
<path d="M73.3352 7.53103H72.409C72.2872 7.53103 72.1885 7.42803 72.1885 7.30091C72.1885 7.17383 72.2872 7.0708 72.409 7.0708H73.3352C73.457 7.0708 73.5557 7.17383 73.5557 7.30091C73.5557 7.428 73.457 7.53103 73.3352 7.53103Z" fill="#91E0E8"/>
<path d="M74.7877 10.3164C74.7877 10.3671 74.748 10.4085 74.6994 10.4085H74.18C74.1315 10.4085 74.0918 10.3671 74.0918 10.3164V9.77442C74.0918 9.72379 74.1315 9.68237 74.18 9.68237H74.6994C74.748 9.68237 74.7877 9.72379 74.7877 9.77442V10.3164Z" fill="#91E0E8"/>
<path d="M64.7347 4.73144C64.686 4.73144 64.6465 4.69023 64.6465 4.63939V2.25391C64.6465 2.22894 64.6562 2.20497 64.6735 2.18764C64.6899 2.17107 64.7119 2.16187 64.7347 2.16187C64.7358 2.16187 64.7368 2.1619 64.7379 2.16193C66.0204 2.21099 67.0619 3.29774 67.1089 4.63602C67.1098 4.66099 67.1009 4.68526 67.0843 4.70327C67.0676 4.72128 67.0447 4.73144 67.0208 4.73144H64.7347Z" fill="#FFAF10"/>
<path d="M64.4447 7.51439C63.0859 7.51439 61.9805 6.36091 61.9805 4.94311C61.9805 4.27397 62.2264 3.63983 62.6731 3.15749C63.1186 2.67636 63.7153 2.39799 64.3532 2.3736C64.3543 2.37357 64.3554 2.37354 64.3564 2.37354C64.3792 2.37354 64.4012 2.38274 64.4177 2.39931C64.4349 2.41664 64.4447 2.44061 64.4447 2.46558V4.94311H66.8189C66.8429 4.94311 66.8658 4.95326 66.8824 4.97127C66.899 4.98928 66.9079 5.01355 66.9071 5.03853C66.8837 5.70417 66.6169 6.32679 66.1558 6.79168C65.6936 7.25774 65.0859 7.51439 64.4447 7.51439Z" fill="#91E0E8"/>
<path d="M64.8654 7.07437C63.5066 7.07437 62.4012 5.92088 62.4012 4.50308C62.4012 3.92332 62.5862 3.36997 62.926 2.9187C62.837 2.99169 62.7521 3.07119 62.6721 3.1575C62.2255 3.63985 61.9795 4.27401 61.9795 4.94312C61.9795 6.36092 63.0849 7.51441 64.4437 7.51441C65.0849 7.51441 65.6927 7.25775 66.1549 6.7917C66.2376 6.70827 66.3138 6.61963 66.3837 6.52673C65.9513 6.88138 65.421 7.07437 64.8654 7.07437Z" fill="#91E0E8"/>
</g>
<g clip-path="url(#clip5)">
<path d="M103.044 31.2097C103.503 31.2097 103.887 30.9087 103.994 30.5022C103.352 29.9703 102.946 29.185 102.946 28.3089C102.946 27.4195 103.365 26.6237 104.024 26.0917V22.4051C104.024 21.8879 103.585 21.4686 103.044 21.4686H96.5562C96.0156 21.4686 95.5771 21.8879 95.5771 22.4051V30.2732C95.5771 30.7904 96.0156 31.2097 96.5562 31.2097" fill="#5B9ED6"/>
<path d="M103.044 21.4686H102.319C102.86 21.4686 103.298 21.8879 103.298 22.4051V25.6193C103.298 25.7654 103.244 25.9064 103.145 26.0181C102.847 26.3552 102.613 26.7463 102.462 27.174C102.307 27.5226 102.221 27.9061 102.221 28.3088C102.221 28.7136 102.308 29.0989 102.464 29.4488C102.465 29.4517 102.466 29.4547 102.467 29.4577C102.611 29.8598 102.304 30.2787 101.859 30.2787H96.5562C96.0156 30.2787 95.5771 29.8593 95.5771 29.3421V30.2732C95.5771 30.7904 96.0156 31.2097 96.5563 31.2097H103.044C103.362 31.2097 103.645 31.0646 103.824 30.84C103.825 30.8386 103.826 30.8373 103.827 30.8359C103.834 30.8268 103.841 30.8174 103.848 30.808C103.85 30.8055 103.852 30.8029 103.853 30.8004C103.859 30.7921 103.865 30.7835 103.871 30.7748C103.873 30.7716 103.875 30.7683 103.877 30.7651C103.883 30.7571 103.888 30.749 103.893 30.7408C103.895 30.737 103.897 30.7332 103.899 30.7294C103.904 30.7216 103.908 30.7137 103.913 30.7058C103.915 30.7016 103.917 30.6974 103.92 30.6931C103.924 30.6854 103.927 30.6777 103.931 30.6699C103.933 30.6653 103.936 30.6608 103.938 30.6563C103.941 30.6485 103.945 30.6407 103.948 30.6329C103.95 30.6281 103.953 30.6234 103.954 30.6187C103.958 30.6107 103.961 30.6027 103.964 30.5946C103.966 30.5899 103.968 30.5852 103.969 30.5805C103.973 30.5718 103.975 30.563 103.978 30.5542C103.98 30.55 103.981 30.5459 103.983 30.5417C103.987 30.5286 103.99 30.5155 103.994 30.5022C103.961 30.4748 103.929 30.4465 103.897 30.4178C103.893 30.4144 103.889 30.4111 103.885 30.4075C103.855 30.3796 103.825 30.3511 103.796 30.322C103.791 30.3179 103.787 30.3138 103.783 30.3098C103.754 30.2802 103.725 30.2501 103.697 30.2192C103.694 30.2162 103.691 30.2131 103.688 30.21C103.659 30.1777 103.63 30.145 103.603 30.1115C103.192 29.6164 102.946 28.9901 102.946 28.3089C102.946 27.4195 103.365 26.6237 104.024 26.0917V22.4051C104.024 21.8879 103.585 21.4686 103.044 21.4686Z" fill="#4C83B3"/>
<path d="M97.4863 20.5969H102.114V21.4687H97.4863V20.5969Z" fill="#5A67AD"/>
<path d="M100.924 20.5969H102.114V21.4687H100.924V20.5969Z" fill="#48538A"/>
<path d="M96.5244 19.3432V20.2447C96.5244 20.4389 96.6891 20.5964 96.8921 20.5964H102.708C102.911 20.5964 103.076 20.4389 103.076 20.2447V18.4415C103.076 18.2473 102.911 18.0898 102.708 18.0898H96.8921C96.689 18.0898 96.5244 18.2474 96.5244 18.4415V19.3432Z" fill="#5B9ED6"/>
<path d="M101.426 18.0898V20.5964H102.709C102.912 20.5964 103.076 20.4389 103.076 20.2447V18.4415C103.076 18.2473 102.912 18.0898 102.709 18.0898H101.426Z" fill="#4C83B3"/>
<path d="M102.34 26.3392C102.34 27.6807 101.203 28.7684 99.8003 28.7684C98.3978 28.7684 97.2607 27.6807 97.2607 26.3392C97.2607 24.9976 98.3978 23.9099 99.8003 23.9099C101.203 23.9099 102.34 24.9976 102.34 26.3392Z" fill="#EF2D57"/>
<path d="M101.24 24.3381C101.521 24.7295 101.687 25.2036 101.687 25.7148C101.687 27.0565 100.55 28.144 99.1474 28.144C98.6129 28.144 98.1172 27.9858 97.708 27.716C98.1661 28.3515 98.932 28.7685 99.8001 28.7685C101.203 28.7685 102.34 27.6808 102.34 26.3393C102.34 25.5089 101.904 24.7763 101.24 24.3381Z" fill="#D9294F"/>
<path d="M109.012 28.3089C109.012 29.9111 107.654 31.2098 105.979 31.2098C104.304 31.2098 102.946 29.9111 102.946 28.3089C102.946 26.7069 104.304 25.4082 105.979 25.4082C107.654 25.4082 109.012 26.7069 109.012 28.3089Z" fill="#FCDA55"/>
<path d="M107.812 25.998C108.198 26.4851 108.428 27.0926 108.428 27.7515C108.428 29.3536 107.071 30.6523 105.396 30.6523C104.707 30.6523 104.072 30.4325 103.562 30.0623C104.116 30.7595 104.992 31.2097 105.979 31.2097C107.653 31.2097 109.011 29.911 109.011 28.3089C109.011 27.3657 108.54 26.5279 107.812 25.998Z" fill="#D9BC4A"/>
<path d="M103.896 30.3897C104.013 30.4861 104.137 30.5743 104.267 30.6533L108.45 26.6518C108.368 26.5269 108.276 26.4083 108.175 26.2974C108.156 26.3073 108.138 26.3197 108.122 26.3349L103.936 30.3395C103.92 30.3547 103.907 30.3716 103.896 30.3897Z" fill="#D9BC4A"/>
<path d="M107.877 21.8045C106.793 22.0555 105.944 22.9071 105.944 24.0111V25.4086C105.956 25.4085 105.967 25.4082 105.978 25.4082C107.653 25.4082 109.011 26.7069 109.011 28.309C109.011 29.0995 108.68 29.816 108.144 30.3392C108.192 30.342 108.24 30.3438 108.288 30.3438C109.582 30.3438 110.631 29.3402 110.631 28.1022V24.0111C110.631 22.9071 109.797 21.9902 108.698 21.8045C108.698 21.8045 108.158 21.7395 107.877 21.8045Z" fill="#F084AD"/>
<path d="M108.699 21.8046C108.405 21.766 108.131 21.766 107.878 21.8046C107.87 21.806 107.862 21.8079 107.854 21.8093C108.94 22.0046 109.762 22.9155 109.762 24.0112V28.1022C109.762 29.0433 109.155 29.8485 108.296 30.1807C108.247 30.2353 108.197 30.2882 108.145 30.3392C108.193 30.342 108.24 30.3438 108.289 30.3438C109.583 30.3438 110.632 29.3402 110.632 28.1022V24.0112C110.632 22.9071 109.797 21.9902 108.699 21.8046Z" fill="#D47499"/>
<path d="M107.89 26.0566C108.574 26.5885 109.011 27.3998 109.011 28.3088C109.011 29.0994 108.681 29.8159 108.144 30.3391C108.192 30.3419 108.24 30.3437 108.288 30.3437C109.582 30.3437 110.632 29.3401 110.632 28.1022V26.0566H107.89Z" fill="#EF2D57"/>
<path d="M109.761 28.1022C109.761 29.0433 109.155 29.8483 108.295 30.1807C108.273 30.2061 108.25 30.2309 108.227 30.2555C108.223 30.2597 108.219 30.2639 108.215 30.268C108.192 30.2921 108.168 30.3159 108.145 30.3391C108.192 30.342 108.24 30.3437 108.288 30.3437C109.582 30.3437 110.632 29.3401 110.632 28.1022V26.0566H109.761V28.1022Z" fill="#CC264B"/>
<path d="M100.967 26.1162H100.034V25.223C100.034 25.0999 99.9291 25 99.8004 25C99.6716 25 99.5673 25.0999 99.5673 25.223V26.1162H98.6336C98.5048 26.1162 98.4004 26.216 98.4004 26.3391C98.4004 26.4623 98.5048 26.5621 98.6336 26.5621H99.5673V27.4553C99.5673 27.5785 99.6716 27.6784 99.8004 27.6784C99.9291 27.6784 100.034 27.5785 100.034 27.4553V26.5621H100.967C101.096 26.5621 101.2 26.4623 101.2 26.3391C101.2 26.216 101.096 26.1162 100.967 26.1162Z" fill="white"/>
<path d="M98.1306 20.8138C98.0019 20.8138 97.8975 20.7139 97.8975 20.5908V18.0842C97.8975 17.9611 98.0019 17.8612 98.1306 17.8612C98.2594 17.8612 98.3638 17.9611 98.3638 18.0842V20.5908C98.3638 20.7139 98.2594 20.8138 98.1306 20.8138Z" fill="#674297"/>
<path d="M99.8044 20.8138C99.6757 20.8138 99.5713 20.7139 99.5713 20.5908V18.0842C99.5713 17.9611 99.6757 17.8612 99.8044 17.8612C99.9332 17.8612 100.037 17.9611 100.037 18.0842V20.5908C100.038 20.7139 99.9332 20.8138 99.8044 20.8138Z" fill="#674297"/>
<path d="M101.477 20.8138C101.349 20.8138 101.244 20.7139 101.244 20.5908V18.0842C101.244 17.9611 101.349 17.8612 101.477 17.8612C101.606 17.8612 101.71 17.9611 101.71 18.0842V20.5908C101.71 20.7139 101.606 20.8138 101.477 20.8138Z" fill="#674297"/>
<path d="M103.855 30.5611C103.796 30.5611 103.736 30.5392 103.69 30.4957C103.599 30.4086 103.599 30.2674 103.69 30.1803L107.877 26.1758C107.968 26.0888 108.116 26.0887 108.207 26.1758C108.298 26.2629 108.298 26.4041 108.207 26.4912L104.02 30.4957C103.974 30.5392 103.915 30.5611 103.855 30.5611Z" fill="#E69326"/>
</g>
<path d="M67.8916 47.2681C62.3885 47.2681 57.9277 51.4015 57.9277 56.5005V60.3216C58.5937 59.7497 59.541 59.4389 60.4658 59.5533V59.0932C60.4658 58.7276 60.8029 58.4386 61.1936 58.4661C65.046 58.7225 68.9665 57.5882 71.9307 55.7939C72.2074 55.6263 72.5739 55.668 72.7988 55.8919C75.3331 58.416 75.3178 58.3184 75.3178 58.6479V59.5513C76.3314 59.4106 77.2306 59.7008 77.8554 60.239V56.5007C77.8553 51.4015 73.3947 47.2681 67.8916 47.2681Z" fill="#3E4B5A"/>
<path d="M62.2334 56.5007C62.2334 52.0868 65.5767 48.3987 70.0443 47.4867C69.3508 47.345 68.6311 47.2682 67.8916 47.2682C62.3886 47.2682 57.9277 51.4016 57.9277 56.5007V60.3216C58.5937 59.7497 59.541 59.4389 60.4658 59.5533V59.0932C60.4658 58.7276 60.8027 58.4386 61.1936 58.4661C61.5399 58.4892 61.8867 58.5006 62.2334 58.5016V56.5007Z" fill="#303F49"/>
<path d="M66.7531 72.7574C67.1549 72.6131 67.4198 72.2548 67.4198 71.8553V70.5489C66.048 70.4633 64.8325 70.0744 63.8158 69.4725V72.3563C63.8158 72.6142 63.7042 72.854 63.5176 73.0312L66.7531 72.7574Z" fill="#FFBEAB"/>
<path d="M62.4662 74.9517C65.6421 78.0785 70.1317 78.0785 73.3075 74.9517L74.4351 73.8415L72.7766 73.2463C72.3948 73.1094 72.143 72.7689 72.143 72.3894V69.3706C70.9636 70.1244 69.5356 70.5673 67.9975 70.5673C66.3877 70.5673 64.9731 70.1578 63.8161 69.4727V72.3565C63.8161 72.7558 63.5512 73.1143 63.1493 73.2586L61.3887 73.891L62.4662 74.9517Z" fill="#FFBEAB"/>
<path d="M67.4201 70.5489C66.0483 70.4633 64.8328 70.0744 63.8161 69.4725V72.3563C63.8161 72.7556 63.5512 73.1141 63.1493 73.2584L61.3887 73.8908C62.6435 75.1262 64.3313 77.0744 67.4201 77.2793V70.5489Z" fill="#F7AF9F"/>
<path d="M75.1695 59.1391V64.1967C75.1695 64.2515 75.1664 64.3056 75.165 64.3602C77.0965 64.6313 78.7577 63.338 78.7577 61.7499C78.7575 60.1585 77.0953 58.8717 75.1695 59.1391Z" fill="#FFBEAB"/>
<path d="M60.6136 59.1411C58.9319 58.933 57.0254 60.1289 57.0254 61.7499C57.0254 63.336 58.6831 64.6316 60.6179 64.3602C60.6118 64.1226 60.6136 64.884 60.6136 59.1411Z" fill="#FFBEAB"/>
<path d="M77.4821 59.6115C76.8493 59.2154 76.0371 59.0185 75.1695 59.1391V64.1966C75.1695 64.2514 75.1664 64.3056 75.165 64.3602C76.0353 64.4824 76.8489 64.285 77.4821 63.8882V59.6115Z" fill="#F7AF9F"/>
<path d="M60.6136 63.8885C59.8409 63.4043 59.338 62.6219 59.338 61.7499C59.338 60.8961 59.8672 60.1606 60.6136 59.6857V59.1411C58.9319 58.933 57.0254 60.1289 57.0254 61.7499C57.0254 63.336 58.6831 64.6316 60.6179 64.3602C60.613 64.1758 60.6136 64.3563 60.6136 63.8885Z" fill="#F7AF9F"/>
<path d="M72.7979 55.4798C72.5729 55.2558 72.2065 55.2142 71.9297 55.3818C68.9654 57.1762 65.0449 58.3103 61.1926 58.0539C60.8019 58.0265 60.4648 58.3154 60.4648 58.681V64.1966C60.4648 67.7415 63.4625 70.9791 67.9968 70.9791C72.0331 70.9791 75.3168 67.9365 75.3168 64.1966V58.2357C75.3168 57.9062 75.332 58.0038 72.7979 55.4798Z" fill="#FFCDBF"/>
<path d="M64.7705 64.1967V57.9121C63.5918 58.0788 62.3889 58.1335 61.1926 58.0539C60.8019 58.0265 60.4648 58.3153 60.4648 58.6811V64.1967C60.4648 67.7416 63.4625 70.9792 67.9968 70.9792C68.7207 70.9792 69.4197 70.88 70.0805 70.6978C66.8154 69.8393 64.7705 67.1236 64.7705 64.1967Z" fill="#FFBEAB"/>
<path d="M83.1566 76.9713L74.2156 73.7628L73.0635 74.8973C70.0328 77.881 65.7486 77.881 62.7179 74.8973L61.6135 73.8098L52.8129 76.9713C52.8129 76.9713 48.7393 78.5231 48.7393 82.8261V92.3762C48.7393 92.8612 49.1636 93.2544 49.6868 93.2544H86.2909C86.8097 93.2544 87.2304 92.8647 87.2304 92.3838V82.8261C87.2304 78.5231 83.1566 76.9713 83.1566 76.9713Z" fill="#FECA57"/>
<path d="M52.9807 81.0973C52.9807 78.2884 54.7162 76.6523 55.9217 75.8545L52.8129 76.9712C52.8129 76.9712 48.7393 78.5231 48.7393 82.8262V92.3763C48.7393 92.8613 49.1636 93.2544 49.6868 93.2544H52.9807V81.0973Z" fill="#F4B537"/>
<path d="M81.2408 93.2544V84.3053C81.2408 83.7545 80.7589 83.3079 80.1643 83.3079C79.5697 83.3079 79.0879 83.7545 79.0879 84.3053V93.2544H81.2408Z" fill="#F4B537"/>
<path d="M56.6168 93.2544V84.3053C56.6168 83.7545 56.1348 83.3079 55.5403 83.3079C54.9459 83.3079 54.4639 83.7545 54.4639 84.3053V93.2544H56.6168Z" fill="#F4B537"/>
<path d="M52.1978 55.52H41.8113C41.6591 55.52 41.5358 55.4057 41.5358 55.2647V53.963C41.5358 53.6851 41.278 53.5045 41.0588 53.6287L35.8018 56.6096C35.5322 56.7625 35.5322 57.1253 35.8018 57.2782L41.059 60.259C41.278 60.3832 41.5359 60.2026 41.5359 59.9247V58.623C41.5359 58.482 41.6593 58.3677 41.8114 58.3677H52.2489C53.1072 58.3677 53.8012 57.7156 53.7854 56.9171C53.7697 56.1333 53.0439 55.52 52.1978 55.52Z" fill="#338DEF"/>
<path d="M99.7151 56.6096L94.4581 53.6288C94.239 53.5046 93.9811 53.6852 93.9811 53.9631V55.2648C93.9811 55.4058 93.8578 55.5201 93.7056 55.5201H83.3191C82.473 55.5201 81.7473 56.1334 81.7317 56.9172C81.7158 57.7158 82.4099 58.3678 83.2681 58.3678H93.7056C93.8578 58.3678 93.9811 58.4821 93.9811 58.6231V59.9249C93.9811 60.2027 94.2389 60.3835 94.4581 60.2591L99.7151 57.2783C99.9846 57.1253 99.9846 56.7625 99.7151 56.6096Z" fill="#338DEF"/>
<path d="M68.1193 27.3328C67.9543 27.0829 67.5627 27.0829 67.3977 27.3328L64.1808 32.2039C64.0467 32.4069 64.2417 32.6458 64.5416 32.6458H65.9464C66.0986 32.6458 66.2219 32.7601 66.2219 32.9011V42.5252C66.2219 43.3092 66.8838 43.9816 67.7297 43.9961C68.5915 44.0108 69.2952 43.3677 69.2952 42.5725V32.9011C69.2952 32.7601 69.4185 32.6458 69.5707 32.6458H70.9756C71.2755 32.6458 71.4704 32.407 71.3364 32.2039L68.1193 27.3328Z" fill="#338DEF"/>
<path d="M87.5817 40.9502L88.5751 41.8707C88.7871 42.0672 89.1072 42.0261 89.1674 41.7947L90.6099 36.2425C90.6839 35.9578 90.407 35.7012 90.0998 35.7698L84.1077 37.1064C83.858 37.162 83.8136 37.4589 84.0257 37.6553L85.0191 38.5758C85.1266 38.6754 85.1266 38.8371 85.0191 38.9368L77.6747 45.7421C77.0765 46.2964 77.0312 47.2056 77.6184 47.77C78.2166 48.3451 79.205 48.3514 79.8118 47.7891L87.1923 40.9504C87.2998 40.8506 87.4741 40.8506 87.5817 40.9502Z" fill="#338DEF"/>
<path d="M50.4976 38.9365C50.3901 38.8368 50.3901 38.6752 50.4976 38.5755L51.491 37.655C51.7031 37.4586 51.6587 37.1619 51.4088 37.1062L45.4168 35.7695C45.1095 35.701 44.8326 35.9575 44.9066 36.2422L46.3492 41.7944C46.4092 42.0258 46.7296 42.067 46.9415 41.8705L47.9349 40.95C48.0425 40.8503 48.217 40.8503 48.3245 40.95L55.7049 47.7887C56.3117 48.351 57.3001 48.3447 57.8983 47.7696C58.4854 47.2052 58.4403 46.296 57.842 45.7417L50.4976 38.9365Z" fill="#338DEF"/>
<path d="M37.7828 57.2782C37.5132 57.1253 37.5132 56.7625 37.7828 56.6096L41.5359 54.4815V53.9631C41.5359 53.6852 41.2782 53.5046 41.059 53.6288L35.8018 56.6096C35.5322 56.7625 35.5322 57.1253 35.8018 57.2782L41.059 60.259C41.278 60.3832 41.5359 60.2026 41.5359 59.9247V59.4063L37.7828 57.2782Z" fill="#1C78D3"/>
<path d="M95.9615 55.2647V54.4815L94.4575 53.6288C94.2385 53.5046 93.9806 53.6852 93.9806 53.9631V55.2648C93.9806 55.4058 93.8572 55.5201 93.7051 55.5201H95.6859C95.8382 55.52 95.9615 55.4057 95.9615 55.2647Z" fill="#1C78D3"/>
<path d="M83.7115 56.9171C83.7272 56.1333 84.4529 55.52 85.299 55.52H83.3182C82.4721 55.52 81.7463 56.1333 81.7307 56.9171C81.7149 57.7157 82.4089 58.3677 83.2672 58.3677H85.248C84.3897 58.3678 83.6958 57.7157 83.7115 56.9171Z" fill="#1C78D3"/>
<path d="M95.9614 58.6229C95.9614 58.4819 95.8381 58.3677 95.6859 58.3677H93.7051C93.8572 58.3677 93.9806 58.4819 93.9806 58.6229V59.9247C93.9806 60.2026 94.2384 60.3833 94.4575 60.259L95.9615 59.4063V58.6229H95.9614Z" fill="#1C78D3"/>
<path d="M68.2027 42.5252V32.9011C68.2027 32.7601 68.0794 32.6458 67.9273 32.6458H66.5224C66.2225 32.6458 66.0275 32.407 66.1616 32.2039L68.749 28.2862L68.1193 27.3328C67.9543 27.0829 67.5627 27.0829 67.3977 27.3328L64.1808 32.2039C64.0467 32.4069 64.2417 32.6458 64.5416 32.6458H65.9464C66.0986 32.6458 66.2219 32.7601 66.2219 32.9011V42.5252C66.2219 43.3092 66.8838 43.9816 67.7297 43.9961C68.1225 44.0028 68.4814 43.8719 68.7569 43.6532C68.4169 43.38 68.2027 42.9708 68.2027 42.5252Z" fill="#1C78D3"/>
<path d="M79.3325 46.5896L86.6769 39.7843C86.7844 39.6846 86.7844 39.523 86.6769 39.4233L85.6835 38.5028C85.4714 38.3064 85.5158 38.0097 85.7655 37.9539L90.4359 36.9122L90.6099 36.2423C90.6839 35.9576 90.407 35.7011 90.0998 35.7696L84.1077 37.1063C83.858 37.1619 83.8136 37.4588 84.0257 37.6552L85.0191 38.5756C85.1266 38.6753 85.1266 38.837 85.0191 38.9367L77.6747 45.7419C77.0765 46.2963 77.0312 47.2055 77.6184 47.7699C77.9835 48.1209 78.4939 48.2588 78.9742 48.1862C78.7398 47.6569 78.8704 47.0176 79.3325 46.5896Z" fill="#1C78D3"/>
<path d="M47.5764 40.7639L46.3319 35.9738L45.4168 35.7696C45.1095 35.7011 44.8326 35.9576 44.9066 36.2423L46.3492 41.7945C46.4092 42.0259 46.7296 42.0671 46.9415 41.8706L47.9259 40.9585C47.7667 40.9834 47.6157 40.9154 47.5764 40.7639Z" fill="#1C78D3"/>
<path d="M56.9321 46.7582L49.5518 39.9195C49.4442 39.8198 49.2697 39.8198 49.1622 39.9195L48.1687 40.84C48.1534 40.8542 48.1366 40.8645 48.1201 40.8763C48.1937 40.8739 48.2681 40.8981 48.3243 40.9502L55.7046 47.789C56.3115 48.3513 57.2998 48.345 57.8981 47.7699C58.0831 47.5919 58.205 47.3797 58.2671 47.1551C57.7958 47.2261 57.2957 47.0951 56.9321 46.7582Z" fill="#1C78D3"/>
</g>
<defs>
<clipPath id="clip0">
<rect width="108" height="93" fill="white" transform="translate(14)"/>
</clipPath>
<clipPath id="clip1">
<rect width="14.4" height="14.4" fill="white" transform="translate(24.4727 14.0546)"/>
</clipPath>
<clipPath id="clip2">
<rect width="15.0545" height="15.0545" fill="white" transform="translate(14 45.4727)"/>
</clipPath>
<clipPath id="clip3">
<rect width="15.0545" height="15.7091" fill="white" transform="translate(106.945 44.8181)"/>
</clipPath>
<clipPath id="clip4">
<rect width="15.0545" height="15.7091" fill="white" transform="translate(60.4727 -1)"/>
</clipPath>
<clipPath id="clip5">
<rect width="15.0545" height="14.4" fill="white" transform="translate(95.5771 17.3273)"/>
</clipPath>
</defs>
</svg>
