<svg width="181" height="148" viewBox="0 0 181 148" fill="none" xmlns="http://www.w3.org/2000/svg">
<path d="M64.9186 117.979H69.6496V123.67C68.9466 124.183 68.1961 124.56 67.3981 124.8C66.6064 125.035 65.7672 125.152 64.8806 125.152C63.7469 125.152 62.7209 124.978 61.8026 124.629C60.8842 124.275 60.0989 123.784 59.4466 123.157C58.7942 122.53 58.2907 121.786 57.9361 120.924C57.5814 120.063 57.4041 119.123 57.4041 118.103C57.4041 117.071 57.5719 116.124 57.9076 115.262C58.2496 114.401 58.7341 113.66 59.3611 113.039C59.9881 112.419 60.7449 111.934 61.6316 111.586C62.5246 111.238 63.5221 111.063 64.6241 111.063C65.1941 111.063 65.7261 111.111 66.2201 111.206C66.7141 111.295 67.1701 111.421 67.5881 111.586C68.0061 111.744 68.3892 111.934 68.7376 112.156C69.0859 112.378 69.4026 112.621 69.6876 112.887L68.8611 114.16C68.7344 114.363 68.5697 114.487 68.3671 114.531C68.1644 114.575 67.9427 114.525 67.7021 114.379C67.4741 114.24 67.2492 114.116 67.0276 114.008C66.8122 113.894 66.5811 113.796 66.3341 113.714C66.0871 113.632 65.8179 113.568 65.5266 113.524C65.2352 113.48 64.8996 113.457 64.5196 113.457C63.8799 113.457 63.3004 113.568 62.7811 113.79C62.2617 114.012 61.8184 114.325 61.4511 114.73C61.0901 115.136 60.8114 115.623 60.6151 116.193C60.4187 116.763 60.3206 117.4 60.3206 118.103C60.3206 118.863 60.4282 119.544 60.6436 120.145C60.8589 120.741 61.1629 121.244 61.5556 121.656C61.9482 122.068 62.4169 122.381 62.9616 122.596C63.5126 122.812 64.1237 122.919 64.7951 122.919C65.2511 122.919 65.6564 122.875 66.0111 122.786C66.3721 122.691 66.7236 122.565 67.0656 122.406V120.088H65.5076C65.3239 120.088 65.1782 120.041 65.0706 119.946C64.9692 119.845 64.9186 119.718 64.9186 119.566V117.979ZM74.8482 113.448V116.991H79.4462V119.148H74.8482V122.767H80.7572V125H71.9792V111.215H80.7572V113.448H74.8482ZM92.6458 113.514H88.6178V125H85.7583V113.514H81.7303V111.215H92.6458V113.514ZM104.917 119.766L103.426 115.547C103.337 115.326 103.242 115.066 103.141 114.768C103.046 114.471 102.954 114.148 102.865 113.799C102.777 114.154 102.682 114.483 102.58 114.787C102.485 115.085 102.393 115.345 102.305 115.566L100.823 119.766H104.917ZM109.705 125H107.492C107.245 125 107.042 124.943 106.884 124.829C106.732 124.709 106.618 124.557 106.542 124.373L105.611 121.741H100.12L99.1888 124.373C99.1255 124.531 99.0146 124.677 98.8563 124.81C98.698 124.937 98.4985 125 98.2578 125H96.0253L101.412 111.215H104.328L109.705 125ZM122.79 111.215V125H121.317C121.095 125 120.909 124.965 120.757 124.895C120.605 124.819 120.456 124.693 120.31 124.515L113.442 115.775C113.461 115.997 113.473 116.216 113.48 116.431C113.492 116.646 113.499 116.846 113.499 117.029V125H110.981V111.215H112.482C112.602 111.215 112.704 111.222 112.786 111.234C112.875 111.241 112.954 111.263 113.024 111.301C113.093 111.333 113.16 111.377 113.223 111.434C113.286 111.491 113.356 111.567 113.432 111.662L120.348 120.44C120.323 120.199 120.304 119.968 120.291 119.746C120.278 119.518 120.272 119.303 120.272 119.1V111.215H122.79ZM4.57228 146H1.70328V132.215H4.57228V146ZM19.2637 132.215V146H17.7912C17.5696 146 17.3827 145.965 17.2307 145.895C17.0787 145.819 16.9299 145.693 16.7842 145.515L9.91573 136.775C9.93473 136.997 9.9474 137.216 9.95373 137.431C9.9664 137.646 9.97273 137.846 9.97273 138.029V146H7.45523V132.215H8.95623C9.07656 132.215 9.1779 132.222 9.26023 132.234C9.3489 132.241 9.42806 132.263 9.49773 132.301C9.5674 132.333 9.6339 132.377 9.69723 132.434C9.76056 132.491 9.83023 132.567 9.90623 132.662L16.8222 141.44C16.7969 141.199 16.7779 140.968 16.7652 140.746C16.7526 140.518 16.7462 140.303 16.7462 140.1V132.215H19.2637ZM34.2155 132.215L28.6675 146H26.0835L20.5355 132.215H22.8345C23.0815 132.215 23.281 132.276 23.433 132.396C23.5914 132.51 23.7085 132.659 23.7845 132.842L26.7675 140.784C26.8815 141.082 26.9924 141.408 27.1 141.763C27.214 142.111 27.3185 142.479 27.4135 142.865C27.4959 142.479 27.5845 142.111 27.6795 141.763C27.7809 141.408 27.8885 141.082 28.0025 140.784L30.9665 132.842C31.0299 132.684 31.1407 132.542 31.299 132.415C31.4637 132.282 31.6664 132.215 31.907 132.215H34.2155ZM38.3604 146H35.4914V132.215H38.3604V146ZM50.9998 134.514H46.9718V146H44.1123V134.514H40.0843V132.215H50.9998V134.514ZM58.6326 140.766L57.1411 136.547C57.0525 136.326 56.9575 136.066 56.8561 135.768C56.7611 135.471 56.6693 135.148 56.5806 134.799C56.492 135.154 56.397 135.483 56.2956 135.787C56.2006 136.085 56.1088 136.345 56.0201 136.566L54.5381 140.766H58.6326ZM63.4206 146H61.2071C60.9601 146 60.7575 145.943 60.5991 145.829C60.4471 145.709 60.3331 145.557 60.2571 145.373L59.3261 142.741H53.8351L52.9041 145.373C52.8408 145.531 52.73 145.677 52.5716 145.81C52.4133 145.937 52.2138 146 51.9731 146H49.7406L55.1271 132.215H58.0436L63.4206 146ZM73.0984 134.514H69.0704V146H66.2109V134.514H62.1829V132.215H73.0984V134.514ZM77.6777 146H74.8087V132.215H77.6777V146ZM93.8797 139.103C93.8797 140.11 93.7087 141.044 93.3667 141.905C93.031 142.767 92.5529 143.511 91.9322 144.138C91.3179 144.765 90.5769 145.259 89.7092 145.62C88.8415 145.975 87.8789 146.152 86.8212 146.152C85.7635 146.152 84.8009 145.975 83.9332 145.62C83.0655 145.259 82.3214 144.765 81.7007 144.138C81.08 143.511 80.5987 142.767 80.2567 141.905C79.921 141.044 79.7532 140.11 79.7532 139.103C79.7532 138.096 79.921 137.165 80.2567 136.31C80.5987 135.449 81.08 134.704 81.7007 134.077C82.3214 133.45 83.0655 132.96 83.9332 132.605C84.8009 132.244 85.7635 132.063 86.8212 132.063C87.8789 132.063 88.8415 132.244 89.7092 132.605C90.5769 132.96 91.3179 133.454 91.9322 134.087C92.5529 134.714 93.031 135.458 93.3667 136.319C93.7087 137.174 93.8797 138.102 93.8797 139.103ZM90.9632 139.103C90.9632 138.381 90.8682 137.735 90.6782 137.165C90.4882 136.589 90.2127 136.101 89.8517 135.702C89.497 135.297 89.0632 134.989 88.5502 134.78C88.0435 134.565 87.4672 134.457 86.8212 134.457C86.1752 134.457 85.5957 134.565 85.0827 134.78C84.5697 134.989 84.1327 135.297 83.7717 135.702C83.417 136.101 83.1447 136.589 82.9547 137.165C82.7647 137.735 82.6697 138.381 82.6697 139.103C82.6697 139.831 82.7647 140.484 82.9547 141.06C83.1447 141.63 83.417 142.114 83.7717 142.513C84.1327 142.912 84.5697 143.22 85.0827 143.435C85.5957 143.644 86.1752 143.748 86.8212 143.748C87.4672 143.748 88.0435 143.644 88.5502 143.435C89.0632 143.22 89.497 142.912 89.8517 142.513C90.2127 142.114 90.4882 141.63 90.6782 141.06C90.8682 140.484 90.9632 139.831 90.9632 139.103ZM107.77 132.215V146H106.297C106.075 146 105.889 145.965 105.737 145.895C105.585 145.819 105.436 145.693 105.29 145.515L98.4216 136.775C98.4406 136.997 98.4533 137.216 98.4596 137.431C98.4723 137.646 98.4786 137.846 98.4786 138.029V146H95.9611V132.215H97.4621C97.5824 132.215 97.6838 132.222 97.7661 132.234C97.8548 132.241 97.9339 132.263 98.0036 132.301C98.0733 132.333 98.1398 132.377 98.2031 132.434C98.2664 132.491 98.3361 132.567 98.4121 132.662L105.328 141.44C105.303 141.199 105.284 140.968 105.271 140.746C105.258 140.518 105.252 140.303 105.252 140.1V132.215H107.77ZM123.345 143.682V146H115.165V132.215H118.015V143.682H123.345ZM127.961 134.448V137.991H132.559V140.148H127.961V143.767H133.87V146H125.092V132.215H133.87V134.448H127.961ZM145.759 134.514H141.731V146H138.871V134.514H134.843V132.215H145.759V134.514ZM157.225 134.514H153.197V146H150.338V134.514H146.31V132.215H157.225V134.514ZM161.805 134.448V137.991H166.403V140.148H161.805V143.767H167.714V146H158.936V132.215H167.714V134.448H161.805ZM174.159 138.742C174.621 138.742 175.02 138.685 175.356 138.571C175.692 138.451 175.967 138.289 176.182 138.086C176.398 137.877 176.556 137.634 176.657 137.355C176.759 137.076 176.809 136.772 176.809 136.443C176.809 135.791 176.591 135.284 176.154 134.923C175.723 134.562 175.065 134.381 174.178 134.381H172.696V138.742H174.159ZM180.837 146H178.263C177.782 146 177.433 145.816 177.218 145.449L174.596 141.221C174.488 141.057 174.368 140.936 174.235 140.86C174.108 140.784 173.918 140.746 173.665 140.746H172.696V146H169.846V132.215H174.178C175.141 132.215 175.964 132.317 176.648 132.519C177.332 132.716 177.892 132.991 178.329 133.346C178.766 133.701 179.086 134.125 179.289 134.619C179.492 135.107 179.593 135.645 179.593 136.234C179.593 136.69 179.526 137.124 179.393 137.535C179.267 137.941 179.08 138.311 178.833 138.647C178.586 138.983 178.282 139.28 177.921 139.54C177.56 139.8 177.148 140.009 176.686 140.167C176.87 140.268 177.041 140.392 177.199 140.537C177.357 140.677 177.5 140.845 177.626 141.041L180.837 146Z" fill="#525252"/>
<g clip-path="url(#clip0)" filter="url(#filter0_d)">
<path d="M54.5 41.9999V92.9999C54.5 93.8283 54.8359 94.5783 55.3788 95.1212H125.621C126.164 94.5783 126.5 93.8283 126.5 93V41.9999H54.5Z" fill="#FFE07D"/>
<path d="M95.8034 11.3033C92.8745 8.37433 88.1259 8.37433 85.1969 11.3033L54.5 42L85.1967 72.6967C88.1257 75.6257 92.8743 75.6257 95.8033 72.6967L126.5 42L95.8034 11.3033Z" fill="#FFC250"/>
<path d="M117.5 3H65C64.1715 3 63.5 3.67153 63.5 4.49999V49.5L85.1968 72.6968C88.1257 75.6257 92.8744 75.6257 95.8033 72.6968L119 45.2574V4.49999C119 3.67153 118.328 3 117.5 3V3Z" fill="#ECEAEC"/>
<path d="M98.2059 63.4633L98.2046 63.462C96.3864 61.6438 94.0267 60.3768 91.4654 60.1496C88.3054 59.8691 85.2847 60.9728 83.0754 63.1821L82.794 63.4634C82.0795 64.178 80.9206 64.178 80.206 63.4634L66.318 49.5754C65.4741 48.7315 65 47.587 65 46.3934V3H63.5C62.6715 3 62 3.67153 62 4.49999V49.5L85.1968 72.6968C88.1257 75.6257 92.8744 75.6257 95.8033 72.6968L119 49.5V45.2574L100.794 63.4633C100.079 64.178 98.9206 64.178 98.2059 63.4633V63.4633Z" fill="#DAD8DB"/>
<path d="M95.8036 65.3033C92.8746 62.3743 88.126 62.3743 85.197 65.3033L55.3789 95.1212C55.9218 95.6641 56.6718 96 57.5001 96H123.5C124.329 96 125.079 95.6641 125.621 95.1212L95.8036 65.3033Z" fill="#FFD064"/>
</g>
<defs>
<filter id="filter0_d" x="38" y="0" width="105" height="105" filterUnits="userSpaceOnUse" color-interpolation-filters="sRGB">
<feFlood flood-opacity="0" result="BackgroundImageFix"/>
<feColorMatrix in="SourceAlpha" type="matrix" values="0 0 0 0 0 0 0 0 0 0 0 0 0 0 0 0 0 0 127 0"/>
<feOffset dy="3"/>
<feGaussianBlur stdDeviation="3"/>
<feColorMatrix type="matrix" values="0 0 0 0 0 0 0 0 0 0 0 0 0 0 0 0 0 0 0.3 0"/>
<feBlend mode="normal" in2="BackgroundImageFix" result="effect1_dropShadow"/>
<feBlend mode="normal" in="SourceGraphic" in2="effect1_dropShadow" result="shape"/>
</filter>
<clipPath id="clip0">
<rect width="93" height="93" fill="white" transform="translate(44 3)"/>
</clipPath>
</defs>
</svg>
