<svg width="293" height="658" viewBox="0 0 293 658" fill="none" xmlns="http://www.w3.org/2000/svg">
<path d="M174.632 118.608C174.791 118.608 174.924 118.665 175.031 118.779L176.162 119.986C175.604 120.695 174.911 121.234 174.081 121.601C173.258 121.968 172.276 122.152 171.136 122.152C170.104 122.152 169.176 121.978 168.353 121.629C167.529 121.275 166.83 120.784 166.253 120.157C165.677 119.53 165.234 118.786 164.923 117.924C164.613 117.063 164.458 116.123 164.458 115.103C164.458 114.419 164.531 113.77 164.676 113.155C164.828 112.535 165.047 111.965 165.332 111.445C165.617 110.926 165.959 110.457 166.358 110.039C166.763 109.621 167.219 109.267 167.726 108.975C168.232 108.678 168.783 108.453 169.379 108.301C169.98 108.143 170.62 108.063 171.298 108.063C171.804 108.063 172.283 108.108 172.732 108.196C173.188 108.285 173.613 108.409 174.005 108.567C174.398 108.725 174.759 108.918 175.088 109.146C175.424 109.368 175.725 109.612 175.991 109.878L175.031 111.189C174.974 111.271 174.901 111.344 174.813 111.407C174.724 111.471 174.604 111.502 174.452 111.502C174.3 111.502 174.145 111.449 173.986 111.341C173.834 111.233 173.644 111.113 173.416 110.98C173.195 110.847 172.913 110.727 172.571 110.619C172.235 110.511 171.808 110.457 171.288 110.457C170.712 110.457 170.183 110.562 169.702 110.771C169.22 110.98 168.806 111.284 168.457 111.683C168.115 112.076 167.849 112.56 167.659 113.136C167.469 113.713 167.374 114.368 167.374 115.103C167.374 115.844 167.476 116.506 167.678 117.088C167.887 117.665 168.169 118.152 168.524 118.551C168.885 118.95 169.303 119.254 169.778 119.463C170.259 119.666 170.772 119.767 171.317 119.767C171.64 119.767 171.931 119.752 172.191 119.72C172.457 119.688 172.701 119.634 172.922 119.559C173.15 119.482 173.362 119.384 173.559 119.264C173.761 119.144 173.964 118.992 174.167 118.808C174.236 118.751 174.309 118.703 174.385 118.665C174.461 118.627 174.544 118.608 174.632 118.608ZM189.579 108.215V122H186.71V116.062H180.64V122H177.771V108.215H180.64V114.067H186.71V108.215H189.579ZM205.785 115.103C205.785 116.11 205.614 117.044 205.272 117.905C204.936 118.767 204.458 119.511 203.837 120.138C203.223 120.765 202.482 121.259 201.614 121.62C200.747 121.975 199.784 122.152 198.726 122.152C197.669 122.152 196.706 121.975 195.838 121.62C194.971 121.259 194.227 120.765 193.606 120.138C192.985 119.511 192.504 118.767 192.162 117.905C191.826 117.044 191.658 116.11 191.658 115.103C191.658 114.096 191.826 113.165 192.162 112.31C192.504 111.449 192.985 110.704 193.606 110.077C194.227 109.45 194.971 108.96 195.838 108.605C196.706 108.244 197.669 108.063 198.726 108.063C199.784 108.063 200.747 108.244 201.614 108.605C202.482 108.96 203.223 109.454 203.837 110.087C204.458 110.714 204.936 111.458 205.272 112.319C205.614 113.174 205.785 114.102 205.785 115.103ZM202.868 115.103C202.868 114.381 202.773 113.735 202.583 113.165C202.393 112.589 202.118 112.101 201.757 111.702C201.402 111.297 200.968 110.989 200.455 110.78C199.949 110.565 199.372 110.457 198.726 110.457C198.08 110.457 197.501 110.565 196.988 110.78C196.475 110.989 196.038 111.297 195.677 111.702C195.322 112.101 195.05 112.589 194.86 113.165C194.67 113.735 194.575 114.381 194.575 115.103C194.575 115.831 194.67 116.484 194.86 117.06C195.05 117.63 195.322 118.114 195.677 118.513C196.038 118.912 196.475 119.22 196.988 119.435C197.501 119.644 198.08 119.748 198.726 119.748C199.372 119.748 199.949 119.644 200.455 119.435C200.968 119.22 201.402 118.912 201.757 118.513C202.118 118.114 202.393 117.63 202.583 117.06C202.773 116.484 202.868 115.831 202.868 115.103ZM221.185 115.103C221.185 116.11 221.014 117.044 220.672 117.905C220.337 118.767 219.859 119.511 219.238 120.138C218.624 120.765 217.883 121.259 217.015 121.62C216.147 121.975 215.185 122.152 214.127 122.152C213.069 122.152 212.107 121.975 211.239 121.62C210.371 121.259 209.627 120.765 209.006 120.138C208.386 119.511 207.904 118.767 207.562 117.905C207.227 117.044 207.059 116.11 207.059 115.103C207.059 114.096 207.227 113.165 207.562 112.31C207.904 111.449 208.386 110.704 209.006 110.077C209.627 109.45 210.371 108.96 211.239 108.605C212.107 108.244 213.069 108.063 214.127 108.063C215.185 108.063 216.147 108.244 217.015 108.605C217.883 108.96 218.624 109.454 219.238 110.087C219.859 110.714 220.337 111.458 220.672 112.319C221.014 113.174 221.185 114.102 221.185 115.103ZM218.269 115.103C218.269 114.381 218.174 113.735 217.984 113.165C217.794 112.589 217.518 112.101 217.157 111.702C216.803 111.297 216.369 110.989 215.856 110.78C215.349 110.565 214.773 110.457 214.127 110.457C213.481 110.457 212.901 110.565 212.388 110.78C211.875 110.989 211.438 111.297 211.077 111.702C210.723 112.101 210.45 112.589 210.26 113.165C210.07 113.735 209.975 114.381 209.975 115.103C209.975 115.831 210.07 116.484 210.26 117.06C210.45 117.63 210.723 118.114 211.077 118.513C211.438 118.912 211.875 119.22 212.388 119.435C212.901 119.644 213.481 119.748 214.127 119.748C214.773 119.748 215.349 119.644 215.856 119.435C216.369 119.22 216.803 118.912 217.157 118.513C217.518 118.114 217.794 117.63 217.984 117.06C218.174 116.484 218.269 115.831 218.269 115.103ZM230.734 110.856C230.645 111.002 230.553 111.11 230.458 111.179C230.37 111.243 230.252 111.274 230.107 111.274C229.967 111.274 229.815 111.227 229.651 111.132C229.492 111.031 229.306 110.923 229.09 110.809C228.875 110.695 228.628 110.59 228.349 110.495C228.071 110.394 227.744 110.343 227.371 110.343C226.712 110.343 226.218 110.492 225.889 110.79C225.559 111.081 225.395 111.464 225.395 111.939C225.395 112.243 225.483 112.497 225.661 112.699C225.844 112.896 226.082 113.067 226.373 113.212C226.671 113.358 227.007 113.488 227.38 113.602C227.754 113.716 228.137 113.843 228.53 113.982C228.922 114.115 229.306 114.273 229.679 114.457C230.053 114.641 230.385 114.872 230.677 115.15C230.974 115.429 231.212 115.771 231.389 116.176C231.573 116.575 231.665 117.063 231.665 117.639C231.665 118.266 231.554 118.855 231.332 119.406C231.117 119.951 230.803 120.429 230.392 120.841C229.98 121.246 229.47 121.566 228.862 121.8C228.261 122.035 227.577 122.152 226.81 122.152C226.373 122.152 225.936 122.108 225.499 122.019C225.069 121.93 224.651 121.807 224.245 121.648C223.846 121.49 223.469 121.3 223.115 121.078C222.76 120.857 222.45 120.61 222.184 120.337L223.02 118.988C223.089 118.887 223.181 118.805 223.295 118.741C223.409 118.672 223.53 118.637 223.656 118.637C223.827 118.637 224.008 118.7 224.198 118.827C224.388 118.954 224.606 119.093 224.853 119.245C225.1 119.397 225.385 119.536 225.708 119.663C226.038 119.79 226.43 119.853 226.886 119.853C227.551 119.853 228.064 119.701 228.425 119.397C228.793 119.093 228.976 118.64 228.976 118.038C228.976 117.69 228.884 117.408 228.701 117.193C228.523 116.978 228.289 116.797 227.998 116.651C227.706 116.506 227.374 116.382 227 116.281C226.627 116.173 226.243 116.056 225.851 115.929C225.458 115.803 225.075 115.651 224.701 115.473C224.328 115.296 223.995 115.062 223.704 114.77C223.412 114.479 223.175 114.118 222.991 113.687C222.814 113.257 222.725 112.722 222.725 112.082C222.725 111.569 222.827 111.072 223.029 110.59C223.232 110.109 223.53 109.682 223.922 109.308C224.315 108.934 224.796 108.633 225.366 108.405C225.943 108.177 226.601 108.063 227.342 108.063C228.172 108.063 228.938 108.193 229.641 108.453C230.351 108.706 230.949 109.061 231.437 109.517L230.734 110.856ZM236.601 110.448V113.991H241.199V116.148H236.601V119.767H242.51V122H233.732V108.215H242.51V110.448H236.601ZM176.58 139.608C176.739 139.608 176.872 139.665 176.979 139.779L178.11 140.986C177.553 141.695 176.859 142.234 176.029 142.601C175.206 142.968 174.224 143.152 173.084 143.152C172.052 143.152 171.124 142.978 170.301 142.629C169.478 142.275 168.778 141.784 168.201 141.157C167.625 140.53 167.182 139.786 166.871 138.924C166.561 138.063 166.406 137.123 166.406 136.103C166.406 135.419 166.479 134.77 166.624 134.155C166.776 133.535 166.995 132.965 167.28 132.445C167.565 131.926 167.907 131.457 168.306 131.039C168.711 130.621 169.167 130.267 169.674 129.975C170.181 129.678 170.732 129.453 171.327 129.301C171.929 129.143 172.568 129.063 173.246 129.063C173.753 129.063 174.231 129.108 174.68 129.196C175.136 129.285 175.561 129.409 175.953 129.567C176.346 129.725 176.707 129.918 177.036 130.146C177.372 130.368 177.673 130.612 177.939 130.878L176.979 132.189C176.922 132.271 176.85 132.344 176.761 132.407C176.672 132.471 176.552 132.502 176.4 132.502C176.248 132.502 176.093 132.449 175.934 132.341C175.782 132.233 175.592 132.113 175.364 131.98C175.143 131.847 174.861 131.727 174.519 131.619C174.183 131.511 173.756 131.457 173.236 131.457C172.66 131.457 172.131 131.562 171.65 131.771C171.169 131.98 170.754 132.284 170.405 132.683C170.063 133.076 169.797 133.56 169.607 134.136C169.417 134.713 169.322 135.368 169.322 136.103C169.322 136.844 169.424 137.506 169.626 138.088C169.835 138.665 170.117 139.152 170.472 139.551C170.833 139.95 171.251 140.254 171.726 140.463C172.207 140.666 172.72 140.767 173.265 140.767C173.588 140.767 173.879 140.752 174.139 140.72C174.405 140.688 174.649 140.634 174.87 140.559C175.098 140.482 175.311 140.384 175.507 140.264C175.71 140.144 175.912 139.992 176.115 139.808C176.185 139.751 176.257 139.703 176.333 139.665C176.409 139.627 176.492 139.608 176.58 139.608ZM192.741 136.103C192.741 137.11 192.57 138.044 192.228 138.905C191.892 139.767 191.414 140.511 190.794 141.138C190.179 141.765 189.438 142.259 188.571 142.62C187.703 142.975 186.74 143.152 185.683 143.152C184.625 143.152 183.662 142.975 182.795 142.62C181.927 142.259 181.183 141.765 180.562 141.138C179.941 140.511 179.46 139.767 179.118 138.905C178.782 138.044 178.615 137.11 178.615 136.103C178.615 135.096 178.782 134.165 179.118 133.31C179.46 132.449 179.941 131.704 180.562 131.077C181.183 130.45 181.927 129.96 182.795 129.605C183.662 129.244 184.625 129.063 185.683 129.063C186.74 129.063 187.703 129.244 188.571 129.605C189.438 129.96 190.179 130.454 190.794 131.087C191.414 131.714 191.892 132.458 192.228 133.319C192.57 134.174 192.741 135.102 192.741 136.103ZM189.825 136.103C189.825 135.381 189.73 134.735 189.54 134.165C189.35 133.589 189.074 133.101 188.713 132.702C188.358 132.297 187.925 131.989 187.412 131.78C186.905 131.565 186.329 131.457 185.683 131.457C185.037 131.457 184.457 131.565 183.944 131.78C183.431 131.989 182.994 132.297 182.633 132.702C182.278 133.101 182.006 133.589 181.816 134.165C181.626 134.735 181.531 135.381 181.531 136.103C181.531 136.831 181.626 137.484 181.816 138.06C182.006 138.63 182.278 139.114 182.633 139.513C182.994 139.912 183.431 140.22 183.944 140.435C184.457 140.644 185.037 140.748 185.683 140.748C186.329 140.748 186.905 140.644 187.412 140.435C187.925 140.22 188.358 139.912 188.713 139.513C189.074 139.114 189.35 138.63 189.54 138.06C189.73 137.484 189.825 136.831 189.825 136.103ZM200.465 140.72C200.928 140.72 201.343 140.644 201.71 140.492C202.077 140.334 202.388 140.112 202.641 139.827C202.894 139.542 203.087 139.197 203.22 138.791C203.353 138.386 203.42 137.93 203.42 137.423V129.215H206.27V137.423C206.27 138.259 206.134 139.029 205.861 139.732C205.595 140.429 205.212 141.03 204.712 141.537C204.212 142.044 203.604 142.439 202.888 142.724C202.172 143.01 201.365 143.152 200.465 143.152C199.566 143.152 198.755 143.01 198.033 142.724C197.318 142.439 196.71 142.044 196.209 141.537C195.709 141.03 195.323 140.429 195.05 139.732C194.784 139.029 194.651 138.259 194.651 137.423V129.215H197.501V137.423C197.501 137.93 197.568 138.386 197.701 138.791C197.834 139.197 198.027 139.542 198.28 139.827C198.534 140.112 198.844 140.334 199.211 140.492C199.579 140.644 199.997 140.72 200.465 140.72ZM213.293 135.742C213.755 135.742 214.154 135.685 214.49 135.571C214.825 135.451 215.101 135.289 215.316 135.086C215.531 134.877 215.69 134.634 215.791 134.355C215.892 134.076 215.943 133.772 215.943 133.443C215.943 132.791 215.725 132.284 215.288 131.923C214.857 131.562 214.198 131.381 213.312 131.381H211.83V135.742H213.293ZM219.971 143H217.397C216.915 143 216.567 142.816 216.352 142.449L213.73 138.221C213.622 138.057 213.502 137.936 213.369 137.86C213.242 137.784 213.052 137.746 212.799 137.746H211.83V143H208.98V129.215H213.312C214.274 129.215 215.098 129.317 215.782 129.519C216.466 129.716 217.026 129.991 217.463 130.346C217.9 130.701 218.22 131.125 218.423 131.619C218.625 132.107 218.727 132.645 218.727 133.234C218.727 133.69 218.66 134.124 218.527 134.535C218.4 134.941 218.214 135.311 217.967 135.647C217.72 135.983 217.416 136.28 217.055 136.54C216.694 136.8 216.282 137.009 215.82 137.167C216.003 137.268 216.174 137.392 216.333 137.537C216.491 137.677 216.633 137.845 216.76 138.041L219.971 143ZM228.786 131.856C228.697 132.002 228.605 132.11 228.51 132.179C228.421 132.243 228.304 132.274 228.159 132.274C228.019 132.274 227.867 132.227 227.703 132.132C227.544 132.031 227.357 131.923 227.142 131.809C226.927 131.695 226.68 131.59 226.401 131.495C226.122 131.394 225.796 131.343 225.423 131.343C224.764 131.343 224.27 131.492 223.941 131.79C223.611 132.081 223.447 132.464 223.447 132.939C223.447 133.243 223.535 133.497 223.713 133.699C223.896 133.896 224.134 134.067 224.425 134.212C224.723 134.358 225.058 134.488 225.432 134.602C225.806 134.716 226.189 134.843 226.582 134.982C226.974 135.115 227.357 135.273 227.731 135.457C228.105 135.641 228.437 135.872 228.729 136.15C229.026 136.429 229.264 136.771 229.441 137.176C229.625 137.575 229.717 138.063 229.717 138.639C229.717 139.266 229.606 139.855 229.384 140.406C229.169 140.951 228.855 141.429 228.444 141.841C228.032 142.246 227.522 142.566 226.914 142.8C226.312 143.035 225.628 143.152 224.862 143.152C224.425 143.152 223.988 143.108 223.551 143.019C223.12 142.93 222.702 142.807 222.297 142.648C221.898 142.49 221.521 142.3 221.167 142.078C220.812 141.857 220.502 141.61 220.236 141.337L221.072 139.988C221.141 139.887 221.233 139.805 221.347 139.741C221.461 139.672 221.581 139.637 221.708 139.637C221.879 139.637 222.06 139.7 222.25 139.827C222.44 139.954 222.658 140.093 222.905 140.245C223.152 140.397 223.437 140.536 223.76 140.663C224.089 140.79 224.482 140.853 224.938 140.853C225.603 140.853 226.116 140.701 226.477 140.397C226.844 140.093 227.028 139.64 227.028 139.038C227.028 138.69 226.936 138.408 226.753 138.193C226.575 137.978 226.341 137.797 226.05 137.651C225.758 137.506 225.426 137.382 225.052 137.281C224.678 137.173 224.295 137.056 223.903 136.929C223.51 136.803 223.127 136.651 222.753 136.473C222.379 136.296 222.047 136.062 221.756 135.77C221.464 135.479 221.227 135.118 221.043 134.687C220.866 134.257 220.777 133.722 220.777 133.082C220.777 132.569 220.878 132.072 221.081 131.59C221.284 131.109 221.581 130.682 221.974 130.308C222.367 129.934 222.848 129.633 223.418 129.405C223.994 129.177 224.653 129.063 225.394 129.063C226.224 129.063 226.99 129.193 227.693 129.453C228.402 129.706 229.001 130.061 229.489 130.517L228.786 131.856ZM234.652 131.448V134.991H239.25V137.148H234.652V140.767H240.561V143H231.783V129.215H240.561V131.448H234.652Z" fill="#062C76"/>
<g clip-path="url(#clip0)">
<g clip-path="url(#clip1)">
<path d="M174.641 28.4546H166.744C166.616 28.4546 166.512 28.3505 166.512 28.2223V16.3772C166.512 16.2489 166.616 16.1449 166.744 16.1449H174.641C174.769 16.1449 174.873 16.2489 174.873 16.3772V28.2223C174.873 28.3505 174.769 28.4546 174.641 28.4546Z" fill="#D3EEFD"/>
<path d="M173.944 28.4545H166.512V22.6481H173.944C174.072 22.6481 174.176 22.7521 174.176 22.8803V28.2223C174.176 28.3505 174.072 28.4545 173.944 28.4545Z" fill="#C9E2F0"/>
<path d="M165.814 22.8804H173.674C173.823 22.8804 173.943 22.9844 173.943 23.1126V28.2223C173.943 28.3505 173.823 28.4546 173.674 28.4546H165.814V22.8804Z" fill="#A2CE6D"/>
<path d="M169.53 27.061C170.3 27.061 170.924 26.4371 170.924 25.6675C170.924 24.8978 170.3 24.2739 169.53 24.2739C168.761 24.2739 168.137 24.8978 168.137 25.6675C168.137 26.4371 168.761 27.061 169.53 27.061Z" fill="#E8F3DB"/>
<path d="M172.55 27.7578H170.692V27.2933H172.318V27.061C172.318 26.9995 172.343 26.9402 172.386 26.8968L172.783 26.5003V24.8346L172.386 24.4381C172.343 24.3947 172.318 24.3355 172.318 24.2739V24.0417H170.692V23.5771H172.55C172.679 23.5771 172.783 23.6812 172.783 23.8094V24.1778L173.179 24.5742C173.223 24.6177 173.247 24.6769 173.247 24.7384V26.5965C173.247 26.6581 173.223 26.7173 173.179 26.7607L172.783 27.1572V27.5255C172.783 27.6537 172.679 27.7578 172.55 27.7578Z" fill="#E8F3DB"/>
<path d="M168.369 23.5771H167.208V24.0417H168.369V23.5771Z" fill="#E8F3DB"/>
<path d="M168.369 27.2933H167.904V27.7579H168.369V27.2933Z" fill="#E8F3DB"/>
<path d="M173.428 16.8417H167.956C167.809 16.8417 167.7 16.7076 167.728 16.5639L167.876 15.8239C167.894 15.7361 167.96 15.6664 168.047 15.6444L168.717 15.4741C168.782 15.4576 168.837 15.4142 168.867 15.3545L169.466 14.1814C169.506 14.1036 169.586 14.0546 169.673 14.0546H171.723C171.812 14.0546 171.893 14.105 171.932 14.1846L172.503 15.351C172.533 15.4126 172.589 15.4576 172.655 15.4741L173.337 15.6446C173.424 15.6664 173.49 15.7363 173.508 15.8244L173.656 16.5636C173.685 16.7076 173.575 16.8417 173.428 16.8417Z" fill="#4DBAF8"/>
<path d="M170.924 15.4481V14.7513H170.46V15.4481H169.995V15.9126H171.389V15.4481H170.924Z" fill="#D3EEFD"/>
<path d="M173.247 21.2545V18.932H172.783V21.2545H172.086V18.4674H171.621V21.2545H170.924V18.0029H170.46V21.2545H169.763V18.4674H169.299V21.2545H168.602V18.932H168.137V21.2545H167.673V21.7191H173.712V21.2545H173.247Z" fill="#4DBAF8"/>
<path d="M167.407 25.2146L166.225 22.8804H165.582V28.4546H165.809C166.826 28.4546 167.654 27.6366 167.667 26.6195L167.672 26.1961C167.677 25.8505 167.585 25.5107 167.407 25.2146Z" fill="#99C367"/>
<path d="M165.577 28.4545H162.331C161.305 28.4545 160.473 27.6226 160.473 26.5964V26.1777C160.473 25.8437 160.562 25.516 160.732 25.2287L162.715 21.2545H165.17L167.175 25.2145C167.353 25.5106 167.445 25.8504 167.44 26.1963L167.435 26.6194C167.423 27.6365 166.595 28.4545 165.577 28.4545Z" fill="#FDCD3B"/>
<path d="M165.118 20.79H162.796L162.331 19.3965L162.563 18.6997H163.957H165.35L165.583 19.3965L165.118 20.79Z" fill="#FDCD3B"/>
<path d="M164.421 24.7385H163.492C163.364 24.7385 163.259 24.6342 163.259 24.5062V24.0417C163.259 23.9137 163.364 23.8094 163.492 23.8094H164.885V23.3449H164.188V23.1127H163.724V23.3449H163.492C163.108 23.3449 162.795 23.6575 162.795 24.0417V24.5062C162.795 24.8904 163.108 25.203 163.492 25.203H164.421C164.549 25.203 164.653 25.3073 164.653 25.4353V25.8998C164.653 26.0277 164.549 26.132 164.421 26.132H163.027V26.5965H163.724V26.8288H164.188V26.5965H164.421C164.805 26.5965 165.118 26.2839 165.118 25.8998V25.4353C165.118 25.0511 164.805 24.7385 164.421 24.7385Z" fill="#FFF7E2"/>
<path d="M165.117 21.4868H162.795C162.667 21.4868 162.562 21.3827 162.562 21.2545V20.79C162.562 20.6618 162.667 20.5577 162.795 20.5577H165.117C165.246 20.5577 165.35 20.6618 165.35 20.79V21.2545C165.35 21.3827 165.246 21.4868 165.117 21.4868Z" fill="#F95055"/>
</g>
<g clip-path="url(#clip2)">
<path d="M164.865 56.4104L163.043 58.4926H151.331V48.8268H164.865V56.4104Z" fill="#99D8AA"/>
<path d="M161.03 60.4977C161.001 60.4977 160.972 60.4927 160.943 60.4829L159.298 59.9001C159.162 59.8523 159.091 59.7035 159.139 59.568C159.153 59.5299 159.175 59.4954 159.204 59.4674L160.328 58.3838C160.432 58.284 160.596 58.2869 160.696 58.3902C160.724 58.4194 160.745 58.4547 160.757 58.4934L161.278 60.1592C161.321 60.2963 161.245 60.4424 161.108 60.4855C161.082 60.4934 161.056 60.4975 161.03 60.4975L161.03 60.4977Z" fill="#FDC9A6"/>
<path d="M154.714 60.2789H151.591C150.728 60.2789 150.029 59.8402 150.029 58.9776V58.1968H156.276V58.9776C156.276 59.8402 155.577 60.2789 154.714 60.2789Z" fill="#EA9D2D"/>
<path d="M163.043 58.4927V56.4105H164.865L163.043 58.4927Z" fill="#8DC79D"/>
<path d="M156.536 53.772H157.057V54.2926H156.536V53.772Z" fill="#85BC94"/>
<path d="M153.152 53.772H153.673V54.2926H153.152V53.772Z" fill="#85BC94"/>
<path d="M153.152 50.6488H153.673V51.1693H153.152V50.6488Z" fill="#85BC94"/>
<path d="M153.152 51.6898H153.673V52.2104H153.152V51.6898Z" fill="#85BC94"/>
<path d="M153.152 52.731H153.673V53.2515H153.152V52.731Z" fill="#85BC94"/>
<path d="M158.357 55.0735H158.878V55.594H158.357V55.0735Z" fill="#85BC94"/>
<path d="M157.316 50.6488H157.837V51.1693H157.316V50.6488Z" fill="#85BC94"/>
<path d="M156.275 50.6488H156.796V51.1693H156.275V50.6488Z" fill="#85BC94"/>
<path d="M155.234 50.6488H155.755V51.1693H155.234V50.6488Z" fill="#85BC94"/>
<path d="M154.193 50.6488H154.714V51.1693H154.193V50.6488Z" fill="#85BC94"/>
<path d="M161.481 52.9912H162.002V53.5117H161.481V52.9912Z" fill="#85BC94"/>
<path d="M161.481 54.0322H162.002V54.5529H161.481V54.0322Z" fill="#85BC94"/>
<path d="M161.481 55.0735H162.002V55.594H161.481V55.0735Z" fill="#85BC94"/>
<path d="M160.44 55.0735H160.961V55.594H160.44V55.0735Z" fill="#85BC94"/>
<path d="M159.399 55.0735H159.92V55.594H159.399V55.0735Z" fill="#85BC94"/>
<path d="M156.276 58.7173H150.029V56.8953C150.029 55.8892 150.845 55.0735 151.851 55.0735H154.454C155.46 55.0735 156.276 55.8892 156.276 56.8953V58.7173Z" fill="#F3AF3E"/>
<path d="M153.413 57.4159H152.892C152.461 57.4159 152.111 56.9664 152.111 56.412V55.0735H154.193V56.412C154.193 56.9664 153.844 57.4159 153.413 57.4159Z" fill="#EA9D2D"/>
<path d="M152.893 55.0735H153.413V56.6351H152.893V55.0735Z" fill="#FBB540"/>
<path d="M159.384 59.9146C159.314 59.9145 159.246 59.8856 159.197 59.8346L156.308 56.8363C155.904 56.4269 155.908 55.7678 156.318 55.3639C156.727 54.9601 157.386 54.9646 157.79 55.3739C157.796 55.3797 157.801 55.3855 157.807 55.3915L160.696 58.3898C160.796 58.4933 160.793 58.6582 160.689 58.7578L159.565 59.8416C159.516 59.8884 159.452 59.9146 159.384 59.9146Z" fill="#F27E55"/>
<path d="M156.856 57.2914H156.851C156.782 57.29 156.717 57.2614 156.669 57.2118L156.308 56.837C155.904 56.4277 155.908 55.7685 156.318 55.3647C156.727 54.9608 157.386 54.9653 157.79 55.3747C157.796 55.3804 157.801 55.3863 157.807 55.3922L158.168 55.767C158.268 55.8705 158.265 56.0353 158.161 56.135L157.037 57.2186C156.988 57.2653 156.923 57.2915 156.856 57.2914Z" fill="#D9D9D9"/>
<path d="M157.571 58.1489L156.487 57.0255L157.987 55.5804L159.071 56.7049L157.571 58.1489Z" fill="#6FBBC6"/>
<path d="M164.215 48.8268C164.214 48.6602 164.197 48.494 164.163 48.3307L165.063 47.8102L164.282 46.4567L163.382 46.9789C163.132 46.757 162.84 46.588 162.523 46.482V45.4432H160.961V46.482C160.644 46.5877 160.352 46.7566 160.103 46.9789L159.202 46.4583L158.421 47.8117L159.319 48.3302C159.252 48.6583 159.252 48.9963 159.319 49.3245L158.422 49.8419L159.203 51.1953L160.103 50.6747C160.353 50.8969 160.645 51.0658 160.961 51.1716V52.2104H162.523V51.1716C162.84 51.0659 163.132 50.897 163.382 50.6747L164.283 51.1953L165.064 49.8419L164.166 49.3235C164.199 49.1599 164.215 48.9936 164.215 48.8268ZM161.742 50.1281C161.024 50.1281 160.441 49.5455 160.441 48.8268C160.441 48.108 161.024 47.5255 161.742 47.5255C162.461 47.5255 163.044 48.108 163.044 48.8268C163.044 49.5455 162.461 50.1281 161.742 50.1281Z" fill="#D9D9D9"/>
<path d="M164.282 46.4583L163.382 46.9789C163.132 46.757 162.84 46.588 162.523 46.482V45.4432H160.961V46.482C160.644 46.5877 160.352 46.7566 160.103 46.9789L159.202 46.4583L158.421 47.8117L159.319 48.3302C159.286 48.4936 159.269 48.66 159.27 48.8268H160.441C160.441 48.108 161.024 47.5255 161.742 47.5255C162.461 47.5255 163.044 48.108 163.044 48.8268H164.215C164.214 48.6602 164.197 48.494 164.163 48.3307L165.063 47.8102L164.282 46.4583Z" fill="#CDCDCD"/>
</g>
<g clip-path="url(#clip3)">
<path d="M251.513 55.8707L247.417 51.5961L250.762 48.1052C252.367 46.431 254.415 45.3267 256.634 44.9349L257.249 44.828C257.283 44.828 257.317 44.828 257.351 44.828C257.692 44.828 257.965 45.113 257.965 45.4692C257.965 45.5048 257.965 45.5404 257.965 45.5761L257.897 46.2529C257.522 48.5683 256.463 50.7056 254.893 52.3442L251.513 55.8707Z" fill="#D5E3EF"/>
<path d="M255.201 49.5301L250.319 54.624L251.514 55.8707L254.86 52.3798C256.464 50.7056 257.488 48.6039 257.864 46.2885L258 45.6117C258 45.5761 258 45.5405 258 45.5049C258 45.3268 257.932 45.1843 257.83 45.0774C257.317 46.716 256.43 48.2477 255.201 49.5301Z" fill="#B0C4D9"/>
<path d="M251.684 59.2547C251.479 59.0409 251.138 59.0409 250.933 59.2547C250.66 59.5396 250.489 60.4302 250.455 60.4658C250.455 60.5014 250.455 60.5014 250.455 60.5014C250.455 60.5014 250.489 60.5371 250.489 60.5014C250.523 60.5014 251.343 60.3233 251.65 60.0027C251.923 59.789 251.923 59.4684 251.684 59.2547Z" fill="#F79548"/>
<path d="M244.175 51.418C243.97 51.2043 243.629 51.2043 243.424 51.418C243.151 51.703 242.98 52.5579 242.98 52.5935C242.98 52.6291 242.98 52.6291 242.98 52.6291C242.98 52.6291 243.015 52.6648 243.015 52.6291C243.049 52.6291 243.868 52.451 244.175 52.1304C244.414 51.9523 244.414 51.6317 244.175 51.418Z" fill="#F79548"/>
<path d="M246.598 56.7256C245.984 56.0845 244.959 56.0845 244.345 56.7256C243.492 57.6162 242.979 60.2165 242.945 60.3234C242.945 60.3946 242.945 60.4303 242.979 60.4659C243.048 60.5015 243.116 60.5015 243.184 60.5015C243.287 60.4659 245.779 59.9672 246.632 59.041C247.247 58.3998 247.247 57.3668 246.598 56.7256Z" fill="#F79548"/>
<path d="M246.496 56.7612C246.189 56.4406 245.677 56.4406 245.369 56.7612C244.926 57.2243 244.687 58.5067 244.687 58.5423C244.687 58.5779 244.687 58.6135 244.721 58.6135C244.755 58.6492 244.755 58.6492 244.789 58.6492C244.857 58.6492 246.086 58.3642 246.496 57.9367C246.803 57.6161 246.803 57.0818 246.496 56.7612Z" fill="#FCBB76"/>
<path d="M251.855 57.6517L250.831 56.5831L252.879 54.4458V56.5831L251.855 57.6517Z" fill="#99B4CD"/>
<path d="M251.753 56.3337L252.401 55.6569C252.709 55.3363 252.879 54.9089 252.879 54.4458L250.831 56.5831L251.855 57.6517L252.197 57.2955L251.753 56.8325C251.616 56.69 251.616 56.4762 251.753 56.3337Z" fill="#6C9ABB"/>
<path d="M252.538 59.7891L251.173 58.3642L253.631 55.7995C253.801 55.6214 254.04 55.5145 254.313 55.5145C254.86 55.5145 255.269 55.9776 255.269 56.5119C255.269 56.7969 255.167 57.0463 254.996 57.2244L252.538 59.7891Z" fill="#D5E3EF"/>
<path d="M254.996 56.5119L252.538 59.0766L251.514 58.008L251.173 58.3642L252.538 59.789L254.996 57.2243C255.167 57.0462 255.269 56.7968 255.269 56.5118C255.269 56.3693 255.235 56.2625 255.201 56.1556C255.167 56.2981 255.099 56.405 254.996 56.5119Z" fill="#B0C4D9"/>
<path d="M245.711 54.802C245.95 54.5527 246.223 54.3746 246.496 54.3033L247.076 54.0896L249.125 56.2269L248.92 56.8325C248.817 57.1531 248.647 57.438 248.442 57.6518L245.711 54.802Z" fill="#99B4CD"/>
<path d="M247.076 54.0896L246.563 54.2677L247.69 55.4432C247.963 55.7282 248.031 56.12 247.929 56.4762C247.895 56.6187 247.827 56.7612 247.724 56.9037L248.441 57.6517C248.68 57.4024 248.851 57.1174 248.919 56.8324L249.124 56.2269L247.076 54.0896Z" fill="#6C9ABB"/>
<path d="M245.711 51.2399L246.735 52.3085L248.783 50.1713H246.735L245.711 51.2399Z" fill="#99B4CD"/>
<path d="M246.633 51.4893C246.496 51.3468 246.496 51.1331 246.633 50.9906L247.418 50.1713H246.735L245.711 51.2399L246.735 52.3085C246.94 52.0948 246.94 51.8098 246.735 51.5961L246.633 51.4893Z" fill="#6C9ABB"/>
<path d="M243.662 50.5275L245.028 51.9523L247.485 49.3876C247.656 49.2095 247.759 48.9601 247.759 48.6751C247.759 48.1408 247.315 47.6777 246.803 47.6777C246.53 47.6777 246.291 47.7846 246.12 47.9627L243.662 50.5275Z" fill="#D5E3EF"/>
<path d="M252.538 51.9522C253.292 51.9522 253.904 51.3143 253.904 50.5274C253.904 49.7405 253.292 49.1025 252.538 49.1025C251.784 49.1025 251.173 49.7405 251.173 50.5274C251.173 51.3143 251.784 51.9522 252.538 51.9522Z" fill="#70B7E5"/>
<path d="M252.538 52.3085C251.582 52.3085 250.831 51.5248 250.831 50.5274C250.831 49.53 251.582 48.7463 252.538 48.7463C253.494 48.7463 254.245 49.53 254.245 50.5274C254.245 51.5248 253.494 52.3085 252.538 52.3085ZM252.538 49.4588C251.958 49.4588 251.514 49.9218 251.514 50.5274C251.514 51.133 251.958 51.5961 252.538 51.5961C253.118 51.5961 253.562 51.133 253.562 50.5274C253.562 49.9218 253.118 49.4588 252.538 49.4588Z" fill="#F04B4D"/>
<path d="M251.992 51.4536C251.889 51.2755 251.855 51.0974 251.855 50.8837C251.855 50.2781 252.299 49.8151 252.879 49.8151C253.084 49.8151 253.255 49.8863 253.425 49.9576C253.221 49.6726 252.913 49.4589 252.538 49.4589C251.957 49.4589 251.514 49.9219 251.514 50.5275C251.514 50.9193 251.719 51.2399 251.992 51.4536Z" fill="#4C9CD6"/>
<path d="M251.514 55.8707L250.387 57.0462C250.251 57.1887 250.046 57.1887 249.909 57.0462L246.291 53.2703C246.154 53.1278 246.154 52.9141 246.291 52.7716L247.417 51.5961L251.514 55.8707Z" fill="#F04D4E"/>
<path d="M248.988 55.0157L246.837 52.7715C246.701 52.629 246.462 52.629 246.291 52.7715C246.154 52.914 246.154 53.1278 246.291 53.2703L249.909 57.0461C250.046 57.1886 250.251 57.1886 250.387 57.0461L251.514 55.8706L250.319 54.6239L249.944 55.0157C249.67 55.3007 249.261 55.3007 248.988 55.0157Z" fill="#DB343F"/>
<path d="M252.56 59.8017L253.574 58.7438L252.198 57.3081L251.185 58.3659L252.56 59.8017Z" fill="#F04D4E"/>
<path d="M253.221 58.3641L252.743 58.8628C252.538 59.0766 252.265 59.0766 252.06 58.8628L251.378 58.1504L251.173 58.3641L252.538 59.789L253.562 58.7203L253.221 58.3641Z" fill="#DB343F"/>
<path d="M248.782 51.4181C248.748 51.4181 248.68 51.4181 248.646 51.3824C248.578 51.3112 248.578 51.2043 248.646 51.1331L250.353 49.352C250.421 49.2808 250.523 49.2808 250.592 49.352C250.66 49.4232 250.66 49.5301 250.592 49.6013L248.885 51.3824C248.885 51.4181 248.817 51.4181 248.782 51.4181Z" fill="#ECF0F9"/>
<path d="M251.172 48.9245C251.138 48.9245 251.07 48.9245 251.036 48.8889C250.967 48.8176 250.967 48.7108 251.036 48.6395L251.718 47.9271C251.787 47.8558 251.889 47.8558 251.957 47.9271C252.026 47.9983 252.026 48.1052 251.957 48.1764L251.275 48.8889C251.275 48.9245 251.206 48.9245 251.172 48.9245Z" fill="#ECF0F9"/>
<path d="M257.385 44.828C257.351 44.828 257.317 44.828 257.283 44.828L256.634 44.9349C255.576 45.113 254.586 45.4692 253.63 45.9679C253.63 45.9679 254.244 46.6091 255.268 47.6777C256.293 48.7464 256.907 49.3876 256.907 49.3876C257.385 48.3902 257.692 47.3572 257.897 46.2529L257.999 45.6117C257.999 45.5761 257.999 45.5405 257.999 45.5048C257.999 45.113 257.726 44.828 257.385 44.828Z" fill="#F04D4E"/>
<path d="M254.928 46.2885C254.859 46.2885 254.791 46.2528 254.757 46.1816C254.723 46.0747 254.757 46.0035 254.859 45.9679C255.542 45.6829 256.225 45.5048 256.942 45.3623C257.044 45.3623 257.112 45.3979 257.147 45.5048C257.147 45.6117 257.112 45.6829 257.01 45.7185C256.327 45.8254 255.645 46.0391 254.996 46.2885C254.962 46.2885 254.962 46.2885 254.928 46.2885Z" fill="#F26A56"/>
<path d="M252.538 48.782V48.7463C251.582 48.7463 250.831 49.53 250.831 50.5274H250.865C251.036 50.5274 251.172 50.4205 251.207 50.2424C251.241 49.9931 251.377 49.7794 251.514 49.6013C251.719 49.3875 251.958 49.2094 252.265 49.1382C252.436 49.1026 252.538 48.9601 252.538 48.782Z" fill="#F26A56"/>
<path d="M252.538 52.2729V52.3085C253.494 52.3085 254.245 51.5249 254.245 50.5275H254.211C254.04 50.5275 253.904 50.6343 253.869 50.8124C253.835 51.0618 253.699 51.2755 253.562 51.4536C253.357 51.6673 253.118 51.8454 252.811 51.9167C252.64 51.9523 252.538 52.0948 252.538 52.2729Z" fill="#DB343F"/>
<path d="M253.221 57.1174C253.187 57.1174 253.119 57.1174 253.084 57.0817C253.016 57.0105 253.016 56.9036 253.084 56.8324L253.767 56.12C253.835 56.0487 253.938 56.0487 254.006 56.12C254.074 56.1912 254.074 56.2981 254.006 56.3693L253.323 57.0817C253.323 57.1174 253.255 57.1174 253.221 57.1174Z" fill="#ECF0F9"/>
<path d="M247.485 48.6751L245.028 51.2398L244.003 50.1712L243.662 50.5274L245.028 51.9522L247.485 49.3875C247.656 49.2094 247.759 48.96 247.759 48.6751C247.759 48.5326 247.724 48.4257 247.69 48.3188C247.656 48.4613 247.588 48.5682 247.485 48.6751Z" fill="#B0C4D9"/>
<path d="M245.71 49.2807C245.676 49.2807 245.608 49.2807 245.574 49.2451C245.505 49.1738 245.505 49.067 245.574 48.9957L246.256 48.2833C246.325 48.212 246.427 48.212 246.495 48.2833C246.564 48.3545 246.564 48.4614 246.495 48.5326L245.813 49.2451C245.813 49.2807 245.744 49.2807 245.71 49.2807Z" fill="#ECF0F9"/>
<path d="M245.049 51.965L246.062 50.9071L244.687 49.4714L243.673 50.5293L245.049 51.965Z" fill="#F04D4E"/>
<path d="M245.71 50.5275L245.232 51.0262C245.028 51.2399 244.755 51.2399 244.55 51.0262L243.867 50.3137L243.662 50.5275L245.028 51.9523L246.052 50.8837L245.71 50.5275Z" fill="#DB343F"/>
<path d="M256.054 48.4971L256.907 49.3876C257.385 48.3902 257.692 47.3572 257.897 46.2529L258 45.6117C258 45.5761 258 45.5405 258 45.5049C258 45.3268 257.931 45.1843 257.829 45.0774C257.453 46.2885 256.839 47.464 256.054 48.4971Z" fill="#DB343F"/>
</g>
<g clip-path="url(#clip4)">
<path d="M204 14.3716C207.978 14.3716 211.204 11.0061 211.204 6.85457C211.204 2.70302 207.978 -0.662476 204 -0.662476C200.021 -0.662476 196.796 2.70302 196.796 6.85457C196.796 11.0061 200.021 14.3716 204 14.3716Z" fill="#FFAF10"/>
<path d="M205.588 10.9244H202.412V12.1959H205.588V10.9244Z" fill="#445EA0"/>
<path d="M202.996 10.9244H202.412V12.1959H202.996V10.9244Z" fill="#293D7C"/>
<path d="M207.072 12.9321C207.072 13.0165 207.006 13.0855 206.925 13.0855H201.074C200.993 13.0855 200.927 13.0165 200.927 12.9321V12.3184C200.927 12.2341 200.993 12.165 201.074 12.165H206.925C207.006 12.165 207.072 12.2341 207.072 12.3184V12.9321Z" fill="#293D7C"/>
<path d="M202.094 12.9321V12.3184C202.094 12.2341 202.16 12.165 202.241 12.165H201.074C200.993 12.165 200.927 12.2341 200.927 12.3184V12.9321C200.927 13.0165 200.993 13.0855 201.074 13.0855H202.241C202.16 13.0855 202.094 13.0165 202.094 12.9321Z" fill="#1A2B63"/>
<path d="M196.473 10.6482C196.473 10.817 196.605 10.9551 196.767 10.9551H211.233C211.395 10.9551 211.527 10.817 211.527 10.6482V9.32068H196.473V10.6482Z" fill="#293D7C"/>
<path d="M197.056 10.6482V9.32068H196.473V10.6482C196.473 10.817 196.605 10.9551 196.767 10.9551H197.35C197.188 10.9551 197.056 10.817 197.056 10.6482Z" fill="#1A2B63"/>
<path d="M211.165 0.439453H196.835C196.636 0.439453 196.473 0.609369 196.473 0.817054V9.35132H211.527V0.817054C211.527 0.609369 211.364 0.439453 211.165 0.439453Z" fill="#445EA0"/>
<path d="M197.257 8.64401C197.175 8.64401 197.108 8.57412 197.108 8.48864V1.3021C197.108 1.21665 197.175 1.14673 197.257 1.14673H210.743C210.825 1.14673 210.892 1.21665 210.892 1.3021V8.48864C210.892 8.57412 210.825 8.64401 210.743 8.64401H197.257Z" fill="#5DC1D8"/>
<path d="M197.744 8.48864V1.3021C197.744 1.21665 197.811 1.14673 197.893 1.14673H197.257C197.175 1.14673 197.108 1.21665 197.108 1.3021V8.48864C197.108 8.57412 197.175 8.64401 197.257 8.64401H197.893C197.811 8.64401 197.744 8.57412 197.744 8.48864Z" fill="#28A5A5"/>
<path d="M204.201 4.4907C204.201 4.54133 204.161 4.58275 204.112 4.58275H203.627C203.579 4.58275 203.539 4.54133 203.539 4.4907V2.19751C203.539 2.14689 203.579 2.10547 203.627 2.10547H204.112C204.161 2.10547 204.201 2.14689 204.201 2.19751V4.4907Z" fill="white"/>
<path d="M205.082 4.49067C205.082 4.54129 205.043 4.58271 204.994 4.58271H204.509C204.461 4.58271 204.421 4.54129 204.421 4.49067V3.0365C204.421 2.98588 204.461 2.94446 204.509 2.94446H204.994C205.043 2.94446 205.082 2.98588 205.082 3.0365V4.49067Z" fill="white"/>
<path d="M205.964 4.49066C205.964 4.54129 205.925 4.58271 205.876 4.58271H205.391C205.342 4.58271 205.303 4.54129 205.303 4.49066V3.47608C205.303 3.42545 205.342 3.38403 205.391 3.38403H205.876C205.925 3.38403 205.964 3.42545 205.964 3.47608V4.49066Z" fill="white"/>
<path d="M206.847 4.49076C206.847 4.54139 206.807 4.58281 206.759 4.58281H206.274C206.225 4.58281 206.186 4.54139 206.186 4.49076V2.63709C206.186 2.58646 206.225 2.54504 206.274 2.54504H206.759C206.807 2.54504 206.847 2.58646 206.847 2.63709V4.49076Z" fill="white"/>
<path d="M207.729 4.4907C207.729 4.54132 207.689 4.58274 207.641 4.58274H207.156C207.107 4.58274 207.067 4.54132 207.067 4.4907V3.23633C207.067 3.18571 207.107 3.14429 207.156 3.14429H207.641C207.689 3.14429 207.729 3.18571 207.729 3.23633V4.4907Z" fill="white"/>
<path d="M207.067 7.44383C207.067 7.49445 207.107 7.53587 207.156 7.53587H207.641C207.689 7.53587 207.729 7.49445 207.729 7.44383V5.15064C207.729 5.10001 207.689 5.05859 207.641 5.05859H207.156C207.107 5.05859 207.067 5.10001 207.067 5.15064V7.44383Z" fill="#FFAF10"/>
<path d="M206.186 7.44389C206.186 7.49451 206.225 7.53593 206.274 7.53593H206.759C206.807 7.53593 206.847 7.49451 206.847 7.44389V5.98975C206.847 5.93913 206.807 5.89771 206.759 5.89771H206.274C206.225 5.89771 206.186 5.93913 206.186 5.98975V7.44389Z" fill="#FFAF10"/>
<path d="M205.303 7.44379C205.303 7.49442 205.342 7.53584 205.391 7.53584H205.876C205.925 7.53584 205.964 7.49442 205.964 7.44379V6.4292C205.964 6.37858 205.925 6.33716 205.876 6.33716H205.391C205.342 6.33716 205.303 6.37858 205.303 6.4292V7.44379Z" fill="#FFAF10"/>
<path d="M204.421 7.44389C204.421 7.49451 204.461 7.53593 204.509 7.53593H204.994C205.043 7.53593 205.082 7.49451 205.082 7.44389V5.59021C205.082 5.53959 205.043 5.49817 204.994 5.49817H204.509C204.461 5.49817 204.421 5.53959 204.421 5.59021V7.44389Z" fill="#FFAF10"/>
<path d="M203.539 7.44379C203.539 7.49441 203.579 7.53583 203.627 7.53583H204.112C204.161 7.53583 204.201 7.49441 204.201 7.44379V6.18946C204.201 6.13883 204.161 6.09741 204.112 6.09741H203.627C203.579 6.09741 203.539 6.13883 203.539 6.18946V7.44379Z" fill="#FFAF10"/>
<path d="M209.898 3.05361H208.409C208.287 3.05361 208.188 2.95061 208.188 2.8235C208.188 2.69638 208.287 2.59338 208.409 2.59338H209.898C210.019 2.59338 210.118 2.69638 210.118 2.8235C210.118 2.95061 210.019 3.05361 209.898 3.05361Z" fill="#91E0E8"/>
<path d="M209.898 3.70742H208.409C208.287 3.70742 208.188 3.60442 208.188 3.47731C208.188 3.35019 208.287 3.24719 208.409 3.24719H209.898C210.019 3.24719 210.118 3.35019 210.118 3.47731C210.118 3.60439 210.019 3.70742 209.898 3.70742Z" fill="#91E0E8"/>
<path d="M209.898 4.36123H208.409C208.287 4.36123 208.188 4.25823 208.188 4.13111C208.188 4.004 208.287 3.901 208.409 3.901H209.898C210.019 3.901 210.118 4.004 210.118 4.13111C210.118 4.25823 210.019 4.36123 209.898 4.36123Z" fill="#91E0E8"/>
<path d="M209.335 5.01516H208.409C208.287 5.01516 208.188 4.91216 208.188 4.78505C208.188 4.65793 208.287 4.55493 208.409 4.55493H209.335C209.457 4.55493 209.556 4.65793 209.556 4.78505C209.556 4.91213 209.457 5.01516 209.335 5.01516Z" fill="#91E0E8"/>
<path d="M209.898 6.22341H208.409C208.287 6.22341 208.188 6.12041 208.188 5.9933C208.188 5.86618 208.287 5.76318 208.409 5.76318H209.898C210.019 5.76318 210.118 5.86618 210.118 5.9933C210.118 6.12038 210.019 6.22341 209.898 6.22341Z" fill="#91E0E8"/>
<path d="M209.898 6.87722H208.409C208.287 6.87722 208.188 6.77422 208.188 6.64711C208.188 6.51999 208.287 6.41699 208.409 6.41699H209.898C210.019 6.41699 210.118 6.51999 210.118 6.64711C210.118 6.77422 210.019 6.87722 209.898 6.87722Z" fill="#91E0E8"/>
<path d="M209.335 7.53103H208.409C208.287 7.53103 208.188 7.42803 208.188 7.30091C208.188 7.17383 208.287 7.0708 208.409 7.0708H209.335C209.457 7.0708 209.556 7.17383 209.556 7.30091C209.556 7.428 209.457 7.53103 209.335 7.53103Z" fill="#91E0E8"/>
<path d="M210.788 10.3164C210.788 10.3671 210.748 10.4085 210.699 10.4085H210.18C210.131 10.4085 210.092 10.3671 210.092 10.3164V9.77442C210.092 9.72379 210.131 9.68237 210.18 9.68237H210.699C210.748 9.68237 210.788 9.72379 210.788 9.77442V10.3164Z" fill="#91E0E8"/>
<path d="M200.735 4.73144C200.686 4.73144 200.646 4.69023 200.646 4.63939V2.25391C200.646 2.22894 200.656 2.20497 200.673 2.18764C200.69 2.17107 200.712 2.16187 200.735 2.16187C200.736 2.16187 200.737 2.1619 200.738 2.16193C202.02 2.21099 203.062 3.29774 203.109 4.63602C203.11 4.66099 203.101 4.68526 203.084 4.70327C203.068 4.72128 203.045 4.73144 203.021 4.73144H200.735Z" fill="#FFAF10"/>
<path d="M200.445 7.51439C199.086 7.51439 197.98 6.36091 197.98 4.94311C197.98 4.27397 198.226 3.63983 198.673 3.15749C199.119 2.67636 199.715 2.39799 200.353 2.3736C200.354 2.37357 200.355 2.37354 200.356 2.37354C200.379 2.37354 200.401 2.38274 200.418 2.39931C200.435 2.41664 200.445 2.44061 200.445 2.46558V4.94311H202.819C202.843 4.94311 202.866 4.95326 202.882 4.97127C202.899 4.98928 202.908 5.01355 202.907 5.03853C202.884 5.70417 202.617 6.32679 202.156 6.79168C201.694 7.25774 201.086 7.51439 200.445 7.51439Z" fill="#91E0E8"/>
<path d="M200.865 7.07437C199.507 7.07437 198.401 5.92088 198.401 4.50308C198.401 3.92332 198.586 3.36997 198.926 2.9187C198.837 2.99169 198.752 3.07119 198.672 3.1575C198.225 3.63985 197.979 4.27401 197.979 4.94312C197.979 6.36092 199.085 7.51441 200.444 7.51441C201.085 7.51441 201.693 7.25775 202.155 6.7917C202.238 6.70827 202.314 6.61963 202.384 6.52673C201.951 6.88138 201.421 7.07437 200.865 7.07437Z" fill="#91E0E8"/>
</g>
<g clip-path="url(#clip5)">
<path d="M239.044 31.2097C239.503 31.2097 239.887 30.9087 239.994 30.5022C239.352 29.9703 238.946 29.185 238.946 28.3089C238.946 27.4195 239.365 26.6237 240.024 26.0917V22.4051C240.024 21.8879 239.585 21.4686 239.044 21.4686H232.556C232.016 21.4686 231.577 21.8879 231.577 22.4051V30.2732C231.577 30.7904 232.016 31.2097 232.556 31.2097" fill="#5B9ED6"/>
<path d="M239.044 21.4686H238.319C238.86 21.4686 239.298 21.8879 239.298 22.4051V25.6193C239.298 25.7654 239.244 25.9064 239.145 26.0181C238.847 26.3552 238.613 26.7463 238.462 27.174C238.307 27.5226 238.221 27.9061 238.221 28.3088C238.221 28.7136 238.308 29.0989 238.464 29.4488C238.465 29.4517 238.466 29.4547 238.467 29.4577C238.611 29.8598 238.304 30.2787 237.859 30.2787H232.556C232.016 30.2787 231.577 29.8593 231.577 29.3421V30.2732C231.577 30.7904 232.016 31.2097 232.556 31.2097H239.044C239.362 31.2097 239.645 31.0646 239.824 30.84C239.825 30.8386 239.826 30.8373 239.827 30.8359C239.834 30.8268 239.841 30.8174 239.848 30.808C239.85 30.8055 239.852 30.8029 239.853 30.8004C239.859 30.7921 239.865 30.7835 239.871 30.7748C239.873 30.7716 239.875 30.7683 239.877 30.7651C239.883 30.7571 239.888 30.749 239.893 30.7408C239.895 30.737 239.897 30.7332 239.899 30.7294C239.904 30.7216 239.908 30.7137 239.913 30.7058C239.915 30.7016 239.917 30.6974 239.92 30.6931C239.924 30.6854 239.927 30.6777 239.931 30.6699C239.933 30.6653 239.936 30.6608 239.938 30.6563C239.941 30.6485 239.945 30.6407 239.948 30.6329C239.95 30.6281 239.953 30.6234 239.954 30.6187C239.958 30.6107 239.961 30.6027 239.964 30.5946C239.966 30.5899 239.968 30.5852 239.969 30.5805C239.973 30.5718 239.975 30.563 239.978 30.5542C239.98 30.55 239.981 30.5459 239.983 30.5417C239.987 30.5286 239.99 30.5155 239.994 30.5022C239.961 30.4748 239.929 30.4465 239.897 30.4178C239.893 30.4144 239.889 30.4111 239.885 30.4075C239.855 30.3796 239.825 30.3511 239.796 30.322C239.791 30.3179 239.787 30.3138 239.783 30.3098C239.754 30.2802 239.725 30.2501 239.697 30.2192C239.694 30.2162 239.691 30.2131 239.688 30.21C239.659 30.1777 239.63 30.145 239.603 30.1115C239.192 29.6164 238.946 28.9901 238.946 28.3089C238.946 27.4195 239.365 26.6237 240.024 26.0917V22.4051C240.024 21.8879 239.585 21.4686 239.044 21.4686Z" fill="#4C83B3"/>
<path d="M233.486 20.5969H238.114V21.4687H233.486V20.5969Z" fill="#5A67AD"/>
<path d="M236.924 20.5969H238.114V21.4687H236.924V20.5969Z" fill="#48538A"/>
<path d="M232.524 19.3432V20.2447C232.524 20.4389 232.689 20.5964 232.892 20.5964H238.708C238.911 20.5964 239.076 20.4389 239.076 20.2447V18.4415C239.076 18.2473 238.911 18.0898 238.708 18.0898H232.892C232.689 18.0898 232.524 18.2474 232.524 18.4415V19.3432Z" fill="#5B9ED6"/>
<path d="M237.426 18.0898V20.5964H238.709C238.912 20.5964 239.076 20.4389 239.076 20.2447V18.4415C239.076 18.2473 238.912 18.0898 238.709 18.0898H237.426Z" fill="#4C83B3"/>
<path d="M238.34 26.3392C238.34 27.6807 237.203 28.7684 235.8 28.7684C234.398 28.7684 233.261 27.6807 233.261 26.3392C233.261 24.9976 234.398 23.9099 235.8 23.9099C237.203 23.9099 238.34 24.9976 238.34 26.3392Z" fill="#EF2D57"/>
<path d="M237.24 24.3381C237.521 24.7295 237.687 25.2036 237.687 25.7148C237.687 27.0565 236.55 28.144 235.147 28.144C234.613 28.144 234.117 27.9858 233.708 27.716C234.166 28.3515 234.932 28.7685 235.8 28.7685C237.203 28.7685 238.34 27.6808 238.34 26.3393C238.34 25.5089 237.904 24.7763 237.24 24.3381Z" fill="#D9294F"/>
<path d="M245.012 28.3089C245.012 29.9111 243.654 31.2098 241.979 31.2098C240.304 31.2098 238.946 29.9111 238.946 28.3089C238.946 26.7069 240.304 25.4082 241.979 25.4082C243.654 25.4082 245.012 26.7069 245.012 28.3089Z" fill="#FCDA55"/>
<path d="M243.812 25.998C244.198 26.4851 244.428 27.0926 244.428 27.7515C244.428 29.3536 243.071 30.6523 241.396 30.6523C240.707 30.6523 240.072 30.4325 239.562 30.0623C240.116 30.7595 240.992 31.2097 241.979 31.2097C243.653 31.2097 245.011 29.911 245.011 28.3089C245.011 27.3657 244.54 26.5279 243.812 25.998Z" fill="#D9BC4A"/>
<path d="M239.896 30.3897C240.013 30.4861 240.137 30.5743 240.267 30.6533L244.45 26.6518C244.368 26.5269 244.276 26.4083 244.175 26.2974C244.156 26.3073 244.138 26.3197 244.122 26.3349L239.936 30.3395C239.92 30.3547 239.907 30.3716 239.896 30.3897Z" fill="#D9BC4A"/>
<path d="M243.877 21.8045C242.793 22.0555 241.944 22.9071 241.944 24.0111V25.4086C241.956 25.4085 241.967 25.4082 241.978 25.4082C243.653 25.4082 245.011 26.7069 245.011 28.309C245.011 29.0995 244.68 29.816 244.144 30.3392C244.192 30.342 244.24 30.3438 244.288 30.3438C245.582 30.3438 246.631 29.3402 246.631 28.1022V24.0111C246.631 22.9071 245.797 21.9902 244.698 21.8045C244.698 21.8045 244.158 21.7395 243.877 21.8045Z" fill="#F084AD"/>
<path d="M244.699 21.8046C244.405 21.766 244.131 21.766 243.878 21.8046C243.87 21.806 243.862 21.8079 243.854 21.8093C244.94 22.0046 245.762 22.9155 245.762 24.0112V28.1022C245.762 29.0433 245.155 29.8485 244.296 30.1807C244.247 30.2353 244.197 30.2882 244.145 30.3392C244.193 30.342 244.24 30.3438 244.289 30.3438C245.583 30.3438 246.632 29.3402 246.632 28.1022V24.0112C246.632 22.9071 245.797 21.9902 244.699 21.8046Z" fill="#D47499"/>
<path d="M243.89 26.0566C244.574 26.5885 245.011 27.3998 245.011 28.3088C245.011 29.0994 244.681 29.8159 244.144 30.3391C244.192 30.3419 244.24 30.3437 244.288 30.3437C245.582 30.3437 246.632 29.3401 246.632 28.1022V26.0566H243.89Z" fill="#EF2D57"/>
<path d="M245.761 28.1022C245.761 29.0433 245.155 29.8483 244.295 30.1807C244.273 30.2061 244.25 30.2309 244.227 30.2555C244.223 30.2597 244.219 30.2639 244.215 30.268C244.192 30.2921 244.168 30.3159 244.145 30.3391C244.192 30.342 244.24 30.3437 244.288 30.3437C245.582 30.3437 246.632 29.3401 246.632 28.1022V26.0566H245.761V28.1022Z" fill="#CC264B"/>
<path d="M236.967 26.1162H236.034V25.223C236.034 25.0999 235.929 25 235.8 25C235.672 25 235.567 25.0999 235.567 25.223V26.1162H234.634C234.505 26.1162 234.4 26.216 234.4 26.3391C234.4 26.4623 234.505 26.5621 234.634 26.5621H235.567V27.4553C235.567 27.5785 235.672 27.6784 235.8 27.6784C235.929 27.6784 236.034 27.5785 236.034 27.4553V26.5621H236.967C237.096 26.5621 237.2 26.4623 237.2 26.3391C237.2 26.216 237.096 26.1162 236.967 26.1162Z" fill="white"/>
<path d="M234.131 20.8138C234.002 20.8138 233.897 20.7139 233.897 20.5908V18.0842C233.897 17.9611 234.002 17.8612 234.131 17.8612C234.259 17.8612 234.364 17.9611 234.364 18.0842V20.5908C234.364 20.7139 234.259 20.8138 234.131 20.8138Z" fill="#674297"/>
<path d="M235.804 20.8138C235.676 20.8138 235.571 20.7139 235.571 20.5908V18.0842C235.571 17.9611 235.676 17.8612 235.804 17.8612C235.933 17.8612 236.037 17.9611 236.037 18.0842V20.5908C236.038 20.7139 235.933 20.8138 235.804 20.8138Z" fill="#674297"/>
<path d="M237.477 20.8138C237.349 20.8138 237.244 20.7139 237.244 20.5908V18.0842C237.244 17.9611 237.349 17.8612 237.477 17.8612C237.606 17.8612 237.71 17.9611 237.71 18.0842V20.5908C237.71 20.7139 237.606 20.8138 237.477 20.8138Z" fill="#674297"/>
<path d="M239.855 30.5611C239.796 30.5611 239.736 30.5392 239.69 30.4957C239.599 30.4086 239.599 30.2674 239.69 30.1803L243.877 26.1758C243.968 26.0888 244.116 26.0887 244.207 26.1758C244.298 26.2629 244.298 26.4041 244.207 26.4912L240.02 30.4957C239.974 30.5392 239.915 30.5611 239.855 30.5611Z" fill="#E69326"/>
</g>
<path d="M203.892 47.2681C198.388 47.2681 193.928 51.4015 193.928 56.5005V60.3216C194.594 59.7497 195.541 59.4389 196.466 59.5533V59.0932C196.466 58.7276 196.803 58.4386 197.194 58.4661C201.046 58.7225 204.966 57.5882 207.931 55.7939C208.207 55.6263 208.574 55.668 208.799 55.8919C211.333 58.416 211.318 58.3184 211.318 58.6479V59.5513C212.331 59.4106 213.231 59.7008 213.855 60.239V56.5007C213.855 51.4015 209.395 47.2681 203.892 47.2681Z" fill="#3E4B5A"/>
<path d="M198.233 56.5007C198.233 52.0868 201.577 48.3987 206.044 47.4867C205.351 47.345 204.631 47.2682 203.892 47.2682C198.389 47.2682 193.928 51.4016 193.928 56.5007V60.3216C194.594 59.7497 195.541 59.4389 196.466 59.5533V59.0932C196.466 58.7276 196.803 58.4386 197.194 58.4661C197.54 58.4892 197.887 58.5006 198.233 58.5016V56.5007Z" fill="#303F49"/>
<path d="M202.753 72.7574C203.155 72.6131 203.42 72.2548 203.42 71.8553V70.5489C202.048 70.4633 200.832 70.0744 199.816 69.4725V72.3563C199.816 72.6142 199.704 72.854 199.518 73.0312L202.753 72.7574Z" fill="#FFBEAB"/>
<path d="M198.466 74.9517C201.642 78.0785 206.132 78.0785 209.308 74.9517L210.435 73.8415L208.777 73.2463C208.395 73.1094 208.143 72.7689 208.143 72.3894V69.3706C206.964 70.1244 205.536 70.5673 203.997 70.5673C202.388 70.5673 200.973 70.1578 199.816 69.4727V72.3565C199.816 72.7558 199.551 73.1143 199.149 73.2586L197.389 73.891L198.466 74.9517Z" fill="#FFBEAB"/>
<path d="M203.42 70.5489C202.048 70.4633 200.833 70.0744 199.816 69.4725V72.3563C199.816 72.7556 199.551 73.1141 199.149 73.2584L197.389 73.8908C198.643 75.1262 200.331 77.0744 203.42 77.2793V70.5489Z" fill="#F7AF9F"/>
<path d="M211.169 59.1391V64.1967C211.169 64.2515 211.166 64.3056 211.165 64.3602C213.097 64.6313 214.758 63.338 214.758 61.7499C214.758 60.1585 213.095 58.8717 211.169 59.1391Z" fill="#FFBEAB"/>
<path d="M196.614 59.1411C194.932 58.933 193.025 60.1289 193.025 61.7499C193.025 63.336 194.683 64.6316 196.618 64.3602C196.612 64.1226 196.614 64.884 196.614 59.1411Z" fill="#FFBEAB"/>
<path d="M213.482 59.6115C212.849 59.2154 212.037 59.0185 211.169 59.1391V64.1966C211.169 64.2514 211.166 64.3056 211.165 64.3602C212.035 64.4824 212.849 64.285 213.482 63.8882V59.6115Z" fill="#F7AF9F"/>
<path d="M196.614 63.8885C195.841 63.4043 195.338 62.6219 195.338 61.7499C195.338 60.8961 195.867 60.1606 196.614 59.6857V59.1411C194.932 58.933 193.025 60.1289 193.025 61.7499C193.025 63.336 194.683 64.6316 196.618 64.3602C196.613 64.1758 196.614 64.3563 196.614 63.8885Z" fill="#F7AF9F"/>
<path d="M208.798 55.4798C208.573 55.2558 208.206 55.2142 207.93 55.3818C204.965 57.1762 201.045 58.3103 197.193 58.0539C196.802 58.0265 196.465 58.3154 196.465 58.681V64.1966C196.465 67.7415 199.462 70.9791 203.997 70.9791C208.033 70.9791 211.317 67.9365 211.317 64.1966V58.2357C211.317 57.9062 211.332 58.0038 208.798 55.4798Z" fill="#FFCDBF"/>
<path d="M200.771 64.1967V57.9121C199.592 58.0788 198.389 58.1335 197.193 58.0539C196.802 58.0265 196.465 58.3153 196.465 58.6811V64.1967C196.465 67.7416 199.462 70.9792 203.997 70.9792C204.721 70.9792 205.42 70.88 206.08 70.6978C202.815 69.8393 200.771 67.1236 200.771 64.1967Z" fill="#FFBEAB"/>
<path d="M219.157 76.9713L210.216 73.7628L209.063 74.8973C206.033 77.881 201.749 77.881 198.718 74.8973L197.613 73.8098L188.813 76.9713C188.813 76.9713 184.739 78.5231 184.739 82.8261V92.3762C184.739 92.8612 185.164 93.2544 185.687 93.2544H222.291C222.81 93.2544 223.23 92.8647 223.23 92.3838V82.8261C223.23 78.5231 219.157 76.9713 219.157 76.9713Z" fill="#FECA57"/>
<path d="M188.981 81.0973C188.981 78.2884 190.716 76.6523 191.922 75.8545L188.813 76.9712C188.813 76.9712 184.739 78.5231 184.739 82.8262V92.3763C184.739 92.8613 185.164 93.2544 185.687 93.2544H188.981V81.0973Z" fill="#F4B537"/>
<path d="M217.241 93.2544V84.3053C217.241 83.7545 216.759 83.3079 216.164 83.3079C215.57 83.3079 215.088 83.7545 215.088 84.3053V93.2544H217.241Z" fill="#F4B537"/>
<path d="M192.617 93.2544V84.3053C192.617 83.7545 192.135 83.3079 191.54 83.3079C190.946 83.3079 190.464 83.7545 190.464 84.3053V93.2544H192.617Z" fill="#F4B537"/>
<path d="M188.198 55.52H177.811C177.659 55.52 177.536 55.4057 177.536 55.2647V53.963C177.536 53.6851 177.278 53.5045 177.059 53.6287L171.802 56.6096C171.532 56.7625 171.532 57.1253 171.802 57.2782L177.059 60.259C177.278 60.3832 177.536 60.2026 177.536 59.9247V58.623C177.536 58.482 177.659 58.3677 177.811 58.3677H188.249C189.107 58.3677 189.801 57.7156 189.785 56.9171C189.77 56.1333 189.044 55.52 188.198 55.52Z" fill="#338DEF"/>
<path d="M235.715 56.6096L230.458 53.6288C230.239 53.5046 229.981 53.6852 229.981 53.9631V55.2648C229.981 55.4058 229.858 55.5201 229.706 55.5201H219.319C218.473 55.5201 217.747 56.1334 217.732 56.9172C217.716 57.7158 218.41 58.3678 219.268 58.3678H229.706C229.858 58.3678 229.981 58.4821 229.981 58.6231V59.9249C229.981 60.2027 230.239 60.3835 230.458 60.2591L235.715 57.2783C235.985 57.1253 235.985 56.7625 235.715 56.6096Z" fill="#338DEF"/>
<path d="M204.119 27.3328C203.954 27.0829 203.563 27.0829 203.398 27.3328L200.181 32.2039C200.047 32.4069 200.242 32.6458 200.542 32.6458H201.946C202.099 32.6458 202.222 32.7601 202.222 32.9011V42.5252C202.222 43.3092 202.884 43.9816 203.73 43.9961C204.592 44.0108 205.295 43.3677 205.295 42.5725V32.9011C205.295 32.7601 205.419 32.6458 205.571 32.6458H206.976C207.275 32.6458 207.47 32.407 207.336 32.2039L204.119 27.3328Z" fill="#338DEF"/>
<path d="M223.582 40.9502L224.575 41.8707C224.787 42.0672 225.107 42.0261 225.167 41.7947L226.61 36.2425C226.684 35.9578 226.407 35.7012 226.1 35.7698L220.108 37.1064C219.858 37.162 219.814 37.4589 220.026 37.6553L221.019 38.5758C221.127 38.6754 221.127 38.8371 221.019 38.9368L213.675 45.7421C213.076 46.2964 213.031 47.2056 213.618 47.77C214.217 48.3451 215.205 48.3514 215.812 47.7891L223.192 40.9504C223.3 40.8506 223.474 40.8506 223.582 40.9502Z" fill="#338DEF"/>
<path d="M186.498 38.9365C186.39 38.8368 186.39 38.6752 186.498 38.5755L187.491 37.655C187.703 37.4586 187.659 37.1619 187.409 37.1062L181.417 35.7695C181.11 35.701 180.833 35.9575 180.907 36.2422L182.349 41.7944C182.409 42.0258 182.73 42.067 182.942 41.8705L183.935 40.95C184.042 40.8503 184.217 40.8503 184.325 40.95L191.705 47.7887C192.312 48.351 193.3 48.3447 193.898 47.7696C194.485 47.2052 194.44 46.296 193.842 45.7417L186.498 38.9365Z" fill="#338DEF"/>
<path d="M173.783 57.2782C173.513 57.1253 173.513 56.7625 173.783 56.6096L177.536 54.4815V53.9631C177.536 53.6852 177.278 53.5046 177.059 53.6288L171.802 56.6096C171.532 56.7625 171.532 57.1253 171.802 57.2782L177.059 60.259C177.278 60.3832 177.536 60.2026 177.536 59.9247V59.4063L173.783 57.2782Z" fill="#1C78D3"/>
<path d="M231.962 55.2647V54.4815L230.458 53.6288C230.238 53.5046 229.981 53.6852 229.981 53.9631V55.2648C229.981 55.4058 229.857 55.5201 229.705 55.5201H231.686C231.838 55.52 231.962 55.4057 231.962 55.2647Z" fill="#1C78D3"/>
<path d="M219.712 56.9171C219.727 56.1333 220.453 55.52 221.299 55.52H219.318C218.472 55.52 217.746 56.1333 217.731 56.9171C217.715 57.7157 218.409 58.3677 219.267 58.3677H221.248C220.39 58.3678 219.696 57.7157 219.712 56.9171Z" fill="#1C78D3"/>
<path d="M231.961 58.6229C231.961 58.4819 231.838 58.3677 231.686 58.3677H229.705C229.857 58.3677 229.981 58.4819 229.981 58.6229V59.9247C229.981 60.2026 230.238 60.3833 230.458 60.259L231.962 59.4063V58.6229H231.961Z" fill="#1C78D3"/>
<path d="M204.203 42.5252V32.9011C204.203 32.7601 204.079 32.6458 203.927 32.6458H202.522C202.222 32.6458 202.028 32.407 202.162 32.2039L204.749 28.2862L204.119 27.3328C203.954 27.0829 203.563 27.0829 203.398 27.3328L200.181 32.2039C200.047 32.4069 200.242 32.6458 200.542 32.6458H201.946C202.099 32.6458 202.222 32.7601 202.222 32.9011V42.5252C202.222 43.3092 202.884 43.9816 203.73 43.9961C204.122 44.0028 204.481 43.8719 204.757 43.6532C204.417 43.38 204.203 42.9708 204.203 42.5252Z" fill="#1C78D3"/>
<path d="M215.332 46.5896L222.677 39.7843C222.784 39.6846 222.784 39.523 222.677 39.4233L221.683 38.5028C221.471 38.3064 221.516 38.0097 221.766 37.9539L226.436 36.9122L226.61 36.2423C226.684 35.9576 226.407 35.7011 226.1 35.7696L220.108 37.1063C219.858 37.1619 219.814 37.4588 220.026 37.6552L221.019 38.5756C221.127 38.6753 221.127 38.837 221.019 38.9367L213.675 45.7419C213.076 46.2963 213.031 47.2055 213.618 47.7699C213.983 48.1209 214.494 48.2588 214.974 48.1862C214.74 47.6569 214.87 47.0176 215.332 46.5896Z" fill="#1C78D3"/>
<path d="M183.576 40.7639L182.332 35.9738L181.417 35.7696C181.11 35.7011 180.833 35.9576 180.907 36.2423L182.349 41.7945C182.409 42.0259 182.73 42.0671 182.942 41.8706L183.926 40.9585C183.767 40.9834 183.616 40.9154 183.576 40.7639Z" fill="#1C78D3"/>
<path d="M192.932 46.7582L185.552 39.9195C185.444 39.8198 185.27 39.8198 185.162 39.9195L184.169 40.84C184.153 40.8542 184.137 40.8645 184.12 40.8763C184.194 40.8739 184.268 40.8981 184.324 40.9502L191.705 47.789C192.311 48.3513 193.3 48.345 193.898 47.7699C194.083 47.5919 194.205 47.3797 194.267 47.1551C193.796 47.2261 193.296 47.0951 192.932 46.7582Z" fill="#1C78D3"/>
</g>
<path d="M182.331 284.766L180.84 280.547C180.751 280.326 180.656 280.066 180.555 279.768C180.46 279.471 180.368 279.148 180.279 278.799C180.191 279.154 180.096 279.483 179.994 279.787C179.899 280.085 179.808 280.345 179.719 280.566L178.237 284.766H182.331ZM187.119 290H184.906C184.659 290 184.456 289.943 184.298 289.829C184.146 289.709 184.032 289.557 183.956 289.373L183.025 286.741H177.534L176.603 289.373C176.54 289.531 176.429 289.677 176.27 289.81C176.112 289.937 175.913 290 175.672 290H173.439L178.826 276.215H181.742L187.119 290ZM193.05 283.074C193.943 283.074 194.596 282.859 195.007 282.428C195.425 281.998 195.634 281.409 195.634 280.661C195.634 280.319 195.58 280.009 195.473 279.73C195.371 279.445 195.213 279.205 194.998 279.008C194.789 278.806 194.523 278.651 194.2 278.543C193.877 278.435 193.494 278.381 193.05 278.381H191.245V283.074H193.05ZM193.05 276.215C193.994 276.215 194.808 276.326 195.492 276.548C196.182 276.77 196.749 277.08 197.192 277.479C197.636 277.872 197.962 278.34 198.171 278.885C198.386 279.43 198.494 280.022 198.494 280.661C198.494 281.339 198.383 281.96 198.161 282.523C197.94 283.087 197.604 283.572 197.154 283.977C196.705 284.382 196.138 284.699 195.454 284.927C194.77 285.149 193.969 285.259 193.05 285.259H191.245V290H188.395V276.215H193.05ZM204.962 283.074C205.855 283.074 206.508 282.859 206.919 282.428C207.337 281.998 207.546 281.409 207.546 280.661C207.546 280.319 207.492 280.009 207.385 279.73C207.283 279.445 207.125 279.205 206.91 279.008C206.701 278.806 206.435 278.651 206.112 278.543C205.789 278.435 205.406 278.381 204.962 278.381H203.157V283.074H204.962ZM204.962 276.215C205.906 276.215 206.72 276.326 207.404 276.548C208.094 276.77 208.661 277.08 209.104 277.479C209.548 277.872 209.874 278.34 210.083 278.885C210.298 279.43 210.406 280.022 210.406 280.661C210.406 281.339 210.295 281.96 210.073 282.523C209.852 283.087 209.516 283.572 209.066 283.977C208.617 284.382 208.05 284.699 207.366 284.927C206.682 285.149 205.881 285.259 204.962 285.259H203.157V290H200.307V276.215H204.962ZM220.399 287.682V290H212.219V276.215H215.069V287.682H220.399ZM226.56 284.699V290H223.71V284.699L218.703 276.215H221.211C221.458 276.215 221.655 276.276 221.8 276.396C221.952 276.51 222.073 276.659 222.161 276.842L224.422 281.184C224.574 281.475 224.71 281.748 224.831 282.001C224.957 282.254 225.068 282.508 225.163 282.761C225.252 282.508 225.353 282.254 225.467 282.001C225.588 281.741 225.721 281.469 225.866 281.184L228.108 276.842C228.184 276.69 228.298 276.548 228.45 276.415C228.602 276.282 228.799 276.215 229.039 276.215H231.566L226.56 284.699ZM181.573 304.103C181.573 305.11 181.402 306.044 181.06 306.905C180.724 307.767 180.246 308.511 179.626 309.138C179.011 309.765 178.27 310.259 177.403 310.62C176.535 310.975 175.572 311.152 174.515 311.152C173.457 311.152 172.494 310.975 171.627 310.62C170.759 310.259 170.015 309.765 169.394 309.138C168.773 308.511 168.292 307.767 167.95 306.905C167.614 306.044 167.447 305.11 167.447 304.103C167.447 303.096 167.614 302.165 167.95 301.31C168.292 300.449 168.773 299.704 169.394 299.077C170.015 298.45 170.759 297.96 171.627 297.605C172.494 297.244 173.457 297.063 174.515 297.063C175.572 297.063 176.535 297.244 177.403 297.605C178.27 297.96 179.011 298.454 179.626 299.087C180.246 299.714 180.724 300.458 181.06 301.319C181.402 302.174 181.573 303.102 181.573 304.103ZM178.657 304.103C178.657 303.381 178.562 302.735 178.372 302.165C178.182 301.589 177.906 301.101 177.545 300.702C177.19 300.297 176.757 299.989 176.244 299.78C175.737 299.565 175.161 299.457 174.515 299.457C173.869 299.457 173.289 299.565 172.776 299.78C172.263 299.989 171.826 300.297 171.465 300.702C171.11 301.101 170.838 301.589 170.648 302.165C170.458 302.735 170.363 303.381 170.363 304.103C170.363 304.831 170.458 305.484 170.648 306.06C170.838 306.63 171.11 307.114 171.465 307.513C171.826 307.912 172.263 308.22 172.776 308.435C173.289 308.644 173.869 308.748 174.515 308.748C175.161 308.748 175.737 308.644 176.244 308.435C176.757 308.22 177.19 307.912 177.545 307.513C177.906 307.114 178.182 306.63 178.372 306.06C178.562 305.484 178.657 304.831 178.657 304.103ZM195.463 297.215V311H193.99C193.769 311 193.582 310.965 193.43 310.895C193.278 310.819 193.129 310.693 192.983 310.515L186.115 301.775C186.134 301.997 186.147 302.216 186.153 302.431C186.166 302.646 186.172 302.846 186.172 303.029V311H183.654V297.215H185.155C185.276 297.215 185.377 297.222 185.459 297.234C185.548 297.241 185.627 297.263 185.697 297.301C185.767 297.333 185.833 297.377 185.896 297.434C185.96 297.491 186.029 297.567 186.105 297.662L193.021 306.44C192.996 306.199 192.977 305.968 192.964 305.746C192.952 305.518 192.945 305.303 192.945 305.1V297.215H195.463ZM206.529 308.682V311H198.35V297.215H201.2V308.682H206.529ZM211.146 311H208.277V297.215H211.146V311ZM225.837 297.215V311H224.364C224.143 311 223.956 310.965 223.804 310.895C223.652 310.819 223.503 310.693 223.357 310.515L216.489 301.775C216.508 301.997 216.521 302.216 216.527 302.431C216.54 302.646 216.546 302.846 216.546 303.029V311H214.028V297.215H215.529C215.65 297.215 215.751 297.222 215.833 297.234C215.922 297.241 216.001 297.263 216.071 297.301C216.141 297.333 216.207 297.377 216.27 297.434C216.334 297.491 216.403 297.567 216.479 297.662L223.395 306.44C223.37 306.199 223.351 305.968 223.338 305.746C223.326 305.518 223.319 305.303 223.319 305.1V297.215H225.837ZM231.593 299.448V302.991H236.191V305.148H231.593V308.767H237.502V311H228.724V297.215H237.502V299.448H231.593Z" fill="#062C76"/>
<g filter="url(#filter0_d)">
<path d="M167.163 189.462H239.385C241.05 189.462 242.648 190.183 243.826 191.468C245.003 192.753 245.665 194.495 245.665 196.312V240.839H160.883V196.312C160.883 194.495 161.544 192.753 162.722 191.468C163.9 190.183 165.497 189.462 167.163 189.462Z" fill="#353744"/>
<path d="M167.199 189.462H233.524C235.199 189.462 236.806 190.183 237.99 191.468C239.175 192.753 239.84 194.495 239.84 196.312V240.839H160.883V196.312C160.883 194.495 161.548 192.753 162.733 191.468C163.917 190.183 165.524 189.462 167.199 189.462Z" fill="#55525B"/>
<path d="M239.385 248.643H167.163C165.497 248.643 163.9 247.986 162.722 246.815C161.544 245.644 160.883 244.056 160.883 242.4V240.839H245.665V242.4C245.665 244.056 245.003 245.644 243.826 246.815C242.648 247.986 241.05 248.643 239.385 248.643Z" fill="#A5C3DC"/>
<path d="M160.883 240.839H239.84V242.4C239.84 244.056 239.175 245.644 237.99 246.815C236.806 247.986 235.199 248.643 233.524 248.643H167.199C165.524 248.643 163.917 247.986 162.733 246.815C161.548 245.644 160.883 244.056 160.883 242.4V240.839Z" fill="#D7E6E6"/>
<path d="M193.89 248.643H208.128V256.448H193.89V248.643Z" fill="#AAC3D7"/>
<path d="M193.89 253.196H203.598V256.448H193.89V253.196Z" fill="#D7E6E6"/>
<path d="M187.936 256.448H212.788C213.612 256.448 214.402 256.767 214.984 257.336C215.567 257.906 215.894 258.678 215.894 259.482V261H184.829V259.482C184.829 258.678 185.156 257.906 185.739 257.336C186.322 256.767 187.112 256.448 187.936 256.448Z" fill="#D7E6E6"/>
<path d="M209.854 256.448H212.874C213.675 256.448 214.444 256.767 215.01 257.336C215.576 257.906 215.895 258.678 215.895 259.482V261H206.834V259.482C206.834 258.678 207.152 257.906 207.719 257.336C208.285 256.767 209.053 256.448 209.854 256.448Z" fill="#AAC3D7"/>
<path d="M230.133 240.839H170.591V174.776C170.591 172.979 171.251 171.255 172.427 169.985C173.602 168.714 175.196 168 176.858 168H214.464L230.133 183.245V240.839Z" fill="#6EA5D7"/>
<path d="M217.512 216.776C221.623 216.776 224.955 212.991 224.955 208.322C224.955 203.652 221.623 199.867 217.512 199.867C213.402 199.867 210.069 203.652 210.069 208.322C210.069 212.991 213.402 216.776 217.512 216.776Z" fill="#6478B9"/>
<path d="M217.512 231.734C221.623 231.734 224.955 228.386 224.955 224.255C224.955 220.125 221.623 216.776 217.512 216.776C213.402 216.776 210.069 220.125 210.069 224.255C210.069 228.386 213.402 231.734 217.512 231.734Z" fill="#6478B9"/>
<path d="M217.512 209.622C217.3 209.623 217.089 209.583 216.893 209.507C216.696 209.431 216.518 209.319 216.368 209.178L213.132 206.143C212.829 205.858 212.658 205.472 212.658 205.07C212.658 204.667 212.829 204.281 213.132 203.997C213.436 203.712 213.847 203.552 214.276 203.552C214.705 203.552 215.117 203.712 215.42 203.997L217.512 205.959L222.84 200.962C223.143 200.677 223.555 200.517 223.984 200.517C224.413 200.517 224.825 200.677 225.128 200.962C225.432 201.247 225.602 201.632 225.602 202.035C225.602 202.437 225.432 202.823 225.128 203.108L218.656 209.178C218.506 209.319 218.328 209.431 218.131 209.507C217.935 209.583 217.725 209.623 217.512 209.622Z" fill="#D7E6F0"/>
<path d="M204.286 205.2H179.648C178.345 205.2 177.289 206.336 177.289 207.736C177.289 209.137 178.345 210.273 179.648 210.273H204.286C205.589 210.273 206.645 209.137 206.645 207.736C206.645 206.336 205.589 205.2 204.286 205.2Z" fill="#6478B9"/>
<path d="M209.005 176.454H201.141C199.838 176.454 198.782 177.59 198.782 178.991C198.782 180.392 199.838 181.527 201.141 181.527H209.005C210.307 181.527 211.364 180.392 211.364 178.991C211.364 177.59 210.307 176.454 209.005 176.454Z" fill="#6478B9"/>
<path d="M215.295 186.6H201.141C199.838 186.6 198.782 187.736 198.782 189.136C198.782 190.537 199.838 191.673 201.141 191.673H215.295C216.598 191.673 217.654 190.537 217.654 189.136C217.654 187.736 216.598 186.6 215.295 186.6Z" fill="#6478B9"/>
<path d="M214.509 168V176.455C214.509 178.248 215.172 179.969 216.351 181.237C217.531 182.506 219.131 183.218 220.799 183.218H230.235L214.509 168Z" fill="#6478B9"/>
<path d="M236.686 249.944H214.6V229.783H239.841V246.584C239.841 247.475 239.508 248.33 238.917 248.96C238.325 249.59 237.523 249.944 236.686 249.944Z" fill="#F0915A"/>
<path d="M239.841 229.783H233.369V226.857C233.369 226.08 233.71 225.336 234.317 224.787C234.924 224.238 235.747 223.93 236.605 223.93C237.463 223.93 238.286 224.238 238.893 224.787C239.5 225.336 239.841 226.08 239.841 226.857V229.783Z" fill="#FAB991"/>
<path d="M233.369 229.783H226.897V226.857C226.897 226.08 227.238 225.336 227.845 224.787C228.452 224.238 229.275 223.93 230.133 223.93C230.991 223.93 231.814 224.238 232.421 224.787C233.028 225.336 233.369 226.08 233.369 226.857V229.783Z" fill="#FAB991"/>
<path d="M226.896 229.783H221.072V226.857C221.072 226.08 221.379 225.336 221.925 224.787C222.471 224.238 223.212 223.93 223.984 223.93C224.757 223.93 225.497 224.238 226.043 224.787C226.59 225.336 226.896 226.08 226.896 226.857V229.783Z" fill="#FAB991"/>
<path d="M221.072 229.783H214.6V211.623C214.6 210.748 214.941 209.908 215.548 209.289C216.155 208.67 216.978 208.322 217.836 208.322C218.695 208.322 219.518 208.67 220.124 209.289C220.731 209.908 221.072 210.748 221.072 211.623V229.783Z" fill="#FAB991"/>
<path d="M236.604 256.448H214.6V249.944H236.604V256.448Z" fill="#F0915A"/>
<path d="M225.603 256.448H214.6V249.944H220.887C222.138 249.944 223.337 250.629 224.221 251.849C225.106 253.068 225.603 254.723 225.603 256.448Z" fill="#FAB991"/>
<path d="M214.601 249.944C212.884 249.944 211.238 249.236 210.024 247.976C208.811 246.715 208.129 245.006 208.129 243.224V231.463C208.129 231.018 208.299 230.59 208.603 230.275C208.906 229.96 209.318 229.783 209.747 229.783C211.034 229.783 212.269 230.314 213.179 231.259C214.089 232.205 214.601 233.487 214.601 234.823V249.944Z" fill="#FAB991"/>
<path d="M214.528 256.448H236.677C237.516 256.448 238.321 256.767 238.914 257.336C239.507 257.906 239.841 258.678 239.841 259.482V261H211.364V259.482C211.364 258.678 211.698 257.906 212.291 257.336C212.884 256.767 213.689 256.448 214.528 256.448Z" fill="#55525B"/>
<path d="M225.603 256.448H236.677C237.516 256.448 238.321 256.767 238.914 257.336C239.507 257.906 239.841 258.678 239.841 259.482V261H225.603V256.448Z" fill="#353744"/>
<path d="M217.513 212.874C218.406 212.874 219.131 212.146 219.131 211.248C219.131 210.35 218.406 209.622 217.513 209.622C216.619 209.622 215.895 210.35 215.895 211.248C215.895 212.146 216.619 212.874 217.513 212.874Z" fill="#F0915A"/>
<path d="M208.128 231.734C209.158 231.734 210.146 232.214 210.874 233.068C211.602 233.921 212.011 235.079 212.011 236.287C212.011 236.458 211.982 236.627 211.927 236.785C211.871 236.942 211.789 237.086 211.686 237.207C211.583 237.327 211.461 237.423 211.326 237.488C211.191 237.554 211.047 237.587 210.901 237.587H208.128V231.734Z" fill="#F0915A"/>
<path d="M186.447 194.664C191.63 194.664 195.831 190.151 195.831 184.584C195.831 179.017 191.63 174.504 186.447 174.504C181.264 174.504 177.062 179.017 177.062 184.584C177.062 190.151 181.264 194.664 186.447 194.664Z" fill="#6478B9"/>
<path d="M186.123 186.86C188.268 186.86 190.007 185.113 190.007 182.958C190.007 180.803 188.268 179.056 186.123 179.056C183.979 179.056 182.24 180.803 182.24 182.958C182.24 185.113 183.979 186.86 186.123 186.86Z" fill="#6EA5D7"/>
<path d="M204.441 221.979H179.455C178.134 221.979 177.062 222.998 177.062 224.255C177.062 225.512 178.134 226.531 179.455 226.531H204.441C205.762 226.531 206.833 225.512 206.833 224.255C206.833 222.998 205.762 221.979 204.441 221.979Z" fill="#6478B9"/>
<path d="M189.359 186.86H182.887C182.03 186.86 181.208 187.168 180.601 187.716C179.994 188.263 179.653 189.006 179.651 189.782C180.404 190.692 181.381 191.431 182.504 191.939C183.628 192.448 184.867 192.713 186.123 192.713C187.38 192.713 188.619 192.448 189.742 191.939C190.866 191.431 191.843 190.692 192.595 189.782C192.594 189.006 192.252 188.263 191.646 187.716C191.039 187.168 190.217 186.86 189.359 186.86Z" fill="#6EA5D7"/>
</g>
<path d="M176.919 456.979H181.65V462.67C180.947 463.183 180.196 463.56 179.398 463.8C178.606 464.035 177.767 464.152 176.881 464.152C175.747 464.152 174.721 463.978 173.803 463.629C172.884 463.275 172.099 462.784 171.447 462.157C170.794 461.53 170.291 460.786 169.936 459.924C169.581 459.063 169.404 458.123 169.404 457.103C169.404 456.071 169.572 455.124 169.908 454.262C170.25 453.401 170.734 452.66 171.361 452.039C171.988 451.419 172.745 450.934 173.632 450.586C174.525 450.238 175.522 450.063 176.624 450.063C177.194 450.063 177.726 450.111 178.22 450.206C178.714 450.295 179.17 450.421 179.588 450.586C180.006 450.744 180.389 450.934 180.738 451.156C181.086 451.378 181.403 451.621 181.688 451.887L180.861 453.16C180.734 453.363 180.57 453.487 180.367 453.531C180.164 453.575 179.943 453.525 179.702 453.379C179.474 453.24 179.249 453.116 179.028 453.008C178.812 452.894 178.581 452.796 178.334 452.714C178.087 452.632 177.818 452.568 177.527 452.524C177.235 452.48 176.9 452.457 176.52 452.457C175.88 452.457 175.3 452.568 174.781 452.79C174.262 453.012 173.818 453.325 173.451 453.73C173.09 454.136 172.811 454.623 172.615 455.193C172.419 455.763 172.321 456.4 172.321 457.103C172.321 457.863 172.428 458.544 172.644 459.145C172.859 459.741 173.163 460.244 173.556 460.656C173.948 461.068 174.417 461.381 174.962 461.596C175.513 461.812 176.124 461.919 176.795 461.919C177.251 461.919 177.656 461.875 178.011 461.786C178.372 461.691 178.724 461.565 179.066 461.406V459.088H177.508C177.324 459.088 177.178 459.041 177.071 458.946C176.969 458.845 176.919 458.718 176.919 458.566V456.979ZM186.848 452.448V455.991H191.446V458.148H186.848V461.767H192.757V464H183.979V450.215H192.757V452.448H186.848ZM204.646 452.514H200.618V464H197.758V452.514H193.73V450.215H204.646V452.514ZM216.917 458.766L215.426 454.547C215.337 454.326 215.242 454.066 215.141 453.768C215.046 453.471 214.954 453.148 214.865 452.799C214.777 453.154 214.682 453.483 214.58 453.787C214.485 454.085 214.393 454.345 214.305 454.566L212.823 458.766H216.917ZM221.705 464H219.492C219.245 464 219.042 463.943 218.884 463.829C218.732 463.709 218.618 463.557 218.542 463.373L217.611 460.741H212.12L211.189 463.373C211.125 463.531 211.015 463.677 210.856 463.81C210.698 463.937 210.498 464 210.258 464H208.025L213.412 450.215H216.328L221.705 464ZM234.79 450.215V464H233.317C233.095 464 232.909 463.965 232.757 463.895C232.605 463.819 232.456 463.693 232.31 463.515L225.442 454.775C225.461 454.997 225.473 455.216 225.48 455.431C225.492 455.646 225.499 455.846 225.499 456.029V464H222.981V450.215H224.482C224.602 450.215 224.704 450.222 224.786 450.234C224.875 450.241 224.954 450.263 225.024 450.301C225.093 450.333 225.16 450.377 225.223 450.434C225.286 450.491 225.356 450.567 225.432 450.662L232.348 459.44C232.323 459.199 232.304 458.968 232.291 458.746C232.278 458.518 232.272 458.303 232.272 458.1V450.215H234.79ZM116.572 485H113.703V471.215H116.572V485ZM131.264 471.215V485H129.791C129.57 485 129.383 484.965 129.231 484.895C129.079 484.819 128.93 484.693 128.784 484.515L121.916 475.775C121.935 475.997 121.947 476.216 121.954 476.431C121.966 476.646 121.973 476.846 121.973 477.029V485H119.455V471.215H120.956C121.077 471.215 121.178 471.222 121.26 471.234C121.349 471.241 121.428 471.263 121.498 471.301C121.567 471.333 121.634 471.377 121.697 471.434C121.761 471.491 121.83 471.567 121.906 471.662L128.822 480.44C128.797 480.199 128.778 479.968 128.765 479.746C128.753 479.518 128.746 479.303 128.746 479.1V471.215H131.264ZM146.216 471.215L140.668 485H138.084L132.536 471.215H134.835C135.082 471.215 135.281 471.276 135.433 471.396C135.591 471.51 135.709 471.659 135.785 471.842L138.768 479.784C138.882 480.082 138.992 480.408 139.1 480.763C139.214 481.111 139.319 481.479 139.414 481.865C139.496 481.479 139.585 481.111 139.68 480.763C139.781 480.408 139.889 480.082 140.003 479.784L142.967 471.842C143.03 471.684 143.141 471.542 143.299 471.415C143.464 471.282 143.666 471.215 143.907 471.215H146.216ZM150.36 485H147.491V471.215H150.36V485ZM163 473.514H158.972V485H156.112V473.514H152.084V471.215H163V473.514ZM170.633 479.766L169.141 475.547C169.052 475.326 168.957 475.066 168.856 474.768C168.761 474.471 168.669 474.148 168.581 473.799C168.492 474.154 168.397 474.483 168.296 474.787C168.201 475.085 168.109 475.345 168.02 475.566L166.538 479.766H170.633ZM175.421 485H173.207C172.96 485 172.757 484.943 172.599 484.829C172.447 484.709 172.333 484.557 172.257 484.373L171.326 481.741H165.835L164.904 484.373C164.841 484.531 164.73 484.677 164.572 484.81C164.413 484.937 164.214 485 163.973 485H161.741L167.127 471.215H170.044L175.421 485ZM185.098 473.514H181.07V485H178.211V473.514H174.183V471.215H185.098V473.514ZM189.678 485H186.809V471.215H189.678V485ZM205.88 478.103C205.88 479.11 205.709 480.044 205.367 480.905C205.031 481.767 204.553 482.511 203.932 483.138C203.318 483.765 202.577 484.259 201.709 484.62C200.842 484.975 199.879 485.152 198.821 485.152C197.764 485.152 196.801 484.975 195.933 484.62C195.066 484.259 194.321 483.765 193.701 483.138C193.08 482.511 192.599 481.767 192.257 480.905C191.921 480.044 191.753 479.11 191.753 478.103C191.753 477.096 191.921 476.165 192.257 475.31C192.599 474.449 193.08 473.704 193.701 473.077C194.321 472.45 195.066 471.96 195.933 471.605C196.801 471.244 197.764 471.063 198.821 471.063C199.879 471.063 200.842 471.244 201.709 471.605C202.577 471.96 203.318 472.454 203.932 473.087C204.553 473.714 205.031 474.458 205.367 475.319C205.709 476.174 205.88 477.102 205.88 478.103ZM202.963 478.103C202.963 477.381 202.868 476.735 202.678 476.165C202.488 475.589 202.213 475.101 201.852 474.702C201.497 474.297 201.063 473.989 200.55 473.78C200.044 473.565 199.467 473.457 198.821 473.457C198.175 473.457 197.596 473.565 197.083 473.78C196.57 473.989 196.133 474.297 195.772 474.702C195.417 475.101 195.145 475.589 194.955 476.165C194.765 476.735 194.67 477.381 194.67 478.103C194.67 478.831 194.765 479.484 194.955 480.06C195.145 480.63 195.417 481.114 195.772 481.513C196.133 481.912 196.57 482.22 197.083 482.435C197.596 482.644 198.175 482.748 198.821 482.748C199.467 482.748 200.044 482.644 200.55 482.435C201.063 482.22 201.497 481.912 201.852 481.513C202.213 481.114 202.488 480.63 202.678 480.06C202.868 479.484 202.963 478.831 202.963 478.103ZM219.77 471.215V485H218.297C218.075 485 217.889 484.965 217.737 484.895C217.585 484.819 217.436 484.693 217.29 484.515L210.422 475.775C210.441 475.997 210.453 476.216 210.46 476.431C210.472 476.646 210.479 476.846 210.479 477.029V485H207.961V471.215H209.462C209.582 471.215 209.684 471.222 209.766 471.234C209.855 471.241 209.934 471.263 210.004 471.301C210.073 471.333 210.14 471.377 210.203 471.434C210.266 471.491 210.336 471.567 210.412 471.662L217.328 480.44C217.303 480.199 217.284 479.968 217.271 479.746C217.258 479.518 217.252 479.303 217.252 479.1V471.215H219.77ZM235.345 482.682V485H227.165V471.215H230.015V482.682H235.345ZM239.961 473.448V476.991H244.559V479.148H239.961V482.767H245.87V485H237.092V471.215H245.87V473.448H239.961ZM257.759 473.514H253.731V485H250.871V473.514H246.843V471.215H257.759V473.514ZM269.225 473.514H265.197V485H262.338V473.514H258.31V471.215H269.225V473.514ZM273.805 473.448V476.991H278.403V479.148H273.805V482.767H279.714V485H270.936V471.215H279.714V473.448H273.805ZM286.159 477.742C286.621 477.742 287.02 477.685 287.356 477.571C287.692 477.451 287.967 477.289 288.182 477.086C288.398 476.877 288.556 476.634 288.657 476.355C288.759 476.076 288.809 475.772 288.809 475.443C288.809 474.791 288.591 474.284 288.154 473.923C287.723 473.562 287.065 473.381 286.178 473.381H284.696V477.742H286.159ZM292.837 485H290.263C289.782 485 289.433 484.816 289.218 484.449L286.596 480.221C286.488 480.057 286.368 479.936 286.235 479.86C286.108 479.784 285.918 479.746 285.665 479.746H284.696V485H281.846V471.215H286.178C287.141 471.215 287.964 471.317 288.648 471.519C289.332 471.716 289.892 471.991 290.329 472.346C290.766 472.701 291.086 473.125 291.289 473.619C291.492 474.107 291.593 474.645 291.593 475.234C291.593 475.69 291.526 476.124 291.393 476.535C291.267 476.941 291.08 477.311 290.833 477.647C290.586 477.983 290.282 478.28 289.921 478.54C289.56 478.8 289.148 479.009 288.686 479.167C288.87 479.268 289.041 479.392 289.199 479.537C289.357 479.677 289.5 479.845 289.626 480.041L292.837 485Z" fill="#062C76"/>
<g clip-path="url(#clip6)" filter="url(#filter1_d)">
<path d="M166.5 381V432C166.5 432.828 166.836 433.578 167.379 434.121H237.621C238.164 433.578 238.5 432.828 238.5 432V381H166.5Z" fill="#FFE07D"/>
<path d="M207.803 350.303C204.874 347.374 200.126 347.374 197.197 350.303L166.5 381L197.197 411.697C200.126 414.626 204.874 414.626 207.803 411.697L238.5 381L207.803 350.303Z" fill="#FFC250"/>
<path d="M229.5 342H177C176.172 342 175.5 342.672 175.5 343.5V388.5L197.197 411.697C200.126 414.626 204.874 414.626 207.803 411.697L231 384.257V343.5C231 342.672 230.328 342 229.5 342V342Z" fill="#ECEAEC"/>
<path d="M210.206 402.463L210.205 402.462C208.386 400.644 206.027 399.377 203.465 399.15C200.305 398.869 197.285 399.973 195.075 402.182L194.794 402.463C194.079 403.178 192.921 403.178 192.206 402.463L178.318 388.575C177.474 387.731 177 386.587 177 385.393V342H175.5C174.672 342 174 342.672 174 343.5V388.5L197.197 411.697C200.126 414.626 204.874 414.626 207.803 411.697L231 388.5V384.257L212.794 402.463C212.079 403.178 210.921 403.178 210.206 402.463Z" fill="#DAD8DB"/>
<path d="M207.804 404.303C204.875 401.374 200.126 401.374 197.197 404.303L167.379 434.121C167.922 434.664 168.672 435 169.5 435H235.5C236.329 435 237.079 434.664 237.621 434.121L207.804 404.303Z" fill="#FFD064"/>
</g>
<path d="M190.612 627.979H195.343V633.67C194.64 634.183 193.889 634.56 193.091 634.8C192.3 635.035 191.461 635.152 190.574 635.152C189.44 635.152 188.414 634.978 187.496 634.629C186.578 634.275 185.792 633.784 185.14 633.157C184.488 632.53 183.984 631.786 183.629 630.924C183.275 630.063 183.097 629.123 183.097 628.103C183.097 627.071 183.265 626.124 183.601 625.262C183.943 624.401 184.427 623.66 185.054 623.039C185.681 622.419 186.438 621.934 187.325 621.586C188.218 621.238 189.215 621.063 190.317 621.063C190.887 621.063 191.419 621.111 191.913 621.206C192.407 621.295 192.863 621.421 193.281 621.586C193.699 621.744 194.083 621.934 194.431 622.156C194.779 622.378 195.096 622.621 195.381 622.887L194.554 624.16C194.428 624.363 194.263 624.487 194.06 624.531C193.858 624.575 193.636 624.525 193.395 624.379C193.167 624.24 192.943 624.116 192.721 624.008C192.506 623.894 192.274 623.796 192.027 623.714C191.78 623.632 191.511 623.568 191.22 623.524C190.929 623.48 190.593 623.457 190.213 623.457C189.573 623.457 188.994 623.568 188.474 623.79C187.955 624.012 187.512 624.325 187.144 624.73C186.783 625.136 186.505 625.623 186.308 626.193C186.112 626.763 186.014 627.4 186.014 628.103C186.014 628.863 186.122 629.544 186.337 630.145C186.552 630.741 186.856 631.244 187.249 631.656C187.642 632.068 188.11 632.381 188.655 632.596C189.206 632.812 189.817 632.919 190.488 632.919C190.944 632.919 191.35 632.875 191.704 632.786C192.065 632.691 192.417 632.565 192.759 632.406V630.088H191.201C191.017 630.088 190.872 630.041 190.764 629.946C190.663 629.845 190.612 629.718 190.612 629.566V627.979ZM200.542 623.448V626.991H205.14V629.148H200.542V632.767H206.451V635H197.673V621.215H206.451V623.448H200.542ZM218.339 623.514H214.311V635H211.452V623.514H207.424V621.215H218.339V623.514ZM194.708 642.215L189.16 656H186.576L181.028 642.215H183.327C183.574 642.215 183.774 642.276 183.926 642.396C184.084 642.51 184.201 642.659 184.277 642.842L187.26 650.784C187.374 651.082 187.485 651.408 187.593 651.763C187.707 652.111 187.811 652.479 187.906 652.865C187.989 652.479 188.077 652.111 188.172 651.763C188.274 651.408 188.381 651.082 188.495 650.784L191.459 642.842C191.523 642.684 191.633 642.542 191.792 642.415C191.956 642.282 192.159 642.215 192.4 642.215H194.708ZM198.853 656H195.984V642.215H198.853V656ZM209.203 644.856C209.114 645.002 209.022 645.11 208.927 645.179C208.839 645.243 208.722 645.274 208.576 645.274C208.437 645.274 208.285 645.227 208.12 645.132C207.962 645.031 207.775 644.923 207.559 644.809C207.344 644.695 207.097 644.59 206.818 644.495C206.54 644.394 206.214 644.343 205.84 644.343C205.181 644.343 204.687 644.492 204.358 644.79C204.029 645.081 203.864 645.464 203.864 645.939C203.864 646.243 203.953 646.497 204.13 646.699C204.314 646.896 204.551 647.067 204.842 647.212C205.14 647.358 205.476 647.488 205.849 647.602C206.223 647.716 206.606 647.843 206.999 647.982C207.392 648.115 207.775 648.273 208.148 648.457C208.522 648.641 208.855 648.872 209.146 649.15C209.444 649.429 209.681 649.771 209.858 650.176C210.042 650.575 210.134 651.063 210.134 651.639C210.134 652.266 210.023 652.855 209.801 653.406C209.586 653.951 209.273 654.429 208.861 654.841C208.449 655.246 207.939 655.566 207.331 655.8C206.73 656.035 206.046 656.152 205.279 656.152C204.842 656.152 204.405 656.108 203.968 656.019C203.538 655.93 203.12 655.807 202.714 655.648C202.315 655.49 201.939 655.3 201.584 655.078C201.229 654.857 200.919 654.61 200.653 654.337L201.489 652.988C201.559 652.887 201.65 652.805 201.764 652.741C201.878 652.672 201.999 652.637 202.125 652.637C202.296 652.637 202.477 652.7 202.667 652.827C202.857 652.954 203.075 653.093 203.322 653.245C203.569 653.397 203.854 653.536 204.177 653.663C204.507 653.79 204.899 653.853 205.355 653.853C206.02 653.853 206.533 653.701 206.894 653.397C207.262 653.093 207.445 652.64 207.445 652.038C207.445 651.69 207.354 651.408 207.17 651.193C206.993 650.978 206.758 650.797 206.467 650.651C206.176 650.506 205.843 650.382 205.469 650.281C205.096 650.173 204.713 650.056 204.32 649.929C203.927 649.803 203.544 649.651 203.17 649.473C202.797 649.296 202.464 649.062 202.173 648.77C201.882 648.479 201.644 648.118 201.46 647.687C201.283 647.257 201.194 646.722 201.194 646.082C201.194 645.569 201.296 645.072 201.498 644.59C201.701 644.109 201.999 643.682 202.391 643.308C202.784 642.934 203.265 642.633 203.835 642.405C204.412 642.177 205.07 642.063 205.811 642.063C206.641 642.063 207.407 642.193 208.11 642.453C208.82 642.706 209.418 643.061 209.906 643.517L209.203 644.856ZM219.181 650.766L217.689 646.547C217.601 646.326 217.506 646.066 217.404 645.768C217.309 645.471 217.218 645.148 217.129 644.799C217.04 645.154 216.945 645.483 216.844 645.787C216.749 646.085 216.657 646.345 216.568 646.566L215.086 650.766H219.181ZM223.969 656H221.755C221.508 656 221.306 655.943 221.147 655.829C220.995 655.709 220.881 655.557 220.805 655.373L219.874 652.741H214.383L213.452 655.373C213.389 655.531 213.278 655.677 213.12 655.81C212.962 655.937 212.762 656 212.521 656H210.289L215.675 642.215H218.592L223.969 656Z" fill="#062C76"/>
<g clip-path="url(#clip7)" filter="url(#filter2_d)">
<path d="M213.542 513L247.041 524.743L223.39 591.271L189.891 579.529L213.542 513Z" fill="#F5E7BA"/>
<path d="M208.703 526.607L209.777 523.583L211.299 524.117L210.226 527.141L208.703 526.607Z" fill="#D3C7A1"/>
<path d="M237.91 536.846L235.143 535.876L236.218 532.852L238.986 533.822L237.91 536.846ZM232.374 534.906L229.601 533.934L230.676 530.91L233.444 531.881L232.374 534.906ZM226.836 532.964L224.069 531.994L225.144 528.97L227.912 529.932L226.836 532.964ZM221.301 531.024L218.532 530.052L219.607 527.03L222.376 528L221.301 531.024ZM215.763 529.082L212.995 528.12L214.071 525.096L216.838 526.067L215.763 529.082Z" fill="#D3C7A1"/>
<path d="M240.681 537.814L241.756 534.791L243.279 535.325L242.203 538.348L240.681 537.814Z" fill="#D3C7A1"/>
<path d="M217.03 575.438L212.014 570.28L204.85 571.168L206.461 566.632L210.582 564.675L218.645 541.995L222.766 540.039L224.736 544.13L216.673 566.81L218.643 570.902L217.03 575.438Z" fill="#CDCDCD"/>
<path d="M226.436 563.431L219.898 557.739L222.587 550.179L228.049 558.895L226.436 563.431Z" fill="#E06661"/>
<path d="M205.119 555.959L213.807 555.604L216.496 548.043L206.731 551.423L205.119 555.959Z" fill="#E06661"/>
<path d="M196.236 559.499C196.236 567.47 189.73 573.931 181.704 573.931C173.678 573.931 167.171 567.47 167.171 559.499C167.171 551.53 173.678 545.068 181.704 545.068C189.73 545.068 196.236 551.53 196.236 559.499Z" fill="#C0F5F9"/>
<path d="M156.614 535.448H205.057C206.84 535.448 208.286 536.884 208.286 538.655V602.793C208.286 604.564 206.84 606 205.057 606H159.844C158.059 606 156.614 604.564 156.614 602.793V535.448Z" fill="#85BC94"/>
<path d="M181.705 543.465C172.788 543.465 165.558 550.644 165.558 559.499C165.558 568.355 172.788 575.534 181.705 575.534C190.623 575.534 197.853 568.355 197.853 559.499C197.843 550.648 190.619 543.475 181.705 543.465ZM168.787 559.499C168.79 558.844 168.845 558.19 168.949 557.542L172.942 556.66C173.554 556.525 174.171 556.413 174.79 556.307C174.633 558.432 174.633 560.567 174.79 562.692C174.171 562.587 173.554 562.474 172.942 562.339L168.949 561.458C168.845 560.81 168.79 560.156 168.787 559.499ZM178.066 555.887C180.486 555.672 182.922 555.672 185.342 555.887C185.558 558.291 185.558 560.708 185.342 563.112C182.922 563.327 180.486 563.327 178.066 563.112C177.85 560.708 177.85 558.291 178.066 555.887ZM188.615 556.307C189.233 556.413 189.851 556.525 190.462 556.66L194.455 557.542C194.679 558.838 194.679 560.162 194.455 561.458L190.462 562.339C189.851 562.474 189.233 562.587 188.615 562.694C188.771 560.567 188.771 558.433 188.615 556.307ZM193.366 554.017L191.163 553.537C190.194 553.324 189.225 553.156 188.247 553.01C188.099 552.039 187.924 551.072 187.715 550.114L187.231 547.928C189.919 549.198 192.085 551.348 193.366 554.017ZM183.677 546.837L184.565 550.804C184.701 551.412 184.816 552.024 184.922 552.639C182.781 552.483 180.631 552.483 178.491 552.639C178.597 552.024 178.71 551.412 178.848 550.804L179.736 546.837C181.04 546.617 182.373 546.617 183.677 546.837ZM176.184 547.921L175.7 550.108C175.487 551.07 175.318 552.033 175.17 553.004C174.192 553.15 173.218 553.324 172.255 553.53L170.052 554.011C171.332 551.343 173.497 549.193 176.183 547.921H176.184ZM170.049 564.982L172.251 565.463C173.22 565.675 174.189 565.843 175.167 565.988C175.314 566.961 175.491 567.928 175.697 568.885L176.181 571.072C173.493 569.801 171.325 567.651 170.044 564.982H170.049ZM179.737 572.162L178.849 568.196C178.711 567.589 178.599 566.975 178.492 566.363C179.561 566.439 180.635 566.493 181.709 566.493C182.782 566.493 183.853 566.439 184.924 566.363C184.817 566.975 184.703 567.589 184.567 568.196L183.679 572.162C182.375 572.383 181.041 572.383 179.737 572.162ZM187.23 571.078L187.714 568.891C187.928 567.929 188.096 566.967 188.245 565.996C189.222 565.849 190.198 565.675 191.162 565.469L193.364 564.989C192.083 567.658 189.915 569.808 187.227 571.078H187.23Z" fill="#FECE2F"/>
<path d="M168.787 588.362H194.623V591.569H168.787V588.362Z" fill="#55785F"/>
<path d="M172.017 594.776H191.394V597.983H172.017V594.776Z" fill="#55785F"/>
<path d="M180.091 581.948H183.32V585.155H180.091V581.948Z" fill="#55785F"/>
<path d="M173.632 581.948H176.861V585.155H173.632V581.948Z" fill="#55785F"/>
<path d="M186.55 581.948H189.779V585.155H186.55V581.948Z" fill="#55785F"/>
<path d="M199.466 535.448V528.393C199.467 527.397 199.001 526.459 198.207 525.852C197.414 525.245 196.382 525.038 195.413 525.291L156.614 535.448H199.466Z" fill="#6B9777"/>
</g>
<circle cx="49.5" cy="72.5" r="42.5" stroke="#062C76" stroke-width="4"/>
<circle cx="49.5" cy="414.5" r="42.5" stroke="#062C76" stroke-width="4"/>
<circle cx="49.5" cy="585.5" r="42.5" stroke="#062C76" stroke-width="4"/>
<path d="M50 202L50 116" stroke="#062C76" stroke-width="4"/>
<path d="M55.5259 92H46.4487V63.1035L37.5327 65.7085V58.8335L54.6934 52.8984H55.5259V92Z" fill="#062C76"/>
<g filter="url(#filter3_d)">
<circle cx="50.5" cy="243.5" r="42.5" stroke="#062C76" stroke-width="4"/>
</g>
<path d="M63.75 261H36.4648V255.092L49.0332 241.879C52.1305 238.352 53.6792 235.55 53.6792 233.473C53.6792 231.79 53.3122 230.51 52.5781 229.633C51.8441 228.756 50.7788 228.317 49.3823 228.317C48.0037 228.317 46.8848 228.908 46.0254 230.089C45.166 231.253 44.7363 232.712 44.7363 234.467H35.6592C35.6592 232.068 36.259 229.857 37.4585 227.833C38.658 225.792 40.3231 224.199 42.4536 223.053C44.5841 221.907 46.9653 221.334 49.5972 221.334C53.8224 221.334 57.0719 222.31 59.3457 224.262C61.6374 226.213 62.7832 229.015 62.7832 232.667C62.7832 234.207 62.4967 235.711 61.9238 237.179C61.3509 238.629 60.4557 240.16 59.2383 241.771C58.0387 243.365 56.0962 245.504 53.4106 248.19L48.3618 254.018H63.75V261Z" fill="#062C76"/>
<path d="M44.7363 410.663H49.0063C52.3901 410.663 54.082 409.007 54.082 405.694C54.082 404.405 53.6792 403.358 52.8735 402.552C52.0679 401.729 50.931 401.317 49.4629 401.317C48.2633 401.317 47.216 401.666 46.3208 402.364C45.4435 403.062 45.0049 403.931 45.0049 404.969H35.9546C35.9546 402.91 36.5275 401.075 37.6733 399.464C38.8192 397.853 40.4036 396.599 42.4268 395.704C44.4678 394.791 46.7057 394.334 49.1406 394.334C53.4912 394.334 56.9108 395.328 59.3994 397.315C61.888 399.303 63.1323 402.033 63.1323 405.506C63.1323 407.189 62.6131 408.783 61.5747 410.287C60.5542 411.773 59.0592 412.981 57.0898 413.912C59.1667 414.664 60.7959 415.81 61.9775 417.35C63.1592 418.871 63.75 420.76 63.75 423.016C63.75 426.507 62.4072 429.3 59.7217 431.395C57.0361 433.49 53.5091 434.537 49.1406 434.537C46.5804 434.537 44.1992 434.054 41.9971 433.087C39.8128 432.102 38.1567 430.75 37.0288 429.032C35.9009 427.295 35.3369 425.326 35.3369 423.124H44.4409C44.4409 424.323 44.9243 425.361 45.8911 426.239C46.8579 427.116 48.0485 427.555 49.4629 427.555C51.0563 427.555 52.3275 427.116 53.2764 426.239C54.2253 425.344 54.6997 424.207 54.6997 422.828C54.6997 420.859 54.2074 419.462 53.2227 418.639C52.238 417.815 50.8773 417.403 49.1406 417.403H44.7363V410.663Z" fill="#062C76"/>
<path d="M59.3662 590.719H63.3408V597.702H59.3662V606H50.3159V597.702H35.1963L34.6592 592.169L50.3159 566.979V566.898H59.3662V590.719ZM43.2798 590.719H50.3159V578.688L49.752 579.601L43.2798 590.719Z" fill="#062C76"/>
<path d="M48.5858 332.414C49.3668 333.195 50.6332 333.195 51.4142 332.414L64.1421 319.686C64.9232 318.905 64.9232 317.639 64.1421 316.858C63.3611 316.077 62.0948 316.077 61.3137 316.858L50 328.172L38.6863 316.858C37.9052 316.077 36.6389 316.077 35.8579 316.858C35.0768 317.639 35.0768 318.905 35.8579 319.686L48.5858 332.414ZM48 287V331H52V287H48Z" fill="#062C76"/>
<path d="M50 339V374" stroke="#062C76" stroke-width="4"/>
<path d="M48.5858 502.414C49.3668 503.195 50.6332 503.195 51.4142 502.414L64.1421 489.686C64.9232 488.905 64.9232 487.639 64.1421 486.858C63.3611 486.077 62.0948 486.077 61.3137 486.858L50 498.172L38.6863 486.858C37.9052 486.077 36.6389 486.077 35.8579 486.858C35.0768 487.639 35.0768 488.905 35.8579 489.686L48.5858 502.414ZM48 457V501H52V457H48Z" fill="#062C76"/>
<path d="M50 509V544" stroke="#062C76" stroke-width="4"/>
<path d="M48.5858 341.414C49.3668 342.195 50.6332 342.195 51.4142 341.414L64.1421 328.686C64.9232 327.905 64.9232 326.639 64.1421 325.858C63.3611 325.077 62.0948 325.077 61.3137 325.858L50 337.172L38.6863 325.858C37.9052 325.077 36.6389 325.077 35.8579 325.858C35.0768 326.639 35.0768 327.905 35.8579 328.686L48.5858 341.414ZM48 339V340H52V339H48Z" fill="#062C76"/>
<path d="M48.5858 511.414C49.3668 512.195 50.6332 512.195 51.4142 511.414L64.1421 498.686C64.9232 497.905 64.9232 496.639 64.1421 495.858C63.3611 495.077 62.0948 495.077 61.3137 495.858L50 507.172L38.6863 495.858C37.9052 495.077 36.6389 495.077 35.8579 495.858C35.0768 496.639 35.0768 497.905 35.8579 498.686L48.5858 511.414ZM48 509V510H52V509H48Z" fill="#062C76"/>
<defs>
<filter id="filter0_d" x="151" y="165" width="105" height="105" filterUnits="userSpaceOnUse" color-interpolation-filters="sRGB">
<feFlood flood-opacity="0" result="BackgroundImageFix"/>
<feColorMatrix in="SourceAlpha" type="matrix" values="0 0 0 0 0 0 0 0 0 0 0 0 0 0 0 0 0 0 127 0"/>
<feOffset dy="3"/>
<feGaussianBlur stdDeviation="3"/>
<feColorMatrix type="matrix" values="0 0 0 0 0 0 0 0 0 0 0 0 0 0 0 0 0 0 0.3 0"/>
<feBlend mode="normal" in2="BackgroundImageFix" result="effect1_dropShadow"/>
<feBlend mode="normal" in="SourceGraphic" in2="effect1_dropShadow" result="shape"/>
</filter>
<filter id="filter1_d" x="150" y="339" width="105" height="105" filterUnits="userSpaceOnUse" color-interpolation-filters="sRGB">
<feFlood flood-opacity="0" result="BackgroundImageFix"/>
<feColorMatrix in="SourceAlpha" type="matrix" values="0 0 0 0 0 0 0 0 0 0 0 0 0 0 0 0 0 0 127 0"/>
<feOffset dy="3"/>
<feGaussianBlur stdDeviation="3"/>
<feColorMatrix type="matrix" values="0 0 0 0 0 0 0 0 0 0 0 0 0 0 0 0 0 0 0.3 0"/>
<feBlend mode="normal" in2="BackgroundImageFix" result="effect1_dropShadow"/>
<feBlend mode="normal" in="SourceGraphic" in2="effect1_dropShadow" result="shape"/>
</filter>
<filter id="filter2_d" x="149" y="510" width="105.655" height="105" filterUnits="userSpaceOnUse" color-interpolation-filters="sRGB">
<feFlood flood-opacity="0" result="BackgroundImageFix"/>
<feColorMatrix in="SourceAlpha" type="matrix" values="0 0 0 0 0 0 0 0 0 0 0 0 0 0 0 0 0 0 127 0"/>
<feOffset dy="3"/>
<feGaussianBlur stdDeviation="3"/>
<feColorMatrix type="matrix" values="0 0 0 0 0 0 0 0 0 0 0 0 0 0 0 0 0 0 0.3 0"/>
<feBlend mode="normal" in2="BackgroundImageFix" result="effect1_dropShadow"/>
<feBlend mode="normal" in="SourceGraphic" in2="effect1_dropShadow" result="shape"/>
</filter>
<filter id="filter3_d" x="0" y="196" width="101" height="101" filterUnits="userSpaceOnUse" color-interpolation-filters="sRGB">
<feFlood flood-opacity="0" result="BackgroundImageFix"/>
<feColorMatrix in="SourceAlpha" type="matrix" values="0 0 0 0 0 0 0 0 0 0 0 0 0 0 0 0 0 0 127 0"/>
<feOffset dy="3"/>
<feGaussianBlur stdDeviation="3"/>
<feColorMatrix type="matrix" values="0 0 0 0 0 0 0 0 0 0 0 0 0 0 0 0 0 0 0.3 0"/>
<feBlend mode="normal" in2="BackgroundImageFix" result="effect1_dropShadow"/>
<feBlend mode="normal" in="SourceGraphic" in2="effect1_dropShadow" result="shape"/>
</filter>
<clipPath id="clip0">
<rect width="108" height="93" fill="white" transform="translate(150)"/>
</clipPath>
<clipPath id="clip1">
<rect width="14.4" height="14.4" fill="white" transform="translate(160.473 14.0546)"/>
</clipPath>
<clipPath id="clip2">
<rect width="15.0545" height="15.0545" fill="white" transform="translate(150 45.4727)"/>
</clipPath>
<clipPath id="clip3">
<rect width="15.0545" height="15.7091" fill="white" transform="translate(242.945 44.8181)"/>
</clipPath>
<clipPath id="clip4">
<rect width="15.0545" height="15.7091" fill="white" transform="translate(196.473 -1)"/>
</clipPath>
<clipPath id="clip5">
<rect width="15.0545" height="14.4" fill="white" transform="translate(231.577 17.3273)"/>
</clipPath>
<clipPath id="clip6">
<rect width="93" height="93" fill="white" transform="translate(156 342)"/>
</clipPath>
<clipPath id="clip7">
<rect width="93.6549" height="93" fill="white" transform="translate(155 513)"/>
</clipPath>
</defs>
</svg>
