<svg width="144" height="155" viewBox="0 0 144 155" fill="none" xmlns="http://www.w3.org/2000/svg">
<g filter="url(#filter0_d)">
<path d="M15.7037 36H127.296C129.87 36 132.338 37.1098 134.158 39.0851C135.978 41.0605 137 43.7397 137 46.5333V115H6V46.5333C6 43.7397 7.02235 41.0605 8.84215 39.0851C10.6619 37.1098 13.1301 36 15.7037 36Z" fill="#353744"/>
<path d="M15.76 36H118.24C120.829 36 123.311 37.1098 125.141 39.0851C126.972 41.0605 128 43.7397 128 46.5333V115H6V46.5333C6 43.7397 7.02828 41.0605 8.85864 39.0851C10.689 37.1098 13.1715 36 15.76 36Z" fill="#55525B"/>
<path d="M127.296 127H15.7037C13.1301 127 10.6619 125.989 8.84215 124.188C7.02235 122.388 6 119.946 6 117.4V115H137V117.4C137 119.946 135.978 122.388 134.158 124.188C132.338 125.989 129.87 127 127.296 127Z" fill="#A5C3DC"/>
<path d="M6 115H128V117.4C128 119.946 126.972 122.388 125.141 124.188C123.311 125.989 120.829 127 118.24 127H15.76C13.1715 127 10.689 125.989 8.85864 124.188C7.02828 122.388 6 119.946 6 117.4V115Z" fill="#D7E6E6"/>
<path d="M57 127H79V139H57V127Z" fill="#AAC3D7"/>
<path d="M57 134H72V139H57V134Z" fill="#D7E6E6"/>
<path d="M47.8 139H86.2C87.473 139 88.6939 139.492 89.5941 140.367C90.4943 141.242 91 142.429 91 143.667V146H43V143.667C43 142.429 43.5057 141.242 44.4059 140.367C45.3061 139.492 46.527 139 47.8 139Z" fill="#D7E6E6"/>
<path d="M81.6667 139H86.3333C87.571 139 88.758 139.492 89.6332 140.367C90.5083 141.242 91 142.429 91 143.667V146H77V143.667C77 142.429 77.4917 141.242 78.3668 140.367C79.242 139.492 80.429 139 81.6667 139Z" fill="#AAC3D7"/>
<path d="M113 115H21V13.4186C21 10.6554 22.0203 8.00541 23.8364 6.05154C25.6526 4.09767 28.1158 3 30.6842 3H88.7895L113 26.4419V115Z" fill="#6EA5D7"/>
<path d="M93.5 78C99.8513 78 105 72.1797 105 65C105 57.8203 99.8513 52 93.5 52C87.1487 52 82 57.8203 82 65C82 72.1797 87.1487 78 93.5 78Z" fill="#6478B9"/>
<path d="M93.5 101C99.8513 101 105 95.8513 105 89.5C105 83.1487 99.8513 78 93.5 78C87.1487 78 82 83.1487 82 89.5C82 95.8513 87.1487 101 93.5 101Z" fill="#6478B9"/>
<path d="M93.5 67C93.1716 67.0004 92.8464 66.9402 92.5431 66.8229C92.2397 66.7057 91.9641 66.5336 91.7322 66.3166L86.7322 61.65C86.2634 61.2124 86 60.6189 86 60C86 59.3812 86.2634 58.7877 86.7322 58.3501C87.2011 57.9125 87.837 57.6666 88.5001 57.6666C89.1631 57.6666 89.799 57.9125 90.2679 58.3501L93.5 61.3671L101.732 53.6834C102.201 53.2458 102.837 53 103.5 53C104.163 53 104.799 53.2458 105.268 53.6834C105.737 54.121 106 54.7145 106 55.3334C106 55.9522 105.737 56.5457 105.268 56.9833L95.2678 66.3166C95.0359 66.5336 94.7604 66.7057 94.457 66.8229C94.1536 66.9402 93.8284 67.0004 93.5 67Z" fill="#D7E6F0"/>
<path d="M73.0641 60.2H34.9946C32.9815 60.2 31.3496 61.9461 31.3496 64.1C31.3496 66.2539 32.9815 68 34.9946 68H73.0641C75.0772 68 76.7091 66.2539 76.7091 64.1C76.7091 61.9461 75.0772 60.2 73.0641 60.2Z" fill="#6478B9"/>
<path d="M80.3544 15.9999H68.2045C66.1915 15.9999 64.5596 17.746 64.5596 19.8999C64.5596 22.0538 66.1915 23.7999 68.2045 23.7999H80.3544C82.3675 23.7999 83.9994 22.0538 83.9994 19.8999C83.9994 17.746 82.3675 15.9999 80.3544 15.9999Z" fill="#6478B9"/>
<path d="M90.0743 31.6H68.2045C66.1915 31.6 64.5596 33.3461 64.5596 35.5C64.5596 37.6539 66.1915 39.4 68.2045 39.4H90.0743C92.0874 39.4 93.7193 37.6539 93.7193 35.5C93.7193 33.3461 92.0874 31.6 90.0743 31.6Z" fill="#6478B9"/>
<path d="M88.8594 3V16C88.8594 18.7583 89.8834 21.4035 91.7063 23.3539C93.5291 25.3043 96.0014 26.4 98.5793 26.4H113.159L88.8594 3Z" fill="#6478B9"/>
<path d="M123.125 129H89V98H128V123.833C128 125.204 127.486 126.518 126.572 127.487C125.658 128.456 124.418 129 123.125 129Z" fill="#F0915A"/>
<path d="M128 98H118V93.5C118 92.3065 118.527 91.1619 119.464 90.318C120.402 89.4741 121.674 89 123 89C124.326 89 125.598 89.4741 126.536 90.318C127.473 91.1619 128 92.3065 128 93.5V98Z" fill="#FAB991"/>
<path d="M118 98H108V93.5C108 92.3065 108.527 91.1619 109.464 90.318C110.402 89.4741 111.674 89 113 89C114.326 89 115.598 89.4741 116.536 90.318C117.473 91.1619 118 92.3065 118 93.5V98Z" fill="#FAB991"/>
<path d="M108 98H99V93.5C99 92.3065 99.4741 91.1619 100.318 90.318C101.162 89.4741 102.307 89 103.5 89C104.693 89 105.838 89.4741 106.682 90.318C107.526 91.1619 108 92.3065 108 93.5V98Z" fill="#FAB991"/>
<path d="M99 98H89V70.0769C89 68.7304 89.5268 67.4391 90.4645 66.487C91.4021 65.5349 92.6739 65 94 65C95.3261 65 96.5979 65.5349 97.5355 66.487C98.4732 67.4391 99 68.7304 99 70.0769V98Z" fill="#FAB991"/>
<path d="M123 139H89V129H123V139Z" fill="#F0915A"/>
<path d="M106 139H89V129H98.7143C100.647 129 102.5 130.054 103.866 131.929C105.232 133.804 106 136.348 106 139Z" fill="#FAB991"/>
<path d="M89 129C86.3478 129 83.8043 127.911 81.9289 125.973C80.0536 124.036 79 121.407 79 118.667V100.583C79 99.8982 79.2634 99.2411 79.7322 98.7566C80.2011 98.2722 80.837 98 81.5 98C83.4891 98 85.3968 98.8165 86.8033 100.27C88.2098 101.723 89 103.695 89 105.75V129Z" fill="#FAB991"/>
<path d="M88.8889 139H123.111C124.408 139 125.651 139.492 126.568 140.367C127.485 141.242 128 142.429 128 143.667V146H84V143.667C84 142.429 84.5151 141.242 85.4319 140.367C86.3488 139.492 87.5923 139 88.8889 139Z" fill="#55525B"/>
<path d="M106 139H123.111C124.408 139 125.651 139.492 126.568 140.367C127.485 141.242 128 142.429 128 143.667V146H106V139Z" fill="#353744"/>
<path d="M93.5 72C94.8807 72 96 70.8807 96 69.5C96 68.1193 94.8807 67 93.5 67C92.1193 67 91 68.1193 91 69.5C91 70.8807 92.1193 72 93.5 72Z" fill="#F0915A"/>
<path d="M79 101C80.5913 101 82.1174 101.738 83.2426 103.05C84.3679 104.363 85 106.144 85 108C85 108.263 84.9557 108.523 84.8695 108.766C84.7833 109.008 84.657 109.229 84.4978 109.414C84.3386 109.6 84.1496 109.747 83.9416 109.848C83.7336 109.948 83.5107 110 83.2855 110H79V101Z" fill="#F0915A"/>
<path d="M45.5 44C53.5081 44 60 37.0604 60 28.5C60 19.9396 53.5081 13 45.5 13C37.4919 13 31 19.9396 31 28.5C31 37.0604 37.4919 44 45.5 44Z" fill="#6478B9"/>
<path d="M45 32C48.3137 32 51 29.3137 51 26C51 22.6863 48.3137 20 45 20C41.6863 20 39 22.6863 39 26C39 29.3137 41.6863 32 45 32Z" fill="#6EA5D7"/>
<path d="M73.3036 86H34.6964C32.655 86 31 87.567 31 89.5C31 91.433 32.655 93 34.6964 93H73.3036C75.3451 93 77 91.433 77 89.5C77 87.567 75.3451 86 73.3036 86Z" fill="#6478B9"/>
<path d="M50 32H40C38.6753 32 37.4048 32.4731 36.4673 33.3154C35.5299 34.1577 35.0022 35.3003 35 36.4925C36.1628 37.8917 37.672 39.0277 39.4079 39.8101C41.1438 40.5926 43.0585 41 45 41C46.9415 41 48.8562 40.5926 50.5921 39.8101C52.328 39.0277 53.8372 37.8917 55 36.4925C54.9978 35.3003 54.4701 34.1577 53.5327 33.3154C52.5952 32.4731 51.3247 32 50 32Z" fill="#6EA5D7"/>
</g>
<defs>
<filter id="filter0_d" x="-6" y="0" width="155.698" height="155" filterUnits="userSpaceOnUse" color-interpolation-filters="sRGB">
<feFlood flood-opacity="0" result="BackgroundImageFix"/>
<feColorMatrix in="SourceAlpha" type="matrix" values="0 0 0 0 0 0 0 0 0 0 0 0 0 0 0 0 0 0 127 0"/>
<feOffset dy="3"/>
<feGaussianBlur stdDeviation="3"/>
<feColorMatrix type="matrix" values="0 0 0 0 0 0 0 0 0 0 0 0 0 0 0 0 0 0 0.3 0"/>
<feBlend mode="normal" in2="BackgroundImageFix" result="effect1_dropShadow"/>
<feBlend mode="normal" in="SourceGraphic" in2="effect1_dropShadow" result="shape"/>
</filter>
</defs>
</svg>
