<svg width="163" height="144" viewBox="0 0 163 144" fill="none" xmlns="http://www.w3.org/2000/svg">
<g clip-path="url(#clip0)">
<g clip-path="url(#clip1)">
<path d="M35.6449 45H23.5804C23.3846 45 23.2256 44.841 23.2256 44.6452V26.5484C23.2256 26.3525 23.3846 26.1935 23.5804 26.1935H35.6449C35.8408 26.1935 35.9998 26.3525 35.9998 26.5484V44.6452C35.9998 44.841 35.8408 45 35.6449 45Z" fill="#D3EEFD"/>
<path d="M34.5804 45H23.2256V36.129H34.5804C34.7763 36.129 34.9353 36.288 34.9353 36.4839V44.6452C34.9353 44.841 34.7763 45 34.5804 45Z" fill="#C9E2F0"/>
<path d="M22.1611 36.4839H34.1685C34.396 36.4839 34.5805 36.6429 34.5805 36.8387V44.6452C34.5805 44.841 34.396 45 34.1685 45H22.1611V36.4839Z" fill="#A2CE6D"/>
<path d="M27.838 42.871C29.0138 42.871 29.9671 41.9178 29.9671 40.7419C29.9671 39.5661 29.0138 38.6129 27.838 38.6129C26.6622 38.6129 25.709 39.5661 25.709 40.7419C25.709 41.9178 26.6622 42.871 27.838 42.871Z" fill="#E8F3DB"/>
<path d="M32.451 43.9355H29.6123V43.2258H32.0962V42.871C32.0962 42.777 32.1334 42.6865 32.2001 42.6201L32.8059 42.0144V39.4695L32.2001 38.8638C32.1334 38.7974 32.0962 38.7069 32.0962 38.6129V38.2581H29.6123V37.5484H32.451C32.6469 37.5484 32.8059 37.7074 32.8059 37.9032V38.466L33.4116 39.0717C33.4783 39.1381 33.5155 39.2286 33.5155 39.3226V42.1613C33.5155 42.2553 33.4783 42.3458 33.4116 42.4122L32.8059 43.0179V43.5807C32.8059 43.7765 32.6469 43.9355 32.451 43.9355Z" fill="#E8F3DB"/>
<path d="M26.0642 37.5484H24.29V38.2581H26.0642V37.5484Z" fill="#E8F3DB"/>
<path d="M26.0642 43.2258H25.3545V43.9355H26.0642V43.2258Z" fill="#E8F3DB"/>
<path d="M33.7932 27.2581H25.4332C25.2093 27.2581 25.0414 27.0533 25.0851 26.8337L25.3111 25.7032C25.3381 25.569 25.4392 25.4626 25.5715 25.4289L26.5963 25.1688C26.6953 25.1436 26.7787 25.0772 26.8252 24.986L27.74 23.1937C27.8006 23.0749 27.9227 23 28.0561 23H31.1883C31.3238 23 31.4473 23.077 31.5069 23.1987L32.3795 24.9807C32.4256 25.0747 32.5108 25.1436 32.6123 25.1688L33.6537 25.4292C33.7868 25.4626 33.8886 25.5694 33.9156 25.7039L34.1416 26.8333C34.1853 27.0533 34.0171 27.2581 33.7932 27.2581Z" fill="#4DBAF8"/>
<path d="M29.9682 25.129V24.0645H29.2585V25.129H28.5488V25.8387H30.6779V25.129H29.9682Z" fill="#D3EEFD"/>
<path d="M33.5161 34V30.4516H32.8065V34H31.7419V29.742H31.0323V34H29.9677V29.0323H29.2581V34H28.1935V29.742H27.4839V34H26.4194V30.4516H25.7097V34H25V34.7097H34.2258V34H33.5161Z" fill="#4DBAF8"/>
<path d="M24.595 40.05L22.7895 36.4839H21.8066V45H22.1537C23.7079 45 24.9729 43.7503 24.992 42.1964L25.0002 41.5496C25.0066 41.0216 24.8664 40.5024 24.595 40.05Z" fill="#99C367"/>
<path d="M21.7986 45H16.8387C15.271 45 14 43.729 14 42.1613V41.5215C14 41.0113 14.137 40.5106 14.3967 40.0716L17.4253 34H21.177L24.2399 40.05C24.5114 40.5024 24.6515 41.0215 24.6452 41.5499L24.637 42.1964C24.6178 43.7503 23.3528 45 21.7986 45Z" fill="#FDCD3B"/>
<path d="M21.0969 33.2904H17.5485L16.8389 31.1613L17.1937 30.0968H19.3227H21.4518L21.8066 31.1613L21.0969 33.2904Z" fill="#FDCD3B"/>
<path d="M20.0327 39.3226H18.6133C18.4178 39.3226 18.2585 39.1633 18.2585 38.9678V38.2581C18.2585 38.0626 18.4178 37.9033 18.6133 37.9033H20.7424V37.1936H19.6779V36.8387H18.9682V37.1936H18.6133C18.0264 37.1936 17.5488 37.6712 17.5488 38.2581V38.9678C17.5488 39.5547 18.0264 40.0323 18.6133 40.0323H20.0327C20.2282 40.0323 20.3875 40.1916 20.3875 40.3871V41.0968C20.3875 41.2923 20.2282 41.4516 20.0327 41.4516H17.9037V42.1613H18.9682V42.5162H19.6779V42.1613H20.0327C20.6196 42.1613 21.0972 41.6837 21.0972 41.0968V40.3871C21.0972 39.8002 20.6196 39.3226 20.0327 39.3226Z" fill="#FFF7E2"/>
<path d="M21.0966 34.3548H17.5482C17.3523 34.3548 17.1934 34.1959 17.1934 34V33.2903C17.1934 33.0945 17.3523 32.9355 17.5482 32.9355H21.0966C21.2925 32.9355 21.4514 33.0945 21.4514 33.2903V34C21.4514 34.1959 21.2925 34.3548 21.0966 34.3548Z" fill="#F95055"/>
</g>
<g clip-path="url(#clip2)">
<path d="M20.7106 87.7106L17.9272 90.8916H0.0332031V76.1245H20.7106V87.7106Z" fill="#99D8AA"/>
<path d="M14.852 93.9551C14.8069 93.9551 14.762 93.9474 14.7192 93.9324L12.2046 93.0421C11.9976 92.9689 11.8891 92.7417 11.9623 92.5346C11.983 92.4763 12.0169 92.4237 12.0614 92.3809L13.7792 90.7254C13.9373 90.573 14.1889 90.5773 14.3414 90.7353C14.3844 90.7798 14.4165 90.8337 14.4349 90.8928L15.2302 93.4378C15.2962 93.6473 15.1797 93.8705 14.9701 93.9363C14.9315 93.9484 14.8913 93.9547 14.8508 93.9547L14.852 93.9551Z" fill="#FDC9A6"/>
<path d="M5.20242 93.6207H0.430695C-0.886955 93.6207 -1.95508 92.9503 -1.95508 91.6325V90.4396H7.58836V91.6325C7.58836 92.9503 6.52024 93.6207 5.20242 93.6207Z" fill="#EA9D2D"/>
<path d="M17.9268 90.8916V87.7106H20.7102L17.9268 90.8916Z" fill="#8DC79D"/>
<path d="M7.98633 83.6796H8.78158V84.475H7.98633V83.6796Z" fill="#85BC94"/>
<path d="M2.81641 83.6796H3.61166V84.475H2.81641V83.6796Z" fill="#85BC94"/>
<path d="M2.81641 78.908H3.61166V79.7033H2.81641V78.908Z" fill="#85BC94"/>
<path d="M2.81641 80.4985H3.61166V81.2938H2.81641V80.4985Z" fill="#85BC94"/>
<path d="M2.81641 82.0891H3.61166V82.8843H2.81641V82.0891Z" fill="#85BC94"/>
<path d="M10.7695 85.6678H11.565V86.4631H10.7695V85.6678Z" fill="#85BC94"/>
<path d="M9.17871 78.908H9.97396V79.7033H9.17871V78.908Z" fill="#85BC94"/>
<path d="M7.58789 78.908H8.38315V79.7033H7.58789V78.908Z" fill="#85BC94"/>
<path d="M5.99707 78.908H6.7925V79.7033H5.99707V78.908Z" fill="#85BC94"/>
<path d="M4.40723 78.908H5.20248V79.7033H4.40723V78.908Z" fill="#85BC94"/>
<path d="M15.541 82.4867H16.3364V83.282H15.541V82.4867Z" fill="#85BC94"/>
<path d="M15.541 84.0772H16.3364V84.8726H15.541V84.0772Z" fill="#85BC94"/>
<path d="M15.541 85.6678H16.3364V86.4631H15.541V85.6678Z" fill="#85BC94"/>
<path d="M13.9502 85.6678H14.7455V86.4631H13.9502V85.6678Z" fill="#85BC94"/>
<path d="M12.3604 85.6678H13.1556V86.4631H12.3604V85.6678Z" fill="#85BC94"/>
<path d="M7.58836 91.2349H-1.95508V88.4513C-1.95508 86.9141 -0.708847 85.6679 0.828499 85.6679H4.80479C6.34213 85.6679 7.58836 86.9141 7.58836 88.4513V91.2349Z" fill="#F3AF3E"/>
<path d="M3.2147 89.2466H2.41945C1.76054 89.2466 1.22656 88.5599 1.22656 87.7129V85.6679H4.40759V87.7129C4.40759 88.5599 3.87362 89.2466 3.2147 89.2466Z" fill="#EA9D2D"/>
<path d="M2.41895 85.6679H3.2142V88.0537H2.41895V85.6679Z" fill="#FBB540"/>
<path d="M12.3372 93.064C12.2291 93.0639 12.1258 93.0198 12.0508 92.9419L7.63709 88.3611C7.02012 87.7357 7.02678 86.7286 7.65218 86.1117C8.27758 85.4947 9.28464 85.5015 9.90161 86.1269C9.91021 86.1357 9.91898 86.1447 9.9274 86.1538L14.3413 90.7346C14.4936 90.8927 14.4891 91.1445 14.331 91.2968L12.6131 92.9526C12.539 93.024 12.44 93.064 12.3372 93.064Z" fill="#F27E55"/>
<path d="M8.47455 89.0565H8.46701C8.36172 89.0544 8.2617 89.0107 8.18853 88.9349L7.637 88.3623C7.02003 87.7369 7.02687 86.7299 7.65227 86.1129C8.27767 85.4959 9.28473 85.5028 9.90152 86.1282C9.9103 86.1369 9.9189 86.1459 9.9275 86.155L10.4794 86.7276C10.6319 86.8857 10.6271 87.1375 10.469 87.2898L8.75093 88.9453C8.6767 89.0167 8.57756 89.0567 8.47455 89.0565Z" fill="#D9D9D9"/>
<path d="M9.56728 90.3664L7.91113 88.6501L10.202 86.4424L11.8578 88.1604L9.56728 90.3664Z" fill="#6FBBC6"/>
<path d="M19.7162 76.1244C19.7153 75.8698 19.6886 75.6159 19.6367 75.3665L21.0114 74.5713L19.8185 72.5035L18.4438 73.3012C18.0619 72.9622 17.6157 72.704 17.1316 72.5421V70.9551H14.7456V72.5421C14.2613 72.7035 13.8149 72.9616 13.4334 73.3012L12.0571 72.5059L10.8643 74.5736L12.2361 75.3657C12.1344 75.867 12.1344 76.3834 12.2361 76.8848L10.8655 77.6753L12.0584 79.7429L13.4346 78.9477C13.8158 79.287 14.2617 79.5452 14.7456 79.7068V81.2938H17.1316V79.7068C17.6159 79.5453 18.0623 79.2872 18.4438 78.9477L19.82 79.7429L21.0129 77.6753L19.6411 76.8832C19.6914 76.6333 19.7167 76.3792 19.7162 76.1244ZM15.9385 78.1126C14.8406 78.1126 13.9504 77.2224 13.9504 76.1244C13.9504 75.0263 14.8406 74.1363 15.9385 74.1363C17.0366 74.1363 17.9268 75.0263 17.9268 76.1244C17.9268 77.2224 17.0366 78.1126 15.9385 78.1126Z" fill="#D9D9D9"/>
<path d="M19.8188 72.5059L18.4438 73.3012C18.0619 72.9622 17.6157 72.704 17.1316 72.5421V70.9551H14.7456V72.5421C14.2613 72.7035 13.8149 72.9616 13.4334 73.3012L12.0571 72.5059L10.8643 74.5736L12.2361 75.3657C12.1856 75.6154 12.1605 75.8696 12.161 76.1244H13.9504C13.9504 75.0263 14.8405 74.1363 15.9385 74.1363C17.0366 74.1363 17.9268 75.0263 17.9268 76.1244H19.7161C19.7153 75.8698 19.6886 75.6159 19.6367 75.3665L21.0113 74.5713L19.8188 72.5059Z" fill="#CDCDCD"/>
</g>
<path d="M153.091 86.8859L146.832 80.3553L151.943 75.022C154.394 72.4641 157.524 70.777 160.914 70.1784L161.852 70.0151C161.905 70.0151 161.957 70.0151 162.009 70.0151C162.53 70.0151 162.948 70.4505 162.948 70.9948C162.948 71.0492 162.948 71.1036 162.948 71.158L162.843 72.192C162.27 75.7294 160.653 78.9948 158.254 81.4982L153.091 86.8859Z" fill="#D5E3EF"/>
<path d="M158.724 77.1988L151.266 84.9811L153.091 86.8858L158.202 81.5525C160.653 78.9947 162.218 75.7839 162.792 72.2464L163 71.2124C163 71.158 163 71.1036 163 71.0491C163 70.777 162.896 70.5593 162.74 70.3961C161.957 72.8995 160.601 75.2396 158.724 77.1988Z" fill="#B0C4D9"/>
<path d="M153.351 92.0559C153.038 91.7294 152.517 91.7294 152.204 92.0559C151.787 92.4913 151.526 93.8519 151.474 93.9063C151.474 93.9607 151.474 93.9607 151.474 93.9607C151.474 93.9607 151.526 94.0152 151.526 93.9607C151.578 93.9607 152.83 93.6886 153.299 93.1988C153.716 92.8723 153.716 92.3825 153.351 92.0559Z" fill="#F79548"/>
<path d="M141.877 80.0832C141.564 79.7566 141.043 79.7566 140.73 80.0832C140.313 80.5185 140.052 81.8246 140.052 81.8791C140.052 81.9335 140.052 81.9335 140.052 81.9335C140.052 81.9335 140.104 81.988 140.104 81.9335C140.156 81.9335 141.408 81.6614 141.877 81.1716C142.242 80.8995 142.242 80.4097 141.877 80.0832Z" fill="#F79548"/>
<path d="M145.58 88.192C144.642 87.2124 143.077 87.2124 142.138 88.192C140.834 89.5526 140.052 93.5253 140 93.6886C140 93.7974 140 93.8519 140.052 93.9063C140.156 93.9607 140.261 93.9607 140.365 93.9607C140.522 93.9063 144.329 93.1444 145.633 91.7295C146.571 90.7498 146.571 89.1716 145.58 88.192Z" fill="#F79548"/>
<path d="M145.424 88.2464C144.955 87.7566 144.173 87.7566 143.703 88.2464C143.025 88.9539 142.66 90.913 142.66 90.9675C142.66 91.0219 142.66 91.0763 142.712 91.0763C142.764 91.1308 142.764 91.1308 142.817 91.1308C142.921 91.1308 144.798 90.6954 145.424 90.0423C145.894 89.5525 145.894 88.7362 145.424 88.2464Z" fill="#FCBB76"/>
<path d="M153.612 89.6069L152.048 87.9743L155.177 84.709V87.9743L153.612 89.6069Z" fill="#99B4CD"/>
<path d="M153.456 87.5933L154.447 86.5593C154.916 86.0695 155.177 85.4165 155.177 84.709L152.048 87.9743L153.612 89.6069L154.134 89.0627L153.456 88.3553C153.247 88.1375 153.247 87.811 153.456 87.5933Z" fill="#6C9ABB"/>
<path d="M154.655 92.8723L152.569 90.6954L156.324 86.777C156.585 86.5049 156.95 86.3417 157.368 86.3417C158.202 86.3417 158.828 87.0491 158.828 87.8655C158.828 88.3009 158.671 88.6818 158.411 88.9539L154.655 92.8723Z" fill="#D5E3EF"/>
<path d="M158.411 87.8655L154.655 91.7838L153.091 90.1512L152.569 90.6954L154.655 92.8722L158.411 88.9539C158.671 88.6818 158.828 88.3008 158.828 87.8654C158.828 87.6477 158.776 87.4845 158.724 87.3212C158.671 87.5389 158.567 87.7022 158.411 87.8655Z" fill="#B0C4D9"/>
<path d="M144.225 85.2532C144.59 84.8722 145.007 84.6001 145.424 84.4913L146.311 84.1647L149.44 87.43L149.127 88.3552C148.971 88.845 148.71 89.2804 148.397 89.6069L144.225 85.2532Z" fill="#99B4CD"/>
<path d="M146.311 84.1648L145.528 84.4369L147.249 86.2328C147.667 86.6682 147.771 87.2668 147.614 87.811C147.562 88.0287 147.458 88.2464 147.302 88.4641L148.397 89.6069C148.762 89.226 149.023 88.7906 149.127 88.3552L149.44 87.43L146.311 84.1648Z" fill="#6C9ABB"/>
<path d="M144.225 79.8111L145.789 81.4437L148.918 78.1784H145.789L144.225 79.8111Z" fill="#99B4CD"/>
<path d="M145.633 80.192C145.424 79.9743 145.424 79.6478 145.633 79.4301L146.832 78.1783H145.789L144.225 79.811L145.789 81.4436C146.102 81.1171 146.102 80.6817 145.789 80.3552L145.633 80.192Z" fill="#6C9ABB"/>
<path d="M141.095 78.7226L143.181 80.8995L146.936 76.9811C147.197 76.709 147.353 76.328 147.353 75.8927C147.353 75.0763 146.675 74.3688 145.893 74.3688C145.476 74.3688 145.111 74.5321 144.85 74.8042L141.095 78.7226Z" fill="#D5E3EF"/>
<path d="M154.655 80.8994C155.808 80.8994 156.742 79.9248 156.742 78.7226C156.742 77.5203 155.808 76.5457 154.655 76.5457C153.503 76.5457 152.569 77.5203 152.569 78.7226C152.569 79.9248 153.503 80.8994 154.655 80.8994Z" fill="#70B7E5"/>
<path d="M154.656 81.4437C153.195 81.4437 152.048 80.2464 152.048 78.7226C152.048 77.1988 153.195 76.0015 154.656 76.0015C156.116 76.0015 157.263 77.1988 157.263 78.7226C157.263 80.2464 156.116 81.4437 154.656 81.4437ZM154.656 77.09C153.769 77.09 153.091 77.7974 153.091 78.7226C153.091 79.6478 153.769 80.3553 154.656 80.3553C155.542 80.3553 156.22 79.6478 156.22 78.7226C156.22 77.7974 155.542 77.09 154.656 77.09Z" fill="#F04B4D"/>
<path d="M153.821 80.1376C153.665 79.8655 153.612 79.5934 153.612 79.2668C153.612 78.3416 154.29 77.6342 155.177 77.6342C155.49 77.6342 155.751 77.743 156.011 77.8519C155.699 77.4165 155.229 77.09 154.655 77.09C153.769 77.09 153.091 77.7974 153.091 78.7226C153.091 79.3212 153.404 79.811 153.821 80.1376Z" fill="#4C9CD6"/>
<path d="M153.09 86.8859L151.369 88.6818C151.16 88.8995 150.848 88.8995 150.639 88.6818L145.111 82.913C144.902 82.6953 144.902 82.3688 145.111 82.1511L146.832 80.3552L153.09 86.8859Z" fill="#F04D4E"/>
<path d="M149.232 85.5797L145.946 82.1511C145.737 81.9334 145.372 81.9334 145.112 82.1511C144.903 82.3688 144.903 82.6953 145.112 82.913L150.64 88.6817C150.849 88.8994 151.161 88.8994 151.37 88.6817L153.091 86.8858L151.266 84.9811L150.692 85.5797C150.275 86.0151 149.649 86.0151 149.232 85.5797Z" fill="#DB343F"/>
<path d="M154.689 92.8916L156.238 91.2754L154.136 89.0819L152.587 90.6982L154.689 92.8916Z" fill="#F04D4E"/>
<path d="M155.699 90.6954L154.968 91.4573C154.656 91.7838 154.238 91.7838 153.925 91.4573L152.882 90.3688L152.569 90.6954L154.655 92.8722L156.22 91.2396L155.699 90.6954Z" fill="#DB343F"/>
<path d="M148.919 80.0831C148.867 80.0831 148.762 80.0831 148.71 80.0287C148.606 79.9199 148.606 79.7566 148.71 79.6478L151.318 76.9267C151.422 76.8178 151.579 76.8178 151.683 76.9267C151.787 77.0355 151.787 77.1988 151.683 77.3076L149.075 80.0287C149.075 80.0831 148.971 80.0831 148.919 80.0831Z" fill="#ECF0F9"/>
<path d="M152.569 76.2736C152.517 76.2736 152.413 76.2736 152.36 76.2192C152.256 76.1103 152.256 75.9471 152.36 75.8382L153.404 74.7498C153.508 74.6409 153.664 74.6409 153.769 74.7498C153.873 74.8586 153.873 75.0219 153.769 75.1307L152.726 76.2192C152.726 76.2736 152.621 76.2736 152.569 76.2736Z" fill="#ECF0F9"/>
<path d="M162.061 70.0151C162.009 70.0151 161.957 70.0151 161.905 70.0151L160.914 70.1784C159.297 70.4505 157.785 70.9948 156.324 71.7566C156.324 71.7566 157.263 72.7362 158.828 74.3689C160.392 76.0016 161.331 76.9811 161.331 76.9811C162.061 75.4573 162.531 73.8791 162.844 72.192L163 71.2125C163 71.158 163 71.1036 163 71.0492C163 70.4505 162.583 70.0151 162.061 70.0151Z" fill="#F04D4E"/>
<path d="M158.307 72.2464C158.202 72.2464 158.098 72.192 158.046 72.0831C157.994 71.9199 158.046 71.811 158.202 71.7566C159.245 71.3212 160.289 71.0491 161.384 70.8314C161.54 70.8314 161.645 70.8859 161.697 71.0491C161.697 71.2124 161.645 71.3212 161.488 71.3757C160.445 71.5389 159.402 71.8655 158.411 72.2464C158.359 72.2464 158.359 72.2464 158.307 72.2464Z" fill="#F26A56"/>
<path d="M154.656 76.056V76.0015C153.195 76.0015 152.048 77.1988 152.048 78.7226H152.1C152.361 78.7226 152.569 78.5594 152.622 78.2873C152.674 77.9063 152.882 77.5798 153.091 77.3077C153.404 76.9811 153.769 76.709 154.238 76.6002C154.499 76.5458 154.656 76.3281 154.656 76.056Z" fill="#F26A56"/>
<path d="M154.655 81.3893V81.4437C156.116 81.4437 157.263 80.2464 157.263 78.7226H157.211C156.95 78.7226 156.741 78.8859 156.689 79.158C156.637 79.5389 156.429 79.8654 156.22 80.1375C155.907 80.4641 155.542 80.7362 155.073 80.845C154.812 80.8995 154.655 81.1172 154.655 81.3893Z" fill="#DB343F"/>
<path d="M155.698 88.7906C155.646 88.7906 155.542 88.7906 155.489 88.7362C155.385 88.6274 155.385 88.4641 155.489 88.3553L156.532 87.2668C156.637 87.158 156.793 87.158 156.898 87.2668C157.002 87.3756 157.002 87.5389 156.898 87.6477L155.854 88.7362C155.854 88.7906 155.75 88.7906 155.698 88.7906Z" fill="#ECF0F9"/>
<path d="M146.937 75.8926L143.182 79.811L141.617 78.1784L141.096 78.7226L143.182 80.8994L146.937 76.981C147.198 76.7089 147.354 76.328 147.354 75.8926C147.354 75.6749 147.302 75.5117 147.25 75.3484C147.198 75.5661 147.093 75.7294 146.937 75.8926Z" fill="#B0C4D9"/>
<path d="M144.224 76.8178C144.172 76.8178 144.068 76.8178 144.016 76.7634C143.911 76.6546 143.911 76.4913 144.016 76.3825L145.059 75.294C145.163 75.1852 145.32 75.1852 145.424 75.294C145.528 75.4029 145.528 75.5661 145.424 75.675L144.381 76.7634C144.381 76.8178 144.276 76.8178 144.224 76.8178Z" fill="#ECF0F9"/>
<path d="M143.214 80.9189L144.763 79.3027L142.661 77.1092L141.112 78.7254L143.214 80.9189Z" fill="#F04D4E"/>
<path d="M144.224 78.7226L143.494 79.4845C143.181 79.811 142.764 79.811 142.451 79.4845L141.408 78.3961L141.095 78.7226L143.181 80.8994L144.745 79.2668L144.224 78.7226Z" fill="#DB343F"/>
<path d="M160.026 75.6206L161.33 76.9811C162.06 75.4573 162.53 73.8791 162.843 72.192L162.999 71.2125C162.999 71.158 162.999 71.1036 162.999 71.0492C162.999 70.7771 162.895 70.5594 162.738 70.3961C162.165 72.2464 161.226 74.0423 160.026 75.6206Z" fill="#DB343F"/>
<path d="M80.5 23.4844C86.5784 23.4844 91.5059 18.3426 91.5059 12C91.5059 5.65735 86.5784 0.515625 80.5 0.515625C74.4216 0.515625 69.4941 5.65735 69.4941 12C69.4941 18.3426 74.4216 23.4844 80.5 23.4844Z" fill="#FFAF10"/>
<path d="M82.9258 18.218H78.0742V20.1605H82.9258V18.218Z" fill="#445EA0"/>
<path d="M78.9656 18.218H78.0742V20.1605H78.9656V18.218Z" fill="#293D7C"/>
<path d="M85.1945 21.2851C85.1945 21.414 85.0934 21.5195 84.9699 21.5195H76.0303C75.9067 21.5195 75.8057 21.414 75.8057 21.2851V20.3476C75.8057 20.2187 75.9067 20.1132 76.0303 20.1132H84.9699C85.0934 20.1132 85.1945 20.2187 85.1945 20.3476V21.2851Z" fill="#293D7C"/>
<path d="M77.5884 21.2852V20.3477C77.5884 20.2188 77.6895 20.1133 77.813 20.1133H76.0303C75.9067 20.1133 75.8057 20.2188 75.8057 20.3477V21.2852C75.8057 21.4141 75.9067 21.5195 76.0303 21.5195H77.813C77.6895 21.5195 77.5884 21.4141 77.5884 21.2852Z" fill="#1A2B63"/>
<path d="M69 17.7959C69 18.0537 69.2021 18.2647 69.4492 18.2647H91.5508C91.7979 18.2647 92 18.0537 92 17.7959V15.7677H69V17.7959Z" fill="#293D7C"/>
<path d="M69.8914 17.7959V15.7677H69V17.7959C69 18.0537 69.2021 18.2647 69.4492 18.2647H70.3406C70.0935 18.2647 69.8914 18.0537 69.8914 17.7959Z" fill="#1A2B63"/>
<path d="M91.4471 2.19922H69.5529C69.2489 2.19922 69 2.45881 69 2.77611V15.8146H92V2.77611C92 2.45881 91.7511 2.19922 91.4471 2.19922Z" fill="#445EA0"/>
<path d="M70.1982 14.734C70.0731 14.734 69.9707 14.6272 69.9707 14.4966V3.51716C69.9707 3.38661 70.0731 3.27979 70.1982 3.27979H90.8012C90.9263 3.27979 91.0287 3.38661 91.0287 3.51716V14.4966C91.0287 14.6272 90.9263 14.734 90.8012 14.734H70.1982Z" fill="#5DC1D8"/>
<path d="M70.9417 14.4966V3.51716C70.9417 3.38661 71.0441 3.27979 71.1692 3.27979H70.1982C70.0731 3.27979 69.9707 3.38661 69.9707 3.51716V14.4966C69.9707 14.6272 70.0731 14.734 70.1982 14.734H71.1692C71.0441 14.734 70.9417 14.6272 70.9417 14.4966Z" fill="#28A5A5"/>
<path d="M80.8066 8.38862C80.8066 8.46596 80.746 8.52924 80.6718 8.52924H79.9307C79.8565 8.52924 79.7959 8.46596 79.7959 8.38862V4.88513C79.7959 4.80779 79.8565 4.74451 79.9307 4.74451H80.6718C80.746 4.74451 80.8066 4.80779 80.8066 4.88513V8.38862Z" fill="white"/>
<path d="M82.1542 8.38864C82.1542 8.46598 82.0936 8.52926 82.0194 8.52926H81.2783C81.2042 8.52926 81.1436 8.46598 81.1436 8.38864V6.16699C81.1436 6.08965 81.2042 6.02637 81.2783 6.02637H82.0194C82.0936 6.02637 82.1542 6.08965 82.1542 6.16699V8.38864Z" fill="white"/>
<path d="M83.5019 8.38862C83.5019 8.46597 83.4413 8.52925 83.3671 8.52925H82.626C82.5519 8.52925 82.4912 8.46597 82.4912 8.38862V6.83856C82.4912 6.76122 82.5519 6.69794 82.626 6.69794H83.3671C83.4413 6.69794 83.5019 6.76122 83.5019 6.83856V8.38862Z" fill="white"/>
<path d="M84.8496 8.38864C84.8496 8.46598 84.789 8.52927 84.7148 8.52927H83.9736C83.8995 8.52927 83.8389 8.46598 83.8389 8.38864V5.55664C83.8389 5.4793 83.8995 5.41602 83.9736 5.41602H84.7148C84.789 5.41602 84.8496 5.4793 84.8496 5.55664V8.38864Z" fill="white"/>
<path d="M86.1972 8.38862C86.1972 8.46596 86.1366 8.52924 86.0625 8.52924H85.3213C85.2472 8.52924 85.1865 8.46596 85.1865 8.38862V6.47223C85.1865 6.39489 85.2472 6.3316 85.3213 6.3316H86.0625C86.1366 6.3316 86.1972 6.39489 86.1972 6.47223V8.38862Z" fill="white"/>
<path d="M85.1865 12.9003C85.1865 12.9777 85.2472 13.041 85.3213 13.041H86.0625C86.1366 13.041 86.1972 12.9777 86.1972 12.9003V9.39685C86.1972 9.31951 86.1366 9.25623 86.0625 9.25623H85.3213C85.2472 9.25623 85.1865 9.31951 85.1865 9.39685V12.9003Z" fill="#FFAF10"/>
<path d="M83.8389 12.9004C83.8389 12.9777 83.8995 13.041 83.9736 13.041H84.7148C84.7889 13.041 84.8495 12.9777 84.8495 12.9004V10.6788C84.8495 10.6014 84.7889 10.5381 84.7148 10.5381H83.9736C83.8995 10.5381 83.8389 10.6014 83.8389 10.6788V12.9004Z" fill="#FFAF10"/>
<path d="M82.4912 12.9003C82.4912 12.9777 82.5519 13.041 82.626 13.041H83.3671C83.4413 13.041 83.5019 12.9777 83.5019 12.9003V11.3503C83.5019 11.2729 83.4413 11.2097 83.3671 11.2097H82.626C82.5519 11.2097 82.4912 11.2729 82.4912 11.3503V12.9003Z" fill="#FFAF10"/>
<path d="M81.1436 12.9004C81.1436 12.9777 81.2042 13.041 81.2783 13.041H82.0195C82.0937 13.041 82.1543 12.9777 82.1543 12.9004V10.0684C82.1543 9.99102 82.0937 9.92773 82.0195 9.92773H81.2783C81.2042 9.92773 81.1436 9.99102 81.1436 10.0684V12.9004Z" fill="#FFAF10"/>
<path d="M79.7959 12.9003C79.7959 12.9777 79.8565 13.041 79.9307 13.041H80.6718C80.746 13.041 80.8066 12.9777 80.8066 12.9003V10.984C80.8066 10.9067 80.746 10.8434 80.6718 10.8434H79.9307C79.8565 10.8434 79.7959 10.9067 79.7959 10.984V12.9003Z" fill="#FFAF10"/>
<path d="M89.5095 6.19305H87.2354C87.0492 6.19305 86.8984 6.03569 86.8984 5.84149C86.8984 5.64729 87.0492 5.48993 87.2354 5.48993H89.5095C89.6956 5.48993 89.8464 5.64729 89.8464 5.84149C89.8464 6.03569 89.6956 6.19305 89.5095 6.19305Z" fill="#91E0E8"/>
<path d="M89.5095 7.19202H87.2354C87.0492 7.19202 86.8984 7.03466 86.8984 6.84045C86.8984 6.64625 87.0492 6.48889 87.2354 6.48889H89.5095C89.6956 6.48889 89.8464 6.64625 89.8464 6.84045C89.8464 7.03461 89.6956 7.19202 89.5095 7.19202Z" fill="#91E0E8"/>
<path d="M89.5095 8.19086H87.2354C87.0492 8.19086 86.8984 8.0335 86.8984 7.83929C86.8984 7.64509 87.0492 7.48773 87.2354 7.48773H89.5095C89.6956 7.48773 89.8464 7.64509 89.8464 7.83929C89.8464 8.0335 89.6956 8.19086 89.5095 8.19086Z" fill="#91E0E8"/>
<path d="M88.6504 9.18976H87.2354C87.0492 9.18976 86.8984 9.0324 86.8984 8.8382C86.8984 8.64399 87.0492 8.48663 87.2354 8.48663H88.6504C88.8365 8.48663 88.9873 8.64399 88.9873 8.8382C88.9873 9.03235 88.8365 9.18976 88.6504 9.18976Z" fill="#91E0E8"/>
<path d="M89.5095 11.0358H87.2354C87.0492 11.0358 86.8984 10.8784 86.8984 10.6842C86.8984 10.49 87.0492 10.3326 87.2354 10.3326H89.5095C89.6956 10.3326 89.8464 10.49 89.8464 10.6842C89.8464 10.8784 89.6956 11.0358 89.5095 11.0358Z" fill="#91E0E8"/>
<path d="M89.5095 12.0346H87.2354C87.0492 12.0346 86.8984 11.8772 86.8984 11.683C86.8984 11.4888 87.0492 11.3315 87.2354 11.3315H89.5095C89.6956 11.3315 89.8464 11.4888 89.8464 11.683C89.8464 11.8772 89.6956 12.0346 89.5095 12.0346Z" fill="#91E0E8"/>
<path d="M88.6504 13.0336H87.2354C87.0492 13.0336 86.8984 12.8762 86.8984 12.682C86.8984 12.4879 87.0492 12.3304 87.2354 12.3304H88.6504C88.8365 12.3304 88.9873 12.4879 88.9873 12.682C88.9873 12.8762 88.8365 13.0336 88.6504 13.0336Z" fill="#91E0E8"/>
<path d="M90.8698 17.289C90.8698 17.3664 90.8091 17.4297 90.735 17.4297H89.9414C89.8673 17.4297 89.8066 17.3664 89.8066 17.289V16.4609C89.8066 16.3836 89.8673 16.3203 89.9414 16.3203H90.735C90.8091 16.3203 90.8698 16.3836 90.8698 16.4609V17.289Z" fill="#91E0E8"/>
<path d="M75.5117 8.75636C75.4373 8.75636 75.377 8.69341 75.377 8.61574V4.97125C75.377 4.9331 75.3918 4.89649 75.4182 4.87C75.4433 4.84469 75.4769 4.83063 75.5117 4.83063C75.5133 4.83063 75.515 4.83067 75.5167 4.83072C77.476 4.90567 79.0671 6.56599 79.139 8.61058C79.1403 8.64874 79.1268 8.68582 79.1013 8.71333C79.0759 8.74085 79.0409 8.75636 79.0043 8.75636H75.5117Z" fill="#FFAF10"/>
<path d="M75.0684 13.0082C72.9925 13.0082 71.3037 11.2459 71.3037 9.07985C71.3037 8.05755 71.6795 7.08874 72.3619 6.35182C73.0425 5.61677 73.9541 5.19147 74.9287 5.15421C74.9304 5.15416 74.9321 5.15411 74.9337 5.15411C74.9685 5.15411 75.0021 5.16818 75.0272 5.19349C75.0536 5.21997 75.0684 5.25658 75.0684 5.29474V9.07985H78.6958C78.7324 9.07985 78.7674 9.09536 78.7928 9.12288C78.8182 9.1504 78.8318 9.18747 78.8305 9.22563C78.7947 10.2426 78.3872 11.1938 77.6828 11.9041C76.9766 12.6161 76.0481 13.0082 75.0684 13.0082Z" fill="#91E0E8"/>
<path d="M75.7118 12.3359C73.6359 12.3359 71.947 10.5736 71.947 8.40752C71.947 7.52177 72.2296 6.67638 72.7489 5.98694C72.6128 6.09845 72.4831 6.21991 72.3609 6.35177C71.6786 7.08869 71.3027 8.05755 71.3027 9.0798C71.3027 11.2459 72.9916 13.0082 75.0675 13.0082C76.0472 13.0082 76.9756 12.616 77.6818 11.904C77.8081 11.7766 77.9245 11.6411 78.0314 11.4992C77.3708 12.041 76.5607 12.3359 75.7118 12.3359Z" fill="#91E0E8"/>
<path d="M80.3339 73.7429C71.9264 73.7429 65.1113 80.0579 65.1113 87.8481V93.6859C66.1287 92.812 67.576 92.3372 68.9889 92.512V91.8091C68.9889 91.2505 69.5039 90.809 70.1008 90.851C75.9864 91.2428 81.9761 89.5098 86.5047 86.7684C86.9275 86.5124 87.4874 86.5761 87.831 86.9182C91.7029 90.7745 91.6795 90.6253 91.6795 91.1288V92.509C93.228 92.294 94.6018 92.7374 95.5564 93.5596V87.8483C95.5562 80.0579 88.7413 73.7429 80.3339 73.7429Z" fill="#3E4B5A"/>
<path d="M71.6894 87.8483C71.6894 81.1048 76.7973 75.4703 83.6228 74.0769C82.5633 73.8605 81.4637 73.7431 80.3339 73.7431C71.9266 73.7431 65.1113 80.0581 65.1113 87.8483V93.6859C66.1287 92.812 67.576 92.3372 68.9889 92.512V91.8091C68.9889 91.2505 69.5037 90.809 70.1008 90.851C70.6299 90.8863 71.1598 90.9037 71.6894 90.9053V87.8483Z" fill="#303F49"/>
<path d="M78.5955 112.685C79.2094 112.465 79.6141 111.917 79.6141 111.307V109.311C77.5182 109.18 75.6612 108.586 74.1079 107.667V112.072C74.1079 112.466 73.9374 112.833 73.6523 113.103L78.5955 112.685Z" fill="#FFBEAB"/>
<path d="M72.0457 116.037C76.8977 120.814 83.7568 120.814 88.6088 116.037L90.3315 114.341L87.7977 113.432C87.2144 113.223 86.8297 112.703 86.8297 112.123V107.511C85.0278 108.662 82.8461 109.339 80.4962 109.339C78.0369 109.339 75.8756 108.713 74.108 107.667V112.072C74.108 112.683 73.7033 113.23 73.0893 113.451L70.3994 114.417L72.0457 116.037Z" fill="#FFBEAB"/>
<path d="M79.6142 109.311C77.5183 109.18 75.6612 108.586 74.108 107.667V112.072C74.108 112.682 73.7033 113.23 73.0893 113.451L70.3994 114.417C72.3165 116.304 74.895 119.28 79.6142 119.594V109.311Z" fill="#F7AF9F"/>
<path d="M91.4531 91.8794V99.6062C91.4531 99.69 91.4484 99.7727 91.4463 99.8561C94.3972 100.27 96.935 98.2944 96.935 95.868C96.9348 93.4368 94.3953 91.4708 91.4531 91.8794Z" fill="#FFBEAB"/>
<path d="M69.2163 91.8823C66.6471 91.5643 63.7344 93.3914 63.7344 95.868C63.7344 98.2912 66.2669 100.271 69.2229 99.8559C69.2135 99.4929 69.2163 100.656 69.2163 91.8823Z" fill="#FFBEAB"/>
<path d="M94.9862 92.6011C94.0195 91.9959 92.7786 91.6951 91.4531 91.8794V99.6062C91.4531 99.6898 91.4484 99.7727 91.4463 99.8561C92.7758 100.043 94.0189 99.7411 94.9862 99.1349V92.6011Z" fill="#F7AF9F"/>
<path d="M69.2163 99.1353C68.0358 98.3956 67.2675 97.2001 67.2675 95.868C67.2675 94.5635 68.0761 93.4399 69.2163 92.7144V91.8823C66.6471 91.5643 63.7344 93.3914 63.7344 95.868C63.7344 98.2912 66.2669 100.271 69.2229 99.8559C69.2155 99.5742 69.2163 99.85 69.2163 99.1353Z" fill="#F7AF9F"/>
<path d="M87.8314 86.2887C87.4878 85.9464 86.9279 85.8829 86.5051 86.139C81.9762 88.8803 75.9865 90.6131 70.1012 90.2213C69.5042 90.1795 68.9893 90.6208 68.9893 91.1794V99.606C68.9893 105.022 73.569 109.968 80.4964 109.968C86.663 109.968 91.6798 105.32 91.6798 99.606V90.4991C91.6798 89.9957 91.703 90.1448 87.8314 86.2887Z" fill="#FFCDBF"/>
<path d="M75.5674 99.6062V90.0048C73.7665 90.2594 71.9288 90.3431 70.1012 90.2214C69.5042 90.1795 68.9893 90.6208 68.9893 91.1797V99.6062C68.9893 105.022 73.569 109.968 80.4964 109.968C81.6024 109.968 82.6702 109.817 83.6798 109.538C78.6915 108.227 75.5674 104.078 75.5674 99.6062Z" fill="#FFBEAB"/>
<path d="M103.656 119.123L89.9964 114.221L88.2362 115.954C83.606 120.513 77.0607 120.513 72.4306 115.954L70.7432 114.293L57.2979 119.123C57.2979 119.123 51.0742 121.494 51.0742 128.068V142.658C51.0742 143.399 51.7225 144 52.5219 144H108.445C109.237 144 109.88 143.404 109.88 142.67V128.068C109.88 121.494 103.656 119.123 103.656 119.123Z" fill="#FECA57"/>
<path d="M57.5542 125.427C57.5542 121.135 60.2057 118.636 62.0474 117.417L57.2979 119.123C57.2979 119.123 51.0742 121.494 51.0742 128.068V142.658C51.0742 143.399 51.7225 144 52.5219 144H57.5542V125.427Z" fill="#F4B537"/>
<path d="M100.731 144V130.328C100.731 129.486 99.9944 128.804 99.086 128.804C98.1776 128.804 97.4414 129.486 97.4414 130.328V144H100.731Z" fill="#F4B537"/>
<path d="M63.1095 144V130.328C63.1095 129.486 62.3731 128.804 61.4649 128.804C60.5567 128.804 59.8203 129.486 59.8203 130.328V144H63.1095Z" fill="#F4B537"/>
<path d="M56.3583 86.3501H40.4901C40.2576 86.3501 40.0692 86.1755 40.0692 85.9601V83.9713C40.0692 83.5467 39.6753 83.2708 39.3405 83.4605L31.309 88.0148C30.897 88.2483 30.897 88.8026 31.309 89.0362L39.3407 93.5902C39.6753 93.78 40.0694 93.504 40.0694 93.0795V91.0907C40.0694 90.8753 40.2578 90.7007 40.4903 90.7007H56.4364C57.7476 90.7007 58.808 89.7045 58.7838 88.4845C58.7599 87.2871 57.651 86.3501 56.3583 86.3501Z" fill="#338DEF"/>
<path d="M128.954 88.0148L120.922 83.4608C120.587 83.271 120.193 83.547 120.193 83.9715V85.9603C120.193 86.1757 120.005 86.3503 119.772 86.3503H103.904C102.612 86.3503 101.503 87.2873 101.479 88.4847C101.455 89.7048 102.515 90.701 103.826 90.701H119.772C120.005 90.701 120.193 90.8755 120.193 91.0909V93.0798C120.193 93.5043 120.587 93.7804 120.922 93.5905L128.954 89.0364C129.365 88.8027 129.365 88.2484 128.954 88.0148Z" fill="#338DEF"/>
<path d="M80.6826 43.2863C80.4305 42.9046 79.8323 42.9046 79.5802 43.2863L74.6654 50.7283C74.4606 51.0384 74.7585 51.4035 75.2166 51.4035H77.363C77.5955 51.4035 77.7839 51.5781 77.7839 51.7935V66.4969C77.7839 67.6947 78.7951 68.7221 80.0873 68.7442C81.4041 68.7666 82.4792 67.7841 82.4792 66.5691V51.7935C82.4792 51.5781 82.6676 51.4035 82.9 51.4035H85.0464C85.5046 51.4035 85.8024 51.0386 85.5976 50.7283L80.6826 43.2863Z" fill="#338DEF"/>
<path d="M110.417 64.0908L111.934 65.4971C112.258 65.7973 112.747 65.7344 112.839 65.3809L115.043 56.8983C115.156 56.4634 114.733 56.0714 114.264 56.1761L105.109 58.2182C104.728 58.3032 104.66 58.7567 104.984 59.0568L106.502 60.4631C106.666 60.6154 106.666 60.8623 106.502 61.0146L95.281 71.4116C94.3671 72.2585 94.2979 73.6476 95.195 74.5098C96.1089 75.3885 97.619 75.3981 98.5461 74.539L109.822 64.091C109.986 63.9385 110.252 63.9385 110.417 64.0908Z" fill="#338DEF"/>
<path d="M53.7615 61.0143C53.5971 60.862 53.5971 60.615 53.7615 60.4627L55.2792 59.0564C55.6032 58.7564 55.5353 58.3031 55.1536 58.2178L45.9991 56.1758C45.5296 56.071 45.1066 56.463 45.2197 56.898L47.4235 65.3805C47.5153 65.734 48.0047 65.7969 48.3285 65.4967L49.8462 64.0904C50.0106 63.9381 50.2771 63.9381 50.4415 64.0904L61.717 74.5385C62.6441 75.3975 64.1542 75.3879 65.0681 74.5093C65.965 73.647 65.896 72.2579 64.9821 71.411L53.7615 61.0143Z" fill="#338DEF"/>
<path d="M34.3354 89.0362C33.9235 88.8027 33.9235 88.2484 34.3354 88.0148L40.0694 84.7635V83.9715C40.0694 83.547 39.6756 83.271 39.3407 83.4608L31.309 88.0148C30.897 88.2484 30.897 88.8027 31.309 89.0362L39.3407 93.5903C39.6753 93.78 40.0694 93.5041 40.0694 93.0796V92.2875L34.3354 89.0362Z" fill="#1C78D3"/>
<path d="M123.22 85.9601V84.7635L120.922 83.4608C120.587 83.271 120.193 83.547 120.193 83.9715V85.9603C120.193 86.1757 120.005 86.3503 119.772 86.3503H122.799C123.031 86.3501 123.22 86.1755 123.22 85.9601Z" fill="#1C78D3"/>
<path d="M104.505 88.4845C104.529 87.2871 105.638 86.3501 106.93 86.3501H103.904C102.612 86.3501 101.503 87.2871 101.479 88.4845C101.455 89.7046 102.515 90.7007 103.826 90.7007H106.852C105.541 90.7009 104.481 89.7046 104.505 88.4845Z" fill="#1C78D3"/>
<path d="M123.22 91.0908C123.22 90.8754 123.031 90.7008 122.799 90.7008H119.772C120.005 90.7008 120.193 90.8754 120.193 91.0908V93.0796C120.193 93.5041 120.587 93.7803 120.922 93.5903L123.22 92.2876V91.0908H123.22Z" fill="#1C78D3"/>
<path d="M80.8101 66.4969V51.7935C80.8101 51.5781 80.6217 51.4035 80.3892 51.4035H78.2429C77.7847 51.4035 77.4869 51.0386 77.6917 50.7283L81.6446 44.7429L80.6826 43.2863C80.4305 42.9046 79.8323 42.9046 79.5802 43.2863L74.6654 50.7283C74.4606 51.0384 74.7585 51.4035 75.2166 51.4035H77.363C77.5955 51.4035 77.7839 51.5781 77.7839 51.7935V66.4969C77.7839 67.6947 78.7951 68.7221 80.0873 68.7442C80.6875 68.7544 81.2359 68.5544 81.6568 68.2202C81.1373 67.8028 80.8101 67.1777 80.8101 66.4969Z" fill="#1C78D3"/>
<path d="M97.8138 72.7065L109.034 62.3095C109.199 62.1573 109.199 61.9103 109.034 61.758L107.517 60.3517C107.193 60.0517 107.261 59.5983 107.642 59.5131L114.777 57.9216L115.043 56.8982C115.156 56.4632 114.733 56.0713 114.264 56.176L105.109 58.2181C104.728 58.3031 104.66 58.7566 104.984 59.0567L106.502 60.463C106.666 60.6152 106.666 60.8622 106.502 61.0145L95.281 71.4115C94.3671 72.2583 94.2979 73.6475 95.195 74.5097C95.7528 75.0461 96.5326 75.2567 97.2664 75.1457C96.9083 74.3371 97.1078 73.3605 97.8138 72.7065Z" fill="#1C78D3"/>
<path d="M49.2984 63.8062L47.3971 56.4879L45.9991 56.176C45.5296 56.0713 45.1066 56.4632 45.2197 56.8982L47.4235 65.3807C47.5153 65.7342 48.0047 65.7972 48.3285 65.4969L49.8324 64.1035C49.5893 64.1415 49.3585 64.0376 49.2984 63.8062Z" fill="#1C78D3"/>
<path d="M63.5917 72.9641L52.3161 62.516C52.1518 62.3637 51.8853 62.3637 51.7209 62.516L50.2032 63.9223C50.1798 63.944 50.154 63.9598 50.1289 63.9777C50.2413 63.9742 50.355 64.0111 50.4408 64.0908L61.7163 74.5388C62.6435 75.3979 64.1535 75.3883 65.0674 74.5096C65.3502 74.2378 65.5364 73.9135 65.6312 73.5705C64.9112 73.679 64.1471 73.4787 63.5917 72.9641Z" fill="#1C78D3"/>
<g clip-path="url(#clip3)">
<path d="M134.039 49.2093C134.739 49.2093 135.327 48.7495 135.49 48.1285C134.509 47.3158 133.889 46.116 133.889 44.7776C133.889 43.4187 134.528 42.203 135.535 41.3901V35.7579C135.535 34.9677 134.865 34.3271 134.039 34.3271H124.127C123.301 34.3271 122.631 34.9677 122.631 35.7579V47.7786C122.631 48.5688 123.301 49.2093 124.127 49.2093" fill="#5B9ED6"/>
<path d="M134.039 34.3271H132.931C133.757 34.3271 134.427 34.9677 134.427 35.7579V40.6684C134.427 40.8916 134.344 41.1071 134.193 41.2777C133.737 41.7928 133.38 42.3903 133.149 43.0438C132.912 43.5763 132.781 44.1621 132.781 44.7775C132.781 45.3958 132.913 45.9844 133.153 46.519C133.154 46.5236 133.156 46.5281 133.157 46.5326C133.377 47.1469 132.907 47.7869 132.228 47.7869H124.127C123.301 47.7869 122.631 47.1463 122.631 46.356V47.7786C122.631 48.5688 123.301 49.2093 124.127 49.2093H134.039C134.525 49.2093 134.956 48.9877 135.23 48.6445C135.231 48.6425 135.233 48.6404 135.235 48.6383C135.245 48.6243 135.256 48.6101 135.267 48.5956C135.27 48.5918 135.272 48.5879 135.275 48.584C135.284 48.5713 135.293 48.5582 135.302 48.5449C135.305 48.5401 135.309 48.535 135.312 48.5302C135.32 48.5179 135.327 48.5055 135.335 48.4929C135.338 48.4872 135.342 48.4813 135.345 48.4756C135.352 48.4637 135.359 48.4516 135.366 48.4395C135.369 48.4332 135.373 48.4266 135.376 48.4201C135.382 48.4083 135.388 48.3966 135.394 48.3846C135.397 48.3776 135.401 48.3707 135.404 48.3638C135.41 48.3519 135.415 48.34 135.42 48.3281C135.423 48.3209 135.427 48.3136 135.43 48.3064C135.435 48.2942 135.439 48.2819 135.444 48.2697C135.447 48.2625 135.45 48.2552 135.452 48.248C135.457 48.2348 135.462 48.2213 135.466 48.2079C135.468 48.2015 135.47 48.1951 135.473 48.1888C135.479 48.1688 135.484 48.1488 135.49 48.1285C135.439 48.0865 135.39 48.0434 135.341 47.9994C135.336 47.9942 135.33 47.9892 135.324 47.9838C135.277 47.9412 135.231 47.8976 135.187 47.8531C135.18 47.8469 135.174 47.8407 135.168 47.8344C135.123 47.7893 135.079 47.7433 135.036 47.6961C135.032 47.6914 135.027 47.6867 135.023 47.682C134.978 47.6327 134.935 47.5827 134.892 47.5315C134.264 46.7752 133.889 45.8183 133.889 44.7776C133.889 43.4187 134.528 42.203 135.535 41.3901V35.7579C135.535 34.9677 134.865 34.3271 134.039 34.3271Z" fill="#4C83B3"/>
<path d="M125.548 32.9953H132.618V34.3272H125.548V32.9953Z" fill="#5A67AD"/>
<path d="M130.8 32.9953H132.618V34.3272H130.8V32.9953Z" fill="#48538A"/>
<path d="M124.078 31.0799V32.4572C124.078 32.754 124.33 32.9945 124.64 32.9945H133.525C133.835 32.9945 134.087 32.754 134.087 32.4572V29.7024C134.087 29.4056 133.835 29.1651 133.525 29.1651H124.64C124.33 29.1651 124.078 29.4058 124.078 29.7024V31.0799Z" fill="#5B9ED6"/>
<path d="M131.565 29.1651V32.9945H133.525C133.835 32.9945 134.087 32.754 134.087 32.4572V29.7024C134.087 29.4056 133.835 29.1651 133.525 29.1651H131.565Z" fill="#4C83B3"/>
<path d="M132.963 41.7683C132.963 43.8179 131.226 45.4796 129.083 45.4796C126.94 45.4796 125.203 43.8179 125.203 41.7683C125.203 39.7186 126.94 38.0569 129.083 38.0569C131.226 38.0569 132.963 39.7186 132.963 41.7683Z" fill="#EF2D57"/>
<path d="M131.282 38.7109C131.713 39.3088 131.966 40.0332 131.966 40.8142C131.966 42.864 130.229 44.5255 128.086 44.5255C127.269 44.5255 126.512 44.2838 125.887 43.8716C126.587 44.8425 127.757 45.4795 129.083 45.4795C131.226 45.4795 132.963 43.8178 132.963 41.7683C132.963 40.4997 132.297 39.3803 131.282 38.7109Z" fill="#D9294F"/>
<path d="M143.156 44.7775C143.156 47.2252 141.082 49.2093 138.523 49.2093C135.964 49.2093 133.89 47.2252 133.89 44.7775C133.89 42.3299 135.964 40.3458 138.523 40.3458C141.082 40.3458 143.156 42.3299 143.156 44.7775Z" fill="#FCDA55"/>
<path d="M141.323 41.2469C141.914 41.991 142.265 42.9192 142.265 43.9258C142.265 46.3735 140.191 48.3576 137.632 48.3576C136.579 48.3576 135.609 48.0217 134.831 47.4563C135.677 48.5214 137.016 49.2093 138.522 49.2093C141.081 49.2093 143.155 47.2251 143.155 44.7774C143.155 43.3365 142.436 42.0565 141.323 41.2469Z" fill="#D9BC4A"/>
<path d="M135.341 47.9565C135.518 48.1038 135.708 48.2386 135.907 48.3593L142.298 42.2458C142.172 42.055 142.031 41.8739 141.877 41.7043C141.849 41.7195 141.821 41.7384 141.797 41.7617L135.401 47.8798C135.376 47.9031 135.357 47.9289 135.341 47.9565Z" fill="#D9BC4A"/>
<path d="M141.424 34.8402C139.768 35.2236 138.471 36.5248 138.471 38.2114V40.3465C138.488 40.3463 138.505 40.3458 138.523 40.3458C141.082 40.3458 143.156 42.3299 143.156 44.7776C143.156 45.9853 142.651 47.08 141.832 47.8792C141.904 47.8836 141.977 47.8863 142.051 47.8863C144.028 47.8863 145.631 46.353 145.631 44.4617V38.2114C145.631 36.5248 144.356 35.1239 142.678 34.8402C142.678 34.8402 141.853 34.7409 141.424 34.8402Z" fill="#F084AD"/>
<path d="M142.677 34.8403C142.228 34.7814 141.81 34.7814 141.424 34.8403C141.411 34.8424 141.398 34.8453 141.386 34.8475C143.045 35.1459 144.301 36.5375 144.301 38.2115V44.4617C144.301 45.8995 143.374 47.1297 142.061 47.6372C141.988 47.7207 141.911 47.8014 141.831 47.8793C141.904 47.8836 141.977 47.8863 142.051 47.8863C144.028 47.8863 145.631 46.353 145.631 44.4617V38.2115C145.631 36.5248 144.356 35.1239 142.677 34.8403Z" fill="#D47499"/>
<path d="M141.441 41.3366C142.487 42.1492 143.155 43.3887 143.155 44.7775C143.155 45.9853 142.65 47.08 141.831 47.8793C141.903 47.8835 141.976 47.8863 142.05 47.8863C144.027 47.8863 145.63 46.353 145.63 44.4617V41.3366H141.441Z" fill="#EF2D57"/>
<path d="M144.301 44.4617C144.301 45.8995 143.374 47.1295 142.061 47.6372C142.027 47.676 141.992 47.7139 141.957 47.7515C141.95 47.7579 141.944 47.7643 141.938 47.7707C141.903 47.8074 141.867 47.8439 141.831 47.8793C141.904 47.8836 141.977 47.8863 142.05 47.8863C144.028 47.8863 145.631 46.353 145.631 44.4617V41.3366H144.301V44.4617Z" fill="#CC264B"/>
<path d="M130.866 41.4276H129.439V40.063C129.439 39.8748 129.28 39.7222 129.083 39.7222C128.887 39.7222 128.727 39.8748 128.727 40.063V41.4276H127.301C127.104 41.4276 126.944 41.58 126.944 41.7681C126.944 41.9563 127.104 42.1088 127.301 42.1088H128.727V43.4734C128.727 43.6616 128.887 43.8142 129.083 43.8142C129.28 43.8142 129.439 43.6616 129.439 43.4734V42.1088H130.866C131.063 42.1088 131.222 41.9563 131.222 41.7681C131.222 41.58 131.063 41.4276 130.866 41.4276Z" fill="white"/>
<path d="M126.532 33.3267C126.335 33.3267 126.176 33.1741 126.176 32.9859V29.1565C126.176 28.9684 126.335 28.8158 126.532 28.8158C126.729 28.8158 126.888 28.9684 126.888 29.1565V32.9859C126.888 33.1741 126.729 33.3267 126.532 33.3267Z" fill="#674297"/>
<path d="M129.089 33.3267C128.892 33.3267 128.732 33.1741 128.732 32.9859V29.1565C128.732 28.9684 128.892 28.8158 129.089 28.8158C129.285 28.8158 129.445 28.9684 129.445 29.1565V32.9859C129.445 33.1741 129.285 33.3267 129.089 33.3267Z" fill="#674297"/>
<path d="M131.645 33.3267C131.449 33.3267 131.289 33.1741 131.289 32.9859V29.1565C131.289 28.9684 131.449 28.8158 131.645 28.8158C131.842 28.8158 132.001 28.9684 132.001 29.1565V32.9859C132.001 33.1741 131.842 33.3267 131.645 33.3267Z" fill="#674297"/>
<path d="M135.278 48.2183C135.187 48.2183 135.096 48.1849 135.026 48.1184C134.887 47.9853 134.887 47.7696 135.026 47.6365L141.422 41.5185C141.561 41.3856 141.787 41.3854 141.926 41.5185C142.065 41.6516 142.065 41.8673 141.926 42.0004L135.53 48.1184C135.46 48.1849 135.369 48.2183 135.278 48.2183Z" fill="#E69326"/>
</g>
</g>
<defs>
<clipPath id="clip0">
<rect width="163" height="144" fill="white"/>
</clipPath>
<clipPath id="clip1">
<rect width="22" height="22" fill="white" transform="translate(14 23)"/>
</clipPath>
<clipPath id="clip2">
<rect width="23" height="23" fill="white" transform="translate(-2 71)"/>
</clipPath>
<clipPath id="clip3">
<rect width="23" height="22" fill="white" transform="translate(122.631 28)"/>
</clipPath>
</defs>
</svg>
