<svg width="151" height="154" viewBox="0 0 151 154" fill="none" xmlns="http://www.w3.org/2000/svg">
<g clip-path="url(#clip0)" filter="url(#filter0_d)">
<path d="M93.386 3L144.535 20.9294L108.422 122.511L57.2734 104.581L93.386 3Z" fill="#F5E7BA"/>
<path d="M85.999 23.777L87.6387 19.1589L89.9634 19.9742L88.3237 24.5911L85.999 23.777Z" fill="#D3C7A1"/>
<path d="M130.594 39.41L126.369 37.9288L128.011 33.3119L132.236 34.7931L130.594 39.41ZM122.141 36.4476L117.907 34.9641L119.549 30.346L123.774 31.8296L122.141 36.4476ZM113.686 33.4829L109.46 32.0017L111.102 27.3837L115.328 28.8529L113.686 33.4829ZM105.233 30.5206L101.005 29.037L102.647 24.4213L106.875 25.9025L105.233 30.5206ZM96.7774 27.5558L92.5518 26.0866L94.1938 21.4686L98.4194 22.9521L96.7774 27.5558Z" fill="#D3C7A1"/>
<path d="M134.824 40.8888L136.466 36.2719L138.791 37.0872L137.149 41.7041L134.824 40.8888Z" fill="#D3C7A1"/>
<path d="M98.7129 98.3351L91.0539 90.4595L80.1143 91.8163L82.575 84.8899L88.8676 81.9024L101.178 47.2713L107.47 44.285L110.478 50.5325L98.1675 85.1612L101.175 91.4099L98.7129 98.3351Z" fill="#CDCDCD"/>
<path d="M113.074 80.0029L103.092 71.3119L107.197 59.7674L115.537 73.0764L113.074 80.0029Z" fill="#E06661"/>
<path d="M80.5264 68.5934L93.7918 68.0507L97.897 56.5062L82.9871 61.6669L80.5264 68.5934Z" fill="#E06661"/>
<path d="M66.9636 73.9993C66.9636 86.169 57.0292 96.0339 44.7738 96.0339C32.5196 96.0339 22.584 86.169 22.584 73.9993C22.584 61.8308 32.5196 51.9647 44.7738 51.9647C57.0292 51.9647 66.9636 61.8308 66.9636 73.9993Z" fill="#C0F5F9"/>
<path d="M6.46484 37.2749H80.4309C83.154 37.2749 85.3619 39.4674 85.3619 42.1715V140.103C85.3619 142.807 83.154 145 80.4309 145H11.3959C8.67154 145 6.46484 142.807 6.46484 140.103V37.2749Z" fill="#85BC94"/>
<path d="M44.7755 49.5164C31.1596 49.5164 20.1201 60.4775 20.1201 73.9993C20.1201 87.5211 31.1596 98.4822 44.7755 98.4822C58.3925 98.4822 69.4308 87.5211 69.4308 73.9993C69.4163 60.4847 58.3864 49.5319 44.7755 49.5164ZM25.0512 73.9993C25.056 72.9987 25.1391 71.9993 25.298 71.0106L31.3956 69.6634C32.3298 69.4577 33.2724 69.2868 34.2163 69.1254C33.9767 72.3699 33.9767 75.6287 34.2163 78.8743C33.2724 78.713 32.3298 78.5408 31.3956 78.3352L25.298 76.9891C25.1391 76.0005 25.056 75.0011 25.0512 73.9993ZM39.2184 68.4834C42.9143 68.1559 46.633 68.1559 50.3289 68.4834C50.6588 72.1535 50.6588 75.8451 50.3289 79.5151C46.633 79.8439 42.9143 79.8439 39.2184 79.5151C38.8885 75.8451 38.8885 72.1535 39.2184 68.4834ZM55.3262 69.1254C56.27 69.2868 57.2127 69.4577 58.1469 69.6634L64.2433 71.0106C64.5852 72.9891 64.5852 75.0106 64.2433 76.9891L58.1469 78.3352C57.2127 78.5408 56.27 78.713 55.3262 78.8767C55.5646 75.6299 55.5646 72.3711 55.3262 69.1254ZM62.5795 65.6287L59.2171 64.8947C57.7376 64.5707 56.258 64.3137 54.764 64.0913C54.5377 62.6078 54.2704 61.1314 53.9526 59.6694L53.2134 56.3305C57.3174 58.2707 60.6245 61.5534 62.5795 65.6287ZM47.7863 54.6652L49.1419 60.7226C49.3502 61.6502 49.5247 62.5851 49.6873 63.5235C46.4187 63.2856 43.1358 63.2856 39.8673 63.5235C40.0298 62.5851 40.2019 61.6502 40.4126 60.7226L41.7682 54.6652C43.7594 54.3293 45.7951 54.3293 47.7863 54.6652ZM36.3459 56.3209L35.6067 59.6598C35.2817 61.129 35.0229 62.5982 34.7977 64.0818C33.3037 64.3041 31.817 64.5707 30.3458 64.8851L26.9822 65.6191C28.9373 61.545 32.2419 58.2623 36.3435 56.3209H36.3459ZM26.9774 82.3699L30.3398 83.1051C31.8194 83.4278 33.2989 83.6849 34.7929 83.9072C35.0169 85.392 35.2865 86.8684 35.6019 88.3292L36.3411 91.6693C32.2359 89.7291 28.9265 86.4452 26.9702 82.3699H26.9774ZM41.7706 93.3334L40.415 87.2772C40.2043 86.3507 40.0322 85.4135 39.8697 84.4786C41.5021 84.5958 43.1418 84.6771 44.7815 84.6771C46.4199 84.6771 48.0548 84.5958 49.6897 84.4786C49.5271 85.4135 49.3526 86.3507 49.1455 87.2772L47.7887 93.3334C45.7975 93.6705 43.7618 93.6705 41.7706 93.3334ZM53.211 91.6789L53.9502 88.3388C54.2776 86.8707 54.5341 85.4015 54.7616 83.918C56.2532 83.6944 57.7424 83.4278 59.2147 83.1146L62.5771 82.3806C60.6208 86.4559 57.3114 89.7386 53.2062 91.6789H53.211Z" fill="#FECE2F"/>
<path d="M25.0518 118.069H64.5003V122.965H25.0518V118.069Z" fill="#55785F"/>
<path d="M29.9824 127.862H59.5688V132.758H29.9824V127.862Z" fill="#55785F"/>
<path d="M42.3105 108.275H47.2416V113.172H42.3105V108.275Z" fill="#55785F"/>
<path d="M32.4482 108.275H37.3793V113.172H32.4482V108.275Z" fill="#55785F"/>
<path d="M52.1729 108.275H57.1039V113.172H52.1729V108.275Z" fill="#55785F"/>
<path d="M71.8942 37.2749V26.5027C71.8954 24.9832 71.1851 23.5511 69.9728 22.6234C68.7617 21.6969 67.1858 21.3801 65.7063 21.7675L6.46484 37.2749H71.8942Z" fill="#6B9777"/>
</g>
<defs>
<filter id="filter0_d" x="-2" y="0" width="155" height="154" filterUnits="userSpaceOnUse" color-interpolation-filters="sRGB">
<feFlood flood-opacity="0" result="BackgroundImageFix"/>
<feColorMatrix in="SourceAlpha" type="matrix" values="0 0 0 0 0 0 0 0 0 0 0 0 0 0 0 0 0 0 127 0"/>
<feOffset dy="3"/>
<feGaussianBlur stdDeviation="3"/>
<feColorMatrix type="matrix" values="0 0 0 0 0 0 0 0 0 0 0 0 0 0 0 0 0 0 0.3 0"/>
<feBlend mode="normal" in2="BackgroundImageFix" result="effect1_dropShadow"/>
<feBlend mode="normal" in="SourceGraphic" in2="effect1_dropShadow" result="shape"/>
</filter>
<clipPath id="clip0">
<rect width="143" height="142" fill="white" transform="translate(4 3)"/>
</clipPath>
</defs>
</svg>
