<svg width="181" height="148" viewBox="0 0 181 148" fill="none" xmlns="http://www.w3.org/2000/svg">
<path d="M78.6119 117.979H83.3429V123.67C82.6399 124.183 81.8894 124.56 81.0914 124.8C80.2998 125.035 79.4606 125.152 78.5739 125.152C77.4403 125.152 76.4143 124.978 75.4959 124.629C74.5776 124.275 73.7923 123.784 73.1399 123.157C72.4876 122.53 71.9841 121.786 71.6294 120.924C71.2748 120.063 71.0974 119.123 71.0974 118.103C71.0974 117.071 71.2653 116.124 71.6009 115.262C71.9429 114.401 72.4274 113.66 73.0544 113.039C73.6814 112.419 74.4383 111.934 75.3249 111.586C76.2179 111.238 77.2154 111.063 78.3174 111.063C78.8874 111.063 79.4194 111.111 79.9134 111.206C80.4074 111.295 80.8634 111.421 81.2814 111.586C81.6994 111.744 82.0826 111.934 82.4309 112.156C82.7793 112.378 83.0959 112.621 83.3809 112.887L82.5544 114.16C82.4278 114.363 82.2631 114.487 82.0604 114.531C81.8578 114.575 81.6361 114.525 81.3954 114.379C81.1674 114.24 80.9426 114.116 80.7209 114.008C80.5056 113.894 80.2744 113.796 80.0274 113.714C79.7804 113.632 79.5113 113.568 79.2199 113.524C78.9286 113.48 78.5929 113.457 78.2129 113.457C77.5733 113.457 76.9938 113.568 76.4744 113.79C75.9551 114.012 75.5118 114.325 75.1444 114.73C74.7834 115.136 74.5048 115.623 74.3084 116.193C74.1121 116.763 74.0139 117.4 74.0139 118.103C74.0139 118.863 74.1216 119.544 74.3369 120.145C74.5523 120.741 74.8563 121.244 75.2489 121.656C75.6416 122.068 76.1103 122.381 76.6549 122.596C77.2059 122.812 77.8171 122.919 78.4884 122.919C78.9444 122.919 79.3498 122.875 79.7044 122.786C80.0654 122.691 80.4169 122.565 80.7589 122.406V120.088H79.2009C79.0173 120.088 78.8716 120.041 78.7639 119.946C78.6626 119.845 78.6119 119.718 78.6119 119.566V117.979ZM88.5415 113.448V116.991H93.1395V119.148H88.5415V122.767H94.4505V125H85.6725V111.215H94.4505V113.448H88.5415ZM106.339 113.514H102.311V125H99.4517V113.514H95.4237V111.215H106.339V113.514ZM82.7082 132.215L77.1602 146H74.5762L69.0282 132.215H71.3272C71.5742 132.215 71.7737 132.276 71.9257 132.396C72.0841 132.51 72.2012 132.659 72.2772 132.842L75.2602 140.784C75.3742 141.082 75.4851 141.408 75.5927 141.763C75.7067 142.111 75.8112 142.479 75.9062 142.865C75.9886 142.479 76.0772 142.111 76.1722 141.763C76.2736 141.408 76.3812 141.082 76.4952 140.784L79.4592 132.842C79.5226 132.684 79.6334 132.542 79.7917 132.415C79.9564 132.282 80.1591 132.215 80.3997 132.215H82.7082ZM86.853 146H83.984V132.215H86.853V146ZM97.203 134.856C97.1143 135.002 97.0225 135.11 96.9275 135.179C96.8388 135.243 96.7217 135.274 96.576 135.274C96.4367 135.274 96.2847 135.227 96.12 135.132C95.9617 135.031 95.7748 134.923 95.5595 134.809C95.3442 134.695 95.0972 134.59 94.8185 134.495C94.5398 134.394 94.2137 134.343 93.84 134.343C93.1813 134.343 92.6873 134.492 92.358 134.79C92.0287 135.081 91.864 135.464 91.864 135.939C91.864 136.243 91.9527 136.497 92.13 136.699C92.3137 136.896 92.5512 137.067 92.8425 137.212C93.1402 137.358 93.4758 137.488 93.8495 137.602C94.2232 137.716 94.6063 137.843 94.999 137.982C95.3917 138.115 95.7748 138.273 96.1485 138.457C96.5222 138.641 96.8547 138.872 97.146 139.15C97.4437 139.429 97.6812 139.771 97.8585 140.176C98.0422 140.575 98.134 141.063 98.134 141.639C98.134 142.266 98.0232 142.855 97.8015 143.406C97.5862 143.951 97.2727 144.429 96.861 144.841C96.4493 145.246 95.9395 145.566 95.3315 145.8C94.7298 146.035 94.0458 146.152 93.2795 146.152C92.8425 146.152 92.4055 146.108 91.9685 146.019C91.5378 145.93 91.1198 145.807 90.7145 145.648C90.3155 145.49 89.9387 145.3 89.584 145.078C89.2293 144.857 88.919 144.61 88.653 144.337L89.489 142.988C89.5587 142.887 89.6505 142.805 89.7645 142.741C89.8785 142.672 89.9988 142.637 90.1255 142.637C90.2965 142.637 90.477 142.7 90.667 142.827C90.857 142.954 91.0755 143.093 91.3225 143.245C91.5695 143.397 91.8545 143.536 92.1775 143.663C92.5068 143.79 92.8995 143.853 93.3555 143.853C94.0205 143.853 94.5335 143.701 94.8945 143.397C95.2618 143.093 95.4455 142.64 95.4455 142.038C95.4455 141.69 95.3537 141.408 95.17 141.193C94.9927 140.978 94.7583 140.797 94.467 140.651C94.1757 140.506 93.8432 140.382 93.4695 140.281C93.0958 140.173 92.7127 140.056 92.32 139.929C91.9273 139.803 91.5442 139.651 91.1705 139.473C90.7968 139.296 90.4643 139.062 90.173 138.77C89.8817 138.479 89.6442 138.118 89.4605 137.687C89.2832 137.257 89.1945 136.722 89.1945 136.082C89.1945 135.569 89.2958 135.072 89.4985 134.59C89.7012 134.109 89.9988 133.682 90.3915 133.308C90.7842 132.934 91.2655 132.633 91.8355 132.405C92.4118 132.177 93.0705 132.063 93.8115 132.063C94.6412 132.063 95.4075 132.193 96.1105 132.453C96.8198 132.706 97.4183 133.061 97.906 133.517L97.203 134.856ZM107.181 140.766L105.689 136.547C105.601 136.326 105.506 136.066 105.404 135.768C105.309 135.471 105.218 135.148 105.129 134.799C105.04 135.154 104.945 135.483 104.844 135.787C104.749 136.085 104.657 136.345 104.568 136.566L103.086 140.766H107.181ZM111.969 146H109.755C109.508 146 109.306 145.943 109.147 145.829C108.995 145.709 108.881 145.557 108.805 145.373L107.874 142.741H102.383L101.452 145.373C101.389 145.531 101.278 145.677 101.12 145.81C100.962 145.937 100.762 146 100.521 146H98.289L103.675 132.215H106.592L111.969 146Z" fill="#525252"/>
<g clip-path="url(#clip0)" filter="url(#filter0_d)">
<path d="M101.542 3L135.041 14.7425L111.39 81.2712L77.8906 69.5287L101.542 3Z" fill="#F5E7BA"/>
<path d="M96.7031 16.6074L97.777 13.5829L99.2995 14.1169L98.2256 17.1406L96.7031 16.6074Z" fill="#D3C7A1"/>
<path d="M125.91 26.846L123.143 25.8759L124.218 22.8522L126.986 23.8223L125.91 26.846ZM120.374 24.9059L117.601 23.9342L118.676 20.9097L121.444 21.8814L120.374 24.9059ZM114.836 22.9642L112.069 21.9941L113.144 18.9696L115.912 19.9319L114.836 22.9642ZM109.301 21.0241L106.532 20.0524L107.607 17.0295L110.376 17.9996L109.301 21.0241ZM103.763 19.0824L100.995 18.1201L102.071 15.0956L104.838 16.0673L103.763 19.0824Z" fill="#D3C7A1"/>
<path d="M128.681 27.8145L129.756 24.7908L131.279 25.3247L130.203 28.3484L128.681 27.8145Z" fill="#D3C7A1"/>
<path d="M105.03 65.4378L100.014 60.2798L92.8496 61.1684L94.4612 56.6321L98.5824 54.6755L106.645 31.9945L110.766 30.0388L112.736 34.1304L104.673 56.8098L106.643 60.9022L105.03 65.4378Z" fill="#CDCDCD"/>
<path d="M114.436 53.4315L107.898 47.7395L110.587 40.1786L116.049 48.8951L114.436 53.4315Z" fill="#E06661"/>
<path d="M93.1191 45.9591L101.807 45.6036L104.496 38.0428L94.7307 41.4227L93.1191 45.9591Z" fill="#E06661"/>
<path d="M84.2364 49.4995C84.2364 57.4698 77.7301 63.9306 69.7037 63.9306C61.678 63.9306 55.1709 57.4698 55.1709 49.4995C55.1709 41.53 61.678 35.0684 69.7037 35.0684C77.7301 35.0684 84.2364 41.53 84.2364 49.4995V49.4995Z" fill="#C0F5F9"/>
<path d="M44.6143 25.4476H93.0568C94.8403 25.4476 96.2863 26.8835 96.2863 28.6545V92.7929C96.2863 94.5639 94.8403 95.9998 93.0568 95.9998H47.8438C46.0595 95.9998 44.6143 94.5639 44.6143 92.7929V25.4476Z" fill="#85BC94"/>
<path d="M69.7051 33.4649C60.7877 33.4649 53.5576 40.6437 53.5576 49.4995C53.5576 58.3553 60.7877 65.5341 69.7051 65.5341C78.6233 65.5341 85.8526 58.3553 85.8526 49.4995C85.8432 40.6484 78.6194 33.4751 69.7051 33.4649V33.4649ZM56.7871 49.4995C56.7903 48.8442 56.8447 48.1896 56.9488 47.5421L60.9423 46.6598C61.5541 46.5251 62.1715 46.4131 62.7896 46.3075C62.6327 48.4323 62.6327 50.5666 62.7896 52.6923C62.1715 52.5866 61.5541 52.4739 60.9423 52.3392L56.9488 51.4576C56.8447 50.8101 56.7903 50.1556 56.7871 49.4995ZM66.0656 45.887C68.4862 45.6725 70.9217 45.6725 73.3423 45.887C73.5583 48.2906 73.5583 50.7084 73.3423 53.112C70.9217 53.3273 68.4862 53.3273 66.0656 53.112C65.8496 50.7084 65.8496 48.2906 66.0656 45.887ZM76.6151 46.3075C77.2333 46.4131 77.8506 46.5251 78.4625 46.6598L82.4552 47.5421C82.6791 48.8379 82.6791 50.1619 82.4552 51.4576L78.4625 52.3392C77.8506 52.4739 77.2333 52.5866 76.6151 52.6939C76.7712 50.5674 76.7712 48.4331 76.6151 46.3075ZM81.3656 44.0174L79.1634 43.5366C78.1944 43.3245 77.2254 43.1561 76.2469 43.0105C76.0987 42.0389 75.9237 41.0719 75.7155 40.1144L75.2314 37.9277C77.9192 39.1984 80.0851 41.3483 81.3656 44.0174ZM71.677 36.837L72.5648 40.8042C72.7012 41.4117 72.8156 42.024 72.922 42.6386C70.7814 42.4828 68.6313 42.4828 66.4906 42.6386C66.597 42.024 66.7098 41.4117 66.8478 40.8042L67.7356 36.837C69.0397 36.617 70.3729 36.617 71.677 36.837ZM64.1844 37.9214L63.7003 40.1081C63.4874 41.0704 63.3179 42.0326 63.1704 43.0042C62.192 43.1499 61.2182 43.3245 60.2547 43.5304L58.0518 44.0111C59.3322 41.3428 61.4965 39.1929 64.1828 37.9214H64.1844ZM58.0486 54.9816L60.2508 55.4631C61.2198 55.6745 62.1888 55.8429 63.1673 55.9885C63.3139 56.9609 63.4905 57.9278 63.6971 58.8846L64.1812 61.0721C61.4926 59.8014 59.3251 57.6507 58.0439 54.9816H58.0486ZM67.7371 62.162L66.8494 58.1956C66.7114 57.5888 66.5986 56.975 66.4922 56.3627C67.5613 56.4395 68.6352 56.4927 69.7091 56.4927C70.7822 56.4927 71.8529 56.4395 72.9236 56.3627C72.8171 56.975 72.7028 57.5888 72.5672 58.1956L71.6786 62.162C70.3745 62.3828 69.0412 62.3828 67.7371 62.162V62.162ZM75.2298 61.0784L75.7139 58.8908C75.9284 57.9294 76.0963 56.9672 76.2453 55.9955C77.2222 55.8491 78.1975 55.6745 79.1618 55.4694L81.364 54.9887C80.0827 57.6577 77.9153 59.8077 75.2267 61.0784H75.2298Z" fill="#FECE2F"/>
<path d="M56.7871 78.3618H82.6231V81.5687H56.7871V78.3618Z" fill="#55785F"/>
<path d="M60.0166 84.7756H79.3936V87.9826H60.0166V84.7756Z" fill="#55785F"/>
<path d="M68.0908 71.9479H71.3203V75.1549H68.0908V71.9479Z" fill="#55785F"/>
<path d="M61.6318 71.9479H64.8613V75.1549H61.6318V71.9479Z" fill="#55785F"/>
<path d="M74.5498 71.9479H77.7793V75.1549H74.5498V71.9479Z" fill="#55785F"/>
<path d="M87.4659 25.4476V18.3926C87.4667 17.3974 87.0015 16.4595 86.2075 15.8519C85.4143 15.2452 84.3822 15.0377 83.4132 15.2913L44.6143 25.4476H87.4659Z" fill="#6B9777"/>
</g>
<defs>
<filter id="filter0_d" x="37" y="0" width="105.655" height="105" filterUnits="userSpaceOnUse" color-interpolation-filters="sRGB">
<feFlood flood-opacity="0" result="BackgroundImageFix"/>
<feColorMatrix in="SourceAlpha" type="matrix" values="0 0 0 0 0 0 0 0 0 0 0 0 0 0 0 0 0 0 127 0"/>
<feOffset dy="3"/>
<feGaussianBlur stdDeviation="3"/>
<feColorMatrix type="matrix" values="0 0 0 0 0 0 0 0 0 0 0 0 0 0 0 0 0 0 0.3 0"/>
<feBlend mode="normal" in2="BackgroundImageFix" result="effect1_dropShadow"/>
<feBlend mode="normal" in="SourceGraphic" in2="effect1_dropShadow" result="shape"/>
</filter>
<clipPath id="clip0">
<rect width="93.6549" height="93" fill="white" transform="translate(43 3)"/>
</clipPath>
</defs>
</svg>
